<?xml version="1.0" encoding="UTF-8"?>
<svg version="1.1" xmlns="http://www.w3.org/2000/svg" width="4500" height="4500">
<path d="M0 0 C1.33224609 0.3705249 1.33224609 0.3705249 2.69140625 0.74853516 C23.58322408 6.71593787 44.36655907 16.24666265 62 29 C62.62342285 29.44666016 63.2468457 29.89332031 63.88916016 30.35351562 C80.4263132 42.25607818 96.05383721 55.24185863 108.79296875 71.23828125 C110.22489254 73.03008677 111.68461728 74.80015413 113.17578125 76.54296875 C127.88881815 93.81706714 138.80473567 114.3563271 148 135 C169.95514675 137.13642215 191.96385631 138.13759373 214 139 C215.20024811 139.04704071 215.20024811 139.04704071 216.42474365 139.09503174 C297.70957606 142.21126713 379.20639087 139.33009899 522.55703855 133.42792678 C553.08146939 132.14937297 583.60798867 130.9443631 614.1382637 129.81258392 C617.42708719 129.69021295 620.71585518 129.56645 624.00460815 129.44219971 C668.40552644 127.76736464 712.7534451 126.79067142 757.1875 126.8125 C758.27430305 126.81261959 759.36110611 126.81273918 760.48084259 126.8128624 C795.02753703 126.81765273 829.49645393 127.11469665 864 129 C865.00206482 129.05327454 866.00412964 129.10654907 867.03656006 129.16143799 C988.08299186 135.61457797 988.08299186 135.61457797 1013 163 C1019.76714009 171.53309523 1021.29838665 178.65648456 1021.24609566 189.38933372 C1021.24840335 190.54772764 1021.25071103 191.70612156 1021.25308865 192.89961833 C1021.25747604 196.12051378 1021.25287941 199.34125338 1021.24453239 202.56213642 C1021.23766207 206.06401472 1021.24240595 209.56588024 1021.24568737 213.06776106 C1021.24983555 219.20694307 1021.24654608 225.34608632 1021.23841095 231.48526382 C1021.22634786 240.6140097 1021.2257387 249.74273111 1021.22749493 258.87148351 C1021.23012376 274.22699632 1021.223436 289.58249192 1021.21146011 304.93799973 C1021.19963084 320.14446472 1021.19192918 335.35092256 1021.18975449 350.55739212 C1021.18961701 351.50246819 1021.18947953 352.44754425 1021.18933788 353.42125899 C1021.18866123 358.22071586 1021.18805846 363.02017274 1021.18748413 367.81962962 C1021.18328199 401.82458218 1021.1698036 435.82952537 1021.15087891 469.83447266 C1021.13251368 502.87223257 1021.11834467 535.90998992 1021.10986328 568.94775391 C1021.1094687 570.47498937 1021.1094687 570.47498937 1021.10906615 572.03307807 C1021.10642914 582.25771908 1021.10387751 592.48236011 1021.10138843 602.70700116 C1021.09631585 623.53624513 1021.09067334 644.36548894 1021.08468628 665.19473267 C1021.0844117 666.15245237 1021.08413712 667.11017208 1021.08385422 668.09691359 C1021.07540712 697.45534708 1021.06454415 726.81377898 1021.05130005 756.17221069 C1021.05073738 757.42262247 1021.05073738 757.42262247 1021.05016333 758.69829509 C1021.03493179 792.46553078 1021.01714461 826.23276523 1021 860 C1068.52 860 1116.04 860 1165 860 C1164.9685791 829.2941687 1164.9685791 829.2941687 1164.93652344 797.96801758 C1164.92312488 784.29922001 1164.90979388 770.63042262 1164.8973999 756.96162415 C1164.89661057 756.09327738 1164.89582123 755.22493061 1164.89500798 754.3302703 C1164.86850781 725.09857552 1164.84750501 695.86687948 1164.83062744 666.63517761 C1164.83007521 665.6811703 1164.82952298 664.72716299 1164.82895402 663.74424636 C1164.81698229 643.01092137 1164.80590158 622.27759599 1164.79573868 601.54427003 C1164.79074935 591.37659985 1164.78556313 581.20892979 1164.78027344 571.04125977 C1164.7797504 570.02945629 1164.77922737 569.01765281 1164.77868848 567.97518862 C1164.76164417 535.1818142 1164.73159973 502.38846736 1164.69481112 469.59510965 C1164.6570736 435.89468121 1164.63245656 402.19426802 1164.62434004 368.49381881 C1164.62318743 363.73348076 1164.62188488 358.97314277 1164.62049103 354.21280479 C1164.62022134 353.27590527 1164.61995164 352.33900574 1164.61967378 351.37371532 C1164.61494756 336.29436721 1164.59639708 321.21506629 1164.57267186 306.13573741 C1164.54911316 290.97461506 1164.54013053 275.81353947 1164.54599449 260.65239946 C1164.54903596 251.64572754 1164.54093348 242.63922685 1164.51680983 233.63258586 C1164.50178749 227.61240868 1164.50136132 221.59234336 1164.51267275 215.5721584 C1164.51869948 212.14427038 1164.51850426 208.71670573 1164.50046727 205.28885267 C1164.48439124 201.58835265 1164.49308169 197.88868664 1164.50780869 194.18819904 C1164.49730063 193.13460401 1164.48679258 192.08100898 1164.4759661 190.99548683 C1164.57476136 179.9932359 1167.18316782 169.73275161 1174.55078125 161.34375 C1209.21466907 128.17256548 1273.33525156 131.80359039 1317.6875 129.3125 C1318.75631409 129.25174286 1319.82512817 129.19098572 1320.92633057 129.12838745 C1353.813981 127.28608848 1386.66505779 126.81145605 1419.59692383 126.81469727 C1423.75061561 126.81477684 1427.90419308 126.80809051 1432.05786133 126.79418945 C1503.42172381 126.56090182 1574.70477157 129.70409037 1645.98883057 132.72924805 C1663.97238868 133.49218714 1681.95632542 134.24621213 1699.94042015 134.996387 C1701.9915969 135.08195512 1704.04277108 135.16758497 1706.09394264 135.2532773 C1775.84555159 138.19925916 1775.84555159 138.19925916 1845.63671875 139.83984375 C1846.65102463 139.8540184 1847.66533051 139.86819305 1848.71037292 139.88279724 C1907.1249693 140.63796322 1965.62690509 140.35184536 2023.93359375 136.3671875 C2028.97134042 136.03014695 2033.9520585 135.92441585 2039 136 C2039.16072998 135.46342773 2039.32145996 134.92685547 2039.48706055 134.37402344 C2041.38462951 128.33979317 2043.86452439 122.83931483 2046.8125 117.25 C2047.28751953 116.34822021 2047.76253906 115.44644043 2048.25195312 114.51733398 C2059.20136657 94.1844705 2073.02373524 75.63440131 2089 59 C2089.4861377 58.49194824 2089.97227539 57.98389648 2090.47314453 57.46044922 C2130.39692258 15.97664077 2187.27203989 -7.57669423 2244.56640625 -9.22265625 C2303.15798543 -10.27618146 2361.94679002 8.38038839 2405 49.09375 C2406.00041765 50.06206869 2407.0003963 51.03084108 2408 52 C2408.56460938 52.53882813 2409.12921875 53.07765625 2409.7109375 53.6328125 C2442.79752063 85.27456667 2461.95150709 127.08347895 2469 172 C2469.17789063 173.10069824 2469.17789063 173.10069824 2469.359375 174.22363281 C2477.8845336 229.51030124 2466.35304143 290.68210647 2433.32373047 336.20654297 C2430.33722042 340.25281793 2427.28710656 344.19316612 2424 348 C2423.34128906 348.76828125 2422.68257812 349.5365625 2422.00390625 350.328125 C2419.7150978 352.93190708 2417.37311693 355.47273801 2415 358 C2414.50790039 358.52609863 2414.01580078 359.05219727 2413.50878906 359.59423828 C2404.45873608 369.19017627 2394.71703167 377.32720453 2384 385 C2383.38044434 385.44827148 2382.76088867 385.89654297 2382.12255859 386.35839844 C2334.9329995 420.20982801 2272.11021316 433.71790172 2214.96630859 424.51123047 C2167.61548118 416.27726374 2116.0537227 394.30876843 2087 354 C2074.29138416 335.58493535 2065.00231781 315.2224639 2055.95043945 294.84399414 C2055.6367038 294.14147522 2055.32296814 293.4389563 2054.99972534 292.71514893 C2054.406621 291.38579152 2053.81741495 290.05468588 2053.23269653 288.72161865 C2052.0408701 286.05306126 2051.08642681 284.08642681 2049 282 C2046.71484951 281.69527483 2046.71484951 281.69527483 2044.01952541 281.74519098 C2042.95716893 281.73926297 2041.89481245 281.73333497 2040.80026335 281.72722733 C2039.03213398 281.73270185 2039.03213398 281.73270185 2037.22828484 281.73828697 C2035.35579363 281.73229288 2035.35579363 281.73229288 2033.44547433 281.72617769 C2029.95373146 281.71528442 2026.46208669 281.71695345 2022.97033275 281.72052841 C2019.18176562 281.72222648 2015.39322635 281.71239052 2011.60467064 281.70397437 C2004.95595443 281.69081349 1998.30726371 281.68511428 1991.658535 281.68421364 C1981.77203058 281.68284103 1971.88556417 281.67007823 1961.99907243 281.6549259 C1945.37070188 281.62976613 1928.74233452 281.61392669 1912.11394882 281.60334396 C1895.64260037 281.59283092 1879.17126407 281.57820915 1862.69992447 281.55806351 C1861.67693802 281.55681464 1860.65395158 281.55556577 1859.59996555 281.55427906 C1854.40503024 281.54791557 1849.21009504 281.54147833 1844.01515986 281.53501268 C1807.19061421 281.48931341 1770.36606461 281.45288147 1733.54150391 281.421875 C1697.76024802 281.39172586 1661.97900022 281.35736047 1626.19775391 281.31738281 C1623.94888397 281.31487611 1621.70001404 281.31236954 1619.4511441 281.30986309 C1601.17901895 281.28947553 1582.90689413 281.26879625 1564.63476939 281.24804622 C1480.08985588 281.15224653 1395.54493593 281.0777707 1311 281 C1311 472.07 1311 663.14 1311 860 C1390.53 860 1470.06 860 1552 860 C1570.433391 869.2166955 1570.433391 869.2166955 1575.9375 872.9375 C1576.52466797 873.32228516 1577.11183594 873.70707031 1577.71679688 874.10351562 C1581.78733525 876.78733525 1581.78733525 876.78733525 1583 878 C1583.32023096 880.51620003 1583.5798678 883.01555489 1583.80360413 885.54098511 C1583.91514168 886.73965609 1583.91514168 886.73965609 1584.02893251 887.96254265 C1584.2788751 890.6606862 1584.52233725 893.35937629 1584.76586914 896.05810547 C1584.94297126 897.9844306 1585.1204655 899.91071971 1585.29832458 901.8369751 C1585.78168443 907.08451465 1586.25942134 912.33255282 1586.7361176 917.58070135 C1587.23488389 923.06222859 1587.73851072 928.54330923 1588.24156189 934.02444458 C1589.08599999 943.23298341 1589.92706612 952.44182515 1590.76586914 961.65087891 C1591.84341642 973.48088431 1592.92636844 985.31038828 1594.01108646 997.13973808 C1594.94212884 1007.29352778 1595.87080776 1017.44753344 1596.79904246 1027.60158014 C1597.09816315 1030.87273088 1597.39758597 1034.14385386 1597.69703865 1037.41497421 C1598.16707709 1042.55128832 1598.63564761 1047.68773436 1599.1030674 1052.82428741 C1599.27514104 1054.71298826 1599.44767689 1056.60164706 1599.62070084 1058.49026108 C1599.85619543 1061.06174297 1600.0900139 1063.63337176 1600.32337952 1066.20504761 C1600.39273447 1066.95825283 1600.46208942 1067.71145805 1600.53354603 1068.48748767 C1600.7907497 1071.33816022 1601 1074.13587203 1601 1077 C1767.98 1077 1934.96 1077 2107 1077 C2107 995.82 2107 914.64 2107 831 C2112.93279439 814.68481543 2122.41903128 805.98142182 2137.92578125 798.73046875 C2211.74355293 766.21138637 2317.95830684 777.72343555 2893.4375 786.0625 C2894.1446817 786.13854462 2894.8518634 786.21458923 2895.58047485 786.29293823 C2920.94877399 789.06497466 2945.81820036 794.44433965 2963.25 814.625 C2975.14716039 830.45530787 2979.09457931 849.894269 2976.70703125 869.39257812 C2973.63817653 890.49507915 2964.77025782 912.90689955 2947.19140625 926.109375 C2938.52116019 931.80326793 2931.90094635 933.29622741 2921.64190102 933.24609566 C2920.48688384 933.24840335 2919.33186667 933.25071103 2918.14184898 933.25308865 C2914.93042373 933.25747595 2911.7191548 933.25287953 2908.50774199 933.24453239 C2905.01612973 933.23766194 2901.52453028 933.24240597 2898.03291547 933.24568737 C2891.91175819 933.24983551 2885.79063977 933.24654615 2879.669487 933.23841095 C2870.56754361 933.22634777 2861.46562477 933.2257387 2852.36367484 933.22749493 C2837.05323984 933.23012375 2821.7428221 933.22343604 2806.43239212 933.21146011 C2791.27058451 933.19963081 2776.10878408 933.19192918 2760.94697189 933.18975449 C2760.00466852 933.18961701 2759.06236515 933.18947953 2758.09150713 933.18933788 C2753.30613035 933.18866123 2748.52075356 933.18805846 2743.73537676 933.18748413 C2709.83025279 933.183282 2675.92513821 933.16980364 2642.02001953 933.15087891 C2609.07926483 933.13251366 2576.1385127 933.11834466 2543.19775391 933.10986328 C2542.18258504 933.10960023 2541.16741618 933.10933718 2540.12148462 933.10906615 C2529.92685041 933.10642914 2519.73221618 933.10387751 2509.53758194 933.10138843 C2488.76946977 933.09631585 2468.00135777 933.09067334 2447.23324585 933.08468628 C2446.27833712 933.0844117 2445.32342839 933.08413712 2444.33958304 933.08385422 C2380.55971812 933.06544926 2316.77985841 933.03375843 2253 933 C2253.00368717 934.23283155 2253.00737434 935.46566311 2253.01117325 936.7358532 C2253.09786588 966.02230429 2253.16379266 995.30872617 2253.20426132 1024.59527384 C2253.20926395 1028.20251352 2253.21444126 1031.80975292 2253.21972656 1035.41699219 C2253.2207758 1036.13510724 2253.22182505 1036.8532223 2253.22290608 1037.59309842 C2253.24029579 1049.20996624 2253.27182553 1060.82675462 2253.30861118 1072.44357537 C2253.3460606 1084.36976957 2253.36824429 1096.29592227 2253.37635398 1108.22217286 C2253.38134268 1114.91835832 2253.39380738 1121.61435268 2253.42292023 1128.31048203 C2253.45011122 1134.61578003 2253.45843738 1140.92082424 2253.45243073 1147.22617531 C2253.4535293 1149.53762123 2253.46146092 1151.84907582 2253.4768219 1154.16047096 C2253.49680692 1157.32334401 2253.4919076 1160.48526648 2253.48101807 1163.64816284 C2253.49266943 1164.55675297 2253.5043208 1165.46534309 2253.51632524 1166.40146625 C2253.36831197 1182.3734413 2242.31494475 1194.69810675 2231.56542969 1205.50048828 C2228.82565129 1208.12489859 2225.95470512 1210.55942189 2223 1212.9375 C2222.46745605 1213.37384766 2221.93491211 1213.81019531 2221.38623047 1214.25976562 C2213.09586066 1220.68226638 2204.66089043 1223.76120457 2194.21358204 1223.61523914 C2193.18111205 1223.62100836 2192.14864205 1223.62677759 2191.08488509 1223.63272163 C2187.63851896 1223.64591582 2184.19332999 1223.62356068 2180.74702454 1223.60127258 C2178.24614874 1223.60345392 2175.74527405 1223.60783357 2173.24440545 1223.61421841 C2167.81413426 1223.62305844 2162.38422483 1223.61642651 2156.95399094 1223.59602737 C2148.87960364 1223.5657798 2140.80538861 1223.56435502 2132.73095498 1223.56873732 C2119.14679488 1223.57529847 2105.56275662 1223.55863163 2091.97863197 1223.52865028 C2078.53188791 1223.49904833 2065.08519461 1223.47981716 2051.6384182 1223.47438622 C2050.80182088 1223.47404252 2049.96522356 1223.47369882 2049.10327481 1223.47334471 C2044.85448627 1223.471653 2040.60569769 1223.4701461 2036.35690906 1223.46871033 C2006.27574665 1223.45821291 1976.19465049 1223.42453909 1946.11352539 1223.37719727 C1916.89315137 1223.33126323 1887.67279548 1223.29585098 1858.45239258 1223.2746582 C1857.1009481 1223.27367176 1857.1009481 1223.27367176 1855.72220172 1223.27266538 C1846.67422412 1223.26607269 1837.62624638 1223.25969363 1828.57826851 1223.25347109 C1810.14708262 1223.24079059 1791.71589791 1223.22668432 1773.28471375 1223.2117157 C1772.43730863 1223.21102925 1771.5899035 1223.2103428 1770.71681944 1223.20963555 C1714.14451714 1223.16364512 1657.57225784 1223.08327775 1601 1223 C1601 1246.43 1601 1269.86 1601 1294 C1916.81 1294 2232.62 1294 2558 1294 C2558.66 1292.35 2559.32 1290.7 2560 1289 C2562.15671537 1284.49410647 2564.41985903 1280.04303015 2566.68408203 1275.59033203 C2567.61014435 1273.7674153 2568.532677 1271.9427033 2569.45263672 1270.11669922 C2581.97775149 1245.30025069 2595.81183139 1223.14616822 2615 1203 C2615.76441406 1202.17113281 2616.52882813 1201.34226562 2617.31640625 1200.48828125 C2644.60362923 1171.81592004 2681.73192935 1157.43440089 2720 1151 C2720.92006836 1150.83483887 2721.84013672 1150.66967773 2722.78808594 1150.49951172 C2753.55990057 1145.1263906 2788.50590594 1145.23954115 2819 1152 C2820.48862549 1152.32145996 2820.48862549 1152.32145996 2822.00732422 1152.64941406 C2865.71395853 1162.35885878 2903.17233825 1186.14651359 2930 1222 C2930.62648438 1222.83144531 2931.25296875 1223.66289063 2931.8984375 1224.51953125 C2959.12190359 1262.03167818 2969.92675903 1307.3236558 2972 1353 C2972.06058594 1354.27101563 2972.12117188 1355.54203125 2972.18359375 1356.8515625 C2973.5199146 1420.20889212 2951.53250993 1486.91125029 2907.65625 1533.24609375 C2906.34140625 1534.60927734 2906.34140625 1534.60927734 2905 1536 C2904.1646875 1536.89847656 2903.329375 1537.79695313 2902.46875 1538.72265625 C2879.38607887 1562.88298221 2848.23767662 1578.82555912 2815.875 1586.25 C2815.22007568 1586.40122314 2814.56515137 1586.55244629 2813.89038086 1586.70825195 C2800.83640432 1589.49799401 2787.74942521 1590.38346961 2774.4375 1590.3125 C2773.70088135 1590.31034485 2772.9642627 1590.3081897 2772.20532227 1590.30596924 C2720.54519144 1590.06523002 2659.65466891 1573.00258002 2621.21875 1537.0625 C2619.24262907 1535.22554251 2617.21045379 1533.52188835 2615.125 1531.8125 C2590.65079826 1510.39757348 2576.19360239 1478.75922889 2562.12158203 1450.20678711 C2561.73856934 1449.43214111 2561.35555664 1448.65749512 2560.9609375 1447.859375 C2560.46279541 1446.84568848 2560.46279541 1446.84568848 2559.95458984 1445.81152344 C2558.90916054 1443.75232784 2558.90916054 1443.75232784 2557 1441 C2554.10387305 1440.54234019 2554.10387305 1440.54234019 2550.62170303 1440.62099248 C2549.95527434 1440.6164638 2549.28884564 1440.61193511 2548.60222214 1440.60726919 C2546.34251771 1440.59563718 2544.08340493 1440.60559129 2541.82369804 1440.61523914 C2540.19097434 1440.61131608 2538.55825335 1440.60607726 2536.92553765 1440.59963337 C2532.40149618 1440.58564665 2527.87763497 1440.59053119 2523.35358559 1440.59826221 C2518.446016 1440.60337852 2513.53848585 1440.59119213 2508.63092816 1440.58113068 C2500.01750447 1440.56588764 2491.40413096 1440.56184968 2482.79069519 1440.56500816 C2469.98271127 1440.56965468 2457.17478452 1440.55721196 2444.36681184 1440.54117843 C2422.82495444 1440.51469993 2401.28310991 1440.50221363 2379.74123764 1440.49761391 C2358.40223242 1440.49301209 2337.06324531 1440.48227423 2315.72424698 1440.46318626 C2315.06199241 1440.46259669 2314.39973785 1440.46200712 2313.71741497 1440.46139968 C2307.6689039 1440.45601171 2301.62039291 1440.45054729 2295.57188199 1440.44499113 C2280.53471874 1440.43117894 2265.49755474 1440.41832578 2250.46039009 1440.40612316 C2249.77556585 1440.40556666 2249.0907416 1440.40501016 2248.38516511 1440.40443679 C2215.05739898 1440.37743769 2181.72962877 1440.36148692 2148.40185547 1440.34643555 C2136.8336995 1440.34120504 2125.26554355 1440.33592573 2113.6973877 1440.33044434 C2112.62122752 1440.32993449 2112.62122752 1440.32993449 2111.52332673 1440.32941434 C2078.1828642 1440.31355185 2044.84240858 1440.28985027 2011.50195238 1440.26412141 C2009.33795651 1440.2624516 2007.17396064 1440.26078517 2005.00996477 1440.25911942 C1990.66927359 1440.24807522 1976.32858251 1440.23689579 1961.98789151 1440.2256258 C1933.45250439 1440.20320175 1904.9171167 1440.18157235 1876.38172856 1440.16048871 C1875.02274224 1440.15948461 1873.66375592 1440.15847995 1872.3047696 1440.15747473 C1781.86985499 1440.09058841 1691.43492835 1440.04385484 1601 1440 C1601 1463.76 1601 1487.52 1601 1512 C1612.32925812 1511.9800145 1612.32925812 1511.9800145 1623.88739014 1511.95962524 C1673.76770292 1511.8736379 1723.64801621 1511.79435607 1773.52838135 1511.74594116 C1774.37961588 1511.74511282 1775.2308504 1511.74428448 1776.10787992 1511.74343103 C1794.60774867 1511.72547335 1813.10761839 1511.70885229 1831.60748957 1511.69360802 C1840.67989561 1511.68612404 1849.75230138 1511.67834471 1858.82470703 1511.67041016 C1860.17892311 1511.66923332 1860.17892311 1511.66923332 1861.56049709 1511.66803272 C1890.82025167 1511.64246719 1920.07993669 1511.59740126 1949.33964914 1511.54221668 C1979.40921508 1511.48560773 2009.47874253 1511.44868423 2039.54836086 1511.43651006 C2043.79602698 1511.43478114 2048.04369298 1511.43282732 2052.29135895 1511.43073654 C2053.12735591 1511.430332 2053.96335288 1511.42992747 2054.82468308 1511.42951067 C2068.27891409 1511.4224219 2081.73302606 1511.39459776 2095.18720853 1511.3590078 C2108.71506587 1511.32366587 2122.24280527 1511.31019672 2135.77070716 1511.31899174 C2143.8067719 1511.32355327 2151.84240476 1511.31140697 2159.87839148 1511.27521474 C2165.88179893 1511.25002562 2171.88474417 1511.25625369 2177.88819423 1511.27460663 C2180.31505216 1511.27714213 2182.74194651 1511.26952718 2185.16873273 1511.25070091 C2208.49016099 1511.08030842 2208.49016099 1511.08030842 2218 1518 C2218.64578876 1518.45151574 2219.29157753 1518.90303148 2219.95693564 1519.36822951 C2221.59900405 1520.60057194 2223.14803768 1521.95415089 2224.6875 1523.3125 C2225.22729492 1523.7883252 2225.76708984 1524.26415039 2226.32324219 1524.75439453 C2227.89684098 1526.15434515 2229.45019729 1527.57381066 2231 1529 C2231.82628906 1529.74378906 2232.65257813 1530.48757813 2233.50390625 1531.25390625 C2242.90713305 1540.13382304 2252.80689622 1552.52357221 2253.49219131 1565.97864723 C2253.50873833 1567.75698284 2253.50391984 1569.53560817 2253.48101807 1571.31387329 C2253.48443577 1572.30247011 2253.48785347 1573.29106692 2253.49137473 1574.30962121 C2253.497921 1577.59555141 2253.47603106 1580.88065 2253.45410156 1584.16650391 C2253.45297238 1586.53248068 2253.45360832 1588.89845885 2253.45587158 1591.26443481 C2253.45701689 1597.6687207 2253.43353673 1604.0727055 2253.40557575 1610.47692156 C2253.3830713 1616.49733588 2253.37907917 1622.51773933 2253.37496826 1628.53818683 C2253.36623067 1640.45666678 2253.33965701 1652.37503674 2253.30175781 1664.29345703 C2253.26499781 1675.86571709 2253.23670563 1687.43794719 2253.21972656 1699.01025391 C2253.21867567 1699.72450561 2253.21762477 1700.43875731 2253.21654204 1701.17465301 C2253.21132159 1704.75812358 2253.20626683 1708.34159436 2253.20129442 1711.92506528 C2253.15988028 1741.61678307 2253.08917493 1771.30838629 2253 1801 C2253.58482452 1800.99937608 2254.16964905 1800.99875216 2254.77219553 1800.99810933 C2318.44572053 1800.93032103 2382.11924962 1800.86749975 2445.7928009 1800.83062744 C2446.74398874 1800.83007521 2447.69517658 1800.82952298 2448.67518829 1800.82895402 C2469.34724688 1800.81698229 2490.01930587 1800.80590157 2510.69136543 1800.79573868 C2520.82899306 1800.79074935 2530.96662058 1800.78556313 2541.10424805 1800.78027344 C2542.11306184 1800.7797504 2543.12187563 1800.77922737 2544.16125954 1800.77868848 C2576.85763038 1800.76164423 2609.55397357 1800.73159983 2642.25032765 1800.69481112 C2675.85111959 1800.65707345 2709.45189622 1800.63245653 2743.05270899 1800.62434004 C2747.79899244 1800.62318743 2752.54527584 1800.62188488 2757.29155922 1800.62049103 C2758.22569245 1800.62022134 2759.15982567 1800.61995164 2760.12226596 1800.61967378 C2775.15698215 1800.6149476 2790.19165101 1800.5963972 2805.2263479 1800.57267186 C2820.34266198 1800.54911294 2835.45892916 1800.54013058 2850.57526096 1800.54599449 C2859.55527166 1800.54903591 2868.53511062 1800.54093385 2877.5150903 1800.51680983 C2883.51749583 1800.50178716 2889.51978916 1800.50136155 2895.5222025 1800.51267275 C2898.93994045 1800.51869931 2902.35735409 1800.51850497 2905.77505698 1800.50046727 C2909.46466617 1800.48439046 2913.15343896 1800.49308216 2916.8430357 1800.50780869 C2917.89342204 1800.49730063 2918.94380838 1800.48679258 2920.02602461 1800.4759661 C2932.05085033 1800.58425373 2942.14858011 1803.79047697 2951 1812 C2951.67546875 1812.58523438 2952.3509375 1813.17046875 2953.046875 1813.7734375 C2968.41081636 1827.8868255 2976.23257092 1851.13527802 2977.16015625 1871.51953125 C2977.75755777 1892.20902662 2972.12032816 1910.3621484 2957.875 1925.625 C2940.26239971 1942.52115553 2916.86524245 1945.85696685 2893.6875 1948.4375 C2892.74961639 1948.54294128 2891.81173279 1948.64838257 2890.84542847 1948.75701904 C2848.12907488 1953.50777068 2805.1503013 1955.66006561 2762.21508789 1957.29443359 C2761.44853221 1957.32362184 2760.68197653 1957.35281009 2759.89219189 1957.38288283 C2742.1602604 1958.05395313 2724.42627401 1958.61518923 2706.6875 1959.0703125 C2705.84832661 1959.09190524 2705.00915321 1959.11349798 2704.14455032 1959.13574505 C2659.10126593 1960.28323859 2614.05915269 1960.3058363 2569.003932 1960.25713813 C2561.23746693 1960.24961274 2553.47105303 1960.25231131 2545.70458984 1960.26074219 C2499.29135354 1960.3097845 2452.89847296 1960.15033558 2406.49609375 1959.0703125 C2405.59524677 1959.04942472 2404.6943998 1959.02853693 2403.76625443 1959.00701618 C2335.37622253 1957.40941438 2266.84410059 1955.10544014 2198.6875 1949 C2197.85869324 1948.9282254 2197.02988647 1948.85645081 2196.17596436 1948.78250122 C2179.90913058 1947.34894082 2163.32404242 1945.09932076 2147.875 1939.625 C2146.57030762 1939.17447266 2146.57030762 1939.17447266 2145.23925781 1938.71484375 C2130.03291823 1933.31371602 2115.97084798 1924.82990025 2108.76171875 1909.89453125 C2077.4387706 1831.98873714 2107 1741.96689726 2107 1658 C1940.02 1658 1773.04 1658 1601 1658 C1600.14374616 1674.96716235 1600.14374616 1674.96716235 1599.8125 1691.9375 C1599.81330566 1692.98574951 1599.81411133 1694.03399902 1599.81494141 1695.11401367 C1599.92974991 1710.90468468 1600.95608445 1726.67507866 1601.85424805 1742.43634033 C1602.24094835 1749.23808779 1602.61728909 1756.04040817 1602.99127197 1762.84286499 C1603.12120228 1765.1816402 1603.25535918 1767.52014238 1603.39013672 1769.85864258 C1604.90395318 1796.59150892 1604.97171943 1824.9069002 1586.62890625 1846.33203125 C1552.80110874 1880.66247062 1488.90076643 1876.47454371 1444.75 1878.625 C1442.83208649 1878.7187944 1442.83208649 1878.7187944 1440.87542725 1878.81448364 C1410.05242071 1880.30320851 1379.22891343 1881.12742837 1348.375 1881.5625 C1347.65383121 1881.57284019 1346.93266243 1881.58318039 1346.18964005 1881.59383392 C1319.79108554 1881.97225354 1293.4013075 1882.19892992 1267 1882 C1265.76189575 1881.99139954 1264.5237915 1881.98279907 1263.24816895 1881.97393799 C1187.11386075 1881.43378723 1111.0083509 1879.1825643 1034.9116931 1876.84352922 C1032.24143018 1876.76145535 1029.57116427 1876.67947906 1026.90089798 1876.59751511 C1011.01860899 1876.10980466 995.13633024 1875.62174063 979.25457764 1875.11682129 C956.71258611 1874.40024569 934.16993697 1873.71506553 911.62563848 1873.07490921 C908.97182536 1872.99919618 906.31804237 1872.92249484 903.66426468 1872.84555054 C860.56365246 1871.59892269 817.51289822 1870.81949653 774.39337254 1871.20089889 C770.44481325 1871.23495621 766.49622709 1871.26477604 762.54763293 1871.29446775 C757.635259 1871.33154539 752.72290158 1871.37062198 747.81054688 1871.41015625 C746.84050547 1871.41794487 745.87046407 1871.4257335 744.87102747 1871.43375814 C733.91436449 1871.52328762 722.95857616 1871.63675482 712.00268555 1871.79541016 C703.01259346 1871.92531737 694.02320192 1872.01079907 685.03223401 1872.04772127 C680.36064413 1872.06863342 675.6916181 1872.1096759 671.02095604 1872.20763016 C647.2046118 1872.69300234 629.30284949 1870.21860906 608 1859 C606.87553357 1858.51175719 606.87553357 1858.51175719 605.72835064 1858.01365089 C604 1857 604 1857 603 1854 C602.70602485 1851.50222755 602.45373893 1849.01561875 602.23435974 1846.51116943 C602.16408493 1845.74175372 602.09381011 1844.97233801 602.02140576 1844.17960668 C601.78612512 1841.59367082 601.55604043 1839.00729892 601.32592773 1836.42089844 C601.15859695 1834.56974092 600.99095643 1832.71861138 600.82302856 1830.86750793 C600.36724365 1825.83255237 599.91604203 1820.79719559 599.46581149 1815.76174068 C598.99424755 1810.4943823 598.51907736 1805.22734907 598.04444885 1799.96026611 C597.24752127 1791.10997062 596.45358434 1782.25941058 595.66137695 1773.40869141 C594.74576895 1763.17975319 593.82535068 1752.95125645 592.90235752 1742.72298217 C592.01474992 1732.88548697 591.13067087 1723.04767766 590.24815559 1713.20972443 C589.87253287 1709.02319102 589.49565631 1704.83677329 589.11776543 1700.65044403 C588.6725089 1695.71613008 588.23033918 1690.78154892 587.79053116 1685.84674644 C587.62874797 1684.03707236 587.4659076 1682.22749243 587.30192375 1680.41801643 C587.07794023 1677.9445147 586.85782069 1675.47069789 586.63865662 1672.99676514 C586.57319261 1672.28381216 586.50772861 1671.57085918 586.44028085 1670.83630157 C586.06208874 1666.50943999 586 1662.3718062 586 1658 C419.02 1658 252.04 1658 80 1658 C80 1738.52 80 1819.04 80 1902 C77.62341758 1909.9219414 76.17177069 1914.18322389 71 1920 C70.40058594 1920.680625 69.80117187 1921.36125 69.18359375 1922.0625 C52.43011292 1939.93287955 24.58539197 1944.81274525 1.30859375 1947.515625 C-0.31225632 1947.70620483 -0.31225632 1947.70620483 -1.96585083 1947.90063477 C-13.41475898 1949.21301154 -24.88300465 1950.16012175 -36.375 1951 C-37.50325195 1951.08337616 -38.63150391 1951.16675232 -39.79394531 1951.25265503 C-83.48726854 1954.45954954 -127.21903195 1956.19967376 -171 1957.625 C-171.96135864 1957.65653797 -172.92271729 1957.68807594 -173.91320801 1957.72056961 C-187.33070794 1958.16037489 -200.74891805 1958.56099755 -214.16875076 1958.92274094 C-216.89292075 1958.99707802 -219.61697745 1959.07473452 -222.34103394 1959.15310669 C-267.95618231 1960.44230064 -313.6023458 1960.18764182 -359.23107183 1960.18511152 C-367.21257501 1960.18541281 -375.19404398 1960.19354212 -383.17553711 1960.20581055 C-428.91594421 1960.27449218 -474.63904784 1960.24031394 -520.3671875 1959.07421875 C-521.19190339 1959.05327329 -522.01661929 1959.03232784 -522.86632657 1959.01074767 C-742.06144002 1953.3966427 -742.06144002 1953.3966427 -771.83984375 1925.34765625 C-787.30290752 1908.54240973 -791.05986438 1889.00039809 -790.1953125 1866.83544922 C-789.72294674 1859.97787932 -788.13708642 1853.51372232 -786 1847 C-785.67854004 1846.01845947 -785.67854004 1846.01845947 -785.35058594 1845.01708984 C-779.48270433 1827.75082687 -769.23028843 1812.75804802 -753 1804 C-745.76663159 1800.67656046 -738.5097579 1800.85776679 -730.7043705 1800.87695217 C-729.55610682 1800.87579833 -728.40784315 1800.87464448 -727.2247836 1800.87345567 C-724.03234119 1800.87126214 -720.8399381 1800.87356015 -717.64749882 1800.87773381 C-714.1764212 1800.88116915 -710.7053468 1800.87879699 -707.23426855 1800.87715632 C-701.14917161 1800.87508229 -695.06408445 1800.87672686 -688.97898865 1800.88079453 C-679.93065477 1800.88682621 -670.88232707 1800.88713064 -661.83399155 1800.88625254 C-646.61371777 1800.88493814 -631.39344833 1800.88828193 -616.17317581 1800.89426994 C-601.10068363 1800.90018463 -586.02819325 1800.90403542 -570.95569992 1800.90512276 C-569.55056294 1800.90522587 -569.55056294 1800.90522587 -568.11703936 1800.90533106 C-563.35982275 1800.90566939 -558.60260614 1800.90597077 -553.84538953 1800.90625793 C-520.13992642 1800.90835899 -486.43446568 1800.91509815 -452.72900391 1800.92456055 C-419.98225924 1800.93374319 -387.23551522 1800.94082768 -354.48876953 1800.94506836 C-353.47957689 1800.94519989 -352.47038425 1800.94533141 -351.43061002 1800.94546692 C-341.29598939 1800.94678543 -331.16136876 1800.94806125 -321.02674813 1800.94930578 C-300.38089968 1800.95184207 -279.73505127 1800.95466333 -259.08920288 1800.95765686 C-258.13991611 1800.95779415 -257.19062934 1800.95793144 -256.2125763 1800.95807289 C-192.80838322 1800.96727535 -129.40419145 1800.98312076 -66 1801 C-66.00553076 1799.7638583 -66.01106152 1798.5277166 -66.01675987 1797.25411606 C-66.14684711 1767.87768594 -66.24571296 1738.50132152 -66.30639198 1709.12467454 C-66.31389577 1705.50499086 -66.32166175 1701.88530778 -66.32958984 1698.265625 C-66.33116371 1697.54504395 -66.33273757 1696.8244629 -66.33435912 1696.08204606 C-66.36043156 1684.43091089 -66.40771927 1672.77995425 -66.46291678 1661.12892482 C-66.51912508 1649.16430672 -66.55237358 1637.1997818 -66.56453097 1625.23503709 C-66.57200839 1618.5185643 -66.59066754 1611.80252065 -66.63438034 1605.08617401 C-66.67522222 1598.75944651 -66.68764525 1592.43328832 -66.67864609 1586.1064415 C-66.68029151 1583.78936795 -66.69215658 1581.47227461 -66.71523285 1579.1553154 C-66.92825724 1556.65578948 -66.92825724 1556.65578948 -60 1547 C-59.39904699 1546.14585384 -58.79809399 1545.29170769 -58.17893028 1544.41167831 C-50.2664688 1533.63502232 -39.61614243 1522.70584878 -28 1516 C-27.46390794 1515.67088627 -26.92781587 1515.34177255 -26.3754786 1515.00268568 C-20.71404367 1511.80203529 -15.97156634 1511.4368864 -9.55149078 1511.50780869 C-8.51910558 1511.50319331 -7.48672037 1511.49857793 -6.42305076 1511.49382269 C-2.95906071 1511.48322382 0.50418763 1511.50118896 3.96813965 1511.51898193 C6.47467488 1511.51723777 8.98120941 1511.51373571 11.48774004 1511.50862527 C16.93962577 1511.50154155 22.39128138 1511.50688491 27.84314346 1511.5231781 C35.94977617 1511.54733784 44.05629884 1511.54851951 52.16296098 1511.54501015 C65.80019727 1511.53975657 79.43735599 1511.55311244 93.0745697 1511.57707977 C106.57682173 1511.60074908 120.07904146 1511.6161438 133.58131409 1511.62049103 C134.84067843 1511.62090347 134.84067843 1511.62090347 136.12548449 1511.62132424 C140.38928 1511.62267757 144.65307555 1511.6238831 148.91687113 1511.62503174 C179.11615222 1511.63343305 209.31539112 1511.66038155 239.51464844 1511.69824219 C268.85253678 1511.73498048 298.19041357 1511.76331466 327.52832031 1511.78027344 C328.43266599 1511.78079954 329.33701166 1511.78132565 330.26876175 1511.78186769 C339.35058506 1511.78714178 348.43240846 1511.79224504 357.51423193 1511.79722313 C376.01490036 1511.80736794 394.51556803 1511.81865295 413.01623535 1511.83062744 C413.86686332 1511.8311766 414.71749129 1511.83172576 415.59389586 1511.83229156 C472.39594914 1511.86909329 529.19797504 1511.93338733 586 1512 C586 1488.24 586 1464.48 586 1440 C494.94260333 1439.94185862 403.88520682 1439.89339258 312.82778931 1439.90492249 C311.4673037 1439.90509141 310.1068181 1439.90526032 308.74633249 1439.90542922 C280.19036159 1439.90901455 251.63439128 1439.91445132 223.07842116 1439.92202731 C208.7341445 1439.92583091 194.38986777 1439.92927868 180.04559094 1439.93239004 C177.88178985 1439.93286144 175.71798876 1439.93334301 173.55418767 1439.933825 C140.22853961 1439.94115875 106.90291308 1439.94085391 73.57727051 1439.91845703 C72.86055652 1439.9179755 72.14384253 1439.91749397 71.40540994 1439.91699785 C59.84961108 1439.90918766 48.29381269 1439.90073732 36.73801435 1439.89220202 C3.46006004 1439.86763217 -29.81786666 1439.84778373 -63.09583092 1439.8592844 C-63.77994228 1439.85951852 -64.46405364 1439.85975264 -65.16889565 1439.85999385 C-80.18559974 1439.86521795 -95.20230156 1439.87287735 -110.21900322 1439.88284367 C-116.26091465 1439.88681066 -122.30282629 1439.89042696 -128.34473801 1439.89392281 C-129.00600525 1439.89431387 -129.66727249 1439.89470494 -130.34857813 1439.89510786 C-152.32653662 1439.90792548 -174.3043015 1439.8894305 -196.28222837 1439.85746904 C-217.68732543 1439.82700069 -239.09222117 1439.82905432 -260.49731214 1439.86465739 C-273.22708847 1439.88483286 -285.95628068 1439.87972083 -298.68601088 1439.83898403 C-307.17899716 1439.81425723 -315.67154766 1439.82189856 -324.16449931 1439.85633323 C-329.01069854 1439.8750414 -333.85575475 1439.87922692 -338.70188828 1439.84409653 C-343.10663073 1439.81244183 -347.5092632 1439.82181157 -351.91389414 1439.86460082 C-353.50139861 1439.87271123 -355.08906859 1439.86557776 -356.67641487 1439.84174454 C-365.03938331 1439.45303588 -365.03938331 1439.45303588 -372.23705988 1442.97360945 C-373.80116286 1445.26840861 -374.94208 1447.43855367 -376 1450 C-376.5254541 1450.98452148 -377.0509082 1451.96904297 -377.59228516 1452.98339844 C-377.98722168 1453.8499707 -378.3821582 1454.71654297 -378.7890625 1455.609375 C-379.24925781 1456.60066406 -379.70945312 1457.59195312 -380.18359375 1458.61328125 C-380.65925781 1459.64839844 -381.13492187 1460.68351562 -381.625 1461.75 C-405.58229369 1512.60671117 -441.4926773 1555.00409836 -495.4453125 1574.65234375 C-552.73292909 1594.48386474 -623.4157456 1593.12714083 -678.33300781 1567.09741211 C-691.56114328 1560.59918029 -703.95064241 1552.77443172 -715 1543 C-715.97453125 1542.14664062 -716.9490625 1541.29328125 -717.953125 1540.4140625 C-735.60471762 1524.73731451 -748.84154161 1506.75482036 -760 1486 C-760.36722168 1485.31776367 -760.73444336 1484.63552734 -761.11279297 1483.93261719 C-791.35770413 1426.5681497 -791.66231704 1353.74136127 -773.25 1292.75 C-761.87969217 1256.52629591 -743.12441622 1224.45073273 -717 1197 C-716.34773438 1196.29488281 -715.69546875 1195.58976562 -715.0234375 1194.86328125 C-708.96355764 1188.50685408 -702.0317692 1183.22546023 -695 1178 C-694.43990234 1177.57960449 -693.87980469 1177.15920898 -693.30273438 1176.72607422 C-676.37434993 1164.19887081 -656.36600535 1155.19047221 -636 1150 C-634.86933105 1149.70706055 -634.86933105 1149.70706055 -633.71582031 1149.40820312 C-579.28254486 1135.69018632 -520.56168845 1148.910212 -471 1173 C-470.30938477 1173.33499512 -469.61876953 1173.66999023 -468.90722656 1174.01513672 C-420.61795262 1197.78121985 -395.92958361 1242.61168855 -373 1289 C-372.34 1290.32 -371.68 1291.64 -371 1293 C-55.19 1293.33 260.62 1293.66 586 1294 C586 1270.57 586 1247.14 586 1223 C574.67074188 1223.0199855 574.67074188 1223.0199855 563.11260986 1223.04037476 C513.23229708 1223.1263621 463.35198379 1223.20564393 413.47161865 1223.25405884 C412.62038412 1223.25488718 411.7691496 1223.25571552 410.89212008 1223.25656897 C392.39225133 1223.27452665 373.89238161 1223.29114771 355.39251043 1223.30639198 C346.32010439 1223.31387596 337.24769862 1223.32165529 328.17529297 1223.32958984 C326.82107689 1223.33076668 326.82107689 1223.33076668 325.43950291 1223.33196728 C296.17974833 1223.35753281 266.92006331 1223.40259874 237.66035086 1223.45778332 C207.59078492 1223.51439227 177.52125747 1223.55131577 147.45163914 1223.56348994 C143.20397302 1223.56521886 138.95630702 1223.56717268 134.70864105 1223.56926346 C133.87264409 1223.569668 133.03664712 1223.57007253 132.17531692 1223.57048933 C118.72108591 1223.5775781 105.26697394 1223.60540224 91.81279147 1223.6409922 C78.28493413 1223.67633413 64.75719473 1223.68980328 51.22929284 1223.68100826 C43.1932281 1223.67644673 35.15759524 1223.68859303 27.12160852 1223.72478526 C21.11820107 1223.74997438 15.11525583 1223.74374631 9.11180577 1223.72539337 C6.68494784 1223.72285787 4.25805349 1223.73047282 1.83126727 1223.74929909 C-21.49016099 1223.91969158 -21.49016099 1223.91969158 -31 1217 C-31.64578876 1216.54848426 -32.29157753 1216.09696852 -32.95693564 1215.63177049 C-34.59900405 1214.39942806 -36.14803768 1213.04584911 -37.6875 1211.6875 C-38.22656982 1211.213125 -38.76563965 1210.73875 -39.32104492 1210.25 C-40.89682226 1208.84993462 -42.45143058 1207.43004075 -44 1206 C-44.83789062 1205.23300781 -45.67578125 1204.46601562 -46.5390625 1203.67578125 C-55.22844108 1195.35965777 -65.83453004 1183.5593964 -66.61523914 1170.97450066 C-66.63592974 1169.17385833 -66.62988907 1167.37276892 -66.60127258 1165.57223511 C-66.60768077 1164.0709639 -66.60768077 1164.0709639 -66.61421841 1162.53936398 C-66.6224031 1159.21181111 -66.59503737 1155.88554067 -66.56762695 1152.55810547 C-66.56621551 1150.16257253 -66.56701034 1147.76703742 -66.56983948 1145.37150574 C-66.57112286 1139.55870545 -66.54951528 1133.74631986 -66.51765118 1127.93361418 C-66.48179714 1121.1655187 -66.47441573 1114.39748074 -66.46871033 1107.62930359 C-66.45778787 1095.56105003 -66.4245696 1083.49296619 -66.37719727 1071.42480469 C-66.33124843 1059.70703984 -66.29588267 1047.98932122 -66.2746582 1036.27148438 C-66.27334459 1035.54827168 -66.27203097 1034.82505899 -66.27067754 1034.07993077 C-66.26415199 1030.45150809 -66.25783354 1026.82308508 -66.25161803 1023.19466186 C-66.19984889 993.1296557 -66.11146608 963.06484777 -66 933 C-66.58876497 933.00062392 -67.17752993 933.00124784 -67.78413626 933.00189067 C-131.87737188 933.06966924 -195.97061157 933.13249186 -260.06387329 933.16937256 C-261.02111425 933.16992479 -261.97835521 933.17047702 -262.96460347 933.17104598 C-283.7674987 933.18301731 -304.57039431 933.19409808 -325.3732905 933.20426132 C-335.57486953 933.20925071 -345.77644846 933.21443692 -355.97802734 933.21972656 C-357.5008055 933.22051112 -357.5008055 933.22051112 -359.05434686 933.22131152 C-391.96569417 933.23836012 -424.87701403 933.26840776 -457.78834471 933.30518888 C-491.60602743 933.34291433 -525.42369496 933.36754063 -559.24139836 933.37565996 C-564.01675326 933.3768126 -568.79210809 933.37811515 -573.56746292 933.37950897 C-574.50733102 933.37977866 -575.44719911 933.38004836 -576.41554806 933.38032622 C-591.55127854 933.38505503 -606.68696206 933.40361251 -621.82267337 933.42732814 C-637.03527334 933.4508696 -652.24782671 933.4598738 -667.46044426 933.45400551 C-676.50107342 933.45096078 -685.54153218 933.45909566 -694.58213061 933.48319017 C-700.62111376 933.49818677 -706.65998529 933.49865676 -712.69897614 933.48732725 C-716.14006546 933.48128706 -719.58083245 933.48155118 -723.02188723 933.49953273 C-726.73144511 933.51554802 -730.44016506 933.50695543 -734.1497097 933.49219131 C-735.74673685 933.5079534 -735.74673685 933.5079534 -737.37602717 933.5240339 C-747.97642434 933.42847722 -756.04673352 929.90678405 -764 923 C-764.65742187 922.43667969 -765.31484375 921.87335937 -765.9921875 921.29296875 C-781.331705 907.1173446 -789.29312317 884.8120942 -790.3828125 864.265625 C-790.96899277 844.95821299 -787.16548301 826.55053596 -773.9375 811.6875 C-756.20589129 792.95030058 -731.47887602 788.81860052 -706.9375 786.0625 C-705.85545792 785.93985275 -705.85545792 785.93985275 -704.7515564 785.81472778 C-635.55957979 778.07607252 -565.56778918 776.48692317 -496 775 C-495.2840416 774.98469238 -494.56808319 774.96938477 -493.83042908 774.95361328 C-407.68893295 773.12748695 -321.46210534 773.42202946 67.5625 810.375 C74.60402161 817.18219477 77.62602692 823.50410768 80 833 C80 913.52 80 994.04 80 1077 C246.98 1077 413.96 1077 586 1077 C586.33 1071.06 586.66 1065.12 587 1059 C587.80890974 1049.21249692 587.80890974 1049.21249692 588.12869263 1045.79592896 C588.19966282 1045.03338428 588.27063301 1044.27083961 588.34375381 1043.48518753 C588.45396677 1042.3020302 588.45396677 1042.3020302 588.56640625 1041.0949707 C588.72283725 1039.38943436 588.87898698 1037.6838722 589.03488159 1035.97828674 C589.45340267 1031.40850431 589.87591891 1026.83909981 590.29932785 1022.269768 C590.74409691 1017.46334254 591.18540592 1012.6565992 591.62719727 1007.84989929 C592.36805299 999.79499 593.11142531 991.74031615 593.85644531 983.68579102 C594.7166346 974.38592568 595.57327999 965.08573923 596.42795277 955.7853654 C597.25331456 946.80439178 598.08069112 937.823605 598.90914917 928.84291649 C599.26057142 925.03333882 599.61137804 921.22370522 599.96170044 917.41402626 C600.37373266 912.93463817 600.7875594 908.45541932 601.2027626 903.97632408 C601.35453337 902.3361095 601.50571183 900.69583999 601.65624619 899.05551147 C601.86221255 896.81230948 602.07036107 894.5693201 602.27905273 892.32637024 C602.45270607 890.44641342 602.45270607 890.44641342 602.62986755 888.52847767 C603.6920731 878.40245765 603.6920731 878.40245765 605.28515625 876.3203125 C605.87167969 875.92585937 606.45820312 875.53140625 607.0625 875.125 C607.77277344 874.64675781 608.48304687 874.16851563 609.21484375 873.67578125 C692.14265933 823.77952195 715.24365749 860 876 860 C876 668.93 876 477.86 876 281 C632.46 281.33 388.92 281.66 138 282 C131.97421261 293.99837044 131.97421261 293.99837044 126.140625 306.078125 C100.92792815 359.22876351 66.65531346 394.52637456 10.63720703 415.07714844 C-9.59733732 422.15792771 -31.55336962 426.45674835 -53 427 C-53.74572266 427.02046387 -54.49144531 427.04092773 -55.25976562 427.06201172 C-104.21048176 428.23072455 -156.15722718 415.47433194 -196 386 C-197.02609375 385.24460937 -198.0521875 384.48921875 -199.109375 383.7109375 C-212.93650644 373.36553263 -225.93490769 362.29426919 -236.7578125 348.79296875 C-238.12545856 347.08936782 -239.51171955 345.40023154 -240.9296875 343.73828125 C-263.35182231 317.08292181 -277.26076485 282.29995733 -282 248 C-282.2616394 246.20828369 -282.2616394 246.20828369 -282.52856445 244.38037109 C-284.15675258 232.54751431 -284.35905964 220.80559562 -284.3125 208.875 C-284.31034485 207.8811026 -284.3081897 206.8872052 -284.30596924 205.8631897 C-284.09917678 146.44741266 -262.832572 93.35595785 -221 51 C-164.0675686 -5.32212969 -75.39045022 -21.22582008 0 0 Z M-115 154 C-115.60972656 154.54140625 -116.21945312 155.0828125 -116.84765625 155.640625 C-130.27719086 168.27324217 -138.10942976 186.49104516 -139.16015625 204.7890625 C-139.77074187 226.61086156 -131.64021804 245.59669555 -116.80078125 261.359375 C-101.89335077 275.41435827 -82.98469701 282.42550204 -62.59765625 282.21484375 C-41.02539335 280.92659787 -23.64694862 271.11276625 -8.87890625 255.80078125 C3.98988799 241.02549898 9.41869873 221.51261969 8.20703125 202.18652344 C6.64945268 185.73643661 0.07381375 171.27795661 -11 159 C-11.59167969 158.31550781 -12.18335938 157.63101563 -12.79296875 156.92578125 C-22.09377843 146.83172554 -33.97096561 140.75867901 -47 137 C-47.82628906 136.75507813 -48.65257812 136.51015625 -49.50390625 136.2578125 C-72.36514896 130.61019586 -97.77742758 138.38868695 -115 154 Z M2196.57421875 160.01953125 C2182.77780367 175.99322579 2177.88747253 194.88538181 2178.80908203 215.48583984 C2179.97556041 230.84695793 2186.76290661 245.58499837 2197 257 C2197.67804687 257.75925781 2198.35609375 258.51851563 2199.0546875 259.30078125 C2211.69161499 272.67973474 2229.73333535 281.00642483 2248.12109375 282.203125 C2267.38992737 282.47547601 2284.00441567 277.15858189 2299 265 C2300.07701172 264.16855469 2300.07701172 264.16855469 2301.17578125 263.3203125 C2315.09559864 252.02228596 2323.21144118 234.17921349 2325.75 216.6875 C2327.14758831 196.07307245 2321.98466716 176.83344249 2308.58984375 160.8984375 C2296.18031811 147.01025044 2279.68842446 137.35989033 2261 135 C2235.46129423 133.63933125 2214.49149278 141.48882701 2196.57421875 160.01953125 Z M732 1006 C732 1244.59 732 1483.18 732 1729 C970.59 1729 1209.18 1729 1455 1729 C1455 1490.41 1455 1251.82 1455 1006 C1216.41 1006 977.82 1006 732 1006 Z M-622 1313 C-622.70769531 1313.62648438 -623.41539062 1314.25296875 -624.14453125 1314.8984375 C-637.41314413 1327.32983389 -645.12545568 1345.7701306 -646.16015625 1363.7890625 C-646.68922698 1382.69759042 -640.86936969 1399.36111071 -629 1414 C-628.44570313 1414.71800781 -627.89140625 1415.43601562 -627.3203125 1416.17578125 C-616.02228596 1430.09559864 -598.17921349 1438.21144118 -580.6875 1440.75 C-560.07307245 1442.14758831 -540.83344249 1436.98466716 -524.8984375 1423.58984375 C-510.00974414 1410.28633472 -499.97608682 1392.22544327 -498.76171875 1372.0390625 C-498.27190624 1352.75706836 -503.05492179 1333.9827069 -516.4375 1319.5 C-518.25787345 1317.6269788 -520.11995086 1315.81484513 -522 1314 C-522.70640625 1313.26265625 -523.4128125 1312.5253125 -524.140625 1311.765625 C-536.55572859 1299.54006498 -554.83658592 1293.70910122 -571.9375 1293.5 C-590.97744018 1293.71476331 -607.80169072 1300.16453018 -622 1313 Z M2702.3125 1320.0625 C2689.38241906 1336.67695884 2684.07517774 1356.14705689 2686 1377 C2688.03176337 1392.2098673 2694.77982926 1405.63057311 2705 1417 C2705.51820313 1417.61101562 2706.03640625 1418.22203125 2706.5703125 1418.8515625 C2719.78057457 1433.3894891 2738.65172911 1439.15259478 2757.5234375 1441.28515625 C2769.24120419 1441.80145631 2781.63785034 1438.15268538 2792 1433 C2792.96164063 1432.54238281 2793.92328125 1432.08476563 2794.9140625 1431.61328125 C2812.18586137 1422.56723356 2824.13730309 1406.4007418 2830 1388 C2835.50671613 1368.12259718 2833.12374274 1347.98656427 2823 1330 C2820.34710274 1325.71696559 2817.27752694 1321.82187145 2814 1318 C2813.38640625 1317.27425781 2812.7728125 1316.54851562 2812.140625 1315.80078125 C2803.29518091 1306.18041578 2791.34980464 1299.84216144 2779 1296 C2778.23042969 1295.75507812 2777.46085937 1295.51015625 2776.66796875 1295.2578125 C2749.43399842 1288.29431046 2720.45210677 1299.45491951 2702.3125 1320.0625 Z " fill="#A56CFF" transform="translate(1162,82)"/>
<path d="M0 0 C1.2663912 -0.003711 2.5327824 -0.00742199 3.83754909 -0.01124544 C6.39526677 -0.01874107 8.95298445 -0.0262376 11.51070213 -0.03373505 C16.62271975 -0.04871786 21.7347374 -0.06368852 26.84675506 -0.07865736 C29.40140212 -0.08614417 31.95604916 -0.09364179 34.51069616 -0.1011502 C73.56027891 -0.21590007 112.60986614 -0.31325778 151.65953612 -0.39295596 C154.13512922 -0.39803575 156.61072231 -0.4031162 159.0863154 -0.40819731 C182.34934658 -0.45582247 205.61238075 -0.50163441 228.87542182 -0.54416237 C242.11824942 -0.56841187 255.36107488 -0.59367101 268.60389876 -0.61987227 C270.37827714 -0.62336597 270.37827714 -0.62336597 272.18850155 -0.62693025 C309.7477368 -0.70140156 347.30648171 -0.83403752 384.86541363 -1.00052955 C422.2269664 -1.16603721 459.58823098 -1.2766219 496.9501477 -1.31108282 C502.12158301 -1.31588335 507.29301739 -1.32136397 512.46445155 -1.32727093 C513.4775737 -1.32840817 514.49069585 -1.32954541 515.53451867 -1.33071711 C531.4144296 -1.35025812 547.29339458 -1.4306205 563.17292831 -1.53820229 C578.87019831 -1.64331683 594.56653834 -1.68151977 610.26414496 -1.65372559 C618.61118241 -1.64069079 626.95568392 -1.65340003 635.30219904 -1.75378013 C682.96598582 -2.30615277 725.68001341 5.21516876 771.47936416 18.39781076 C771.61653253 22.70285782 771.75294674 27.007928 771.88872641 31.31301904 C771.93480707 32.77094562 771.98107737 34.22886623 772.02755759 35.68678013 C772.4786333 49.84283462 772.80696156 63.99989064 773.0912416 78.16027719 C773.14519779 80.78662899 773.19927543 83.41297809 773.25346804 86.039325 C773.38460741 92.41197758 773.51370946 98.78466987 773.64199835 105.15738041 C773.74870285 110.45660862 773.85620486 115.75582018 773.9641149 121.05502397 C774.72863884 158.61705246 775.46775417 196.17955436 776.18462539 233.74252206 C776.20157667 234.63073771 776.21852795 235.51895336 776.23599291 236.43408464 C776.6212232 256.62707319 777.00305583 276.82012432 777.3814067 297.01324291 C777.54015532 305.48299186 777.69936867 313.95273206 777.85875869 322.42246896 C777.87635742 323.35813941 777.89395615 324.29380986 777.91208818 325.25783395 C778.48369441 355.63404819 779.09349283 386.00934852 779.72326149 416.38440802 C780.37212938 447.69001807 780.98350508 478.99614039 781.54761816 510.30339792 C781.62736458 514.72836342 781.70753101 519.15332123 781.78795028 523.57827455 C781.80376009 524.44895321 781.81956989 525.31963188 781.83585879 526.21669474 C782.09057051 540.18465485 782.38435239 554.15152772 782.69300852 568.11838844 C783.00244702 582.1594026 783.26990521 596.2007296 783.49526021 610.24334902 C783.63012359 618.5693686 783.79628217 626.89334 784.00878146 635.21774755 C784.16440984 641.4539136 784.25951568 647.68969149 784.33229348 653.9273439 C784.37070535 656.43456652 784.42805475 658.94159376 784.50725487 661.44785953 C785.00704005 677.69898432 783.39110156 694.3365551 772.47936416 707.39781076 C768.85059857 708.98859054 768.85059857 708.98859054 765.47936416 709.39781076 C764.21867991 709.56571398 762.95799567 709.7336172 761.65910888 709.9066084 C760.2549116 710.03700583 758.85001864 710.16005457 757.44463515 710.27697641 C756.66489593 710.34740008 755.8851567 710.41782375 755.08178902 710.49038148 C752.4853522 710.72324102 749.8881744 710.94637656 747.29088759 711.16953927 C745.42277225 711.33510033 743.55471113 711.50127415 741.68670058 711.66801339 C737.67271426 712.02499721 733.65838226 712.37768858 729.6437242 712.7270363 C723.29878702 713.27921618 716.95473531 713.84113499 710.61077285 714.4043873 C700.58168682 715.29368591 690.55205496 716.17664837 680.52216339 717.05681109 C662.54519534 718.63438652 644.56884742 720.21896332 626.59319878 721.8115027 C620.28287938 722.37025764 613.97222351 722.92499933 607.66127133 723.47655958 C603.7429547 723.81965979 599.82490058 724.16568842 595.9069078 724.5124653 C594.08608543 724.67297951 592.26515105 724.83222864 590.4441011 724.99013978 C587.96448063 725.20531353 585.48529111 725.42491465 583.00615859 725.64562875 C582.28039178 725.70749779 581.55462496 725.76936683 580.80686522 725.83311069 C577.85100074 726.10029789 575.30858855 726.45473596 572.47936416 727.39781076 C572.38232192 729.24560128 572.38232192 729.24560128 572.28331923 731.13072091 C566.30534715 843.38322202 550.13312766 954.29958363 422.47936416 1343.39781076 C422.19442092 1344.01990426 421.90947768 1344.64199777 421.6158998 1345.28294259 C412.84396437 1364.41402858 403.621117 1383.31397609 394.22936416 1402.14781076 C393.73374984 1403.14430642 393.23813552 1404.14080209 392.72750258 1405.1674946 C386.06317934 1418.55099205 379.11549564 1431.74635883 371.88808608 1444.8340748 C369.87311775 1448.50111986 367.88789559 1452.18401682 365.9020021 1455.86686593 C359.64322412 1467.47123878 353.05247278 1478.86963532 346.35192275 1490.22349435 C344.41675356 1493.50394674 342.48897235 1496.78867369 340.56139541 1500.07359201 C332.34134707 1514.04907794 323.92424432 1527.88305356 315.25573134 1541.58482248 C313.57419937 1544.24763328 311.90433182 1546.91738954 310.23717666 1549.58921701 C291.19646909 1579.96751291 270.59962261 1609.43627397 249.47936416 1638.39781076 C248.91749404 1639.16979806 248.35562392 1639.94178537 247.77672744 1640.73716623 C239.79480034 1651.69120722 231.61700868 1662.46979405 223.25133681 1673.13316232 C221.42817466 1675.46323288 219.61455666 1677.80044445 217.80358291 1680.13999826 C211.47001555 1688.32046869 205.07965251 1696.43023104 198.47936416 1704.39781076 C196.97821915 1706.23020667 195.47823999 1708.06355823 193.97936416 1709.89781076 C193.23299697 1710.80917794 192.48662978 1711.72054513 191.71764541 1712.65952951 C190.2532846 1714.45100756 188.79220885 1716.24517714 187.33483291 1718.04234201 C181.68602087 1724.99394313 175.88349437 1731.80178439 170.03649306 1738.58628732 C168.4848448 1740.39143472 166.94002831 1742.20219635 165.39733291 1744.01499826 C159.93501119 1750.42816211 154.40003506 1756.74711487 148.70592666 1762.95640451 C146.78803208 1765.05935908 144.90560371 1767.18450232 143.04186416 1769.33531076 C139.65704692 1773.22984165 136.17081853 1777.028707 132.67589736 1780.82408029 C129.66566946 1784.09510165 126.68841666 1787.39273824 123.72936416 1790.71031076 C120.6673528 1794.12646934 117.51346511 1797.39700364 114.23780227 1800.60693246 C112.59889086 1802.27607899 111.09380386 1803.99464443 109.58654189 1805.78233224 C104.1579312 1812.01884349 98.23842971 1817.78255171 92.38952041 1823.62046701 C91.11817009 1824.89249243 89.84696812 1826.16466614 88.57590652 1827.43698007 C85.92238081 1830.09197303 83.26707322 1832.74516719 80.61046767 1835.39707834 C77.22369881 1838.77815053 73.84144023 1842.16369334 70.46051288 1845.5506056 C67.83963398 1848.17511644 65.21635524 1850.7972182 62.59236884 1853.41862184 C61.34503871 1854.66528997 60.09843685 1855.91268723 58.8526113 1857.16085893 C47.11584754 1868.91487708 47.11584754 1868.91487708 40.98423171 1874.11312753 C39.03997263 1875.77291282 37.25426249 1877.5595232 35.47936416 1879.39781076 C32.37560462 1882.54359412 29.16060118 1885.47075091 25.81139541 1888.35093576 C22.81665563 1890.97948457 19.89980586 1893.68728101 16.97936416 1896.39781076 C9.51567624 1903.31176529 1.84244226 1909.9553038 -5.88879991 1916.56700021 C-9.70628709 1919.83371321 -13.50579608 1923.12009727 -17.29480577 1926.41978341 C-23.93970256 1932.20407408 -30.66897593 1937.85861059 -37.52063584 1943.39781076 C-39.25061342 1944.81348706 -40.97975821 1946.23018155 -42.70813584 1947.64781076 C-43.61563584 1948.38902169 -44.52313584 1949.13023263 -45.45813584 1949.89390451 C-47.71152242 1951.73627797 -49.96088856 1953.58314103 -52.20813584 1955.43296701 C-59.47842387 1961.39955509 -66.83204628 1967.2073321 -74.38538194 1972.81162912 C-79.42787957 1976.55774645 -84.38924468 1980.39775302 -89.33313584 1984.27281076 C-98.58840028 1991.50903497 -108.02478905 1998.48166901 -117.52063584 2005.39781076 C-118.27344834 2005.94824044 -119.02626084 2006.49867013 -119.80188584 2007.06577951 C-170.47004339 2044.0992766 -223.84859201 2077.62711096 -278.52063584 2108.39781076 C-279.57009385 2108.98900705 -280.61955186 2109.58020334 -281.70081162 2110.18931466 C-301.03530911 2121.0482618 -320.65047598 2131.30638747 -340.42694688 2141.33470041 C-342.44057996 2142.35716086 -344.45238471 2143.38311721 -346.46350694 2144.41050607 C-364.54781187 2153.64424152 -382.85201356 2162.28440474 -401.39661241 2170.55357248 C-404.70931446 2172.03187135 -408.01359848 2173.52785863 -411.31525254 2175.03063852 C-499.21652608 2214.98684454 -591.73457852 2246.17338143 -971.20813584 2316.64781076 C-972.71600663 2316.76364511 -972.71600663 2316.76364511 -974.25433946 2316.88181955 C-982.00516388 2317.46833732 -989.76002765 2317.96064045 -997.52063584 2318.39781076 C-998.65630872 2318.46192903 -998.65630872 2318.46192903 -999.81492448 2318.52734262 C-1028.74742484 2320.14132156 -1057.62025141 2320.72065237 -1086.59534287 2320.65855294 C-1091.94866198 2320.64715966 -1097.30178202 2320.65395696 -1102.65509439 2320.6654318 C-1131.32754215 2320.71746053 -1159.89269949 2319.99897912 -1188.52063584 2318.39781076 C-1189.5447532 2318.3410832 -1189.5447532 2318.3410832 -1190.58955979 2318.28320962 C-1198.53143812 2317.84059653 -1206.46439894 2317.31315171 -1214.39563584 2316.71031076 C-1215.47820664 2316.62922067 -1216.56077744 2316.54813058 -1217.67615342 2316.46458322 C-1320.0273315 2308.70139811 -1421.4351015 2291.0161707 -1757.52063584 2181.39781076 C-1758.64179795 2180.90667794 -1759.76296006 2180.41554513 -1760.91809678 2179.90952951 C-1799.58933546 2162.90780344 -1838.10603604 2144.92727871 -1875.05188584 2124.41343576 C-1879.67432153 2121.84883996 -1884.33420925 2119.3598417 -1889.00461411 2116.88386422 C-1902.58649385 2109.68183476 -1915.97673335 2102.21946173 -1929.19739366 2094.36851388 C-1932.23385055 2092.56787621 -1935.27520279 2090.77593348 -1938.31850266 2088.98690683 C-1953.64868336 2079.97211738 -1968.85672419 2070.82122382 -1983.78967881 2061.15757638 C-1986.7342601 2059.26015622 -1989.69063943 2057.38218885 -1992.64954209 2055.50718576 C-2006.46622786 2046.74084685 -2020.06684862 2037.71050993 -2033.52063584 2028.39781076 C-2034.47744248 2027.73748849 -2035.43424912 2027.07716623 -2036.42004991 2026.39683419 C-2049.2332569 2017.55093178 -2061.9517063 2008.58757986 -2074.52063584 1999.39781076 C-2075.29358994 1998.83352365 -2076.06654405 1998.26923654 -2076.862921 1997.68784982 C-2088.19683394 1989.40510847 -2099.41060479 1980.97823547 -2110.52063584 1972.39781076 C-2111.62471787 1971.54702951 -2111.62471787 1971.54702951 -2112.75110459 1970.67906076 C-2121.51268149 1963.92314604 -2130.19893513 1957.08891566 -2138.76087022 1950.08140451 C-2142.98891737 1946.62477573 -2147.26778356 1943.24446016 -2151.58313584 1939.89781076 C-2158.49130511 1934.51955972 -2165.07416885 1928.79605874 -2171.65491319 1923.02525216 C-2174.69334332 1920.37487592 -2177.76486589 1917.7635088 -2180.83313584 1915.14781076 C-2185.71986312 1910.97296702 -2190.53339998 1906.72825111 -2195.29407334 1902.40952951 C-2197.35167975 1900.55046407 -2199.42910348 1898.71852718 -2201.52063584 1896.89781076 C-2205.37174163 1893.5416262 -2209.16998399 1890.12906883 -2212.96204209 1886.70640451 C-2214.61315917 1885.21661795 -2216.26663728 1883.72944199 -2217.92297959 1882.24546701 C-2236.10827961 1865.9464866 -2236.10827961 1865.9464866 -2243.81447434 1858.07153207 C-2245.49504296 1856.42291703 -2247.23567324 1854.90316081 -2249.03015733 1853.37998849 C-2254.44623259 1848.66465075 -2259.48684847 1843.57607229 -2264.55579209 1838.49546701 C-2265.6036153 1837.4483194 -2266.65158674 1836.4013201 -2267.69969773 1835.35446054 C-2269.88390573 1833.1717175 -2272.06631916 1830.98720051 -2274.24744248 1828.80137521 C-2277.02317465 1826.01994652 -2279.80337367 1823.24303299 -2282.58494496 1820.46744519 C-2284.74622787 1818.30980055 -2286.90509299 1816.14974929 -2289.06326699 1813.98899537 C-2290.08664905 1812.96495305 -2291.11075545 1811.94163401 -2292.13564324 1810.91909868 C-2297.30719606 1805.75681776 -2302.39578396 1800.56629186 -2307.13768601 1795.00094491 C-2308.99115238 1792.85238162 -2310.98481916 1790.8728568 -2313.02063584 1788.89781076 C-2316.30166952 1785.65524816 -2319.37523581 1782.32734054 -2322.37610459 1778.82749826 C-2325.35512405 1775.45236146 -2328.44025516 1772.1803151 -2331.52063584 1768.89781076 C-2336.28604568 1763.81078987 -2340.99649792 1758.70197246 -2345.52063584 1753.39781076 C-2346.39540857 1752.37678266 -2347.27043283 1751.35597004 -2348.14563584 1750.33531076 C-2349.66272481 1748.56575196 -2351.17939967 1746.79584778 -2352.69470811 1745.02476388 C-2355.92912527 1741.24602895 -2359.17838499 1737.48073148 -2362.44055772 1733.72593576 C-2371.22794949 1723.61155379 -2379.95785942 1713.49153764 -2388.18298936 1702.91148263 C-2391.89808227 1698.14756875 -2395.72671257 1693.48523036 -2399.58313584 1688.83531076 C-2404.88556678 1682.42829562 -2410.04403366 1675.94724374 -2415.06409287 1669.31529123 C-2416.77981896 1667.05660656 -2418.50752312 1664.80730838 -2420.23547959 1662.55796701 C-2428.31560763 1652.02363553 -2436.22752537 1641.39073039 -2443.94837022 1630.59068185 C-2445.53242884 1628.38136283 -2447.12630873 1626.1794928 -2448.72376084 1623.97984201 C-2467.11423073 1598.65398305 -2484.68022269 1572.77984308 -2501.52063584 1546.39781076 C-2502.18675889 1545.35826242 -2502.18675889 1545.35826242 -2502.86633897 1544.2977131 C-2523.29965645 1512.37604307 -2542.28546068 1479.61886005 -2560.52063584 1446.39781076 C-2561.07557725 1445.3937922 -2561.63051866 1444.38977365 -2562.20227647 1443.35533029 C-2581.68836425 1408.0295727 -2599.81032622 1371.70701461 -2616.03723741 1334.77036935 C-2617.43006972 1331.60371603 -2618.84262285 1328.44679604 -2620.26282334 1325.29234201 C-2634.95647873 1292.51085106 -2648.26002046 1259.15901589 -2660.52063584 1225.39781076 C-2660.78642442 1224.66620736 -2661.05221299 1223.93460397 -2661.32605577 1223.18083078 C-2664.8863442 1213.36393251 -2668.34988966 1203.51526332 -2671.74774766 1193.64103585 C-2672.54210294 1191.33550482 -2673.34054643 1189.03141526 -2674.13928819 1186.7274006 C-2709.32059602 1085.01300746 -2732.91192724 979.41257743 -2758.83313584 760.27281076 C-2758.92048997 759.02808999 -2759.0078441 757.78336923 -2759.09784532 756.50092965 C-2759.34356974 752.96424268 -2759.58397688 749.42725028 -2759.82141709 745.88999826 C-2759.89301545 744.84329461 -2759.96461381 743.79659097 -2760.03838181 742.71816903 C-2760.3950529 737.26351726 -2760.59342684 731.86404894 -2760.52063584 726.39781076 C-2762.95776679 726.22306129 -2765.39504373 726.05818304 -2767.83313584 725.89781076 C-2768.48475694 725.85011544 -2769.13637803 725.80242013 -2769.80774522 725.75327951 C-2786.16669038 724.70750219 -2802.44641947 725.6502666 -2818.77707505 726.68119699 C-2838.25250287 727.88874599 -2857.69409422 728.71989893 -2877.20813584 728.77281076 C-2878.15112535 728.78030343 -2879.09411485 728.78779611 -2880.06567979 728.79551584 C-2906.58281957 728.97040793 -2935.31277842 725.88984714 -2955.31360459 706.63218576 C-2956.04192491 705.89484201 -2956.77024522 705.15749826 -2957.52063584 704.39781076 C-2958.15614366 703.78421701 -2958.79165147 703.17062326 -2959.44641709 702.53843576 C-2977.78872222 683.50473554 -2978.23230491 653.13721791 -2980.52063584 628.39781076 C-2980.58982224 627.65418283 -2980.65900865 626.9105549 -2980.7302916 626.14439279 C-2984.87737083 581.09129861 -2986.5370128 535.62024795 -2987.52063584 490.39781076 C-2987.5402588 489.5075312 -2987.55988175 488.61725164 -2987.58009934 487.69999391 C-2988.36433801 451.94592534 -2988.68917178 416.2070047 -2988.64961076 380.44468194 C-2988.64555436 376.56997822 -2988.64309174 372.69527598 -2988.64093614 368.82057077 C-2988.61811272 333.15168306 -2988.57102221 297.49070069 -2987.61243272 261.83250314 C-2987.5133409 258.12486168 -2987.41921732 254.41711077 -2987.32532334 250.70933419 C-2982.00783656 42.85069482 -2982.00783656 42.85069482 -2959.52063584 18.39781076 C-2924.73863067 -1.02895433 -2885.99099537 0.11579916 -2847.51986821 0.44300382 C-2838.32522496 0.51762575 -2829.13132705 0.49515443 -2819.93650071 0.47156291 C-2802.75855807 0.43010224 -2785.58151438 0.4630303 -2768.40371823 0.53805929 C-2751.04336251 0.61353099 -2733.68345783 0.65306836 -2716.32293248 0.64974362 C-2715.22207538 0.64955074 -2714.12121829 0.64935786 -2712.98700188 0.64915914 C-2707.37189362 0.6479995 -2701.75678572 0.6462407 -2696.14167769 0.64425349 C-2655.54318169 0.63095378 -2614.94509329 0.69342022 -2574.34673905 0.79551393 C-2533.69493542 0.89738754 -2493.04329981 0.96357408 -2452.39137101 0.98461992 C-2450.47785571 0.98562628 -2450.47785571 0.98562628 -2448.52568353 0.98665298 C-2434.26268349 0.99408164 -2419.9996831 1.00041815 -2405.73668233 1.00622211 C-2379.41705192 1.01694543 -2353.09742381 1.03180703 -2326.77779603 1.04762632 C-2325.46344842 1.0484051 -2324.14910081 1.04918389 -2322.79492448 1.04998628 C-2281.68095549 1.07442341 -2240.56703299 1.11647447 -2199.45309497 1.17208929 C-2196.72801877 1.17577245 -2194.00294255 1.1794381 -2191.27786633 1.18310366 C-2181.06197967 1.19684608 -2170.84609309 1.21065247 -2160.63020656 1.22449134 C-2068.5113595 1.34924806 -1976.39276492 1.42717672 -1775.94541572 1.29032641 C-1768.76762554 1.28401849 -1761.58983523 1.27786167 -1754.41204488 1.27174029 C-1712.63080765 1.23608615 -1670.84957142 1.19936259 -1629.06833729 1.16023079 C-1560.57201483 1.09616031 -1492.07569472 1.04832596 -1423.57935166 1.01270944 C-1422.37872487 1.01208383 -1421.17809807 1.01145823 -1419.94108865 1.01081367 C-1390.81441083 0.9956468 -1361.68773271 0.98113041 -1332.56105441 0.96693907 C-1304.67328069 0.95334975 -1276.7855073 0.9391622 -1248.89773393 0.92488557 C-1246.47432607 0.92364558 -1244.05091821 0.92240568 -1241.62751036 0.92116586 C-1231.93329678 0.91620593 -1222.23908321 0.91124562 -1212.54486963 0.90627897 C-1197.99974201 0.89882934 -1183.45461437 0.89143089 -1168.90948671 0.88406981 C-1104.51984467 0.85148034 -1040.13020401 0.81687048 -975.74056403 0.78043843 C-961.14236471 0.77217912 -946.54416535 0.76398305 -931.94596597 0.75582011 C-922.21772427 0.75037923 -912.48948258 0.74492796 -902.76124089 0.73947559 C-900.32960777 0.73811279 -897.89797465 0.73675031 -895.46634153 0.73538814 C-867.50751865 0.71972349 -839.54869593 0.70382782 -811.58987355 0.68727499 C-782.4634824 0.670039 -753.33709104 0.65322003 -724.21069932 0.63697702 C-722.41155867 0.63597113 -722.41155867 0.63597113 -720.57607175 0.63494491 C-652.34564334 0.59683488 -584.11522831 0.57374313 -515.8847896 0.5672812 C-474.54111995 0.56334921 -433.19745079 0.55618622 -391.85378181 0.54784572 C-384.78363198 0.54642968 -377.71348214 0.54512511 -370.64333228 0.5439102 C-249.65387444 0.52305757 -128.66563856 0.37645592 0 0 Z M-2831.52063584 146.39781076 C-2831.52063584 289.61781076 -2831.52063584 432.83781076 -2831.52063584 580.39781076 C-1684.77063584 580.39781076 -538.02063584 580.39781076 643.47936416 580.39781076 C643.47936416 437.17781076 643.47936416 293.95781076 643.47936416 146.39781076 C-503.27063584 146.39781076 -1650.02063584 146.39781076 -2831.52063584 146.39781076 Z M-2614.52063584 726.39781076 C-2613.68104941 740.84440944 -2613.68104941 740.84440944 -2612.39172959 755.23374826 C-2612.28197801 756.2914895 -2612.17222642 757.34923074 -2612.05914903 758.43902475 C-2611.69838359 761.88431588 -2611.32961151 765.32865858 -2610.95813584 768.77281076 C-2610.82847428 769.97877908 -2610.69881272 771.1847474 -2610.56522202 772.42726022 C-2598.28726845 885.87495871 -2576.40918235 998.1327475 -2539.52063584 1117.39781076 C-2539.26947007 1118.20115854 -2539.0183043 1119.00450631 -2538.75952744 1119.83219796 C-2523.05495846 1169.99040734 -2504.58274357 1219.24317146 -2483.52063584 1267.39781076 C-2483.25333665 1268.00912851 -2482.98603745 1268.62044626 -2482.71063828 1269.25028878 C-2465.99264355 1307.42480599 -2448.23472605 1345.29663668 -2427.98596787 1381.73618966 C-2426.45241518 1384.5217264 -2424.94983361 1387.32219664 -2423.45422959 1390.12827951 C-2415.85085499 1404.37696591 -2407.79811383 1418.31967336 -2399.46985459 1432.15513498 C-2397.63310674 1435.21070675 -2395.80993466 1438.27397581 -2393.98938584 1441.33921701 C-2385.38569105 1455.7442322 -2376.09621973 1469.62316667 -2366.52063584 1483.39781076 C-2365.96102159 1484.20476388 -2365.40140733 1485.01171701 -2364.82483506 1485.84312326 C-2354.23559814 1501.08153627 -2343.22136173 1516.01818099 -2331.84827256 1530.68003732 C-2329.22451828 1534.07480288 -2326.62466037 1537.4879044 -2324.02063584 1540.89781076 C-2320.13187157 1545.98660127 -2316.23918674 1551.07227424 -2312.33313584 1556.14781076 C-2311.92788682 1556.67439279 -2311.5226378 1557.20097482 -2311.1051085 1557.74351388 C-2309.1523031 1560.2801963 -2307.19822574 1562.81589315 -2305.24329209 1565.35093576 C-2302.66517132 1568.69691613 -2300.09117953 1572.04600717 -2297.52063584 1575.39781076 C-2296.64230088 1576.54298166 -2296.64230088 1576.54298166 -2295.74622178 1577.71128732 C-2286.19768591 1590.17244217 -2276.77217643 1602.71454763 -2267.52063584 1615.39781076 C-2266.94651963 1616.18349435 -2266.37240342 1616.96917794 -2265.78088975 1617.77867013 C-2259.61013122 1626.23252277 -2253.48431538 1634.69747379 -2247.77600694 1643.47349435 C-2246.17419788 1645.92885394 -2244.55961879 1648.37570303 -2242.94641709 1650.82359201 C-2229.88694701 1670.68833724 -2229.88694701 1670.68833724 -2224.52063584 1680.39781076 C-2223.58219834 1680.25085763 -2222.64376084 1680.10390451 -2221.67688584 1679.95249826 C-2219.46682675 1679.61411069 -2217.36026984 1679.39474186 -2215.12219834 1679.35191232 C-2207.58040379 1679.14273641 -2201.13155949 1677.67628055 -2195.52063584 1672.39781076 C-2189.1160342 1662.3910854 -2186.50307932 1649.58463569 -2183.21295762 1638.30067331 C-2180.21879829 1628.10018132 -2176.45476911 1618.26649406 -2172.52063584 1608.39781076 C-2171.84956609 1606.69554984 -2171.17882954 1604.99315753 -2170.50842881 1603.29063302 C-2160.36008141 1577.62754352 -2149.33161935 1552.33869067 -2137.52063584 1527.39781076 C-2137.01935166 1526.33884591 -2136.51806748 1525.27988107 -2136.00159287 1524.18882638 C-2132.54575395 1516.90668436 -2129.0501665 1509.64450868 -2125.52063584 1502.39781076 C-2125.09041123 1501.51399728 -2124.66018662 1500.6301838 -2124.21692491 1499.7195881 C-2118.19183004 1487.38954423 -2111.7780454 1475.29811658 -2105.12561631 1463.29575998 C-2103.49146851 1460.34514628 -2101.86745453 1457.38908658 -2100.24329209 1454.43296701 C-2082.37357379 1422.06122536 -2062.61147933 1390.76264216 -2041.52063584 1360.39781076 C-2040.99518174 1359.64064767 -2040.46972764 1358.88348459 -2039.92835069 1358.10337716 C-2028.8822661 1342.22751177 -2017.41589816 1326.64765272 -2005.52063584 1311.39781076 C-2005.10281846 1310.85914376 -2004.68500108 1310.32047677 -2004.25452256 1309.76548654 C-1993.22521656 1295.54708342 -1981.74240873 1281.71101449 -1969.97962022 1268.09507638 C-1968.51028036 1266.38576402 -1967.05299713 1264.66685877 -1965.59876084 1262.94468576 C-1959.79931749 1256.09167205 -1953.84659768 1249.42312534 -1947.67932725 1242.8980549 C-1944.55342629 1239.59011235 -1941.48757241 1236.24161944 -1938.46692491 1232.83701974 C-1933.44086993 1227.24696239 -1928.1811848 1221.91262544 -1922.86047959 1216.60484201 C-1921.86103132 1215.60471741 -1920.86173129 1214.60444465 -1919.86257005 1213.60403329 C-1917.78593404 1211.52593708 -1915.7075368 1209.44962384 -1913.62781358 1207.3746174 C-1910.98319696 1204.73571203 -1908.34311758 1202.09232009 -1905.70434308 1199.44757444 C-1903.6479272 1197.38752001 -1901.58910477 1195.32988387 -1899.5295794 1193.27293855 C-1898.55577707 1192.29979563 -1897.58269557 1191.32593075 -1896.61040139 1190.35128099 C-1891.62412197 1185.35556443 -1886.60743918 1180.46188766 -1881.23813462 1175.87719613 C-1878.30785259 1173.35316733 -1875.52076097 1170.67622303 -1872.70813584 1168.02281076 C-1867.68374884 1163.31627802 -1862.53080193 1158.86923012 -1857.15344834 1154.56577951 C-1854.41094431 1152.30748612 -1851.81125994 1149.93999742 -1849.20813584 1147.52281076 C-1844.68462933 1143.36399996 -1839.99465961 1139.54433171 -1835.13904405 1135.78941232 C-1830.30906883 1132.04662228 -1825.5952153 1128.17762378 -1820.89563584 1124.27281076 C-1814.8009487 1119.22678819 -1808.63403227 1114.33363742 -1802.24524522 1109.66148263 C-1800.22255754 1108.17940004 -1798.20750567 1106.68721002 -1796.19251084 1105.19468576 C-1794.59373576 1104.0121463 -1792.9947769 1102.82985526 -1791.39563584 1101.64781076 C-1790.6868126 1101.12380685 -1789.97798936 1100.59980294 -1789.24768662 1100.05992013 C-1786.67682596 1098.16589737 -1784.09910976 1096.28145867 -1781.52063584 1094.39781076 C-1780.89657853 1093.93971017 -1780.27252122 1093.48160959 -1779.62955308 1093.00962716 C-1768.20355569 1084.63077522 -1756.56916885 1076.64664529 -1744.70813584 1068.89781076 C-1743.87924851 1068.35466226 -1743.05036119 1067.81151376 -1742.19635606 1067.25190622 C-1721.98750036 1054.01077565 -1701.480931 1041.42009221 -1680.52063584 1029.39781076 C-1679.54175401 1028.83481271 -1678.56287217 1028.27181466 -1677.55432725 1027.69175607 C-1604.80067636 985.97725582 -1527.04251511 953.17069618 -1200.58313584 881.14781076 C-1199.70919175 881.07067849 -1198.83524766 880.99354623 -1197.93482041 880.91407663 C-1165.8995674 878.1294085 -1133.81252617 877.05110168 -1101.66614366 877.13706857 C-1097.37841424 877.14846182 -1093.09093342 877.14165703 -1088.8032124 877.13019067 C-1056.62840215 877.05740667 -1024.5142333 878.31861451 -992.45813584 881.14781076 C-991.50668687 881.23017984 -990.55523789 881.31254892 -989.57495713 881.39741403 C-952.34314409 884.64943464 -915.30589713 889.81795587 -878.52063584 896.39781076 C-877.64888719 896.55360605 -876.77713853 896.70940133 -875.87897325 896.86991769 C-827.77758672 905.52467287 -780.04733703 917.43380073 -733.52063584 932.39781076 C-732.75890061 932.64210824 -731.99716538 932.88640573 -731.21234727 933.13810617 C-660.91852604 955.717714 -592.16310589 983.95894581 -527.51331162 1019.74546701 C-524.38446675 1021.47299369 -521.24789096 1023.18589689 -518.11047959 1024.89781076 C-486.23333128 1042.35974456 -455.32093997 1061.58690964 -425.52063584 1082.39781076 C-424.81036241 1082.89200509 -424.10008897 1083.38619943 -423.36829209 1083.89536935 C-406.08040139 1095.93741616 -389.18247106 1108.50565892 -372.52063584 1121.39781076 C-371.89817979 1121.87846994 -371.27572373 1122.35912912 -370.63440537 1122.85435373 C-363.13237943 1128.65765658 -355.80641819 1134.62842131 -348.59485459 1140.78843576 C-345.81330497 1143.16050111 -342.98714923 1145.47273788 -340.14563584 1147.77281076 C-330.16946273 1155.90745191 -320.48117286 1164.38013495 -311.08362412 1173.17637521 C-308.29213544 1175.7860125 -305.46129704 1178.33743411 -302.57922959 1180.84702951 C-289.46642602 1192.27751171 -277.20045403 1204.61395095 -264.89563584 1216.89781076 C-264.18955186 1217.60130655 -263.48346787 1218.30480233 -262.75598741 1219.02961618 C-260.70320056 1221.07647373 -258.65426287 1223.12710502 -256.60657334 1225.17906076 C-255.99663529 1225.78701989 -255.38669724 1226.39497903 -254.75827622 1227.02136117 C-251.03943123 1230.75992842 -247.52025912 1234.62502507 -244.07126451 1238.61360055 C-242.31729773 1240.63177904 -240.50521656 1242.5824472 -238.65344834 1244.51109201 C-238.00005479 1245.19606759 -237.34666123 1245.88104318 -236.67346787 1246.5867756 C-236.0042833 1247.2875422 -235.33509873 1247.9883088 -234.64563584 1248.71031076 C-229.37855733 1254.26190072 -224.35204451 1259.86664624 -219.59094834 1265.85874826 C-217.32791165 1268.63417062 -214.94671433 1271.26399466 -212.52063584 1273.89781076 C-208.10181665 1278.70971509 -203.94829823 1283.68050709 -199.84876084 1288.76499826 C-198.34631846 1290.61211859 -196.82546722 1292.4430892 -195.30188584 1294.27281076 C-187.10900553 1304.12243265 -179.22788971 1314.16485269 -171.52063584 1324.39781076 C-170.51297125 1325.72865193 -169.5051609 1327.05938275 -168.49719834 1328.38999826 C-131.75547525 1377.0079554 -99.0907993 1428.5798064 -70.52063584 1482.39781076 C-70.02499131 1483.33125314 -69.52934678 1484.26469552 -69.01868272 1485.22642404 C-65.47201045 1491.92608328 -61.98463512 1498.65509336 -58.52063584 1505.39781076 C-57.98358018 1506.43792306 -57.44652452 1507.47803537 -56.89319444 1508.54966623 C-46.97353071 1527.81876498 -38.07333924 1547.46401606 -29.42365098 1567.32939035 C-28.58307462 1569.2547903 -27.73726446 1571.17775217 -26.88831162 1573.09947091 C-11.5557396 1607.82801745 1.1952459 1643.49869304 13.47936416 1679.39781076 C16.7568567 1679.7466485 16.7568567 1679.7466485 19.2119081 1676.73673898 C20.33435754 1675.49722499 21.44964891 1674.25120807 22.55944228 1673.00034982 C27.87343177 1667.16155674 33.30196113 1661.4803234 38.91491103 1655.92808419 C39.65332984 1655.1971417 40.39174865 1654.4661992 41.15254378 1653.71310693 C42.69810399 1652.18538792 44.2445267 1650.65854104 45.79175735 1649.13251382 C49.13147786 1645.8358573 52.46101968 1642.52899194 55.79139876 1639.22290307 C61.95084073 1633.10866083 68.11423112 1626.99852838 74.29430556 1620.90513498 C78.63345146 1616.6260672 82.95968654 1612.33429275 87.27820754 1608.03441507 C88.9031648 1606.42102918 90.53259281 1604.81213065 92.16697097 1603.20828897 C102.53382342 1593.03037784 111.59715853 1582.53817873 119.91825271 1570.62178689 C122.09669885 1567.51834912 124.32951955 1564.45549785 126.56253219 1561.39119989 C166.80588811 1506.09912567 203.48921506 1448.29558072 236.47936416 1388.39781076 C237.01480849 1387.42601876 237.55025283 1386.45422677 238.10192275 1385.45298654 C246.86089658 1369.51234573 255.28357422 1353.40149852 263.55620742 1337.20445138 C264.45776711 1335.44007671 265.36136313 1333.67674303 266.26500869 1331.91343576 C274.93350156 1314.95870564 283.00294557 1297.78895036 290.77852798 1280.41172677 C292.70926405 1276.09947474 294.66787031 1271.8012793 296.64733291 1267.51109201 C311.91879204 1234.24588068 325.31720197 1200.05415271 337.68432021 1165.61039621 C338.50686688 1163.32127142 339.33331138 1161.03357701 340.16002822 1158.74595529 C372.92727627 1067.8943448 396.70662667 973.6157294 424.68248916 757.74156076 C424.74891616 756.89092553 424.81534316 756.04029031 424.8837831 755.16387826 C425.59863165 745.57941491 425.9989328 736.00643788 426.47936416 726.39781076 C-577.05063584 726.39781076 -1580.58063584 726.39781076 -2614.52063584 726.39781076 Z M-1521.52063584 1113.39781076 C-1522.59506944 1113.90344552 -1523.66950303 1114.40908029 -1524.77649522 1114.93003732 C-1538.53927837 1121.42386101 -1552.1518213 1128.12613323 -1565.52063584 1135.39781076 C-1566.50692979 1135.93212716 -1567.49322373 1136.46644357 -1568.50940537 1137.01695138 C-1585.13023163 1146.0483014 -1601.35742916 1155.6051035 -1617.46057725 1165.52036935 C-1620.11140424 1167.14673441 -1622.77067132 1168.75676507 -1625.43860459 1170.35484201 C-1645.05204016 1182.12550316 -1663.88397729 1195.14843235 -1682.52063584 1208.39781076 C-1683.28569444 1208.94002267 -1684.05075303 1209.48223459 -1684.83899522 1210.04087716 C-1695.59142244 1217.67436716 -1706.07985761 1225.60117485 -1716.43811631 1233.76060373 C-1718.3885565 1235.29397441 -1720.34556149 1236.8183931 -1722.30579209 1238.33921701 C-1729.15211331 1243.66153796 -1735.83426415 1249.13972124 -1742.42688584 1254.77281076 C-1745.31614905 1257.2369704 -1748.25582042 1259.63442075 -1751.20813584 1262.02281076 C-1755.65967393 1265.64615571 -1759.94446039 1269.41744948 -1764.18860459 1273.28062326 C-1766.27887474 1275.17832245 -1768.39049699 1277.0451449 -1770.52063584 1278.89781076 C-1775.23660601 1283.01013675 -1779.88385118 1287.19656222 -1784.52063584 1291.39781076 C-1785.49516709 1292.27824044 -1786.46969834 1293.15867013 -1787.47376084 1294.06577951 C-1793.21918992 1299.27881361 -1798.77880144 1304.6179848 -1804.23157334 1310.13999826 C-1806.22805398 1312.10922319 -1808.26216048 1313.95540582 -1810.39563584 1315.77281076 C-1818.03736763 1322.32950963 -1825.09741853 1329.60579039 -1831.61438584 1337.27281076 C-1834.14315555 1340.09176715 -1836.82728828 1342.7369826 -1839.52063584 1345.39781076 C-1843.40435936 1349.23933927 -1847.14618361 1353.12153843 -1850.68860459 1357.28452951 C-1852.56984467 1359.45457403 -1854.51050797 1361.56307427 -1856.46423936 1363.66783029 C-1861.29644623 1368.87504213 -1865.880606 1374.20868276 -1870.33704209 1379.74546701 C-1872.51460652 1382.39048713 -1874.77382347 1384.929936 -1877.08313584 1387.46031076 C-1880.65829159 1391.39298208 -1884.0295485 1395.43016541 -1887.31751084 1399.60484201 C-1888.91906741 1401.63518411 -1890.53181368 1403.65185945 -1892.16126084 1405.65952951 C-1905.2173539 1421.77821787 -1917.49502476 1438.50070547 -1929.52063584 1455.39781076 C-1930.09700791 1456.20750314 -1930.67337998 1457.01719552 -1931.26721787 1457.85142404 C-1939.31360603 1469.18402477 -1947.11224411 1480.63788796 -1954.52063584 1492.39781076 C-1955.0188585 1493.18703927 -1955.51708116 1493.97626779 -1956.03040147 1494.78941232 C-1969.30751937 1515.87903111 -1981.79127834 1537.41064677 -1993.52063584 1559.39781076 C-1994.00741807 1560.30821115 -1994.4942003 1561.21861154 -1994.9957335 1562.15659982 C-2013.72209029 1597.28934301 -2029.49837914 1633.42699184 -2043.5700438 1670.62585336 C-2045.92265224 1676.84079577 -2048.31106618 1683.04125698 -2050.71204209 1689.23765451 C-2074.76788875 1744.64018917 -2074.76788875 1744.64018917 -2069.62512803 1802.45884591 C-2058.04491564 1827.6294856 -2036.78217785 1847.87738953 -2015.45422959 1864.99546701 C-2011.97159287 1867.84742651 -2008.59302291 1870.80623201 -2005.20813584 1873.77281076 C-1998.77984436 1879.38307397 -1992.18181921 1884.71249507 -1985.42639756 1889.92173654 C-1983.36736299 1891.51652555 -1981.32034695 1893.12593367 -1979.27454209 1894.73765451 C-1969.58480153 1902.35488786 -1959.72476548 1909.67996536 -1949.69153428 1916.83726388 C-1947.66560041 1918.29360321 -1945.6567062 1919.76987194 -1943.65344834 1921.25718576 C-1897.97180277 1955.02409728 -1848.6165823 1983.77155667 -1798.52063584 2010.39781076 C-1797.02717637 2011.19300119 -1797.02717637 2011.19300119 -1795.503546 2012.00425607 C-1709.74536006 2057.56106092 -1617.12742661 2091.65675215 -630.87000108 2100.4315632 C-572.15240449 2082.30888783 -514.75542357 2061.16279019 -458.52063584 2036.39781076 C-457.84416001 2036.10082284 -457.16768418 2035.80383493 -456.47070909 2035.49784738 C-436.29329897 2026.63267775 -416.49672274 2017.03560994 -396.77063584 2007.21031076 C-395.68396623 2006.67094888 -394.59729661 2006.131587 -393.47769761 2005.57588083 C-380.00314519 1998.87654511 -366.77198576 1991.8665313 -353.72620225 1984.36485177 C-348.41904595 1981.31741217 -343.04020732 1978.41189322 -337.64563584 1975.52281076 C-319.67834907 1965.80197784 -302.29477427 1955.04634164 -285.09192491 1944.03892404 C-282.19583533 1942.19050834 -279.29192626 1940.35470281 -276.38782334 1938.51890451 C-264.93148712 1931.2582857 -253.65476149 1923.84672347 -242.65003037 1915.91929513 C-239.51717489 1913.68082283 -236.35253717 1911.48879451 -233.19031358 1909.29209787 C-218.19608148 1898.86676927 -203.47921517 1888.1042063 -189.19446397 1876.72447091 C-187.47226257 1875.35947057 -185.74028761 1874.0078606 -184.00501084 1872.65952951 C-173.20583859 1864.25984334 -162.75028102 1855.48402254 -152.52063584 1846.39781076 C-151.72012803 1845.69011544 -150.91962022 1844.98242013 -150.09485459 1844.25327951 C-147.5514266 1841.98773743 -145.02962597 1839.70141003 -142.52063584 1837.39781076 C-141.85161241 1836.78421701 -141.18258897 1836.17062326 -140.49329209 1835.53843576 C-125.35421585 1821.04950389 -113.01145714 1802.61347622 -112.12122178 1781.17124826 C-111.03852508 1716.54258366 -155.75032009 1637.07210389 -183.52063584 1580.39781076 C-184.04270616 1579.32643869 -184.56477647 1578.25506662 -185.10266709 1577.15122873 C-192.70802999 1561.57272535 -200.82542884 1546.39286489 -209.52063584 1531.39781076 C-210.6901645 1529.36410484 -211.85943097 1527.33024812 -213.02844834 1525.29624826 C-233.60399907 1489.62101238 -256.60725093 1455.35808219 -281.72717881 1422.73033029 C-283.25956276 1420.73735503 -284.78517151 1418.73960628 -286.30579209 1416.73765451 C-295.86989237 1404.18768877 -305.89173586 1392.00561031 -316.14368272 1380.01304513 C-317.5618493 1378.34946533 -318.97138901 1376.67885199 -320.38001084 1375.00718576 C-327.20636323 1366.93554672 -334.31219769 1359.17116395 -341.5726378 1351.48936349 C-342.96036801 1349.99936665 -344.33229215 1348.49458204 -345.69324327 1346.98008615 C-354.14421407 1337.60121741 -363.06495278 1328.70199957 -372.00086045 1319.78721505 C-374.71629599 1317.0771668 -377.42630948 1314.36177827 -380.13587022 1311.64585763 C-381.88229427 1309.900094 -383.62902828 1308.15464038 -385.37610459 1306.40952951 C-386.17525788 1305.60835199 -386.97441117 1304.80717447 -387.79778123 1303.98171884 C-391.99213881 1299.80465029 -396.25882331 1295.77778027 -400.75452256 1291.92581064 C-403.69664926 1289.38035147 -406.50374819 1286.69201355 -409.33313584 1284.02281076 C-414.37974529 1279.295847 -419.55397732 1274.82271932 -424.95422959 1270.49937326 C-427.49622948 1268.41779649 -429.9159292 1266.24742696 -432.33313584 1264.02281076 C-436.68386658 1260.062004 -441.21871481 1256.42821793 -445.86682725 1252.82920724 C-449.84239526 1249.74245131 -453.73642722 1246.57528803 -457.59827256 1243.34751779 C-466.53051826 1235.88709781 -475.74788295 1228.90842407 -485.17835069 1222.09165841 C-487.42863115 1220.4643449 -489.67262167 1218.82872945 -491.91516709 1217.19077951 C-510.17273502 1203.88681528 -528.68312684 1191.02434795 -547.85169053 1179.06382638 C-550.4568974 1177.43759773 -553.05549107 1175.80121349 -555.65344834 1174.16343576 C-577.10340808 1160.69953044 -599.14266297 1148.24714181 -621.52063584 1136.39781076 C-622.69838213 1135.77169385 -623.87611614 1135.14555383 -625.05383897 1134.51939279 C-644.22917732 1124.34363564 -663.70518956 1115.04098439 -683.55884385 1106.2676838 C-685.44677336 1105.43056193 -687.33148274 1104.58666674 -689.21497178 1103.73960763 C-723.15064797 1088.49864638 -758.06556533 1075.62696177 -793.52063584 1064.39781076 C-794.21763597 1064.1767164 -794.91463609 1063.95562204 -795.63275743 1063.72782785 C-876.67208705 1038.07656512 -960.55860373 1022.90605435 -1521.52063584 1113.39781076 Z " fill="#A56CFF" transform="translate(3349.520635843277,2099.60218924284)"/>
<path d="M0 0 C1.40339443 1.26589233 2.81349353 2.5247803 4.24731445 3.75610352 C9.76779357 8.50356425 14.93929331 13.54361093 20.07421875 18.703125 C20.88568359 19.51072266 21.69714844 20.31832031 22.53320312 21.15039062 C27.40086524 26.02591014 32.0433902 31.02302165 36.51171875 36.265625 C37.38903659 37.27498853 38.26661982 38.28412147 39.14453125 39.29296875 C46.61964847 48.02174983 53.67962219 57.02533274 60.51171875 66.265625 C61.06730469 67.01666504 61.62289062 67.76770508 62.1953125 68.54150391 C111.93739057 136.36247236 143.38536033 222.81892994 143.71484375 307.38671875 C143.72185806 308.59722397 143.72887238 309.80772919 143.73609924 311.05491638 C143.75350075 314.93769089 143.75995103 318.82031294 143.76171875 322.703125 C143.76216061 323.36440651 143.76260246 324.02568802 143.76305771 324.70700836 C143.76995821 344.39506898 143.53752206 363.77055573 140.51171875 383.265625 C140.33479492 384.44995117 140.15787109 385.63427734 139.97558594 386.85449219 C129.01644246 458.87442469 101.57287978 528.61088407 56.51171875 586.265625 C55.58789913 587.46565146 54.66471494 588.66616738 53.7421875 589.8671875 C36.78731044 611.82499418 17.84810124 633.46498589 -3.48828125 651.265625 C-4.85919922 652.45285156 -4.85919922 652.45285156 -6.2578125 653.6640625 C-81.52840392 718.67264438 -178.9083709 756.98211855 -278.48828125 759.265625 C-279.39980957 759.28753906 -280.31133789 759.30945312 -281.25048828 759.33203125 C-349.45776453 760.71111687 -416.8647366 746.62686273 -478.48828125 717.265625 C-479.79394043 716.6456665 -479.79394043 716.6456665 -481.12597656 716.01318359 C-500.79300197 706.60429181 -519.59562206 695.72594886 -537.48828125 683.265625 C-538.06980957 682.86279297 -538.65133789 682.45996094 -539.25048828 682.04492188 C-561.67952713 666.4539293 -582.27972667 648.66244571 -601.58032227 629.35888672 C-603.18032644 627.76108607 -604.7882174 626.17150949 -606.39648438 624.58203125 C-612.88109744 618.13212947 -618.78892558 611.4310741 -624.48828125 604.265625 C-625.42298128 603.16372939 -626.36433276 602.06738831 -627.31640625 600.98046875 C-634.99315912 592.17696666 -641.81387817 582.84485497 -648.48828125 573.265625 C-648.98972656 572.54777832 -649.49117187 571.82993164 -650.0078125 571.09033203 C-658.91501204 558.25538652 -666.78528345 544.84945974 -674.48828125 531.265625 C-674.88499023 530.57436523 -675.28169922 529.88310547 -675.69042969 529.17089844 C-710.60601815 468.09320706 -726.77518419 394.4033389 -726.67578125 324.453125 C-726.67487488 323.25598877 -726.67487488 323.25598877 -726.6739502 322.03466797 C-726.54686974 259.56067608 -712.74162151 199.28929656 -687.48828125 142.265625 C-687.13942871 141.46866211 -686.79057617 140.67169922 -686.43115234 139.85058594 C-670.99761493 104.78646593 -648.93486157 72.60199682 -624.48828125 43.265625 C-623.22745728 41.74727051 -623.22745728 41.74727051 -621.94116211 40.19824219 C-614.80459231 31.69185856 -607.24525981 23.71023902 -599.36987305 15.88647461 C-597.41672637 13.94412016 -595.47460505 11.99119542 -593.53320312 10.03710938 C-586.4872444 2.98372769 -579.32117828 -3.55637393 -571.48828125 -9.734375 C-570.38601858 -10.66864213 -569.28970961 -11.61004425 -568.203125 -12.5625 C-542.55087858 -34.93154751 -512.78323551 -52.49097573 -482.48828125 -67.734375 C-481.70727051 -68.13221191 -480.92625977 -68.53004883 -480.12158203 -68.93994141 C-432.17523403 -93.23430223 -377.9805926 -106.90119929 -324.48828125 -110.734375 C-323.71790527 -110.79077148 -322.9475293 -110.84716797 -322.15380859 -110.90527344 C-224.84426145 -117.67428495 -125.90511109 -91.65926604 0 0 Z M-485.0390625 108.0390625 C-486.6237666 109.47970259 -488.22451964 110.9029657 -489.84375 112.3046875 C-502.10842773 122.98876239 -512.82237312 135.21234157 -522.48828125 148.265625 C-523.20298584 149.22758789 -523.20298584 149.22758789 -523.93212891 150.20898438 C-555.79899943 193.42613069 -574.52373693 242.99722733 -580.48828125 296.265625 C-580.62105469 297.43351562 -580.75382812 298.60140625 -580.890625 299.8046875 C-587.71607962 375.16518646 -562.35896163 451.21680759 -514.44580078 509.24145508 C-500.04611903 526.38757668 -484.40447939 541.82722561 -466.48828125 555.265625 C-465.93060059 555.68553711 -465.37291992 556.10544922 -464.79833984 556.53808594 C-417.12360697 592.17936566 -358.98634734 612.51267437 -299.48828125 614.265625 C-298.19792969 614.306875 -296.90757812 614.348125 -295.578125 614.390625 C-219.38655082 615.96822559 -145.29021665 585.7494249 -90.48828125 533.265625 C-81.27691919 524.37341407 -72.24510254 515.48158347 -64.48828125 505.265625 C-63.56157649 504.0791313 -62.6344647 502.89295544 -61.70703125 501.70703125 C-31.99951123 463.32613644 -12.99062237 418.93556328 -4.48828125 371.265625 C-4.31184082 370.34410645 -4.13540039 369.42258789 -3.95361328 368.47314453 C1.91436725 337.01634898 0.62618563 301.56452416 -5.48828125 270.265625 C-5.69195313 269.2147168 -5.895625 268.16380859 -6.10546875 267.08105469 C-14.68425076 224.57107162 -32.52891568 184.96046709 -58.48828125 150.265625 C-59.18002441 149.3384668 -59.18002441 149.3384668 -59.88574219 148.39257812 C-74.02109481 129.59225818 -90.79547631 111.5601229 -109.48828125 97.265625 C-110.98875 96.07453125 -110.98875 96.07453125 -112.51953125 94.859375 C-185.01947423 37.54703517 -282.65091313 19.32433388 -485.0390625 108.0390625 Z " fill="#A56CFF" transform="translate(2546.48828125,3370.734375)"/>
<path d="M0 0 C0.86496094 0.81210938 1.72992187 1.62421875 2.62109375 2.4609375 C4.71780132 4.42337315 6.86327314 6.27992299 9.0625 8.125 C24.74840805 21.87398418 36.67458275 39.7420332 47 57.6875 C47.36432129 58.3077002 47.72864258 58.92790039 48.10400391 59.56689453 C77.30895084 109.54833116 80.85531887 170.76048192 66.69140625 225.890625 C57.97075016 257.93777593 41.04906747 287.03683977 19 311.6875 C18.49936035 312.24985352 17.9987207 312.81220703 17.48291016 313.39160156 C11.6634222 319.89906286 5.79058511 326.17596346 -1 331.6875 C-2.05232864 332.57523012 -3.10438661 333.46328115 -4.15625 334.3515625 C-48.98181024 371.70927175 -107.23251699 388.99941637 -165.1875 384 C-217.09398117 378.7595116 -262.49608043 356.39213107 -300 320.6875 C-300.72574219 320.00300781 -301.45148437 319.31851563 -302.19921875 318.61328125 C-340.43455089 281.5798456 -362.96421349 225.93450638 -364.203125 173.1484375 C-364.63454849 134.36401202 -357.63450092 96.99530705 -339 62.6875 C-338.64824707 62.02556641 -338.29649414 61.36363281 -337.93408203 60.68164062 C-311.74411147 11.47980829 -265.8686845 -26.98443342 -212.7590332 -44.0715332 C-139.73679234 -66.35695297 -57.21616675 -52.00752261 0 0 Z M-194 110.6875 C-194.68449219 111.27917969 -195.36898437 111.87085937 -196.07421875 112.48046875 C-206.16827446 121.78127843 -212.24132099 133.65846561 -216 146.6875 C-216.24492187 147.51378906 -216.48984375 148.34007813 -216.7421875 149.19140625 C-221.63078164 168.98016746 -216.2001136 188.63205193 -206 205.6875 C-203.8663018 208.90628403 -201.58443536 211.82188764 -199 214.6875 C-198.505 215.27402344 -198.01 215.86054688 -197.5 216.46484375 C-184.96533004 230.28431738 -165.84753403 237.41085691 -147.68359375 238.97265625 C-126.18779687 239.5792861 -107.10917636 231.05081745 -91.640625 216.48828125 C-77.58564173 201.58085077 -70.57449796 182.67219701 -70.78515625 162.28515625 C-72.02081476 141.59349288 -81.06496967 123.77828905 -96 109.6875 C-111.54429779 96.45264074 -130.50910763 89.9714803 -150.86181641 91.46435547 C-167.32477824 93.18245859 -181.66704802 99.56408447 -194 110.6875 Z " fill="#A56CFF" transform="translate(2400,3529.3125)"/>
<path d="M0 0 C1.28315094 0.0438382 1.28315094 0.0438382 2.59222412 0.08856201 C126.18232412 4.38943841 126.18232412 4.38943841 143.625 22.4375 C158.55908454 40.90949978 159.27662707 67.39771982 157.7265625 89.984375 C155.97614915 104.3179485 151.56138212 122.32234613 140 132 C92.5322852 160.11528131 8.34633009 151.27879909 -45 152 C-46.31145996 152.01804687 -47.62291992 152.03609375 -48.97412109 152.0546875 C-56.65146459 152.14337883 -64.32299488 152.10564253 -72 152 C-72.81047791 151.98904297 -73.62095581 151.97808594 -74.45599365 151.96679688 C-237.66355003 149.70544927 -237.66355003 149.70544927 -260.125 129.625 C-273.2096824 115.37488031 -278.69228744 95.63385088 -278.1875 76.578125 C-276.766427 57.0383712 -271.08710605 39.79075299 -258 25 C-257.48050781 24.37480469 -256.96101563 23.74960938 -256.42578125 23.10546875 C-236.96768918 1.39278667 -202.04406406 2.67620987 -175.52148438 1.19091797 C-174.35939453 1.12791504 -173.19730469 1.06491211 -172 1 C-171.01580078 0.94602051 -170.03160156 0.89204102 -169.01757812 0.83642578 C-162.01433117 0.46737604 -155.00941877 0.21810423 -148 0 C-146.98172119 -0.03287109 -146.98172119 -0.03287109 -145.94287109 -0.06640625 C-97.33125476 -1.63066832 -48.60941894 -1.67842055 0 0 Z " fill="#A56CFF" transform="translate(2314,1229)"/>
<path d="M0 0 C1.0630901 0.00011959 2.12618019 0.00023918 3.22148514 0.0003624 C37.47536042 0.00522803 71.66530547 0.2726027 105.875 2.1875 C107.32002899 2.2674118 107.32002899 2.2674118 108.79425049 2.34893799 C201.93492732 7.56884351 201.93492732 7.56884351 219.09375 23.05078125 C223.82661396 28.72814219 226.82062781 34.80684069 229.0625 41.8125 C229.31660645 42.60172852 229.57071289 43.39095703 229.83251953 44.20410156 C237.52350893 68.96558012 236.06736805 98.98113035 224.3125 122.28515625 C217.71169989 133.63792125 209.11165307 136.82267798 196.875 140.1875 C192.79217364 141.16221402 188.69574575 141.95799408 184.5625 142.6875 C182.79652466 142.99941284 182.79652466 142.99941284 180.99487305 143.31762695 C153.6996364 147.8921598 125.81914675 149.83235718 98.19091797 151.08035278 C96.58638495 151.15458738 94.98206016 151.23341071 93.37792969 151.31588745 C70.55830122 152.47363284 47.71906643 152.37493961 24.87646484 152.37280273 C20.3243406 152.37272203 15.7723182 152.3795885 11.22021484 152.39331055 C-161.25227489 152.90468239 -161.25227489 152.90468239 -185.2890625 129.375 C-195.9523129 116.66985058 -200.67847069 101.54131753 -202.125 85.1875 C-202.1971875 84.38570312 -202.269375 83.58390625 -202.34375 82.7578125 C-203.20312445 62.06121105 -196.074456 40.8071004 -182.06542969 25.55932617 C-160.43720239 3.11951334 -129.15351094 3.66847174 -100 2.0625 C-99.30856903 2.02388855 -98.61713806 1.9852771 -97.90475464 1.94549561 C-92.31346749 1.64082272 -86.72037299 1.40327395 -81.125 1.1875 C-80.00567078 1.14406464 -78.88634155 1.10062927 -77.73309326 1.05587769 C-51.82471894 0.08961242 -25.92390598 -0.01295251 0 0 Z " fill="#A56CFF" transform="translate(2238.125,1517.8125)"/>
</svg>
