<?xml version="1.0" encoding="UTF-8"?>
<svg version="1.1" xmlns="http://www.w3.org/2000/svg" width="4500" height="4500">
<path d="M0 0 C514.47 0 1028.94 0 1559 0 C1559 46.86 1559 93.72 1559 142 C1580.20765625 141.94199219 1601.4153125 141.88398437 1623.265625 141.82421875 C1636.70963747 141.79866791 1650.15363497 141.77436012 1663.59765625 141.75585938 C1670.66292377 141.74607131 1677.72819073 141.73596927 1684.79345703 141.7253418 C1685.67886575 141.72402305 1686.56427446 141.72270431 1687.47651374 141.7213456 C1701.73544653 141.6996511 1715.9942776 141.66026102 1730.25315025 141.61423602 C1744.9072413 141.56733292 1759.56127941 141.53967546 1774.21544242 141.52955753 C1783.24409251 141.52272695 1792.2724551 141.50122319 1801.3010166 141.46041767 C1807.50817586 141.43380783 1813.71518841 141.42603982 1819.92240044 141.43249311 C1823.49359467 141.43566797 1827.06428972 141.43110933 1830.63539314 141.40397263 C1846.50284862 141.2893608 1860.84270916 142.10530828 1876 147 C1877.20374897 147.36877101 1878.40749794 147.73754202 1879.64772415 148.11748791 C1882.58359178 149.03442363 1885.47816526 150.02924032 1888.375 151.0625 C1889.98810059 151.63049316 1889.98810059 151.63049316 1891.63378906 152.20996094 C1953.53337268 174.31061525 2017.3224785 201.33926656 2070 241 C2070.8976709 241.67023193 2070.8976709 241.67023193 2071.81347656 242.35400391 C2080.14766521 248.58695823 2088.12295152 255.20473285 2096 262 C2096.73992188 262.63808594 2097.47984375 263.27617188 2098.2421875 263.93359375 C2100.17164723 265.61121637 2102.08597349 267.3047972 2104 269 C2104.68594238 269.60110596 2105.37188477 270.20221191 2106.07861328 270.8215332 C2112.93589851 276.89776507 2119.44030388 283.28675678 2125.90551758 289.77514648 C2127.6917467 291.5667595 2129.48329347 293.35293055 2131.27539062 295.13867188 C2137.06326732 300.92293673 2142.72714545 306.73532252 2148 313 C2149.2684375 314.44632813 2149.2684375 314.44632813 2150.5625 315.921875 C2158.87878674 325.5709 2166.45559539 335.74184257 2174 346 C2174.47856445 346.64614258 2174.95712891 347.29228516 2175.45019531 347.95800781 C2218.70895439 406.46556023 2253.92593562 484.13129117 2253.0625 558.1875 C2253.05798828 558.94869141 2253.05347656 559.70988281 2253.04882812 560.49414062 C2253.03728522 562.32946295 2253.01936378 564.16474352 2253 566 C2280.70116615 553.25468303 2305.6085458 537.46830678 2330.81689453 520.47161865 C2393.730827 478.06170404 2461.58271485 446.13841749 2535 426 C2535.54923449 425.82652544 2536.09846898 425.65305088 2536.66434693 425.47431952 C2539.88091917 424.82110479 2543.0497918 424.86452375 2546.31698227 424.87695217 C2547.43063429 424.8752214 2547.43063429 424.8752214 2548.56678432 424.87345567 C2551.06828786 424.87079721 2553.56972774 424.87530487 2556.07122803 424.87974548 C2557.87721816 424.87930962 2559.68320823 424.87843445 2561.48919797 424.87715632 C2566.46265636 424.87491424 2571.43609333 424.87892875 2576.409549 424.88393438 C2581.7687653 424.88824278 2587.12798033 424.88679218 2592.48719788 424.8860321 C2601.77598101 424.88550712 2611.06475714 424.88865129 2620.35353851 424.89426994 C2633.7836472 424.90238836 2647.21375248 424.90500052 2660.64386335 424.90625793 C2682.43201108 424.90844791 2704.22015508 424.91510655 2726.00830078 424.92456055 C2747.17659486 424.93373605 2768.34488793 424.94081621 2789.51318359 424.94506836 C2791.46958285 424.94546244 2791.46958285 424.94546244 2793.46550533 424.94586449 C2800.00846193 424.9471695 2806.55141853 424.94843322 2813.09437513 424.94967639 C2867.39625267 424.96004733 2921.69812616 424.97766419 2976 425 C2976.16467465 427.08780192 2976.32819418 429.17569497 2976.49122238 431.2636261 C2976.58240554 432.42631169 2976.67358869 433.58899729 2976.76753497 434.78691578 C2977.01068556 438.14769367 2977.13844975 441.48606381 2977.16113281 444.85546875 C2977.17532509 446.62889145 2977.17532509 446.62889145 2977.18980408 448.43814087 C2977.19639793 450.29407364 2977.19639793 450.29407364 2977.203125 452.1875 C2977.21014689 453.52542148 2977.21723371 454.86334261 2977.22438049 456.20126343 C2977.24382991 460.4675137 2977.24881641 464.73370989 2977.25 469 C2977.25044186 469.7274366 2977.25088371 470.4548732 2977.25133896 471.20435333 C2977.25868266 494.25763332 2976.80916424 517.0926841 2974 540 C2973.91514343 540.71109924 2973.83028687 541.42219849 2973.74285889 542.15484619 C2963.31364732 629.4023321 2934.06452464 715.23282578 2843 836 C2842.49243164 836.55800293 2841.98486328 837.11600586 2841.46191406 837.69091797 C2833.81807067 846.08218913 2825.96641136 854.06665658 2817.50976562 861.63867188 C2816.07055818 862.93637897 2814.65186784 864.25673337 2813.234375 865.578125 C2806.74969891 871.6077361 2799.95707084 877.08906355 2792.94824219 882.484375 C2790.91952227 884.06260723 2788.91560231 885.66871534 2786.9140625 887.28125 C2768.50079245 902.02403109 2748.46206781 914.32240807 2728 926 C2727.35256836 926.37141113 2726.70513672 926.74282227 2726.03808594 927.12548828 C2673.77163896 956.84534122 2597.84608753 993.57659019 2536.73088074 993.24050903 C2534.9868768 993.24307231 2534.9868768 993.24307231 2533.20764047 993.24568737 C2529.35084597 993.24895523 2525.49422937 993.23802336 2521.63745117 993.22705078 C2518.85724275 993.22536887 2516.07703768 993.22671652 2513.29682922 993.22793579 C2507.33128744 993.2289798 2501.36578972 993.2227541 2495.40025902 993.21146011 C2486.77532119 993.19514202 2478.15040448 993.18999068 2469.52545289 993.18748413 C2455.52891944 993.18311688 2441.53240942 993.16983422 2427.53588867 993.15087891 C2413.94702265 993.13249492 2400.35816305 993.11837372 2386.76928711 993.10986328 C2385.49810928 993.10905929 2385.49810928 993.10905929 2384.20125109 993.10823905 C2377.57271094 993.10407972 2370.94417066 993.10016605 2364.31563032 993.09632993 C2331.87706536 993.07749406 2299.43855913 993.03725002 2267 993 C2267.495 1131.6 2267.495 1131.6 2268 1273 C2274.435 1268.05 2274.435 1268.05 2281 1263 C2296.96041571 1250.7958781 2313.36646133 1239.2202676 2330.16796875 1228.20214844 C2331.3935347 1227.39795244 2332.61748684 1226.59129188 2333.83984375 1225.78222656 C2356.55794756 1210.75096557 2380.01795619 1196.90894589 2404 1184 C2405.72573242 1183.06824951 2405.72573242 1183.06824951 2407.48632812 1182.11767578 C2457.8537274 1155.01733132 2511.6995658 1132.77190145 2569.6599884 1132.87974548 C2571.42012364 1132.87930866 2573.1802588 1132.8784317 2574.94039363 1132.87715632 C2579.74529779 1132.87493323 2584.55017943 1132.87890252 2589.35508072 1132.88393438 C2594.5484931 1132.88827026 2599.74190431 1132.88679023 2604.93531799 1132.8860321 C2613.92273571 1132.88550885 2622.91014614 1132.88863486 2631.89756203 1132.89426994 C2644.89170857 1132.90241191 2657.88585161 1132.90500293 2670.88000043 1132.90625793 C2691.9643545 1132.90844422 2713.04870468 1132.91509282 2734.13305664 1132.92456055 C2754.60929342 1132.93374562 2775.08552915 1132.9408211 2795.56176758 1132.94506836 C2797.45637366 1132.94546244 2797.45637366 1132.94546244 2799.38925461 1132.94586449 C2805.72598257 1132.94716957 2812.06271053 1132.94843327 2818.3994385 1132.94967639 C2870.93296168 1132.96003581 2923.46648065 1132.9776426 2976 1133 C2976.16469653 1135.08686906 2976.32821071 1137.17383145 2976.49122238 1139.26083279 C2976.58240554 1140.42299987 2976.67358869 1141.58516696 2976.76753497 1142.78255123 C2977.01305409 1146.18067604 2977.13865837 1149.55631778 2977.16113281 1152.96313477 C2977.17532509 1154.77136215 2977.17532509 1154.77136215 2977.18980408 1156.61611938 C2977.19419998 1157.87846405 2977.19859589 1159.14080872 2977.203125 1160.44140625 C2977.21014535 1161.80455559 2977.21723219 1163.16770459 2977.22438049 1164.53085327 C2977.24382439 1168.87474018 2977.2488159 1173.21857398 2977.25 1177.5625 C2977.25044186 1178.30266987 2977.25088371 1179.04283974 2977.25133896 1179.805439 C2977.25849802 1202.66501237 2976.87371403 1225.29273514 2974 1248 C2973.82120904 1249.45555658 2973.6425004 1250.91112327 2973.46386719 1252.36669922 C2962.51449501 1340.33567151 2932.70484968 1425.56528011 2872 1510 C2871.58814453 1510.53802246 2871.17628906 1511.07604492 2870.75195312 1511.63037109 C2854.00110114 1533.47574911 2835.28921603 1555.33110394 2814.20703125 1573.12890625 C2812.40782581 1574.65425033 2810.64402702 1576.2045763 2808.88671875 1577.77734375 C2798.71896931 1586.82189524 2787.9770837 1594.96753298 2777 1603 C2775.76040669 1603.91665317 2774.52082234 1604.83331847 2773.28125 1605.75 C2718.43723662 1645.95893896 2650.41023931 1674.62364474 2585.1875 1693.5 C2584.14650146 1693.80220459 2583.10550293 1694.10440918 2582.03295898 1694.41577148 C2480.83260159 1722.53359161 2372.03391902 1701 2267 1701 C2267 1981.17 2267 2261.34 2267 2550 C2711.18 2550 3155.36 2550 3613 2550 C3613 2597.19 3613 2644.38 3613 2693 C2163.64 2693 714.28 2693 -779 2693 C-779 2645.81 -779 2598.62 -779 2550 C-568.79 2550 -358.58 2550 -142 2550 C-142 2082.39 -142 1614.78 -142 1133 C-95.14 1133 -48.28 1133 0 1133 C0 759.11 0 385.22 0 0 Z M143 143 C143 469.7 143 796.4 143 1133 C470.03 1133 797.06 1133 1134 1133 C1134 1600.61 1134 2068.22 1134 2550 C1227.06 2550 1320.12 2550 1416 2550 C1416 1755.69 1416 961.38 1416 143 C995.91 143 575.82 143 143 143 Z M1573 284 C1572.9540306 287.95308581 1572.92665919 291.90610138 1572.90234375 295.859375 C1572.88925171 296.96587402 1572.87615967 298.07237305 1572.8626709 299.21240234 C1572.62527576 350.83160085 1607.96041135 402.04434048 1641 439 C1641.80179688 439.90105469 1642.60359375 440.80210937 1643.4296875 441.73046875 C1644.90815365 443.3803142 1646.39233121 445.0250635 1647.8828125 446.6640625 C1649.26515933 448.18923484 1650.63558841 449.72531854 1651.9921875 451.2734375 C1656.8293758 456.76775327 1661.89780234 462.00315113 1667.0625 467.1875 C1667.7232251 467.85281738 1668.3839502 468.51813477 1669.06469727 469.20361328 C1672.9863318 473.11310051 1677.01936038 476.8349875 1681.21166992 480.45239258 C1683.39228387 482.33947951 1685.50669427 484.2934558 1687.625 486.25 C1693.20990389 491.28320365 1699.08866119 495.87667279 1705.03564453 500.46826172 C1707.06989262 502.05449992 1709.08103121 503.66685422 1711.08984375 505.28515625 C1745.8018351 533.07295008 1789.24217145 559.71031769 1834 566 C1835.73061172 566.25731478 1835.73061172 566.25731478 1837.4961853 566.51982784 C1842.72064702 567.16459447 1847.91681089 567.13521919 1853.17431641 567.12025452 C1854.27962739 567.12110894 1855.38493837 567.12196337 1856.52374363 567.12284368 C1860.21636656 567.12448688 1863.90894377 567.11899611 1867.6015625 567.11352539 C1870.25295616 567.11324324 1872.90434704 567.11335779 1875.55574036 567.1139679 C1881.25834626 567.11449122 1886.96094068 567.11136443 1892.6635437 567.10573006 C1900.90846154 567.0975891 1909.15337386 567.09499718 1917.39829528 567.09374207 C1930.77643828 567.09155562 1944.15457516 567.08490659 1957.53271484 567.07543945 C1970.52522755 567.06625479 1983.5177386 567.05917911 1996.51025391 567.05493164 C1997.31165393 567.05466892 1998.11305395 567.05440619 1998.93873882 567.05413551 C2002.9592889 567.05283043 2006.979839 567.05156673 2011.0003891 567.05032361 C2044.33359716 567.03996369 2077.66679783 567.02235647 2111 567 C2111.0460581 563.22269752 2111.07336945 559.44546899 2111.09765625 555.66796875 C2111.11074829 554.61283081 2111.12384033 553.55769287 2111.1373291 552.47058105 C2111.41588601 494.47503339 2069.0132042 439.96039361 2031.41357422 399.53125 C2029.96219448 397.95904729 2028.52845331 396.37219307 2027.09765625 394.78125 C2020.6061561 387.5941937 2013.80221676 380.92422176 2006.60253906 374.44970703 C2005.02193073 373.01983922 2003.45782648 371.57404825 2001.8984375 370.12109375 C1995.47448507 364.14241689 1988.87284374 358.46037961 1982 353 C1981.40606445 352.51756836 1980.81212891 352.03513672 1980.20019531 351.53808594 C1946.90464856 324.50324029 1908.15170869 299.98469887 1866.5 288.6875 C1865.62351807 288.44475342 1864.74703613 288.20200684 1863.84399414 287.9519043 C1846.4183574 283.4771768 1828.5786318 283.71819859 1810.72216797 283.77294922 C1808.11856084 283.77351446 1805.51495338 283.77319457 1802.91134644 283.77206421 C1797.34258961 283.77102376 1791.77388024 283.77721149 1786.20513535 283.78853989 C1778.154021 283.80490732 1770.10292921 283.81001429 1762.05180003 283.81251587 C1748.98422743 283.8168755 1735.91668004 283.83013718 1722.84912109 283.84912109 C1710.16748174 283.86752502 1697.48584926 283.88165933 1684.80419922 283.89013672 C1683.6284425 283.89092489 1683.6284425 283.89092489 1682.42893313 283.89172898 C1678.49600978 283.89433937 1674.56308638 283.89686671 1670.63016295 283.89935279 C1638.08675697 283.92003126 1605.54338188 283.9552091 1573 284 Z M2514.25 575.5625 C2513.25959717 575.90055664 2512.26919434 576.23861328 2511.2487793 576.58691406 C2466.44406775 592.3425723 2426.41494517 620.92661466 2391.53759766 652.69726562 C2389.93874397 654.14813997 2388.33318202 655.59168859 2386.71826172 657.0246582 C2380.36865762 662.66545395 2374.30417312 668.5446814 2368.3125 674.5625 C2367.41466797 675.45646484 2366.51683594 676.35042969 2365.59179688 677.27148438 C2360.51833136 682.35238354 2355.65318205 687.53290748 2351 693 C2350.154375 693.96421875 2349.30875 694.9284375 2348.4375 695.921875 C2312.2794417 737.87449393 2277.49639025 791.39146587 2281 849 C2282.57412174 850.57412174 2284.13642232 850.12808964 2286.32348633 850.13142776 C2287.73197248 850.13718948 2287.73197248 850.13718948 2289.16891289 850.1430676 C2290.73465648 850.14176787 2290.73465648 850.14176787 2292.33203125 850.14044189 C2293.98141032 850.14489858 2293.98141032 850.14489858 2295.66411018 850.1494453 C2299.38024765 850.15817575 2303.09635306 850.15964425 2306.8125 850.16113281 C2309.46483515 850.16575826 2312.11716732 850.17076177 2314.76950073 850.17617798 C2322.00175559 850.1897876 2329.23400491 850.19579179 2336.46627045 850.20018864 C2340.98632424 850.20294999 2345.50637588 850.20718748 2350.02642822 850.21169281 C2362.54912176 850.22389527 2375.07181358 850.2341885 2387.59451294 850.2375679 C2388.39689152 850.23778747 2389.1992701 850.23800703 2390.02596319 850.23823325 C2391.2324056 850.23856067 2391.2324056 850.23856067 2392.4632206 850.2388947 C2394.09299342 850.23933816 2395.72276624 850.23978473 2397.35253906 850.24023438 C2398.56517272 850.24056652 2398.56517272 850.24056652 2399.80230403 850.24090537 C2412.86609826 850.24484303 2425.92983635 850.26226097 2438.99360895 850.2855939 C2452.41714223 850.30937467 2465.84064745 850.32177302 2479.26420212 850.32293582 C2486.7961202 850.32384949 2494.32796539 850.32952262 2501.85986328 850.34775543 C2508.28265991 850.36324829 2514.7053612 850.36822376 2521.12817299 850.36001733 C2524.39914817 850.35614126 2527.66989416 850.35855997 2530.94085312 850.37107468 C2548.07980703 850.43276156 2564.076798 849.54642256 2580.5625 844.4375 C2581.37710693 844.18774414 2582.19171387 843.93798828 2583.03100586 843.68066406 C2621.07157558 831.57928753 2655.11935545 809.90776608 2686 785 C2686.96550781 784.22914063 2687.93101562 783.45828125 2688.92578125 782.6640625 C2694.5294505 778.14625278 2699.91208732 773.43891156 2705.19921875 768.5546875 C2706.67520572 767.20838976 2708.15609092 765.86655239 2709.67456055 764.56835938 C2715.65488811 759.45545499 2721.23078826 753.95534215 2726.7902832 748.39501953 C2728.42575882 746.76172552 2730.06907708 745.1366153 2731.71289062 743.51171875 C2737.47740441 737.77774184 2742.86751516 731.93545749 2747.93481445 725.56176758 C2749.92055162 723.09855206 2751.98509762 720.74636517 2754.109375 718.40234375 C2758.08425 713.97434873 2761.69993299 709.33505629 2765.25 704.5625 C2765.89622314 703.69488037 2766.54244629 702.82726074 2767.20825195 701.93334961 C2793.56401251 666.27212047 2819.51909339 622.72958428 2819.0625 577 C2819.05573242 575.69482422 2819.05573242 575.69482422 2819.04882812 574.36328125 C2819.0371736 572.24215707 2819.01924357 570.1210689 2819 568 C2784.56187157 567.90824309 2750.12377127 567.83785941 2715.6855468 567.79573868 C2711.61051407 567.79073646 2707.53548159 567.78555911 2703.46044922 567.78027344 C2702.64925759 567.7792242 2701.83806597 567.77817495 2701.00229278 567.77709392 C2687.90488407 567.75973634 2674.8075463 567.72822457 2661.71017954 567.69138882 C2648.24937967 567.65384949 2634.78861671 567.63173684 2621.32776666 567.62364602 C2613.03618162 567.61818503 2604.7447972 567.60100114 2596.45327398 567.56833413 C2590.75071905 567.5470254 2585.0482663 567.54083648 2579.34567454 567.54599449 C2576.06616075 567.54853119 2572.78706341 567.54266585 2569.50759697 567.5231781 C2550.25096127 567.41445 2532.52654625 569.23991096 2514.25 575.5625 Z M1559 569 C1559 661.73 1559 754.46 1559 850 C1589.71126953 850.05607422 1589.71126953 850.05607422 1621.04296875 850.11328125 C1634.02669908 850.14356307 1647.01042155 850.17457343 1659.99414062 850.20898438 C1666.81811466 850.2270318 1673.64208914 850.24489536 1680.46606445 850.26245117 C1681.32122007 850.26465886 1682.17637569 850.26686655 1683.05744511 850.26914114 C1696.82426845 850.30441432 1710.59109174 850.32932717 1724.35794338 850.35034702 C1738.50922596 850.37218694 1752.66045041 850.40531425 1766.81168348 850.44870156 C1775.52851569 850.47507795 1784.24527563 850.49287617 1792.96214572 850.49934604 C1798.95721064 850.50464318 1804.95218496 850.52100294 1810.94720116 850.54566566 C1814.39482537 850.55953438 1817.84228801 850.56890743 1821.28994179 850.56500816 C1840.79538985 850.55631992 1859.68386599 851.65935135 1878.625 856.625 C1879.60678223 856.87805908 1880.58856445 857.13111816 1881.60009766 857.3918457 C1903.10872382 863.09645458 1923.71979169 870.89448289 1944 880 C1944.90452911 880.40569214 1944.90452911 880.40569214 1945.82733154 880.81958008 C1961.98263801 888.07776887 1977.82741174 895.73363004 1993.25439453 904.45507812 C1996.15773603 906.08875632 1999.07530143 907.69462247 2001.99609375 909.296875 C2043.24961977 932.00934467 2082.96573044 958.26409949 2119.7487793 987.69946289 C2122.11067874 989.98459052 2122.11067874 989.98459052 2125 991 C2125 897.94 2125 804.88 2125 709 C2104.14167969 708.96261719 2083.28335938 708.92523437 2061.79296875 708.88671875 C2048.57225935 708.85643993 2035.35155769 708.82543185 2022.13085938 708.79101562 C2015.18318742 708.77296773 2008.23551502 708.7551041 2001.2878418 708.73754883 C2000.41716401 708.73534114 1999.54648622 708.73313345 1998.64942425 708.73085886 C1984.62586676 708.69556899 1970.60230932 708.6706655 1956.57872399 708.64965298 C1942.16754879 708.62782647 1927.75643079 708.59471157 1913.34530431 708.55129844 C1904.46570629 708.52489923 1895.58617942 708.5071177 1886.70654414 708.50065396 C1880.60263273 708.49536393 1874.49881057 708.47902722 1868.39494713 708.45433434 C1864.88276282 708.4404419 1861.37073777 708.43110184 1857.85852432 708.43499184 C1838.37571764 708.44349485 1820.26927814 707.14455606 1801.4375 701.875 C1800.34727539 701.57352051 1799.25705078 701.27204102 1798.13378906 700.96142578 C1757.83978877 689.57851523 1719.37034455 671.58099161 1683 651 C1681.98083496 650.42523926 1680.96166992 649.85047852 1679.91162109 649.25830078 C1638.82786653 626.02184376 1599.43638717 599.8078499 1562.2734375 570.6953125 C1560.33904974 568.90036769 1560.33904974 568.90036769 1559 569 Z M1573 993 C1572.95585338 996.79162897 1572.92958763 1000.58319037 1572.90625 1004.375 C1572.89368164 1005.43589844 1572.88111328 1006.49679687 1572.86816406 1007.58984375 C1572.71053638 1041.84759282 1589.51205705 1076.00321533 1608 1104 C1608.45761719 1104.69416016 1608.91523438 1105.38832031 1609.38671875 1106.10351562 C1618.70722821 1120.13649556 1629.00225255 1133.25145195 1640 1146 C1640.95712891 1147.10988281 1640.95712891 1147.10988281 1641.93359375 1148.2421875 C1643.61122511 1150.17165729 1645.30432394 1152.08637305 1647 1154 C1647.62430908 1154.70914551 1648.24861816 1155.41829102 1648.8918457 1156.14892578 C1654.41915502 1162.36819475 1660.17246111 1168.32794055 1666.06616211 1174.1965332 C1667.56806925 1175.69304925 1669.06451062 1177.194883 1670.56054688 1178.69726562 C1675.8679282 1184.00869376 1681.27205806 1189.14009333 1687 1194 C1688.1299341 1194.98449863 1689.25887067 1195.97014355 1690.38671875 1196.95703125 C1698.04487657 1203.60120498 1705.85927575 1209.95453999 1714 1216 C1714.66483398 1216.49612793 1715.32966797 1216.99225586 1716.01464844 1217.50341797 C1745.068821 1239.10456366 1777.31379731 1258.62174994 1812.125 1269.3125 C1812.86266602 1269.54275879 1813.60033203 1269.77301758 1814.36035156 1270.01025391 C1831.53820443 1275.041069 1848.13277822 1275.41970043 1865.89868164 1275.34057617 C1868.58096724 1275.33972852 1871.26322826 1275.34007618 1873.94551086 1275.34190369 C1879.68728438 1275.34346574 1885.42895447 1275.33416945 1891.17070198 1275.31719017 C1899.47196812 1275.29265814 1907.77318499 1275.2849805 1916.07448345 1275.2812262 C1929.5474866 1275.2746838 1943.02043482 1275.25478315 1956.4934082 1275.22631836 C1969.56990283 1275.1987202 1982.64638246 1275.17751492 1995.72290039 1275.16479492 C1996.93489514 1275.16361267 1996.93489514 1275.16361267 1998.17137463 1275.16240653 C2002.22544113 1275.158491 2006.27950774 1275.15469998 2010.33357441 1275.15097082 C2043.88908943 1275.11994389 2077.44453794 1275.06716894 2111 1275 C2111.03304042 1271.34767812 2111.05278686 1267.69539543 2111.0703125 1264.04296875 C2111.07973877 1263.01876831 2111.08916504 1261.99456787 2111.09887695 1260.93933105 C2111.28378582 1209.44221188 2077.13692182 1160.52741184 2045 1122.875 C2044.56252441 1122.36195313 2044.12504883 1121.84890625 2043.67431641 1121.3203125 C2035.27949926 1111.59207692 2026.45792584 1102.28996022 2017.35571289 1093.2253418 C2015.79910611 1091.67415273 2014.24799829 1090.11760608 2012.69726562 1088.56054688 C2007.30431903 1083.16369355 2001.82892398 1077.9287548 1996 1073 C1994.99026781 1072.1231065 1993.98111551 1071.24554462 1992.97265625 1070.3671875 C1984.24279836 1062.89114812 1975.20565545 1055.87897354 1966 1049 C1965.27651367 1048.45553223 1964.55302734 1047.91106445 1963.80761719 1047.35009766 C1952.32621432 1038.73776581 1940.43471007 1031.15733312 1928 1024 C1927.24750977 1023.56059082 1926.49501953 1023.12118164 1925.71972656 1022.66845703 C1910.30508298 1013.6816858 1894.27120019 1005.91675107 1877.375 1000.125 C1876.62629639 999.86307861 1875.87759277 999.60115723 1875.10620117 999.33129883 C1856.72977813 993.33660384 1838.77588777 992.43224144 1819.57714844 992.54589844 C1816.87470915 992.54702917 1814.17231318 992.54656389 1811.46987915 992.54412842 C1805.69374834 992.54204904 1799.91780074 992.55440779 1794.141716 992.57707977 C1785.79089542 992.60983631 1777.44016182 992.62003071 1769.08928397 992.62503174 C1755.53473308 992.6337477 1741.98027945 992.66026184 1728.42578125 992.69824219 C1715.27279134 992.73505875 1702.11982803 992.76332304 1688.96679688 992.78027344 C1687.7470234 992.78184978 1687.7470234 992.78184978 1686.50260803 992.78345796 C1682.42238536 992.78867879 1678.34216251 992.79373346 1674.26193953 992.79870558 C1640.5078892 992.84005219 1606.7539566 992.91039858 1573 993 Z M1 1276 C1 1696.42 1 2116.84 1 2550 C328.03 2550 655.06 2550 992 2550 C992 2129.58 992 1709.16 992 1276 C664.97 1276 337.94 1276 1 1276 Z M2531 1279 C2530.14727288 1279.18144467 2529.29454576 1279.36288935 2528.41597843 1279.54983234 C2482.10651463 1289.90756704 2439.83501901 1320.04761065 2404 1350 C2403.4838916 1350.42974121 2402.9677832 1350.85948242 2402.43603516 1351.30224609 C2386.36688884 1364.72279021 2370.32983405 1379.03964963 2356.7265625 1394.99609375 C2354.78258954 1397.25233386 2352.76676482 1399.43363893 2350.75 1401.625 C2345.65185119 1407.27710725 2340.99467516 1413.23413605 2336.35107422 1419.25927734 C2335.09417041 1420.87867094 2333.81549445 1422.48110124 2332.53515625 1424.08203125 C2305.21442868 1458.5761103 2280.53384639 1502.97709768 2280.9375 1548 C2280.94201172 1548.96550781 2280.94652344 1549.93101562 2280.95117188 1550.92578125 C2280.96284583 1553.28392089 2280.97921979 1555.64192602 2281 1558 C2315.69291678 1558.09175462 2350.38580563 1558.16213943 2385.07881774 1558.20426132 C2389.18389301 1558.20926355 2393.28896805 1558.2144409 2397.39404297 1558.21972656 C2398.61980225 1558.22130043 2398.61980225 1558.22130043 2399.87032434 1558.22290608 C2413.06473067 1558.2402642 2426.25906658 1558.27177627 2439.45343128 1558.30861118 C2453.01367227 1558.34614899 2466.57387663 1558.36826284 2480.13416743 1558.37635398 C2488.48717075 1558.38181528 2496.83997495 1558.3990009 2505.1929169 1558.43166587 C2510.93752124 1558.45297272 2516.68202415 1558.45916393 2522.42666504 1558.45400551 C2525.73053999 1558.45146848 2529.03379389 1558.4573362 2532.33765221 1558.4768219 C2551.48974379 1558.58415122 2569.22666085 1556.82031763 2587.4375 1550.625 C2588.41211182 1550.29612793 2589.38672363 1549.96725586 2590.39086914 1549.62841797 C2609.77618741 1542.78761543 2628.71340154 1533.078846 2646 1522 C2646.70560059 1521.54979492 2647.41120117 1521.09958984 2648.13818359 1520.63574219 C2664.13138297 1510.35867639 2679.59360112 1499.29218608 2693.87109375 1486.7265625 C2696.69503309 1484.24191028 2699.61264466 1481.8969179 2702.5625 1479.5625 C2707.49541329 1475.56814986 2711.92442329 1471.19246006 2716.36206055 1466.66748047 C2719.27011419 1463.70660075 2722.20206077 1460.86946217 2725.375 1458.1875 C2728.69516727 1455.36849005 2731.48098512 1452.27682231 2734.29296875 1448.95703125 C2735.91260807 1447.10019075 2737.60123291 1445.39602508 2739.375 1443.6875 C2743.08488557 1440.03532376 2746.30490824 1436.05157538 2749.5625 1431.99609375 C2751.62792047 1429.45734775 2753.74381876 1426.97624868 2755.89160156 1424.50732422 C2788.06501957 1387.32632534 2819.38706218 1335.68995344 2819.04296875 1285.0625 C2819.03986694 1284.18787109 2819.03676514 1283.31324219 2819.03356934 1282.41210938 C2819.02553955 1280.27472538 2819.01321169 1278.13735825 2819 1276 C2784.76558458 1275.93121623 2750.53118504 1275.87841163 2716.29671535 1275.84680401 C2712.24785895 1275.84305224 2708.19900268 1275.83916924 2704.15014648 1275.83520508 C2703.34414916 1275.83441815 2702.53815183 1275.83363122 2701.70773035 1275.83282044 C2688.68590964 1275.81979427 2675.66412898 1275.79615593 2662.64233197 1275.76854161 C2649.26403556 1275.74040956 2635.88576003 1275.72380731 2622.50743526 1275.71773452 C2614.26347929 1275.71363419 2606.01963655 1275.70072069 2597.77571546 1275.6762506 C2592.10963461 1275.66029692 2586.44361163 1275.65562123 2580.77750999 1275.65949587 C2577.51666236 1275.66140258 2574.2560508 1275.65696129 2570.99522972 1275.64238358 C2557.30790959 1275.58423008 2544.37910254 1275.92266109 2531 1279 Z M1559 1277 C1559 1697.09 1559 2117.18 1559 2550 C1745.78 2550 1932.56 2550 2125 2550 C2125 2176.44 2125 1802.88 2125 1418 C2031.28 1417.67 1937.56 1417.34 1841 1417 C1820.08020773 1414.67557864 1820.08020773 1414.67557864 1812.125 1412.75 C1811.20847656 1412.53384033 1810.29195312 1412.31768066 1809.34765625 1412.0949707 C1756.42235071 1399.33229171 1706.41330313 1373.90534748 1660 1346 C1659.00274902 1345.40558105 1658.00549805 1344.81116211 1656.97802734 1344.19873047 C1627.09153146 1326.34885747 1598.15781448 1306.64755369 1570.65209961 1285.31005859 C1569.99862549 1284.8042627 1569.34515137 1284.2984668 1568.671875 1283.77734375 C1568.1056543 1283.33640381 1567.53943359 1282.89546387 1566.95605469 1282.44116211 C1564.36939438 1280.53538879 1561.67330178 1278.78220119 1559 1277 Z " fill="#A56CFF" transform="translate(840,1311)"/>
<path d="M0 0 C-1.38079789 8.28015184 -3.23997144 16.38510073 -5.2858963 24.52390194 C-5.62047886 25.86567139 -5.95475281 27.20751783 -6.28874892 28.54943338 C-7.20443724 32.22464999 -8.12448615 35.89876273 -9.04527505 39.57270424 C-10.04737655 43.5743854 -11.04538021 47.57708869 -12.04391527 51.57966095 C-13.79351911 58.59043908 -15.54574427 65.60055793 -17.29969978 72.61024857 C-19.90780863 83.0335909 -22.51188638 93.45793736 -25.11518531 103.88248189 C-29.76443839 122.49916149 -34.41776641 141.11482071 -39.07287298 159.7300374 C-43.1455879 176.01634138 -47.21709053 192.30294779 -51.28736877 208.58986092 C-51.83317363 210.77383722 -52.3789787 212.95781347 -52.92478397 215.14178966 C-53.74722664 218.43270549 -54.5696682 221.7236216 -55.39210639 225.01453855 C-63.0378651 255.60827797 -70.68503053 286.2016655 -78.33516693 316.79431057 C-78.62354221 317.94751452 -78.91191749 319.10071848 -79.20903142 320.28886801 C-81.55093221 329.65402215 -83.89287124 339.01916672 -86.2348131 348.38431059 C-95.37593876 384.93870429 -104.51271477 421.4941827 -113.64599609 458.05053711 C-123.90427608 499.10970512 -134.16565416 540.16809698 -144.43173742 581.22531468 C-145.52537715 585.59915748 -146.61900706 589.97300274 -147.71263123 594.34684944 C-147.98191772 595.42382562 -148.25120422 596.5008018 -148.52865091 597.61041362 C-152.59994025 613.89326451 -156.66880496 630.17672006 -160.73646545 646.46047783 C-165.35902503 664.96559442 -169.98486807 683.46988662 -174.61513293 701.97307681 C-177.20830653 712.33617622 -179.79886005 722.69992239 -182.38570585 733.0646032 C-184.11153735 739.97836681 -185.84075855 746.89127667 -187.57279704 753.8034879 C-188.56104497 757.74779271 -189.54777114 761.69246172 -190.53040034 765.63817041 C-191.42325191 769.22325071 -192.32037969 772.80723166 -193.22101978 776.39036301 C-193.69865169 778.29535703 -194.17164014 780.20151341 -194.6444723 782.10770443 C-194.92797079 783.23194054 -195.21146928 784.35617666 -195.50355864 785.51448053 C-195.74612897 786.48471457 -195.9886993 787.4549486 -196.23862025 788.45458367 C-196.94548608 790.81775109 -197.81899275 792.84095791 -199 795 C-209.58245847 796.53616333 -218.22741162 791.55033678 -226.515625 785.5078125 C-230.10315571 782.78177111 -233.55811097 779.90639997 -237 777 C-237.6094043 776.49210937 -238.21880859 775.98421875 -238.84667969 775.4609375 C-245.17976467 770.17949628 -251.36531331 764.84455562 -257.09545898 758.90380859 C-258.82694671 757.17298674 -260.60273377 755.59345963 -262.47265625 754.015625 C-267.70688549 749.4682376 -272.58283641 744.56717653 -277.47290039 739.6574707 C-279.05959946 738.06541034 -280.65157742 736.4787701 -282.24414062 734.89257812 C-287.14075945 729.99882511 -291.92226017 725.0594914 -296.42358398 719.79467773 C-299.1310439 716.71235811 -302.06979741 713.86851411 -305 711 C-309.27746004 706.77183495 -313.40971307 702.51579364 -317.296875 697.921875 C-320.23986264 694.60088894 -323.45010139 691.54330312 -326.60546875 688.42578125 C-328.60260891 686.40257727 -330.47490684 684.35339764 -332.3125 682.1875 C-336.00946321 677.85827705 -340.04931158 673.89449524 -344.1184082 669.91870117 C-347.01024859 667.072742 -349.75311541 664.16702611 -352.39453125 661.0859375 C-356.07994964 656.82355558 -360.06708144 652.96298612 -364.1875 649.125 C-364.88552734 648.46242188 -365.58355469 647.79984375 -366.30273438 647.1171875 C-366.98013672 646.48296875 -367.65753906 645.84875 -368.35546875 645.1953125 C-368.96028076 644.62828613 -369.56509277 644.06125977 -370.18823242 643.47705078 C-372.03605531 641.97060577 -373.83318053 640.9784866 -376 640 C-383.1134184 648.24482505 -390.14117573 656.54115637 -397 665 C-397.99555867 666.21398067 -398.99168954 667.42749224 -399.98828125 668.640625 C-406.20538396 676.22556583 -412.27139138 683.90257068 -418.1965332 691.71777344 C-421.70258136 696.33346396 -425.28825102 700.8720193 -428.9375 705.375 C-435.29177354 713.24354597 -441.25424512 721.38655593 -447.21337891 729.55615234 C-449.56593864 732.77412487 -451.93560458 735.97929575 -454.30541992 739.18457031 C-463.71783829 751.9227883 -473.10096117 764.67899528 -482.03125 777.76171875 C-482.58708267 778.57525314 -483.14291534 779.38878754 -483.71559143 780.22697449 C-490.18523856 789.71374305 -496.57073253 799.25648681 -502.9375 808.8125 C-503.55006653 809.73165192 -504.16263306 810.65080383 -504.79376221 811.59780884 C-518.68216328 832.44896876 -532.05627673 853.54825341 -545 875 C-545.79539749 876.31260632 -546.59094981 877.62511884 -547.38671875 878.9375 C-568.02896678 913.06432706 -587.32578059 947.97052997 -605.59765625 983.41796875 C-607.73153231 987.55630385 -609.8819524 991.68478292 -612.05859375 995.80078125 C-625.3936365 1021.03644625 -637.39688843 1046.87736027 -649.06506348 1072.91589355 C-649.98479868 1074.96611409 -650.90751334 1077.01496812 -651.83105469 1079.06347656 C-689.94688385 1163.68356061 -721.16882175 1251.65706215 -807.1875 1720.1875 C-807.22442963 1720.87361359 -807.26135925 1721.55972717 -807.29940796 1722.26663208 C-807.57558397 1727.50950771 -807.79758422 1732.75379341 -808 1738 C-808.04236786 1739.0901239 -808.08473572 1740.1802478 -808.12838745 1741.30340576 C-808.95094198 1763.12079888 -809.20172375 1784.91835342 -809.1875 1806.75 C-809.18738041 1807.56957687 -809.18726082 1808.38915375 -809.1871376 1809.23356628 C-809.18169691 1838.85916218 -808.67230463 1868.41489584 -807 1898 C-806.9271579 1899.31454163 -806.9271579 1899.31454163 -806.85284424 1900.65563965 C-802.70372623 1974.6984889 -788.49378465 2047.33891088 -773.75390625 2119.859375 C-752.38061404 2225.0365347 -731.50516088 2329.12386119 -736 2437 C-871.96 2437 -1007.92 2437 -1148 2437 C-1151.37660795 2427.99571213 -1151.37660795 2427.99571213 -1152.41943359 2424.0234375 C-1152.65804611 2423.12142105 -1152.89665863 2422.2194046 -1153.14250183 2421.29005432 C-1153.51668999 2419.84710243 -1153.51668999 2419.84710243 -1153.8984375 2418.375 C-1154.16952835 2417.34080429 -1154.4406192 2416.30660858 -1154.71992493 2415.24107361 C-1155.61113783 2411.82895668 -1156.49411766 2408.4147978 -1157.375 2405 C-1157.6816861 2403.81407257 -1157.98837219 2402.62814514 -1158.30435181 2401.40628052 C-1184.26561535 2300.79684681 -1203.42786804 2198.51688415 -1230.75 1923.1875 C-1230.83888489 1921.36646255 -1230.83888489 1921.36646255 -1230.92956543 1919.50863647 C-1232.62992759 1884.01008702 -1233.20919153 1848.53554311 -1233.1875 1813 C-1233.18723312 1812.01294067 -1233.18696625 1811.02588135 -1233.18669128 1810.00891113 C-1233.17485877 1774.96911549 -1232.71347242 1740.00428189 -1231 1705 C-1230.93683594 1703.70042358 -1230.87367187 1702.40084717 -1230.80859375 1701.06188965 C-1227.31992819 1629.86766506 -1220.88242628 1558.85402377 -1204 1444 C-1203.82273376 1442.89857666 -1203.64546753 1441.79715332 -1203.46282959 1440.66235352 C-1194.25249216 1383.6683978 -1182.67224629 1327.0865388 -1169 1271 C-1168.72669861 1269.87627991 -1168.45339722 1268.75255981 -1168.17181396 1267.5947876 C-1141.45124451 1157.92203948 -1105.86302729 1050.67715157 -1038 890 C-1037.51644043 888.94055176 -1037.03288086 887.88110352 -1036.53466797 886.78955078 C-1033.59043573 880.3488562 -1030.61914199 873.92115077 -1027.62939453 867.50146484 C-1026.50793188 865.09151319 -1025.38878718 862.68061537 -1024.27294922 860.26806641 C-1009.97258375 829.36565876 -995.24434286 798.5312708 -978.64453125 768.7890625 C-975.66426317 763.44168623 -972.86833107 758.0028206 -970.0625 752.5625 C-964.55414505 741.92684875 -958.7277702 731.49492984 -952.77441406 721.10302734 C-950.89079137 717.80902013 -949.01889782 714.50852884 -947.1484375 711.20703125 C-929.02275992 679.24984402 -909.84883088 647.91466295 -890 617 C-889.54383301 616.28682617 -889.08766602 615.57365234 -888.61767578 614.83886719 C-868.75365333 583.78689062 -847.90549698 553.36740029 -826.2734375 523.5234375 C-824.12308618 520.55633553 -821.98269684 517.58249496 -819.8515625 514.6015625 C-812.08010942 503.74776602 -804.05587164 493.10383668 -795.92822266 482.51464844 C-794.10788829 480.1407001 -792.29295214 477.76275805 -790.48046875 475.3828125 C-780.52567627 462.31569029 -770.38446339 449.42298232 -760.00390625 436.69140625 C-757.56883821 433.70356942 -755.15262587 430.70152967 -752.75 427.6875 C-746.32068725 419.63408111 -739.7667285 411.69303753 -733.09106445 403.84326172 C-730.14078314 400.36815338 -727.24357331 396.85573776 -724.375 393.3125 C-720.79716785 388.91342167 -717.0544148 384.70449622 -713.234375 380.515625 C-710.98818434 377.98669705 -708.86468782 375.38950086 -706.75 372.75 C-702.62876723 367.64372741 -698.23013328 362.85675751 -693.69238281 358.12207031 C-689.77277842 353.98915411 -686.33341636 349.61693464 -683 345 C-683.36125977 344.53851562 -683.72251953 344.07703125 -684.09472656 343.6015625 C-690.46734806 335.45362447 -696.82031035 327.29564735 -703 319 C-707.20140219 313.36077839 -711.47978562 307.78892663 -715.8125 302.25 C-720.78616001 295.88987724 -725.6715609 289.47102025 -730.5 283 C-735.87452727 275.7990085 -741.32991968 268.6694135 -746.86230469 261.58911133 C-752.47329845 254.40688035 -758.00444947 247.1650291 -763.53320312 239.91943359 C-765.6819294 237.107635 -767.84066058 234.30365845 -770 231.5 C-773.92459035 226.40188018 -777.8401641 221.29694464 -781.75 216.1875 C-782.28109375 215.49398437 -782.8121875 214.80046875 -783.359375 214.0859375 C-784.39058694 212.73762789 -785.41992518 211.3878829 -786.44726562 210.03662109 C-787.53300069 208.61253275 -788.62606752 207.19401783 -789.72460938 205.77978516 C-790.27439453 205.06483887 -790.82417969 204.34989258 -791.390625 203.61328125 C-792.14134277 202.64515503 -792.14134277 202.64515503 -792.90722656 201.6574707 C-794 200 -794 200 -794 198 C-748.1594069 186.34745705 -702.29695305 174.7852346 -656.41096775 163.31279648 C-647.71618313 161.13887149 -639.02174278 158.96357086 -630.32729634 156.78829379 C-609.40491687 151.5537597 -588.4819731 146.32148302 -567.55895054 141.08952015 C-557.64305941 138.6099577 -547.72724155 136.13010226 -537.81143127 133.65021649 C-503.77287006 125.13738003 -469.73418871 116.62502422 -435.6950798 108.11437798 C-433.57595672 107.5845418 -431.45683364 107.05470559 -429.33771057 106.52486933 C-427.21419436 105.99393512 -425.09067813 105.46300094 -422.96716189 104.9320668 C-418.70857644 103.86730981 -414.44999126 102.80255173 -410.19140625 101.73779297 C-408.60769195 101.34182337 -408.60769195 101.34182337 -406.99198342 100.93785439 C-372.56552026 92.33032589 -338.13978595 83.71988689 -303.71447238 75.10776191 C-267.17645154 65.96711568 -230.63779521 56.82901423 -194.0983994 47.6938659 C-190.09594443 46.6932093 -186.09349205 45.69254235 -182.09104156 44.69186783 C-181.10577701 44.44553775 -180.12051246 44.19920767 -179.10539141 43.94541304 C-163.25112524 39.98155884 -147.39744072 36.01538307 -131.54396308 32.04837644 C-115.66756904 28.07569781 -99.79052862 24.10561123 -83.91281745 20.13820003 C-74.47882206 17.78081877 -65.04532586 15.42146174 -55.61252214 13.05931658 C-49.3237467 11.48469802 -43.03434085 9.91261597 -36.74440332 8.34264593 C-33.15546193 7.4467674 -29.56681628 6.5497465 -25.97893009 5.64965044 C-22.12533813 4.68292417 -18.27041279 3.72159277 -14.41532516 2.76084709 C-13.28837266 2.47721017 -12.16142015 2.19357324 -11.00031757 1.90134126 C-9.9797073 1.64793822 -8.95909702 1.39453517 -7.90755916 1.13345325 C-7.02546422 0.91286847 -6.14336929 0.69228368 -5.2345442 0.46501451 C-3 0 -3 0 0 0 Z M-208.35362244 200.88562012 C-209.22362507 201.08331151 -210.0936277 201.2810029 -210.98999405 201.48468494 C-212.41795115 201.81614285 -212.41795115 201.81614285 -213.87475586 202.15429688 C-215.39835787 202.50247357 -215.39835787 202.50247357 -216.95273972 202.85768414 C-220.37438416 203.64065094 -223.79458019 204.42977465 -227.21484375 205.21875 C-229.67119523 205.78193341 -232.12764408 206.34469229 -234.58418274 206.90705872 C-239.90070558 208.124922 -245.21664823 209.34527028 -250.53210449 210.56777954 C-258.99854284 212.51486298 -267.46637417 214.45584113 -275.93457031 216.39526367 C-276.65147435 216.55945608 -277.36837839 216.72364849 -278.10700679 216.89281642 C-281.04239781 217.56509207 -283.97779545 218.23733879 -286.91321218 218.90950221 C-290.67089973 219.76995684 -294.42854542 220.6305935 -298.18610001 221.49162865 C-321.97883886 226.94367655 -345.7778251 232.36777358 -369.58203125 237.76953125 C-370.37429068 237.94931629 -371.16655012 238.12910132 -371.98281741 238.31433439 C-382.9730983 240.80819954 -393.96375779 243.30039402 -404.95453119 245.79208755 C-411.70922724 247.32346445 -418.46386321 248.85510633 -425.21850586 250.38671875 C-425.93872173 250.55002583 -426.65893761 250.71333292 -427.40097821 250.8815887 C-441.16336104 254.00220018 -454.92550555 257.12386016 -468.68710327 260.24793243 C-470.83611625 260.73578433 -472.98514293 261.22357587 -475.13418579 261.71129608 C-480.45999735 262.92007018 -485.78550627 264.1301522 -491.11031342 265.34334373 C-492.58359068 265.67881794 -494.05698043 266.01379866 -495.53049469 266.34823036 C-497.46303713 266.78696025 -499.39511018 267.22775629 -501.32714844 267.66870117 C-502.36562927 267.9051384 -503.40411011 268.14157562 -504.47406006 268.38517761 C-507.10104814 268.98763005 -507.10104814 268.98763005 -510 270 C-512.05539304 276.16617913 -511.78279806 282.08265061 -509.0625 288 C-504.91592022 295.4732144 -498.77572615 301.29237057 -492.6875 307.1875 C-487.88939438 311.93781572 -484.13746489 316.98929056 -484 324 C-487.74477935 349.77575399 -516.7918613 377.20782724 -532.91186523 396.15991211 C-535.84283661 399.61139859 -538.71714751 403.10218263 -541.5625 406.625 C-545.39253159 411.33573404 -549.43874164 415.80485118 -553.55078125 420.26953125 C-555.86060582 422.84459883 -558.03243013 425.48254363 -560.1875 428.1875 C-564.69027665 433.77383253 -569.56366783 438.9706212 -574.50854492 444.16674805 C-578.7958957 448.67672983 -582.92243749 453.30016654 -587 458 C-592.29188592 463.94880969 -597.66648943 469.8206854 -603.0559082 475.6809082 C-605.5534312 478.40249494 -608.02055173 481.14418996 -610.4375 483.9375 C-614.01802312 488.06755185 -617.73579762 492.0660407 -621.45019531 496.07519531 C-625.28860257 500.22086719 -629.08716555 504.39973899 -632.85546875 508.609375 C-634.3094594 510.23021704 -635.77065106 511.8446228 -637.23828125 513.453125 C-641.93073102 518.60752578 -646.39553253 523.89291916 -650.7734375 529.31640625 C-652.81551515 531.7776472 -654.9372288 534.10633556 -657.125 536.4375 C-664.39495951 544.42813376 -670.59773081 553.31432488 -677 562 C-678.20669727 563.62915368 -679.41371907 565.25806704 -680.62109375 566.88671875 C-691.50479004 581.58989099 -702.23480024 596.40379455 -712.74804688 611.37426758 C-714.87688516 614.40459266 -717.01106672 617.43104048 -719.14916992 620.45483398 C-727.7963637 632.71251244 -736.14626749 645.14594333 -744.375 657.6875 C-745.65711886 659.63787537 -746.93926433 661.58823326 -748.22143555 663.53857422 C-766.93808575 692.0330722 -785.1627136 720.80242026 -802.38037109 750.23291016 C-804.05802505 753.09913415 -805.7417259 755.96175196 -807.42578125 758.82421875 C-819.83814002 779.96350312 -831.75343446 801.3661398 -843.35791016 822.95849609 C-844.95875598 825.92360719 -846.57692995 828.87860843 -848.19921875 831.83203125 C-866.18038474 864.7526038 -883.11313853 898.50883858 -898.51464844 932.71289062 C-900.18301501 936.40501546 -901.87561826 940.08553664 -903.5703125 943.765625 C-925.29868059 991.02734188 -945.17136589 1039.13425367 -963 1088 C-963.30145935 1088.82401306 -963.6029187 1089.64802612 -963.91351318 1090.49700928 C-987.53362598 1155.07187025 -1008.25470051 1220.56759871 -1025.28045654 1287.19476318 C-1025.98316091 1289.93435053 -1026.6934215 1292.67184985 -1027.40673828 1295.40869141 C-1055.47181272 1403.15508239 -1073.24936984 1513.53211712 -1091 1773 C-1091.01643555 1774.64633423 -1091.01643555 1774.64633423 -1091.03320312 1776.32592773 C-1091.73098485 1851.03474953 -1089.08135021 1925.66633704 -1033 2293 C-1015.75792345 2293.84854259 -998.54239766 2294.19748817 -981.28125 2294.31640625 C-978.71480022 2294.33704671 -976.14835329 2294.35804461 -973.58190918 2294.37937927 C-967.59034561 2294.42834425 -961.59876603 2294.47378931 -955.607162 2294.51740164 C-948.7675316 2294.56739266 -941.92794095 2294.62207409 -935.08834934 2294.67708123 C-921.05893691 2294.78981066 -907.02948607 2294.89687179 -893 2295 C-893.22644951 2293.9595755 -893.22644951 2293.9595755 -893.45747375 2292.89813232 C-910.5690159 2214.17936168 -925.07481725 2135.05246369 -944.25 1945.6875 C-944.3272229 1944.55390045 -944.4044458 1943.4203009 -944.48400879 1942.25234985 C-945.07112319 1933.50570504 -945.56425765 1924.75533979 -946 1916 C-946.04274551 1915.14139626 -946.08549103 1914.28279251 -946.12953186 1913.39817047 C-947.73071842 1880.81883921 -948.32333306 1848.29193233 -948.26074219 1815.67529297 C-948.24934894 1809.69699376 -948.25614845 1803.71887279 -948.26761913 1797.74057961 C-948.3360241 1755.64651227 -947.18883679 1713.6180789 -944.1875 1671.625 C-944.06103088 1669.81689346 -944.06103088 1669.81689346 -943.93200684 1667.97225952 C-936.8392976 1566.95995932 -922.55823249 1466.5299734 -889 1321 C-888.65612244 1319.626091 -888.65612244 1319.626091 -888.30529785 1318.22442627 C-864.33257443 1222.65015345 -832.40143506 1129.0871874 -757.49267578 960.10302734 C-755.96320895 956.92351746 -754.44679545 953.73806138 -752.93359375 950.55078125 C-747.30300702 938.70762805 -741.48572718 927.01200086 -735.29931641 915.45019531 C-733.90320235 912.81746313 -732.53308756 910.17236855 -731.16796875 907.5234375 C-725.60627676 896.73938294 -719.86905767 886.08836651 -713.85180664 875.55126953 C-710.69221631 870.01434721 -707.60180723 864.44872588 -704.58227539 858.83422852 C-698.03978463 846.67104876 -690.99162335 834.85301111 -683.83300781 823.04443359 C-681.53488492 819.22749267 -679.2825044 815.3849053 -677.03320312 811.5390625 C-670.51983952 800.4097411 -663.68683806 789.51382289 -656.70898438 778.67089844 C-655.10746069 776.16794571 -653.52605913 773.6538025 -651.953125 771.1328125 C-644.0286578 758.46943631 -635.72970446 746.06952969 -627.375 733.6875 C-626.80399567 732.84036438 -626.23299133 731.99322876 -625.64468384 731.12042236 C-615.71257529 716.39653365 -605.63481843 701.77386592 -595.0625 687.5 C-594.19347046 686.32473755 -594.19347046 686.32473755 -593.30688477 685.12573242 C-583.63094227 672.07522456 -573.69545179 659.27762722 -563.39697266 646.71289062 C-561.53485769 644.42966821 -559.7041277 642.12219282 -557.875 639.8125 C-554.38077638 635.42816888 -550.76689555 631.15306978 -547.1340332 626.88378906 C-544.2365054 623.47493282 -541.38236877 620.03625139 -538.5625 616.5625 C-533.66427761 610.54866823 -528.61086754 604.67366596 -523.54833984 598.79833984 C-521.02707055 595.86997819 -518.51391162 592.93467747 -516 590 C-514.9987247 588.83200829 -513.9974226 587.66403955 -512.99609375 586.49609375 C-511.00798724 584.17674399 -509.02110562 581.85635326 -507.03515625 579.53515625 C-501.87576245 573.50681192 -496.700781 567.49269174 -491.5 561.5 C-482.50580564 551.13464961 -473.57873322 540.71347133 -464.7265625 530.2265625 C-462.87201082 528.02971434 -461.01221923 525.83745994 -459.1484375 523.6484375 C-454.4179441 518.08773398 -449.74274982 512.49441252 -445.2109375 506.76953125 C-443.5016908 504.62844307 -441.77794902 502.50355253 -440.0390625 500.38671875 C-433.42941617 492.33230284 -427.03751426 484.15960581 -420.828125 475.79296875 C-417.4999316 471.3107164 -414.06978655 466.91199854 -410.62890625 462.515625 C-408.58577994 459.84596091 -406.70307501 457.09480208 -404.83984375 454.296875 C-404.28611084 453.4826709 -403.73237793 452.6684668 -403.16186523 451.82958984 C-402.08270672 450.23566305 -401.0247629 448.6270884 -399.99243164 447.00244141 C-396.47508433 441.85689086 -393.47174831 439.7818515 -387.37304688 438.37304688 C-374.08079783 436.28348345 -363.07016907 442.2496129 -352.62532043 449.79702759 C-339.56165957 459.4660278 -328.47625318 471.38688042 -317.15014648 482.96630859 C-305.67962227 494.72281383 -305.67962227 494.72281383 -293.27734375 505.46875 C-292.47086143 506.1116095 -292.47086143 506.1116095 -291.64808655 506.76745605 C-286.39308294 510.76881214 -280.77383323 513.90317776 -274 513 C-271.36195005 511.47975895 -270.2013253 510.4945379 -269.04360962 507.65071106 C-268.82248505 506.69323471 -268.60136047 505.73575836 -268.37353516 504.74926758 C-268.10165375 503.60519943 -267.82977234 502.46113129 -267.5496521 501.28239441 C-267.25414179 499.96567707 -266.95896174 498.64888558 -266.6640625 497.33203125 C-266.32928113 495.89106595 -265.99325578 494.45038925 -265.65615845 493.00996399 C-264.65031583 488.68756565 -263.66767413 484.36011351 -262.68788147 480.03174591 C-261.95723249 476.81150789 -261.22091872 473.59260551 -260.48327637 470.3739624 C-256.59988605 453.42848872 -252.75451262 436.47455203 -248.91991735 419.51798433 C-246.10654199 407.07748579 -243.28792593 394.63817304 -240.47005773 382.19869155 C-239.55998895 378.18115033 -238.65004789 374.16358027 -237.74037933 370.14594841 C-232.61333595 347.50213134 -227.46675395 324.86284845 -222.30165482 302.22768211 C-221.23809181 297.56657289 -220.17526784 292.90529537 -219.11264038 288.24397278 C-218.94022304 287.48767832 -218.7678057 286.73138386 -218.59016359 285.95217139 C-217.90200971 282.93363346 -217.21386196 279.91509414 -216.52577376 276.89654124 C-214.52044614 268.09968041 -212.51256894 259.30341025 -210.50071418 250.50803983 C-209.24630367 245.02299828 -207.99497619 239.53725919 -206.74606431 234.05096304 C-206.0269128 230.89236492 -205.30580268 227.73423572 -204.58180618 224.57674408 C-203.79928635 221.16329549 -203.02202846 217.74869075 -202.24609375 214.33374023 C-202.01577139 213.33501735 -201.78544903 212.33629446 -201.5481472 211.30730724 C-201.34204134 210.39523164 -201.13593548 209.48315603 -200.92358398 208.54344177 C-200.74391586 207.75684897 -200.56424774 206.97025618 -200.37913513 206.15982723 C-199.88473603 203.7088485 -199.88473603 203.7088485 -200 200 C-203.16195031 200 -205.35021366 200.19540524 -208.35362244 200.88562012 Z " fill="#A56CFF" transform="translate(1294,433)"/>
<path d="M0 0 C5.14588626 0.00343946 10.2916359 -0.00601783 15.4374944 -0.02250171 C69.98308628 -0.19289065 124.45173035 1.28347196 178.84325612 5.62617993 C180.19914388 5.73147817 181.55506125 5.83639577 182.91100514 5.94096875 C280.85150628 13.51083027 377.93972372 27.2583391 848.78075612 160.31367993 C849.58799122 160.64069898 850.39522633 160.96771802 851.22692311 161.30464673 C894.67321478 178.92926719 937.50225622 197.95259159 979.68017018 218.42720532 C986.06530525 221.52597647 992.46569207 224.58106785 998.90575612 227.56367993 C1005.18761341 230.49145099 1011.32571899 233.64596618 1017.44042408 236.90718579 C1022.92029962 239.82455685 1028.4295424 242.67825929 1033.96044362 245.49727368 C1048.94415486 253.13894269 1063.81833134 260.86196342 1078.40184987 269.25117993 C1084.04976982 272.49333205 1089.78726021 275.55764717 1095.53075612 278.62617993 C1107.7667772 285.19280124 1119.68232551 292.26954441 1131.58983815 299.40742993 C1135.43957345 301.7072565 1139.30583455 303.97801952 1143.17406666 306.24654126 C1171.82413764 323.06761559 1199.75907629 340.99672817 1227.51323903 359.24571729 C1229.45802099 360.52443704 1231.40328022 361.80243127 1233.34905446 363.07964063 C1243.29000686 369.60856409 1253.17391219 376.18009584 1262.80541432 383.15938306 C1267.00925119 386.20317206 1271.2707896 389.16179101 1275.53075612 392.12617993 C1285.02197016 398.75398598 1294.4291154 405.49055092 1303.78075612 412.31367993 C1304.53679127 412.86491529 1305.29282643 413.41615064 1306.07177174 413.98409009 C1317.9245997 422.63905103 1329.63041266 431.47828059 1341.28222096 440.40157056 C1343.65044971 442.21395746 1346.02160721 444.02242275 1348.39403737 445.82930493 C1360.00338053 454.6759347 1371.543992 463.5966389 1382.81200612 472.87617993 C1385.05544225 474.71815908 1387.3050813 476.55085827 1389.56200612 478.37617993 C1396.50418316 483.99185299 1403.40554694 489.64405391 1410.20263112 495.43477368 C1413.48647856 498.22971084 1416.80496654 500.97449103 1420.15575612 503.68867993 C1425.85876951 508.33220753 1431.40061592 513.15108402 1436.94481862 517.98164868 C1440.01628311 520.65616873 1443.1092752 523.30397264 1446.21117604 525.94307446 C1452.28662398 531.11442282 1458.22303482 536.4038917 1464.06200612 541.84102368 C1466.90289653 544.42476453 1469.81480483 546.87549351 1472.78075612 549.31367993 C1476.74563271 547.94745248 1479.42276717 546.16480113 1482.59325612 543.43867993 C1487.07548493 539.68151755 1491.6470958 536.11159793 1496.34325612 532.62617993 C1502.21400693 528.26087593 1508.0178624 523.82040762 1513.78075612 519.31367993 C1519.40327194 514.91900778 1525.05811287 510.57717734 1530.78075612 506.31367993 C1536.41995081 502.11224224 1541.99182897 497.83389472 1547.53075612 493.50117993 C1553.8908788 488.52751998 1560.30973119 483.64211294 1566.78075612 478.81367993 C1575.53397952 472.28074092 1584.16851407 465.6065916 1592.7734319 458.88008618 C1601.69543106 451.91784505 1610.70969427 445.08020174 1619.78075612 438.31367993 C1622.24881553 440.78173935 1622.49839173 442.4332644 1623.34276783 445.80896497 C1623.63924214 446.9796452 1623.93571644 448.15032544 1624.24117482 449.35648084 C1624.5643912 450.66273915 1624.88747628 451.96902995 1625.21044362 453.27534986 C1625.55530606 454.64826444 1625.90079101 456.02102279 1626.24685109 457.39363599 C1627.19221141 461.15074388 1628.12883186 464.90998402 1629.06408131 468.66961956 C1630.06210945 472.67493947 1631.06835465 476.67819414 1632.07372487 480.68167615 C1633.99857646 488.35173701 1635.9163883 496.02353969 1637.83157933 503.6960178 C1640.14524778 512.96378745 1642.46655539 522.22963876 1644.78856862 531.49532056 C1645.41214098 533.98379435 1646.03569991 536.4722715 1646.65925163 538.96075046 C1647.07503589 540.62006293 1647.49083276 542.27937224 1647.90664226 543.93867838 C1649.16134974 548.94595839 1650.41522927 553.95344493 1651.66850096 558.96108449 C1659.30598824 589.47675438 1667.02874185 619.97045891 1674.7719909 650.45943475 C1677.94786843 662.965568 1681.11124606 675.47484339 1684.26903737 687.98555493 C1684.51239197 688.94957541 1684.75574658 689.9135959 1685.00647557 690.90682912 C1686.21127509 695.67967035 1687.41580424 700.45257973 1688.62011158 705.22554517 C1691.26249509 715.69788628 1693.90642573 726.16983691 1696.55028737 736.64180493 C1696.81591103 737.69394177 1697.0815347 738.74607862 1697.35520756 739.83009839 C1702.65612708 760.82654934 1707.96697267 781.82048152 1713.28075612 802.81367993 C1721.24790226 834.28983768 1729.20039964 865.76967806 1737.14785206 897.25081372 C1744.54784536 926.56309214 1751.95664917 955.87311195 1759.38001835 985.17947888 C1766.15607157 1011.93062101 1772.91753602 1038.68542635 1779.67220509 1065.44197583 C1787.66945171 1097.12058824 1795.6671471 1128.79908937 1803.68065846 1160.47359204 C1804.5246309 1163.80959504 1805.36821561 1167.14569566 1806.21142018 1170.48189282 C1807.3728894 1175.07710817 1808.53544303 1179.67204814 1809.69872487 1184.26680493 C1809.87821045 1184.97607129 1810.05769604 1185.68533765 1810.24262059 1186.41609693 C1812.80481171 1196.5360674 1815.40859317 1206.64457713 1818.09671986 1216.73195386 C1818.32156559 1217.58231214 1818.54641133 1218.43267041 1818.77807057 1219.30879712 C1818.97334843 1220.04072278 1819.16862629 1220.77264844 1819.36982167 1221.52675366 C1819.78075612 1223.31367993 1819.78075612 1223.31367993 1819.78075612 1225.31367993 C1813.1580403 1224.70839275 1806.90885401 1223.54048887 1800.45726979 1221.95064282 C1799.45658215 1221.70882339 1798.45589451 1221.46700395 1797.42488301 1221.21785665 C1794.09820269 1220.41258508 1790.77349849 1219.59944096 1787.44872487 1218.78633618 C1785.06919427 1218.20878619 1782.68953717 1217.63175715 1780.30976307 1217.05521131 C1775.20573459 1215.81760195 1770.10251158 1214.57672951 1764.9999944 1213.33290601 C1756.87103374 1211.35143781 1748.74012359 1209.37804547 1740.60888112 1207.40596509 C1737.837846 1206.73381997 1735.06682179 1206.06162989 1732.29580128 1205.38942456 C1731.60687059 1205.22230765 1730.91793989 1205.05519073 1730.20813251 1204.88300967 C1725.28839705 1203.6895094 1720.36891974 1202.49494891 1715.44954884 1201.29994702 C1690.16504539 1195.15833808 1664.86962296 1189.06251007 1639.57087529 1182.97984815 C1630.69670691 1180.84589507 1621.82298963 1178.7100663 1612.94919598 1176.57455564 C1609.61332149 1175.77177976 1606.27743024 1174.96907359 1602.94153798 1174.16637158 C1578.80735733 1168.3587597 1554.67550897 1162.54147609 1530.54389393 1156.72321439 C1527.03296803 1155.87671324 1523.52203619 1155.0302367 1520.0111028 1154.1837666 C1502.42731324 1149.94437557 1484.84362187 1145.70457732 1467.25994313 1141.46472669 C1449.68360218 1137.22665079 1432.10721966 1132.98874736 1414.53075612 1128.75117993 C1413.37259892 1128.47195313 1412.21444172 1128.19272634 1411.02118886 1127.90503812 C1375.60942185 1119.36747402 1340.19577502 1110.83774404 1304.78075612 1102.31367993 C1277.53513697 1095.75591401 1250.28985952 1089.19674077 1223.04638112 1082.63008618 C1221.89205271 1082.35186332 1220.73772431 1082.07364045 1219.54841626 1081.78698659 C1206.77301632 1078.70773247 1193.99792442 1075.627207 1181.22338307 1072.54439282 C1176.59800453 1071.42830843 1171.97259471 1070.31235378 1167.34716237 1069.19649243 C1165.62528675 1068.78108229 1165.62528675 1068.78108229 1163.86862576 1068.35728002 C1146.89999822 1064.26419319 1129.92715541 1060.18890236 1112.95200205 1056.12298924 C1108.3115383 1055.01138644 1103.67134355 1053.8986665 1099.03133595 1052.78516126 C1098.38457626 1052.6299532 1097.73781657 1052.47474515 1097.0714581 1052.31483382 C1093.83857901 1051.53896729 1090.60573736 1050.76294497 1087.37292111 1049.98681664 C1079.8432488 1048.17949797 1072.31234365 1046.37743495 1064.78049576 1044.57920575 C1060.15025584 1043.47241664 1055.52122046 1042.36065632 1050.89251339 1041.24747586 C1048.73948777 1040.73078745 1046.58595387 1040.21621194 1044.43189251 1039.70385861 C1041.49498252 1039.00502304 1038.55993389 1038.29884811 1035.62523854 1037.59077954 C1034.76441796 1037.3878507 1033.90359738 1037.18492187 1033.01669133 1036.97584367 C1031.84013541 1036.68957691 1031.84013541 1036.68957691 1030.63981068 1036.39752698 C1029.96211723 1036.23533138 1029.28442378 1036.07313579 1028.58619416 1035.90602517 C1026.78075612 1035.31367993 1026.78075612 1035.31367993 1023.78075612 1033.31367993 C1022.26806387 1021.21214198 1029.73098091 1011.45747399 1036.78075612 1002.31367993 C1042.36611046 995.30102494 1048.32766996 988.58804737 1054.36547291 981.96407056 C1055.94648248 980.22916306 1057.52238196 978.4895816 1059.09252369 976.74483228 C1066.17056894 968.92970492 1073.52143971 961.4185349 1080.98851979 953.97554517 C1082.97968388 951.98978317 1084.96538833 949.99867253 1086.95067799 948.00703931 C1092.54345981 942.41163853 1098.11027099 936.85444076 1104.14525807 931.73091626 C1106.83409304 929.40091372 1109.29872052 926.85981159 1111.78075612 924.31367993 C1115.65059008 920.39048567 1119.58894423 916.65941204 1123.78856862 913.08711743 C1127.0421635 910.19078003 1130.05551008 907.05852722 1133.09325612 903.93867993 C1135.16828915 901.91190348 1137.25644271 900.01931059 1139.4531194 898.13252759 C1143.69457587 894.4338253 1147.71948801 890.55291833 1151.71044362 886.58711743 C1152.78505345 885.52105771 1152.78505345 885.52105771 1153.88137257 884.43346143 C1155.38013421 882.94407127 1156.87750552 881.45328081 1158.37352955 879.96114087 C1160.66367493 877.680795 1162.96427173 875.41133347 1165.26513112 873.14180493 C1166.7267245 871.68673429 1168.18768476 870.23102735 1169.64794362 868.77461743 C1170.33435933 868.10054852 1171.02077504 867.42647962 1171.72799122 866.73198438 C1174.96894117 863.4757103 1177.5381074 860.87370805 1178.78075612 856.31367993 C1171.31636123 849.81353059 1163.78591243 843.45686441 1155.96386158 837.39058423 C1151.98432598 834.29236637 1148.11105777 831.09413859 1144.28075612 827.81367993 C1138.22386794 822.63669608 1132.00432808 817.69735883 1125.70995533 812.81319165 C1123.66818635 811.22618265 1121.63234487 809.63178139 1119.59716237 808.03633618 C1108.44161534 799.30477484 1097.1498202 790.76492128 1085.78075612 782.31367993 C1084.56355885 781.40803296 1084.56355885 781.40803296 1083.32177174 780.48409009 C1072.97691763 772.79607702 1062.54666281 765.2456215 1051.98485768 757.85860181 C1049.69107628 756.25082061 1047.40351217 754.63447188 1045.11669362 753.01680493 C1018.58202485 734.28534976 991.34746518 716.48764721 963.78075612 699.31367993 C962.80267994 698.7041145 961.82460377 698.09454907 960.81688893 697.46651196 C945.2918921 687.80966584 929.62555213 678.43524985 913.78075612 669.31367993 C912.67474049 668.67430493 911.56872487 668.03492993 910.42919362 667.37617993 C894.77277574 658.32867886 878.9948087 649.55093267 863.03173268 641.05244946 C859.79153047 639.31944255 856.5623203 637.56745176 853.33544362 635.80977368 C825.16459816 620.50686096 796.46132701 606.16039083 767.27147877 592.9030354 C764.21073683 591.50945378 761.15557462 590.10474876 758.10256398 588.69437146 C712.1838519 567.48958015 665.33573927 548.52390316 617.78075612 531.31367993 C617.05880055 531.05240308 616.33684498 530.79112622 615.59301198 530.52193189 C515.52745638 494.37446134 412.45131386 466.94380618 -318.42007244 462.584512 C-384.54176448 476.12577428 -450.73543988 489.35015816 -518.07666576 495.1294148 C-520.11936532 495.30509022 -522.16147798 495.48662634 -524.20361888 495.6686604 C-543.51578643 497.32645234 -562.78277554 497.49171629 -582.15674388 497.50117993 C-583.98350658 497.5028114 -583.98350658 497.5028114 -585.84717357 497.50447583 C-589.35537371 497.50412037 -592.86341464 497.49494734 -596.37158763 497.48164868 C-597.41826107 497.48043515 -598.4649345 497.47922162 -599.5433253 497.47797132 C-600.53844631 497.47169217 -601.53356731 497.46541303 -602.55884349 497.45894361 C-603.41417171 497.45513181 -604.26949993 497.45132001 -605.15074718 497.4473927 C-609.5191284 497.25703618 -613.86841716 496.74876261 -618.21924388 496.31367993 C-618.21924388 360.35367993 -618.21924388 224.39367993 -618.21924388 84.31367993 C-599.31464678 79.09861866 -580.42678003 73.94372876 -561.40674388 69.18867993 C-559.50778865 68.71378629 -559.50778865 68.71378629 -557.57047069 68.22929883 C-485.32901048 50.20600224 -412.16704336 35.97453717 0 0 Z M1.24248707 141.33974195 C-113.05679167 142.55751836 -227.13914073 153.73660344 -476.21924388 207.31367993 C-476.24275353 219.35642984 -476.2603505 231.399174 -476.27105606 243.44194245 C-476.2762026 249.03811273 -476.28314379 254.63426695 -476.29468334 260.23042798 C-476.34768512 286.61077605 -476.21320657 312.94970077 -475.21924388 339.31367993 C-464.59774456 337.21599851 -453.98819431 335.06986387 -443.39502513 332.83321118 C-335.98534203 310.18031555 -227.34372228 294.68824084 773.78075612 436.31367993 C774.49948903 436.62071851 775.21822194 436.92775708 775.95873463 437.24409986 C785.93808982 441.51407375 795.8733409 445.87952854 805.78075612 450.31367993 C806.45846058 450.6166499 807.13616505 450.91961987 807.83440602 451.23177075 C831.36017775 461.7581046 854.57684688 472.87942646 877.68908131 484.28249097 C879.61679161 485.23284596 881.54563247 486.1808475 883.47509205 487.12764478 C895.75431661 493.159197 907.85040629 499.44557951 919.82763112 506.05586743 C924.19097841 508.45764176 928.57943138 510.80867653 932.98388112 513.13399243 C947.81560815 520.96805544 962.44351119 529.03440159 976.87304127 537.5959065 C980.84178295 539.94049646 984.83115293 542.248876 988.81957448 544.55977368 C1020.07734566 562.69104766 1050.53798783 582.07489691 1080.59325612 602.12617993 C1081.37723774 602.64903577 1082.16121937 603.1718916 1082.96895802 603.71059155 C1107.52455153 620.09804644 1131.43344487 637.24362077 1154.78075612 655.31367993 C1155.38194264 655.77838696 1155.98312916 656.243094 1156.60253346 656.72188306 C1165.84500438 663.88099957 1174.87410872 671.28800827 1183.87841237 678.74336743 C1186.39706576 680.82242013 1188.93264611 682.88036122 1191.46825612 684.93867993 C1196.2453882 688.83867548 1200.92131655 692.84924382 1205.59227955 696.87495923 C1209.09348541 699.88658969 1212.62884739 702.84445221 1216.21825612 705.75117993 C1221.90623721 710.37162205 1227.42640463 715.17437216 1232.95263112 719.98555493 C1236.56809899 723.13309572 1240.20156169 726.25904523 1243.84325612 729.37617993 C1244.41664723 729.86707105 1244.99003834 730.35796216 1245.58080494 730.86372876 C1246.73606129 731.85253197 1247.89141587 732.84122042 1249.0468694 733.82979321 C1251.95969661 736.32263521 1254.8700681 738.81834093 1257.78075612 741.31367993 C1258.64603932 742.05521314 1258.64603932 742.05521314 1259.52880299 742.81172681 C1262.45894604 745.3228103 1265.38822607 747.83488861 1268.31591237 750.34883618 C1278.70258289 759.26543751 1289.09564606 768.16951833 1299.71434987 776.80977368 C1302.0677167 778.73144011 1304.41318379 780.66127516 1306.75341237 782.59883618 C1315.05261935 789.46737381 1323.40487774 796.24827513 1331.91161549 802.85811353 C1333.94022088 804.43786083 1335.96223038 806.02582494 1337.98388112 807.61446118 C1347.3947714 814.99350175 1356.92542808 822.18930322 1366.57372487 829.25508618 C1367.28182301 829.77425611 1367.98992115 830.29342603 1368.71947682 830.82832837 C1370.07215826 831.80306649 1371.4377234 832.76021915 1372.81664479 833.697469 C1377.72343426 837.04499122 1379.67579133 839.53234632 1380.78075612 845.31367993 C1382.54150119 859.61973366 1375.92814574 871.16025527 1367.78075612 882.31367993 C1357.63764292 895.15540096 1345.81456914 906.39565705 1334.11132252 917.791219 C1315.03360476 934.7433798 1315.03360476 934.7433798 1305.78075612 957.31367993 C1306.64721694 960.31523744 1306.64721694 960.31523744 1308.78075612 962.31367993 C1311.97982246 963.7666381 1315.14060429 964.72929361 1318.56176198 965.50037122 C1319.49944826 965.71383821 1320.43713454 965.92730519 1321.40323555 966.14724088 C1322.42371578 966.37514184 1323.444196 966.6030428 1324.49559987 966.83784986 C1325.58468994 967.0845379 1326.67378001 967.33122594 1327.79587281 967.58538938 C1331.43580199 968.40885893 1335.07702335 969.22646429 1338.71825612 970.04414868 C1341.30446869 970.6281237 1343.89060194 971.21243933 1346.47663319 971.7972157 C1352.01384723 973.04869783 1357.55169608 974.29733572 1363.08999074 975.54402661 C1371.82991551 977.51149265 1380.56852493 979.48475957 1389.30687916 981.45918775 C1391.51826392 981.95881413 1393.72965071 982.45843149 1395.94103807 982.95804632 C1397.41883024 983.29192236 1398.89662071 983.62580588 1400.3744095 983.95969689 C1405.58066482 985.13594284 1410.78708878 986.31144045 1415.99357045 987.48668408 C1440.46808142 993.01172621 1464.93445293 998.57211949 1489.39681447 1004.15071607 C1495.55236211 1005.55447614 1501.7081481 1006.95718862 1507.86400807 1008.35957837 C1509.35963103 1008.70030346 1509.35963103 1008.70030346 1510.8854686 1009.04791188 C1512.87882278 1009.50201846 1514.87217852 1009.95611816 1516.86553586 1010.41021085 C1519.78991437 1011.07639885 1522.71428358 1011.74262764 1525.63865101 1012.40886426 C1531.35265239 1013.71061725 1537.06669053 1015.01220882 1542.78075612 1016.31367993 C1543.73322728 1016.53062261 1544.68569844 1016.74756528 1545.66703236 1016.97108197 C1556.74912951 1019.49509765 1567.83158721 1022.01751444 1578.91516221 1024.53503346 C1583.06735815 1025.47817533 1587.21939659 1026.42199508 1591.37099659 1027.36775708 C1595.1350205 1028.22520798 1598.89948692 1029.08068554 1602.66433537 1029.93450856 C1604.02703206 1030.24391655 1605.38956207 1030.55405965 1606.75191319 1030.8649857 C1608.59139749 1031.28468543 1610.43154111 1031.70149243 1612.27172291 1032.11812329 C1613.29501194 1032.35075376 1614.31830098 1032.58338422 1615.37259877 1032.82306409 C1617.69777556 1033.38022326 1617.69777556 1033.38022326 1619.78075612 1033.31367993 C1616.67357555 1018.23916012 1613.303324 1003.22986083 1609.88231862 988.22383618 C1609.29704783 985.65126081 1608.71190252 983.0786572 1608.126917 980.50601697 C1606.87521356 975.00237237 1605.62243672 969.49897305 1604.36889088 963.9957478 C1602.38165895 955.27149389 1600.39649294 946.54677056 1598.41161549 937.82198071 C1597.7294408 934.82350312 1597.04724829 931.82502959 1596.36504567 928.82655835 C1596.10947624 927.70325415 1596.10947624 927.70325415 1595.8487438 926.55725694 C1594.6265308 921.18541742 1593.40399698 915.81365097 1592.18132985 910.4419148 C1587.40114786 889.44000023 1582.62617785 868.43690625 1577.85500872 847.43294239 C1576.99498586 843.64694694 1576.13489113 839.86096782 1575.27480519 836.0749867 C1572.63101145 824.43724211 1569.9872682 812.79948607 1567.34404957 801.16161084 C1565.95461435 795.044078 1564.56484313 788.92662158 1563.17469835 782.80924994 C1562.46880963 779.70291815 1561.76311136 776.59654333 1561.05772984 773.49009633 C1559.55496905 766.87218256 1558.04947972 760.25490276 1556.53927052 753.63868451 C1556.00935327 751.31575263 1555.48030974 748.99262133 1554.95192921 746.66933942 C1554.12466061 743.03407959 1553.29392731 739.3996271 1552.46239674 735.76534009 C1552.20805615 734.64502582 1551.95371556 733.52471154 1551.69166768 732.37044835 C1551.4557214 731.34242919 1551.21977513 730.31441003 1550.97667897 729.25523877 C1550.76933377 728.34686072 1550.56198857 727.43848268 1550.34836018 726.50257802 C1549.85575763 724.29002703 1549.85575763 724.29002703 1548.78075612 722.31367993 C1541.29843122 720.12748624 1534.48754777 721.65280942 1527.78075612 725.31367993 C1523.26493142 728.71071923 1519.37396562 732.65037999 1515.47216237 736.72383618 C1509.84801105 742.56242654 1504.57681092 747.52887096 1496.34325612 748.87617993 C1478.92189608 746.12543888 1463.34146606 731.81796044 1449.78075612 721.31367993 C1449.19229908 720.8602522 1448.60384205 720.40682446 1447.99755299 719.9396565 C1433.81150434 708.99224917 1420.05917073 697.50572458 1406.4999944 685.79463696 C1404.72188571 684.26296879 1402.93777476 682.7385688 1401.15184987 681.21602368 C1395.03126508 675.99574234 1388.96607875 670.73098402 1383.00731862 665.32539868 C1380.94971221 663.46633324 1378.87228848 661.63439636 1376.78075612 659.81367993 C1372.88562801 656.421149 1369.05292849 652.96173793 1365.21825612 649.50117993 C1363.08658131 647.58813844 1360.94056501 645.69480381 1358.78075612 643.81367993 C1353.19095623 638.9422479 1347.70540714 633.95472843 1342.20263112 628.98555493 C1338.45948002 625.60982971 1334.71279139 622.24230559 1330.90575612 618.93867993 C1326.93978535 615.48651915 1323.07557966 611.92617113 1319.20751393 608.36543775 C1315.77321319 605.20918286 1312.29655032 602.11160934 1308.77294362 599.05586743 C1306.42054976 596.99867595 1304.10040646 594.90771079 1301.78075612 592.81367993 C1297.48232547 588.93857958 1293.15584149 585.1019542 1288.78075612 581.31367993 C1288.05444996 580.68187818 1288.05444996 580.68187818 1287.31347096 580.03731275 C1273.11162708 567.69497852 1258.42469803 556.18767801 1243.22460377 545.10030103 C1240.00663125 542.74774129 1236.80146036 540.37807536 1233.5961858 538.00826001 C1220.87705623 528.6099463 1208.14156388 519.23933529 1195.07372487 510.32930493 C1193.85667111 509.4981844 1193.85667111 509.4981844 1192.61503041 508.65027356 C1183.71048038 502.57462116 1174.78819605 496.52518776 1165.85473073 490.49214673 C1164.00756816 489.2439933 1162.16121862 487.99463585 1160.31566823 486.74409986 C1148.9382381 479.03519182 1137.48111459 471.52245978 1125.78075612 464.31367993 C1124.17705749 463.30404418 1122.57511148 462.29161082 1120.97606862 461.27461743 C1100.82867162 448.47179428 1080.49951636 435.99809591 1059.82128346 424.07002759 C1056.71651582 422.2765718 1053.61738018 420.47367802 1050.51903737 418.66914868 C1027.95030055 405.54959424 1005.14296088 392.91693685 981.93822682 380.95601392 C979.54305951 379.71018615 977.15452817 378.45439898 974.76976979 377.18892407 C961.39249599 370.09549381 947.88865516 363.26728136 934.34325612 356.50117993 C933.1920226 355.9258653 932.04078907 355.35055066 930.85466969 354.75780225 C915.10992601 346.8966308 899.35596221 339.10983438 883.30175221 331.89668775 C880.74719722 330.74818306 878.19556207 329.59431373 875.64647877 328.43379712 C790.24386371 289.56038088 702.14468147 256.49544465 1.24248707 141.33974195 Z " fill="#A56CFF" transform="translate(2237.2192438840866,36.686320066452026)"/>
<path d="M0 0 C135.96 0 271.92 0 412 0 C413.90542066 5.08112175 415.54847714 9.67370418 416.87841797 14.85668945 C417.043564 15.49588444 417.20871002 16.13507942 417.37886047 16.79364395 C417.92128801 18.8990269 418.45700097 21.00604693 418.9921875 23.11328125 C419.3781702 24.621378 419.76433387 26.12942845 420.15066528 27.63743591 C421.40059107 32.52698563 422.63844341 37.41955515 423.875 42.3125 C424.08699036 43.14977127 424.29898071 43.98704254 424.51739502 44.84968567 C432.6811778 77.09793952 440.20083795 109.43344476 447 142 C447.23958435 143.14138428 447.4791687 144.28276855 447.72601318 145.45874023 C471.64493822 259.44280313 487.25603752 375.56662812 494.6875 514.5 C494.77890762 516.38173416 494.77890762 516.38173416 494.87216187 518.30148315 C496.5652819 553.67292485 497.21063917 589.02843746 497.1875 624.4375 C497.18723312 625.36192398 497.18696625 626.28634796 497.18669128 627.23878479 C497.15156762 724.81703592 491.17153591 822.17622053 434 1162 C433.72260986 1163.13900757 433.44521973 1164.27801514 433.15942383 1165.45153809 C408.94766852 1264.69511967 378.07981218 1362.20169016 293.87109375 1564.98144531 C292.64037442 1567.62095567 291.41622517 1570.26331882 290.19921875 1572.90917969 C281.24766473 1592.36992319 271.81128199 1611.582466 262.25 1630.75 C261.68235931 1631.8905484 261.11471863 1633.0310968 260.52987671 1634.20620728 C253.39632462 1648.52453172 246.01139612 1662.66453611 238.2800293 1676.66870117 C236.50224954 1679.9065457 234.76752106 1683.16522866 233.0390625 1686.4296875 C226.10016448 1699.53419046 218.92620658 1712.45079991 211.38671875 1725.22265625 C208.06854757 1730.85191616 204.87402919 1736.54555475 201.6875 1742.25 C194.47295241 1755.10739009 186.79339324 1767.67345947 179.08184814 1780.23596191 C177.6517435 1782.56785948 176.22578842 1784.90228126 174.79981995 1787.23670959 C173.07737566 1790.0551709 171.35113886 1792.87129976 169.625 1795.6875 C169.02002686 1796.67661377 168.41505371 1797.66572754 167.79174805 1798.68481445 C158.34297532 1814.05066665 148.35652535 1829.0819382 138.43920898 1844.14746094 C137.18861024 1846.04833199 135.93925966 1847.95002481 134.69116211 1849.85253906 C127.07096297 1861.46788123 119.31931671 1872.95799084 111.2406311 1884.25958252 C109.55154578 1886.62911333 107.88536623 1889.01425293 106.22265625 1891.40234375 C91.38786117 1912.69327437 76.23058947 1933.78115479 60.32324219 1954.28662109 C58.28234659 1956.92924199 56.26058533 1959.58638299 54.23657227 1962.24194336 C45.28116344 1973.98702015 36.18070446 1985.5951709 26.83813477 1997.03491211 C23.31500652 2001.35616341 19.85846181 2005.72263505 16.4375 2010.125 C12.22178765 2015.53872467 7.8296858 2020.77380195 3.33959961 2025.96142578 C0.33714041 2029.43138918 -2.60898089 2032.93580135 -5.5 2036.5 C-10.37111508 2042.49454342 -15.40506802 2048.34246679 -20.44726562 2054.19287109 C-21.98645982 2055.98424144 -23.51787119 2057.78195887 -25.046875 2059.58203125 C-30.74162606 2066.27833009 -36.54688465 2072.84000683 -42.51171875 2079.296875 C-48.3614644 2085.20482408 -48.3614644 2085.20482408 -53 2092 C-43.32251594 2104.97833134 -33.45798069 2117.813059 -23.58203125 2130.640625 C-18.9315968 2136.68637123 -14.30466756 2142.75016216 -9.67333984 2148.81054688 C-6.94966737 2152.37428991 -4.2247987 2155.93711803 -1.5 2159.5 C1.78577558 2163.79640199 5.07125741 2168.09302712 8.35546875 2172.390625 C13.22870225 2178.76681836 18.1042552 2185.14106814 23 2191.5 C26.77998383 2196.40970437 30.5491904 2201.32750398 34.3125 2206.25 C34.85382568 2206.95801758 35.39515137 2207.66603516 35.95288086 2208.39550781 C38.82935019 2212.15844691 41.70434618 2215.92250577 44.578125 2219.6875 C45.16166748 2220.4515918 45.74520996 2221.21568359 46.34643555 2222.00292969 C47.46036428 2223.46154401 48.57383536 2224.920508 49.68676758 2226.37988281 C50.19361084 2227.04342773 50.7004541 2227.70697266 51.22265625 2228.390625 C51.69719238 2229.01259766 52.17172852 2229.63457031 52.66064453 2230.27539062 C53.86642035 2231.82799733 55.11626458 2233.34613785 56.37109375 2234.859375 C58 2237 58 2237 58 2239 C43.63881107 2243.08989764 29.18948386 2246.78428625 14.70703125 2250.41796875 C12.25987135 2251.03373931 9.81276465 2251.64972132 7.3657074 2252.26589966 C2.19426471 2253.56769466 -2.97748648 2254.86825242 -8.14953613 2256.16763306 C-16.2809495 2258.21054949 -24.4115565 2260.2566633 -32.54199219 2262.3034668 C-33.21697211 2262.47338579 -33.89195203 2262.64330479 -34.58738589 2262.81837285 C-37.30368661 2263.50217294 -40.01998629 2264.18597716 -42.73627794 2264.86981326 C-46.7802509 2265.88788468 -50.82427966 2266.90573406 -54.86835468 2267.92339998 C-74.50053945 2272.86376181 -94.12828665 2277.82121512 -113.74962234 2282.80448151 C-119.87456013 2284.35997862 -125.9997416 2285.91451594 -132.125 2287.46875 C-132.81151705 2287.64295597 -133.4980341 2287.81716194 -134.20535469 2287.99664688 C-155.71544963 2293.45418116 -177.23330274 2298.88106923 -198.75 2304.3125 C-207.27606424 2306.46475434 -215.80211576 2308.61705903 -224.328125 2310.76953125 C-225.37693092 2311.03431086 -226.42573685 2311.29909046 -227.50632477 2311.57189369 C-248.50613937 2316.87366937 -269.5034368 2322.18536486 -290.5 2327.5 C-321.97615774 2335.46714614 -353.45599813 2343.41964352 -384.93713379 2351.36709595 C-413.46065252 2358.56796395 -441.98221654 2365.77645181 -470.5 2373 C-499.02209337 2380.22463989 -527.54800043 2387.43408665 -556.07580566 2394.63613892 C-587.12285402 2402.47431569 -618.16978371 2410.31296494 -649.21374512 2418.1633606 C-652.66003423 2419.03483753 -656.10640388 2419.90599467 -659.55285645 2420.77682495 C-664.33752454 2421.98582907 -669.121946 2423.19580594 -673.90625 2424.40625 C-675.03514774 2424.69172793 -675.03514774 2424.69172793 -676.1868515 2424.9829731 C-684.80850582 2427.16398211 -693.42517812 2429.36315891 -702.03515625 2431.58984375 C-702.8534063 2431.80124748 -703.67165634 2432.01265121 -704.51470184 2432.23046112 C-708.44055382 2433.24496663 -712.3657091 2434.26202862 -716.28967285 2435.28381348 C-717.68202562 2435.64437171 -719.07439911 2436.00484993 -720.46679688 2436.36523438 C-721.68395386 2436.68182007 -722.90111084 2436.99840576 -724.15515137 2437.32458496 C-727 2438 -727 2438 -729 2438 C-727.43383647 2426.54755259 -724.53916288 2415.40987796 -721.78515625 2404.19921875 C-721.25715365 2402.03573429 -720.72957063 2399.87214739 -720.20237732 2397.70846558 C-719.07937388 2393.10267158 -717.95380816 2388.49751469 -716.82617188 2383.89285278 C-715.03963118 2376.59693439 -713.25932549 2369.29950418 -711.48046875 2362.00170898 C-711.1832939 2360.78258473 -710.88611904 2359.56346048 -710.57993889 2358.30739307 C-709.97970159 2355.84492012 -709.37948629 2353.38244181 -708.77929306 2350.91995811 C-707.87775456 2347.22183825 -706.97569133 2343.52384671 -706.07351685 2339.82588196 C-701.36268218 2320.51276997 -696.6906661 2301.19059343 -692.05146408 2281.86016083 C-691.30671836 2278.75719707 -690.56152952 2275.65433978 -689.81636143 2272.55147743 C-688.46513116 2266.92496155 -687.11410866 2261.29839584 -685.76353455 2255.67172241 C-680.62844175 2234.27964807 -675.4778524 2212.89130135 -670.32826614 2191.50271225 C-669.49923485 2188.05932195 -668.67025068 2184.6159203 -667.84127808 2181.17251587 C-654.62416429 2126.27161463 -641.3878397 2071.37534614 -628.15104675 2016.47918701 C-623.91297085 1998.90284606 -619.67506742 1981.32646355 -615.4375 1963.75 C-615.1582732 1962.5918428 -614.8790464 1961.43368561 -614.59135818 1960.24043274 C-606.59184388 1927.06036714 -598.59861604 1893.87879356 -590.6116333 1860.69570923 C-581.81451081 1824.14680649 -573.01656227 1787.59810128 -564.21022987 1751.0514164 C-562.76649326 1745.0598384 -561.32296931 1739.06820943 -559.88012695 1733.07641602 C-557.01351673 1721.17284045 -554.14243337 1709.27037313 -551.2620945 1697.37011147 C-549.70755049 1690.94253717 -548.1647447 1684.5122541 -546.62920856 1678.08011341 C-545.6133681 1673.8308304 -544.59094412 1669.58314904 -543.56712151 1665.335783 C-543.08578162 1663.33227484 -542.60734997 1661.32806555 -542.13195992 1659.32313728 C-541.48212193 1656.5839165 -540.82227542 1653.84729844 -540.15991211 1651.11108398 C-539.96955572 1650.29742056 -539.77919933 1649.48375713 -539.58307457 1648.64543724 C-539.11804918 1646.74716758 -538.56761342 1644.8701581 -538 1643 C-534.78800013 1641.39400006 -531.49128504 1641.63410455 -528 1642 C-525.28123731 1642.94528409 -523.0165188 1643.87165436 -520.5 1645.1875 C-519.81856934 1645.53627197 -519.13713867 1645.88504395 -518.43505859 1646.24438477 C-510.11666286 1650.72007442 -503.0577574 1656.78263926 -496 1663 C-495.02804688 1663.85464844 -494.05609375 1664.70929688 -493.0546875 1665.58984375 C-491.49575843 1666.98429865 -489.94425991 1668.38719329 -488.40625 1669.8046875 C-487.08475104 1671.01034077 -485.75574367 1672.20853541 -484.39527893 1673.37004089 C-478.37207316 1678.52276761 -472.77903436 1684.07498843 -467.18359375 1689.68359375 C-466.15819076 1690.70832108 -465.13263954 1691.73290011 -464.10694885 1692.75733948 C-461.96981937 1694.8930043 -459.83448391 1697.03044208 -457.70043945 1699.16918945 C-454.98524125 1701.89008416 -452.26557667 1704.6064631 -449.54453945 1707.32151699 C-447.42957925 1709.43283814 -445.31703793 1711.54656675 -443.20518684 1713.66099739 C-442.20413337 1714.66271091 -441.20235615 1715.66370177 -440.19979668 1716.663908 C-435.09611245 1721.7582349 -430.0897977 1726.87682921 -425.41200256 1732.36781311 C-423.39288349 1734.70178882 -421.21016914 1736.84799321 -419 1739 C-416.06881809 1741.89591958 -413.23596826 1744.80242571 -410.5625 1747.9375 C-406.89322698 1752.23133013 -402.88113108 1756.15136612 -398.84375 1760.09375 C-396.72714467 1762.2051466 -394.76274442 1764.40682653 -392.81640625 1766.67578125 C-388.27033786 1771.9235335 -383.35516688 1776.79059738 -378.4375 1781.6875 C-377.05788086 1783.07291992 -377.05788086 1783.07291992 -375.65039062 1784.48632812 C-371.25321016 1788.87718626 -366.87724534 1793.14527199 -362 1797 C-357.84618571 1795.44110932 -355.5306547 1792.40286554 -352.8125 1789.0625 C-352.32765137 1788.47766846 -351.84280273 1787.89283691 -351.34326172 1787.2902832 C-349.88869069 1785.5323384 -348.44360572 1783.76695303 -347 1782 C-346.25363281 1781.09507813 -345.50726562 1780.19015625 -344.73828125 1779.2578125 C-342.48191282 1776.5134679 -340.24133912 1773.75663091 -338 1771 C-337.00295295 1769.78486998 -336.00553394 1768.5700451 -335.0078125 1767.35546875 C-328.79259825 1759.77137695 -322.7274935 1752.09595849 -316.8034668 1744.28222656 C-313.29741864 1739.66653604 -309.71174898 1735.1279807 -306.0625 1730.625 C-299.7094647 1722.75798735 -293.74869256 1714.61644515 -287.79101562 1706.44824219 C-286.0099816 1704.01364443 -284.21808826 1701.5874781 -282.421875 1699.1640625 C-275.33379792 1689.59875991 -268.36825813 1679.95996399 -261.54492188 1670.20410156 C-259.93714067 1667.91032017 -258.32079194 1665.62275606 -256.703125 1663.3359375 C-215.13450708 1604.4505227 -177.79733874 1542.5867307 -143.68164062 1479.12060547 C-141.95740355 1475.92095416 -140.22156498 1472.72779107 -138.484375 1469.53515625 C-123.93638431 1442.70991883 -110.32287648 1415.41933151 -97.66894531 1387.64990234 C-96.19665102 1384.42307465 -94.70687466 1381.20456629 -93.21351624 1377.98744202 C-54.32337064 1294.19129611 -22.1249039 1207.066309 37.43609619 979.81231689 C38.00230071 976.98852585 38.57376926 974.16583792 39.14599609 971.34326172 C55.94818684 888.18425633 66.6030734 803.72432308 71 719 C71.05220703 718.00081543 71.10441406 717.00163086 71.15820312 715.97216797 C75.77697045 626.23408068 74.29849238 535.62878445 34.0740509 299.34492111 C16.28546083 212.6370475 -0.88692697 125.61926074 -1.125 36.75 C-1.12967285 35.60418457 -1.1343457 34.45836914 -1.13916016 33.27783203 C-1.11885687 22.14382118 -0.50719963 11.15839179 0 0 Z M158 143 C158.60343732 149.23370569 159.57303335 155.22290593 160.93359375 161.33203125 C161.33420821 163.1726401 161.73458762 165.01330012 162.13476562 166.85400391 C162.34657471 167.82122375 162.55838379 168.7884436 162.77661133 169.78497314 C184.81780188 270.75552865 199.79536007 373.24687732 209.6875 518.625 C209.77904358 520.33215179 209.77904358 520.33215179 209.87243652 522.0737915 C211.71569041 556.95416819 212.20686099 591.76574089 212.1875 626.6875 C212.18723312 627.76851486 212.18696625 628.84952972 212.18669128 629.96330261 C212.17659796 662.58688951 212.01872977 695.15477321 210.18359375 727.73608398 C209.98716995 731.2280916 209.79826722 734.72046796 209.609375 738.21289062 C203.27422828 853.64592256 187.63875696 968.75778087 153 1115 C152.7595697 1115.96194275 152.5191394 1116.9238855 152.27142334 1117.91497803 C129.625426 1208.46264814 99.99371286 1297.50265152 39 1440 C38.69896362 1440.65923462 38.39792725 1441.31846924 38.08776855 1441.99768066 C30.69704045 1458.1676483 23.01531931 1474.19469932 15.25 1490.1875 C14.86152893 1490.98944794 14.47305786 1491.79139587 14.07281494 1492.61764526 C8.65813785 1503.78324432 3.01515545 1514.80813293 -2.81207275 1525.76382446 C-4.28688195 1528.54003173 -5.75125157 1531.32165888 -7.21516418 1534.10362244 C-15.35040149 1549.55524697 -23.62099516 1564.90875319 -32.31494141 1580.05517578 C-34.14185693 1583.24791051 -35.95257694 1586.4495063 -37.76171875 1589.65234375 C-58.41515342 1626.16132949 -80.75703386 1661.65251836 -104 1696.5625 C-104.46109161 1697.25552216 -104.92218323 1697.94854431 -105.39724731 1698.66256714 C-112.17212916 1708.83972762 -119.04685772 1718.94385614 -126 1729 C-126.85730713 1730.24317993 -126.85730713 1730.24317993 -127.73193359 1731.51147461 C-135.55332833 1742.82218466 -143.81850538 1753.77243289 -152.20654297 1764.66748047 C-153.73892692 1766.66045573 -155.26453566 1768.65820448 -156.78515625 1770.66015625 C-161.77356606 1777.20592326 -166.90400942 1783.6172456 -172.11401367 1789.98730469 C-175.63732862 1794.30030141 -179.08770375 1798.6614311 -182.5 1803.0625 C-187.89517064 1809.99506253 -193.64810381 1816.59176269 -199.43310547 1823.19921875 C-201.83799608 1825.96308181 -204.20218618 1828.76056253 -206.5625 1831.5625 C-211.83677883 1837.8173948 -217.15802432 1844.03106689 -222.48828125 1850.23828125 C-223.98326495 1851.9804974 -225.47634266 1853.72432664 -226.96875 1855.46875 C-232.66944599 1862.13066988 -238.39505916 1868.77010237 -244.14208984 1875.39208984 C-248.79045333 1880.75110191 -253.41199753 1886.1326421 -258.0234375 1891.5234375 C-260.04504983 1893.88665561 -262.07146437 1896.24563043 -264.1015625 1898.6015625 C-269.39408705 1904.74836591 -274.61917379 1910.93504933 -279.73046875 1917.234375 C-281.78741596 1919.74094751 -283.87587225 1922.21465643 -285.98144531 1924.68017578 C-291.66381715 1931.33615653 -297.1224091 1938.13956545 -302.48730469 1945.05322266 C-304.11443022 1947.14726704 -305.74822757 1949.23599267 -307.3828125 1951.32421875 C-313.04489397 1958.56667095 -318.66798058 1965.8356626 -324.1875 1973.1875 C-324.67436279 1973.83275635 -325.16122559 1974.4780127 -325.6628418 1975.14282227 C-328.15104817 1978.45834788 -330.56993142 1981.80472115 -332.91015625 1985.2265625 C-333.38751221 1985.91210205 -333.86486816 1986.5976416 -334.35668945 1987.30395508 C-335.2536161 1988.59693134 -336.13507073 1989.90085068 -336.99682617 1991.2175293 C-340.23828153 1995.85557934 -343.51897137 1997.68147031 -349 1999 C-361.66938428 2000.96136911 -372.75386249 1994.79466451 -383 1988 C-395.2814221 1978.99960015 -406.21960958 1967.90642755 -416.89453125 1957.09765625 C-417.87251427 1956.10795082 -417.87251427 1956.10795082 -418.87025452 1955.09825134 C-421.52701873 1952.40511302 -424.18058559 1949.70897995 -426.82495117 1947.00366211 C-440.43186689 1932.49356645 -440.43186689 1932.49356645 -458 1924 C-461.84813965 1924.06330556 -461.84813965 1924.06330556 -465 1926 C-467.73606729 1932.09783988 -469.16791662 1938.42671978 -470.6184082 1944.93066406 C-470.86388208 1946.00998923 -471.10935596 1947.0893144 -471.36226845 1948.2013464 C-472.18043647 1951.80492108 -472.99057251 1955.41025316 -473.80078125 1959.015625 C-474.38674971 1961.60365657 -474.973176 1964.19158031 -475.56019592 1966.77937317 C-476.82233379 1972.34731984 -478.0804668 1977.91615884 -479.33587646 1983.48562622 C-481.15783471 1991.56825207 -482.98619481 1999.64941903 -484.8164196 2007.73017657 C-485.67101731 2011.503393 -486.52538721 2015.276661 -487.37969971 2019.04994202 C-487.55076658 2019.80549753 -487.72183345 2020.56105305 -487.89808416 2021.33950418 C-489.12726502 2026.76907957 -490.3552676 2032.19892068 -491.58270264 2037.62889099 C-496.50124248 2059.38718622 -501.43400007 2081.14221314 -506.37890625 2102.89453125 C-506.54842214 2103.64023015 -506.71793803 2104.38592904 -506.89259076 2105.15422487 C-508.40773696 2111.819201 -509.92307924 2118.48413253 -511.43870258 2125.14900017 C-513.5228619 2134.31400632 -515.60606661 2143.47922879 -517.68839467 2152.64465117 C-518.14617196 2154.65946075 -518.60401782 2156.67425473 -519.06188869 2158.68904305 C-520.50763295 2165.05091686 -521.95279879 2171.41292093 -523.39659119 2177.77523804 C-525.7846284 2188.29361769 -528.18071554 2198.8097724 -530.62207031 2209.31591797 C-531.00923365 2210.98732449 -531.39633169 2212.65874615 -531.78335571 2214.33018494 C-532.46622757 2217.27888406 -533.15586283 2220.22587009 -533.85018921 2223.17189026 C-534.14019806 2224.42283981 -534.43020691 2225.67378937 -534.72900391 2226.96264648 C-534.97744049 2228.02128403 -535.22587708 2229.07992157 -535.48184204 2230.17063904 C-535.97355742 2232.85561236 -536.10184838 2235.27848051 -536 2238 C-472.98406555 2223.90134924 -410.02657778 2209.54718596 -347.07217968 2195.17688185 C-329.47762503 2191.16070619 -311.88168614 2187.15068819 -294.28398132 2183.1483326 C-287.7526477 2181.66261046 -281.22162085 2180.17554041 -274.69061279 2178.68838787 C-269.69113279 2177.55009584 -264.69145091 2176.41270727 -259.69128418 2175.2774353 C-255.13607301 2174.24318138 -250.58139109 2173.20663084 -246.02713394 2172.16818428 C-244.38865852 2171.79504553 -242.74997862 2171.42280332 -241.11108017 2171.05152702 C-238.91156243 2170.55314507 -236.71277816 2170.05165015 -234.51416016 2169.54931641 C-233.29443512 2169.27197662 -232.07471008 2168.99463684 -230.81802368 2168.70889282 C-228.07175599 2168.12566986 -228.07175599 2168.12566986 -226 2167 C-223.80606755 2160.41820265 -224.8393529 2154.85648559 -227.546875 2148.640625 C-231.40789216 2141.62436801 -236.97865499 2135.91016104 -242.75 2130.4375 C-247.52980883 2125.71649374 -251.73541546 2120.63801139 -252.1328125 2113.671875 C-249.39363694 2093.49550869 -230.28423954 2074.23514841 -218 2059 C-217.24203125 2058.05898437 -216.4840625 2057.11796875 -215.703125 2056.1484375 C-207.00853954 2045.44978092 -198.01939972 2034.99440171 -189.03515625 2024.5390625 C-187.01428894 2022.18625588 -185.00188441 2019.82660789 -182.99609375 2017.4609375 C-177.04434649 2010.45392277 -170.94452707 2003.62278027 -164.6796875 1996.89453125 C-161.96198266 1993.95893462 -159.3174232 1990.9731498 -156.69921875 1987.94921875 C-153.18593962 1983.91904339 -149.58253666 1979.96853388 -146 1976 C-144.49971321 1974.33359149 -142.99971128 1972.66692647 -141.5 1971 C-140.75492188 1970.17242188 -140.00984375 1969.34484375 -139.2421875 1968.4921875 C-137.76707382 1966.85260121 -136.29308348 1965.21200345 -134.8203125 1963.5703125 C-130.27458111 1958.50691775 -125.69381364 1953.47711796 -121.09082031 1948.46582031 C-116.69315191 1943.674239 -112.34298015 1938.84109974 -108 1934 C-106.50028872 1932.33307353 -105.00028679 1930.66640851 -103.5 1929 C-102.7575 1928.17371094 -102.015 1927.34742187 -101.25 1926.49609375 C-99.75517311 1924.83777017 -98.2551942 1923.18407559 -96.75 1921.53515625 C-92.04651628 1916.36622363 -87.56323508 1911.06901343 -83.171875 1905.6328125 C-81.23888998 1903.28958965 -79.24364569 1901.04707156 -77.1875 1898.8125 C-71.30752845 1892.25986899 -66.21677524 1885.08089882 -61 1878 C-59.85836374 1876.45811796 -58.71643167 1874.9164549 -57.57421875 1873.375 C-50.72064428 1864.11276603 -43.93675189 1854.8017683 -37.20703125 1845.44921875 C-35.08952457 1842.50684317 -32.961756 1839.57238525 -30.82421875 1836.64453125 C-22.28880237 1824.9367982 -14.07979687 1813.02601649 -6 1801 C-5.53021729 1800.30080444 -5.06043457 1799.60160889 -4.57641602 1798.88122559 C13.77448088 1771.55482592 31.80979907 1744.07557685 49 1716 C49.65081543 1714.93942383 50.30163086 1713.87884766 50.97216797 1712.78613281 C70.30600075 1681.24931688 88.56762043 1649.1144691 106.08227539 1616.5324707 C107.52823417 1613.85598554 109.00006977 1611.19469255 110.47827148 1608.53588867 C118.9382286 1593.26363153 126.8120003 1577.71836904 134.60766602 1562.1003418 C136.06762068 1559.17582796 137.53210968 1556.25366505 139.0012207 1553.33374023 C148.93429263 1533.5900286 158.39782525 1513.68740711 167.42453003 1493.51333618 C169.52853944 1488.82134425 171.66561657 1484.14482471 173.8046875 1479.46875 C196.51997476 1429.59196938 216.58682252 1378.6112414 235 1327 C235.33515625 1326.06111938 235.6703125 1325.12223877 236.015625 1324.15490723 C274.51403996 1216.1550495 303.58558467 1105.01363371 297 144 C262.95497099 143.21991442 228.92830593 142.90555131 194.875 142.9375 C193.95606586 142.93835602 193.03713173 142.93921204 192.0903511 142.94009399 C180.72688055 142.95146751 169.36344038 142.97151874 158 143 Z " fill="#A56CFF" transform="translate(3956,1382)"/>
<path d="M0 0 C1449.36 0 2898.72 0 4392 0 C4392 47.19 4392 94.38 4392 143 C2942.64 143 1493.28 143 0 143 C0 95.81 0 48.62 0 0 Z " fill="#A56CFF" transform="translate(61,4286)"/>
<path d="M0 0 C47.19 0 94.38 0 143 0 C143 47.52 143 95.04 143 144 C95.81 144 48.62 144 0 144 C0 96.48 0 48.96 0 0 Z " fill="#A56CFF" transform="translate(1548,3577)"/>
<path d="M0 0 C47.19 0 94.38 0 143 0 C143 47.52 143 95.04 143 144 C95.81 144 48.62 144 0 144 C0 96.48 0 48.96 0 0 Z " fill="#A56CFF" transform="translate(1265,3577)"/>
<path d="M0 0 C47.19 0 94.38 0 143 0 C143 47.52 143 95.04 143 144 C95.81 144 48.62 144 0 144 C0 96.48 0 48.96 0 0 Z " fill="#A56CFF" transform="translate(981,3577)"/>
<path d="M0 0 C47.19 0 94.38 0 143 0 C143 47.52 143 95.04 143 144 C95.81 144 48.62 144 0 144 C0 96.48 0 48.96 0 0 Z " fill="#A56CFF" transform="translate(1548,2727)"/>
<path d="M0 0 C47.19 0 94.38 0 143 0 C143 47.52 143 95.04 143 144 C95.81 144 48.62 144 0 144 C0 96.48 0 48.96 0 0 Z " fill="#A56CFF" transform="translate(1265,2727)"/>
<path d="M0 0 C47.19 0 94.38 0 143 0 C143 47.52 143 95.04 143 144 C95.81 144 48.62 144 0 144 C0 96.48 0 48.96 0 0 Z " fill="#A56CFF" transform="translate(981,2727)"/>
<path d="M0 0 C47.19 0 94.38 0 143 0 C143 47.19 143 94.38 143 143 C95.81 143 48.62 143 0 143 C0 95.81 0 48.62 0 0 Z " fill="#A56CFF" transform="translate(1548,3294)"/>
<path d="M0 0 C47.19 0 94.38 0 143 0 C143 47.19 143 94.38 143 143 C95.81 143 48.62 143 0 143 C0 95.81 0 48.62 0 0 Z " fill="#A56CFF" transform="translate(1265,3294)"/>
<path d="M0 0 C47.19 0 94.38 0 143 0 C143 47.19 143 94.38 143 143 C95.81 143 48.62 143 0 143 C0 95.81 0 48.62 0 0 Z " fill="#A56CFF" transform="translate(981,3294)"/>
<path d="M0 0 C47.19 0 94.38 0 143 0 C143 47.19 143 94.38 143 143 C95.81 143 48.62 143 0 143 C0 95.81 0 48.62 0 0 Z " fill="#A56CFF" transform="translate(1548,3011)"/>
<path d="M0 0 C47.19 0 94.38 0 143 0 C143 47.19 143 94.38 143 143 C95.81 143 48.62 143 0 143 C0 95.81 0 48.62 0 0 Z " fill="#A56CFF" transform="translate(1265,3011)"/>
<path d="M0 0 C47.19 0 94.38 0 143 0 C143 47.19 143 94.38 143 143 C95.81 143 48.62 143 0 143 C0 95.81 0 48.62 0 0 Z " fill="#A56CFF" transform="translate(981,3011)"/>
<path d="M0 0 C47.19 0 94.38 0 143 0 C143 47.19 143 94.38 143 143 C95.81 143 48.62 143 0 143 C0 95.81 0 48.62 0 0 Z " fill="#A56CFF" transform="translate(1973,2161)"/>
<path d="M0 0 C47.19 0 94.38 0 143 0 C143 47.19 143 94.38 143 143 C95.81 143 48.62 143 0 143 C0 95.81 0 48.62 0 0 Z " fill="#A56CFF" transform="translate(1690,2161)"/>
<path d="M0 0 C47.19 0 94.38 0 143 0 C143 47.19 143 94.38 143 143 C95.81 143 48.62 143 0 143 C0 95.81 0 48.62 0 0 Z " fill="#A56CFF" transform="translate(1406,2161)"/>
<path d="M0 0 C47.19 0 94.38 0 143 0 C143 47.19 143 94.38 143 143 C95.81 143 48.62 143 0 143 C0 95.81 0 48.62 0 0 Z " fill="#A56CFF" transform="translate(1123,2161)"/>
<path d="M0 0 C47.19 0 94.38 0 143 0 C143 47.19 143 94.38 143 143 C95.81 143 48.62 143 0 143 C0 95.81 0 48.62 0 0 Z " fill="#A56CFF" transform="translate(1973,1878)"/>
<path d="M0 0 C47.19 0 94.38 0 143 0 C143 47.19 143 94.38 143 143 C95.81 143 48.62 143 0 143 C0 95.81 0 48.62 0 0 Z " fill="#A56CFF" transform="translate(1690,1878)"/>
<path d="M0 0 C47.19 0 94.38 0 143 0 C143 47.19 143 94.38 143 143 C95.81 143 48.62 143 0 143 C0 95.81 0 48.62 0 0 Z " fill="#A56CFF" transform="translate(1406,1878)"/>
<path d="M0 0 C47.19 0 94.38 0 143 0 C143 47.19 143 94.38 143 143 C95.81 143 48.62 143 0 143 C0 95.81 0 48.62 0 0 Z " fill="#A56CFF" transform="translate(1123,1878)"/>
<path d="M0 0 C47.19 0 94.38 0 143 0 C143 47.19 143 94.38 143 143 C95.81 143 48.62 143 0 143 C0 95.81 0 48.62 0 0 Z " fill="#A56CFF" transform="translate(1973,1594)"/>
<path d="M0 0 C47.19 0 94.38 0 143 0 C143 47.19 143 94.38 143 143 C95.81 143 48.62 143 0 143 C0 95.81 0 48.62 0 0 Z " fill="#A56CFF" transform="translate(1690,1594)"/>
<path d="M0 0 C47.19 0 94.38 0 143 0 C143 47.19 143 94.38 143 143 C95.81 143 48.62 143 0 143 C0 95.81 0 48.62 0 0 Z " fill="#A56CFF" transform="translate(1406,1594)"/>
<path d="M0 0 C47.19 0 94.38 0 143 0 C143 47.19 143 94.38 143 143 C95.81 143 48.62 143 0 143 C0 95.81 0 48.62 0 0 Z " fill="#A56CFF" transform="translate(1123,1594)"/>
</svg>
