<?xml version="1.0" encoding="UTF-8"?>
<svg version="1.1" xmlns="http://www.w3.org/2000/svg" width="4500" height="4500">
<path d="M0 0 C7.56782538 6.91401757 12.7767763 14.35127706 13.30078506 24.89648628 C13.3173634 26.80145662 13.31247308 28.70669749 13.28961182 30.61160278 C13.29473837 32.19862859 13.29473837 32.19862859 13.29996848 33.81771553 C13.30652092 37.3385569 13.28461414 40.8586242 13.26269531 44.37939453 C13.26156627 46.91285687 13.2622018 49.44632052 13.26446533 51.9797821 C13.26537418 57.42161918 13.2540799 62.86321005 13.23151398 68.30499649 C13.19890964 76.1727034 13.18857838 84.04031771 13.18356201 91.90808485 C13.17482253 104.67510413 13.14824366 117.44202077 13.11035156 130.20898438 C13.0735965 142.60578907 13.04530189 155.00256583 13.02832031 167.39941406 C13.02674397 168.54696001 13.02674397 168.54696001 13.02513579 169.71768869 C13.01991537 173.55588849 13.0148606 177.39408848 13.00988817 181.2322886 C12.96846811 213.03904891 12.89775775 244.84568033 12.80859375 276.65234375 C13.49959404 276.64930599 14.19059432 276.64626822 14.90253401 276.64313841 C55.85355221 276.46412778 96.80452501 276.32685855 137.75585577 276.24382111 C142.6725243 276.23381542 147.58919203 276.22346084 152.50585938 276.21289062 C153.48468254 276.21079214 154.4635057 276.20869366 155.47199017 276.20653158 C171.32263175 276.17171758 187.17304129 276.10863919 203.02354521 276.03512138 C219.28670783 275.96031849 235.5497489 275.91587551 251.8130765 275.89963579 C261.84919243 275.88865673 271.88465255 275.85397725 281.92056662 275.78901201 C288.80187542 275.74673554 295.682845 275.73394025 302.56427425 275.74433273 C306.53523771 275.74945893 310.50505501 275.74158362 314.47581482 275.69869995 C318.11353958 275.65970021 321.74935036 275.65784044 325.38716418 275.68515259 C327.32194666 275.69012152 329.25670732 275.65567145 331.19116163 275.61969328 C337.38195492 275.70481272 341.00080486 276.10624224 345.51407623 280.55583954 C346.6464794 281.89309045 347.7502111 283.25577542 348.80859375 284.65234375 C349.86119385 285.89286499 349.86119385 285.89286499 350.93505859 287.15844727 C351.71937256 288.20923462 351.71937256 288.20923462 352.51953125 289.28125 C353.11967041 290.08119385 353.71980957 290.8811377 354.33813477 291.70532227 C354.94713623 292.53346436 355.5561377 293.36160645 356.18359375 294.21484375 C356.83062256 295.0874585 357.47765137 295.96007324 358.14428711 296.85913086 C363.61306068 304.28467768 368.99236558 311.78297245 373.80859375 319.65234375 C374.30573179 320.41090442 374.80286983 321.16946508 375.31507266 321.95101243 C379.84887803 329.38250671 380.65688577 335.25677731 380.53012085 343.85783386 C380.5352474 345.14538442 380.54037395 346.43293499 380.54565585 347.75950223 C380.55897225 351.3037564 380.5352141 354.84690756 380.50498748 358.39102137 C380.47893751 362.22385381 380.4878547 366.05663023 380.49240112 369.88952637 C380.49553852 376.52039875 380.47680556 383.15091533 380.44297409 389.78169823 C380.39409252 399.36848736 380.37857327 408.95510545 380.37104614 418.5420057 C380.357933 434.09816954 380.31805409 449.65414399 380.26123047 465.21020508 C380.20610801 480.31631542 380.16372999 495.42237396 380.13818359 510.52856445 C380.13657561 511.47009493 380.13496763 512.4116254 380.13331091 513.3816871 C380.12083347 520.745702 380.10909224 528.10971803 380.09758353 535.4737345 C380.04104 571.53344478 379.92031684 607.59268064 379.80859375 643.65234375 C428.64859375 643.65234375 477.48859375 643.65234375 527.80859375 643.65234375 C527.73898437 621.22265625 527.669375 598.79296875 527.59765625 575.68359375 C527.56701078 561.50129932 527.53784337 547.31902518 527.515625 533.13671875 C527.50387775 525.68815024 527.49175485 518.23958249 527.47900391 510.79101562 C527.47663017 509.39067904 527.47663017 509.39067904 527.47420847 507.96205282 C527.44811192 492.89005523 527.40080873 477.81819498 527.34567697 462.74627882 C527.28956954 447.27863902 527.25624142 431.81107111 527.24406278 416.34333372 C527.23582966 406.79868598 527.20982571 397.25442624 527.16109495 387.70989794 C527.12938124 381.16501547 527.11979268 374.62033363 527.12758549 368.07537991 C527.13142896 364.29902578 527.1255344 360.52334968 527.0933609 356.74711609 C527.05871447 352.65066987 527.07067103 348.55566594 527.08706665 344.45910645 C527.0695896 343.26843331 527.05211255 342.07776017 527.0341059 340.85100603 C527.11621733 333.27139809 528.53334842 329.10629965 533.80859375 323.65234375 C534.76353899 322.5627906 535.71695229 321.47189033 536.66796875 320.37890625 C537.62685283 319.34073078 538.59049256 318.30692962 539.55859375 317.27734375 C540.33674438 316.44444824 540.33674438 316.44444824 541.13061523 315.59472656 C564.39352274 290.81227469 564.39352274 290.81227469 572.576493 290.51585587 C574.26202656 290.50522916 575.94760049 290.50023313 577.63316733 290.49937856 C579.03022513 290.49280278 579.03022513 290.49280278 580.45550632 290.48609415 C583.61812769 290.47246133 586.78072452 290.46600868 589.94336796 290.45946312 C592.22681927 290.45114762 594.51026906 290.44240468 596.79371724 290.43326992 C603.12463826 290.40927406 609.45556389 290.3916342 615.78650808 290.37504352 C621.94616561 290.35846792 628.10580499 290.33643867 634.26544755 290.31512283 C647.8202572 290.26845432 661.37508058 290.22797645 674.92991709 290.19001161 C687.07602201 290.15599128 699.22211836 290.11981265 711.36821175 290.08190155 C791.49974588 289.83242973 871.63137602 289.64365724 951.76316833 289.50039673 C952.70664753 289.4987084 953.65012672 289.49702008 954.62219619 289.49528059 C997.61089626 289.41844585 1040.59960448 289.34870715 1083.58832996 289.28773785 C1101.69818119 289.26203173 1119.80803101 289.23537662 1137.91788003 289.20816427 C1140.95120198 289.20361214 1143.98452396 289.19908789 1147.01784595 289.19456452 C1210.91068402 289.09893842 1274.80297282 288.92304721 1338.69548718 288.7009003 C1385.31944725 288.53882488 1431.94327909 288.38967898 1478.5674963 288.32819557 C1479.52680664 288.32692431 1480.48611699 288.32565306 1481.47449735 288.32434328 C1502.53646494 288.29667391 1523.59843364 288.27583279 1544.66041432 288.26143753 C1553.13570567 288.25552897 1561.61099619 288.24866102 1570.08628654 288.24147415 C1571.47763262 288.24033019 1571.47763262 288.24033019 1572.89708669 288.23916312 C1602.75464473 288.21414548 1632.61128565 288.11030299 1662.46848142 287.96502488 C1692.55782222 287.81899672 1722.64624925 287.75144836 1752.73594884 287.79192527 C1756.89954893 287.79750796 1761.06314958 287.8022012 1765.22675133 287.80635834 C1766.45096201 287.80762935 1766.45096201 287.80762935 1767.69990423 287.80892603 C1780.59282155 287.82000899 1793.48382917 287.74722682 1806.37623883 287.63893698 C1819.07267762 287.53403648 1831.76663084 287.51917597 1844.46328339 287.59822424 C1851.24946654 287.63804123 1858.02891249 287.63640237 1864.8144967 287.52458541 C1871.00298956 287.42339481 1877.18018939 287.43974265 1883.36850276 287.54560303 C1885.57936762 287.56359065 1887.79109443 287.54061882 1890.00087577 287.46911063 C1904.01276362 287.04495865 1914.37469589 291.17114353 1924.61717546 300.63031298 C1936.58792992 312.35053242 1938.73138881 324.64848362 1939.072837 340.89936731 C1939.11829127 345.90276989 1939.03802148 350.90059231 1938.94389911 355.90302324 C1938.86874056 361.39973384 1938.9406982 366.89500739 1938.99293557 372.39171514 C1939.06474545 382.04430356 1939.04426947 391.69323124 1938.96262813 401.34569091 C1938.84092239 415.7943609 1938.86460447 430.24095205 1938.91609108 444.68980137 C1939.00197462 469.31720895 1938.96526432 493.9432537 1938.86610603 518.5705452 C1938.76605432 543.52101156 1938.72094873 568.47069828 1938.74268723 593.42136574 C1938.7433492 594.20908945 1938.74401117 594.99681316 1938.7446932 595.80840729 C1938.75077974 603.0276518 1938.75747494 610.24689563 1938.76489515 617.4661389 C1938.78347069 635.56648917 1938.79378987 653.66683939 1938.79862392 671.76719844 C1938.79896485 673.01114334 1938.79896485 673.01114334 1938.79931268 674.28021843 C1938.80977428 715.13422144 1938.72646109 755.98797444 1938.63704109 796.84185982 C1938.60563852 811.21856046 1938.57468234 825.5952619 1938.54537129 839.97196698 C1938.54354883 840.86570631 1938.54172637 841.75944564 1938.53984868 842.68026797 C1938.45592552 884.10488232 1938.43623424 925.52945109 1938.43292633 966.95414107 C1938.43270669 969.6643812 1938.43245686 972.37462131 1938.43219929 975.08486143 C1938.43067443 991.42795263 1938.42981774 1007.77104382 1938.4297324 1024.11413509 C1938.42949109 1064.74039585 1938.42123701 1105.36665292 1938.40754604 1145.99291134 C1938.40723836 1146.91771984 1938.40693068 1147.84252834 1938.40661367 1148.79536134 C1938.3866267 1208.67725891 1938.33365771 1268.55907281 1938.25302982 1328.44091892 C1938.25174314 1329.39673949 1938.25045646 1330.35256006 1938.24913079 1331.33734488 C1938.20989439 1360.43230148 1938.1682144 1389.52725452 1938.12605627 1418.62220701 C1938.07941411 1450.81920204 1938.03318888 1483.01619761 1937.98876953 1515.2131958 C1937.98743239 1516.18139175 1937.98609526 1517.14958769 1937.9847176 1518.14712291 C1937.8578202 1610.1309045 1937.79822021 1702.1146907 1937.75598457 1794.09854556 C1937.75419037 1797.99541733 1937.75237669 1801.89228909 1937.75056221 1805.78916085 C1937.73386639 1841.64943705 1937.71795992 1877.50971358 1937.70304472 1913.36999056 C1937.70244969 1914.80034579 1937.70244969 1914.80034579 1937.70184265 1916.25959709 C1937.7006418 1919.14675128 1937.69944126 1922.03390548 1937.69824073 1924.92105967 C1937.66580502 2002.9157328 1937.62648566 2080.910402 1937.58270568 2158.90506956 C1937.58116279 2161.6568626 1937.57962519 2164.40865564 1937.57808918 2167.16044869 C1937.52818392 2256.52710375 1937.46588543 2345.89373747 1937.11352539 2662.84594727 C1937.11257619 2663.61938649 1937.111627 2664.39282571 1937.11064904 2665.18970248 C1937.01472619 2743.34392247 1936.91445344 2821.49813655 1936.80859375 2899.65234375 C1937.49002788 2899.39584706 1938.171462 2899.13935038 1938.87354565 2898.87508106 C1942.00350503 2897.6975068 1945.13395065 2896.52123036 1948.2644043 2895.3449707 C1949.3361364 2894.94153694 1950.4078685 2894.53810318 1951.51207733 2894.12244415 C1960.16510767 2890.8727168 1968.85032133 2887.75631065 1977.62109375 2884.83984375 C1978.35784332 2884.59454926 1979.0945929 2884.34925476 1979.85366821 2884.0965271 C2038.08104635 2864.80854995 2098.34059338 2852.20992166 2159.33648682 2845.90948486 C2161.69440955 2845.66422085 2164.05104292 2845.40881663 2166.40771484 2845.15185547 C2217.45848313 2839.70677254 2271.70410148 2839.81928043 2322.73144531 2845.42773438 C2324.83424848 2845.65511789 2326.93809567 2845.86692798 2329.04296875 2846.07421875 C2407.00468206 2853.7925053 2484.3625692 2872.78655098 2556.80859375 2902.65234375 C2557.9790625 2903.1323584 2559.14953125 2903.61237305 2560.35546875 2904.10693359 C2577.33597006 2911.11279296 2593.91681588 2918.83977396 2610.38232422 2926.96484375 C2613.62369435 2928.56127744 2616.8731368 2930.13992278 2620.125 2931.71484375 C2633.42302017 2938.20081955 2646.21860137 2945.34644556 2658.91650391 2952.93505859 C2661.68436779 2954.57858 2664.46695551 2956.19277721 2667.2578125 2957.796875 C2682.21777672 2966.43133912 2696.55361863 2975.91379639 2710.80859375 2985.65234375 C2712.05213623 2986.50143311 2712.05213623 2986.50143311 2713.32080078 2987.36767578 C2730.51998375 2999.17221194 2747.00967852 3011.97988858 2763.09960938 3025.24755859 C2764.68847698 3026.55360776 2766.28721428 3027.84762456 2767.88671875 3029.140625 C2773.23092767 3033.46226881 2778.40669647 3037.91928761 2783.48828125 3042.546875 C2785.51013559 3044.3815206 2787.55537897 3046.18003161 2789.62109375 3047.96484375 C2800.97123809 3057.89043981 2811.71449961 3068.39859992 2822.35839844 3079.07177734 C2824.69742856 3081.41621052 2827.04181572 3083.75519246 2829.38671875 3086.09375 C2830.90006062 3087.60775209 2832.41309256 3089.12206405 2833.92578125 3090.63671875 C2834.61445282 3091.32336609 2835.30312439 3092.01001343 2836.01266479 3092.71746826 C2839.93332402 3096.65690269 2843.67880812 3100.69809868 2847.30499268 3104.91062927 C2849.37778156 3107.31166933 2851.53134553 3109.63505317 2853.68359375 3111.96484375 C2858.1354803 3116.85122373 2862.34162505 3121.88769918 2866.48925781 3127.03271484 C2867.96324238 3128.84219183 2869.45849629 3130.6326798 2870.95703125 3132.421875 C2879.32771891 3142.43870618 2887.28137599 3152.71362307 2895.02099609 3163.22509766 C2896.16375305 3164.77676246 2897.30961357 3166.32614946 2898.45947266 3167.87255859 C2920.22086419 3197.14434117 2939.3628876 3228.51668638 2956.30078125 3260.796875 C2957.6353556 3263.32426839 2958.99458999 3265.83512963 2960.37109375 3268.33984375 C3000.27821424 3341.45144337 3024.65731653 3424.52222388 3018.93774414 3851.09521484 C3001.44464432 3910.50774749 2977.18739723 3968.21094048 2945.80859375 4021.65234375 C2945.31294922 4022.49909668 2944.81730469 4023.34584961 2944.30664062 4024.21826172 C2933.38657264 4042.81043281 2921.95295405 4061.08825637 2909.31494141 4078.56494141 C2907.75498198 4080.72663558 2906.20865685 4082.89761796 2904.6640625 4085.0703125 C2886.17507898 4110.99477755 2865.97021784 4135.67965071 2844.30444336 4159.01293945 C2843.22147246 4160.19984162 2842.15384377 4161.40080278 2841.09594727 4162.61010742 C2833.94440143 4170.73422888 2826.27632294 4178.33566699 2818.61547852 4185.97583008 C2816.24444812 4188.34148565 2813.87882953 4190.71245889 2811.51367188 4193.08398438 C2809.98599771 4194.61099792 2808.45801347 4196.13770132 2806.9296875 4197.6640625 C2806.233629 4198.36214523 2805.5375705 4199.06022797 2804.82041931 4199.77946472 C2800.86110178 4203.72018456 2796.80353151 4207.48831608 2792.56796265 4211.13108826 C2789.98290105 4213.366287 2787.4967396 4215.69807084 2784.99609375 4218.02734375 C2780.37559826 4222.29629569 2775.61752623 4226.33265669 2770.71484375 4230.27734375 C2768.00718204 4232.49005654 2765.35694466 4234.7535421 2762.71582031 4237.04443359 C2756.22437259 4242.67331908 2749.58914296 4248.05398918 2742.71826172 4253.21533203 C2740.55658015 4254.84198221 2738.40349342 4256.47971399 2736.25 4258.1171875 C2668.08835979 4309.77710468 2592.77474148 4350.76962944 2142.02734375 4420.01171875 C2091.04736326 4412.89244317 2041.33821542 4400.78457611 1992.80859375 4383.65234375 C1990.96539551 4383.00483154 1990.96539551 4383.00483154 1989.08496094 4382.34423828 C1943.08439344 4366.06799438 1898.58105298 4344.86021125 1856.80859375 4319.65234375 C1855.75043457 4319.01683594 1854.69227539 4318.38132813 1853.60205078 4317.7265625 C1825.82819271 4301.00535598 1799.41617421 4282.51334119 1773.80859375 4262.65234375 C1773.1846875 4262.17023438 1772.56078125 4261.688125 1771.91796875 4261.19140625 C1763.93087893 4255.01335814 1756.13199897 4248.65035529 1748.46923828 4242.07470703 C1746.75235408 4240.60417375 1745.02910693 4239.14137452 1743.3046875 4237.6796875 C1726.8400112 4223.69704362 1710.15045643 4209.18172832 1696.78125 4192.12890625 C1694.6993444 4189.51518714 1692.50137883 4187.05501154 1690.24609375 4184.58984375 C1686.70180517 4180.69173634 1683.36725707 4176.68672884 1680.10546875 4172.55078125 C1677.20554319 4168.89135137 1674.25742609 4165.27239691 1671.30859375 4161.65234375 C1667.708168 4157.22827442 1664.11494174 4152.79950413 1660.55859375 4148.33984375 C1616.97393721 4092.04407092 1616.97393721 4092.04407092 1554.80859375 4061.65234375 C1548.54651194 4060.97621375 1542.2418769 4061.09419558 1535.95204711 4061.11822826 C1534.07358018 4061.11066229 1532.1951196 4061.10135658 1530.31666888 4061.09048681 C1525.16186448 4061.06567613 1520.00731155 4061.06547563 1514.85245983 4061.06935058 C1509.22037402 4061.06916342 1503.58837501 4061.04581267 1497.9563325 4061.0254657 C1488.04888372 4060.99285834 1478.14149302 4060.97501821 1468.23399529 4060.96676085 C1457.54808164 4060.95779685 1446.86225057 4060.94025525 1436.17637292 4060.91212865 C1435.49801609 4060.91034843 1434.81965926 4060.9085682 1434.12074616 4060.90673403 C1430.65684815 4060.89760456 1427.19295052 4060.88833574 1423.72905301 4060.87901933 C1398.43882517 4060.8112972 1373.14858893 4060.76309851 1347.85830116 4060.72472763 C1322.21827325 4060.6857607 1296.57828303 4060.63809844 1270.93829155 4060.57979774 C1270.12950765 4060.57796256 1269.32072374 4060.57612737 1268.48743124 4060.57423657 C1261.07489391 4060.55741361 1253.6623568 4060.54049306 1246.24981996 4060.52345637 C1227.6569468 4060.48072711 1209.06407085 4060.439301 1190.47119284 4060.39873636 C1189.19292167 4060.39594607 1189.19292167 4060.39594607 1187.88882683 4060.39309941 C1146.77865719 4060.30347414 1105.66846316 4060.22802477 1064.55826331 4060.15379606 C1005.17174147 4060.0465636 945.78524388 4059.93164534 886.3987608 4059.80465971 C883.60076623 4059.79867713 880.80277164 4059.79269919 878.00477705 4059.78672232 C861.12805148 4059.75066595 844.25132615 4059.7144943 827.3746011 4059.6781924 C785.40099807 4059.58790996 743.42739242 4059.49888505 701.45378494 4059.41069317 C700.49799239 4059.40868427 699.54219984 4059.40667537 698.55744388 4059.4046056 C605.52097046 4059.20907284 512.48447063 4059.02759038 419.44796551 4058.84787624 C386.1535629 4058.78356029 352.8591604 4058.71918636 319.5647583 4058.65460205 C318.56424814 4058.65266153 317.56373799 4058.65072101 316.53290934 4058.64872169 C221.96368244 4058.46528877 127.39447465 4058.27284273 32.82527123 4058.07771566 C28.83047846 4058.06947394 24.83568568 4058.06123544 20.8408929 4058.05299704 C-58.11700981 4057.89016193 -137.07491026 4057.7262384 -216.0328104 4057.56216053 C-253.62526864 4057.48404202 -291.21772702 4057.40599543 -328.81018556 4057.32801967 C-338.33602511 4057.30826014 -347.86186464 4057.28849297 -357.38770415 4057.26870853 C-449.38106922 4057.07764796 -541.37443937 4056.88978338 -663.12470694 4056.65133047 C-689.66363878 4056.59938448 -716.20256953 4056.54691303 -742.74149942 4056.49398172 C-744.47961802 4056.49051598 -746.21773662 4056.48705029 -747.95585522 4056.48358466 C-763.39291533 4056.45280191 -778.82997537 4056.4219855 -794.26703521 4056.39106799 C-804.33271638 4056.37090862 -814.3983976 4056.35077786 -824.4640789 4056.33068657 C-825.28518689 4056.3290473 -826.10629488 4056.32740803 -826.95228493 4056.32571909 C-849.36705855 4056.28098382 -871.78183395 4056.23733583 -894.19661231 4056.19504179 C-899.55720244 4056.18492507 -904.91779247 4056.17474859 -910.27838242 4056.16453327 C-911.03045929 4056.16310061 -911.78253616 4056.16166794 -912.55740324 4056.16019186 C-915.58096262 4056.15443176 -918.604522 4056.14867098 -921.62808136 4056.14290362 C-929.83418636 4056.12725464 -938.04029157 4056.11175111 -946.24639762 4056.09666385 C-955.0306378 4056.08049921 -963.81487728 4056.06399159 -972.59911585 4056.04697263 C-973.67355442 4056.04489168 -973.67355442 4056.04489168 -974.76969882 4056.04276868 C-995.1301099 4056.00313517 -1015.49044904 4055.95057322 -1035.85079514 4055.88576843 C-1046.67831471 4055.85134831 -1057.50584004 4055.81875426 -1068.33336592 4055.78638989 C-1071.00385545 4055.77839699 -1073.67434437 4055.77024685 -1076.34483322 4055.76202694 C-1110.27367426 4055.65797843 -1144.19978993 4055.64963166 -1178.12836553 4055.7883247 C-1180.92213746 4055.79973486 -1183.71590948 4055.81112396 -1186.5096816 4055.82249087 C-1187.19959903 4055.82531301 -1187.88951646 4055.82813515 -1188.60034049 4055.8310428 C-1198.85424956 4055.87260995 -1209.10811652 4055.90048101 -1219.36209773 4055.91591814 C-1220.02411017 4055.91693243 -1220.68612261 4055.91794673 -1221.36819603 4055.91899176 C-1228.6086749 4055.92988951 -1235.84915342 4055.93811008 -1243.08963757 4055.94447729 C-1256.94062833 4055.95909197 -1270.79008693 4056.01654018 -1284.64060918 4056.13205446 C-1293.89416108 4056.20574676 -1303.14697343 4056.22976617 -1312.40080253 4056.21373073 C-1317.69505702 4056.20625653 -1322.98661743 4056.22180492 -1328.28036502 4056.29947276 C-1333.11196363 4056.37009071 -1337.93921455 4056.37619642 -1342.77108098 4056.33127912 C-1344.50967109 4056.32649428 -1346.24852674 4056.34526683 -1347.98653478 4056.39050489 C-1360.59106026 4056.70046448 -1360.59106026 4056.70046448 -1364.9573439 4053.26143134 C-1368.66387041 4049.45854651 -1371.40401285 4045.14906855 -1374.19140625 4040.65234375 C-1375.23755729 4039.32826473 -1376.30845433 4038.02240643 -1377.42578125 4036.7578125 C-1382.43633032 4030.9458868 -1382.43633032 4030.9458868 -1383.77284034 4029.32321277 C-1384.78975817 4028.1254281 -1385.85883051 4026.9711891 -1386.95849941 4025.84889756 C-1392.95268734 4019.23354085 -1393.16013239 4013.65354331 -1392.9916591 4004.97684431 C-1392.99024499 4003.59308206 -1392.99193822 4002.20931381 -1392.99643838 4000.82555815 C-1392.99994489 3997.02336284 -1392.95980801 3993.22269124 -1392.91269159 3989.42083279 C-1392.8693461 3985.28338571 -1392.86732961 3981.14588857 -1392.86031494 3977.0082491 C-1392.84253938 3969.74674488 -1392.79931175 3962.48574186 -1392.73968703 3955.22446591 C-1392.65096007 3944.36443323 -1392.60403007 3933.5044986 -1392.56728214 3922.6441792 C-1392.52018735 3908.79170674 -1392.4653276 3894.93929597 -1392.39064266 3881.0869433 C-1392.38472497 3879.98816434 -1392.37880728 3878.88938538 -1392.37271027 3877.75731009 C-1392.36676729 3876.6546152 -1392.36082431 3875.5519203 -1392.35470124 3874.41581042 C-1392.1985212 3845.40288722 -1392.13142774 3816.39039681 -1392.10301399 3787.37709045 C-1392.10069051 3785.10923563 -1392.09835504 3782.84138081 -1392.09600773 3780.57352601 C-1392.08652289 3771.3426758 -1392.07730332 3762.11182539 -1392.06865629 3752.88097436 C-1392.04414533 3727.17356566 -1392.00004408 3701.46619402 -1391.9553251 3675.75881384 C-1391.94415602 3669.3166756 -1391.93319239 3662.87453701 -1391.92221797 3656.43239844 C-1391.90874604 3648.53029792 -1391.89525908 3640.62819743 -1391.88168749 3632.72609708 C-1391.84847299 3613.38060553 -1391.81606476 3594.03511271 -1391.78409386 3574.68961906 C-1391.78173096 3573.260232 -1391.77936804 3571.83084493 -1391.77700512 3570.40145787 C-1391.76747117 3564.63341691 -1391.75794199 3558.86537595 -1391.74841823 3553.09733498 C-1391.72162818 3536.87284525 -1391.69472873 3520.6483557 -1391.66775215 3504.42386627 C-1391.66651891 3503.68215453 -1391.66528567 3502.94044278 -1391.66401506 3502.17625492 C-1391.5934017 3459.71486428 -1391.52118514 3417.25347637 -1391.44899375 3374.79208839 C-1391.43955428 3369.2399061 -1391.43011519 3363.6877238 -1391.42067676 3358.13554151 C-1391.41797232 3356.5446775 -1391.41526777 3354.95381348 -1391.41256312 3353.36294947 C-1391.35263391 3318.11249596 -1391.29319362 3282.86204163 -1391.23386133 3247.61158711 C-1391.20927177 3233.00256642 -1391.18466861 3218.39354576 -1391.16006538 3203.78452509 C-1391.15731768 3202.15298255 -1391.15457002 3200.52144001 -1391.15182238 3198.88989747 C-1391.08640977 3160.04821321 -1391.02088425 3121.20652913 -1390.95522976 3082.36484528 C-1390.95383064 3081.53710689 -1390.95243152 3080.70936851 -1390.95099 3079.85654714 C-1390.86212745 3027.28615956 -1390.77274688 2974.71577287 -1390.68300879 2922.14538678 C-1390.67714502 2918.71021183 -1390.67128177 2915.27503688 -1390.66541852 2911.83986193 C-1390.63895824 2896.33729022 -1390.61249384 2880.83471851 -1390.5860286 2865.33214681 C-1390.57423144 2858.42170624 -1390.56243464 2851.51126566 -1390.55063807 2844.60082509 C-1390.5432568 2840.27689005 -1390.5358753 2835.95295501 -1390.52849328 2831.62901998 C-1390.38910829 2749.98532786 -1390.25038065 2668.34163474 -1390.11431885 2586.69793701 C-1390.11288607 2585.83821096 -1390.11145329 2584.9784849 -1390.1099771 2584.09270655 C-1390.0652008 2557.22375108 -1390.02050773 2530.35479547 -1389.97583008 2503.48583984 C-1389.9299636 2475.90211228 -1389.88408575 2448.31838473 -1389.83814335 2420.73465729 C-1389.83672789 2419.88478962 -1389.83531242 2419.03492195 -1389.83385407 2418.15930072 C-1389.74490158 2364.75281307 -1389.65509167 2311.34632691 -1389.56437588 2257.93984222 C-1389.56226782 2256.69869713 -1389.56226782 2256.69869713 -1389.56011718 2255.43247839 C-1389.49833753 2219.0596874 -1389.43636619 2182.68689674 -1389.3741859 2146.31410643 C-1389.34915941 2131.67449295 -1389.32415387 2117.03487943 -1389.29915715 2102.39526589 C-1389.29501411 2099.96903077 -1389.29087015 2097.54279564 -1389.286726 2095.11656051 C-1389.22378151 2058.2625922 -1389.16134056 2021.40862314 -1389.10051656 1984.55465126 C-1389.09921728 1983.76743452 -1389.097918 1982.98021778 -1389.09657934 1982.16914599 C-1389.07570264 1969.51854297 -1389.05486782 1956.86793989 -1389.03403732 1944.21733679 C-1388.97457348 1908.10516306 -1388.91471038 1871.99299015 -1388.85238349 1835.88082123 C-1388.85110526 1835.14013661 -1388.84982704 1834.399452 -1388.84851007 1833.63632239 C-1388.82054274 1817.43462555 -1388.79238019 1801.23292905 -1388.76402908 1785.03123288 C-1388.75270659 1778.5591781 -1388.74140921 1772.08712327 -1388.73011971 1765.61506844 C-1388.72888797 1764.90933035 -1388.72765623 1764.20359226 -1388.72638716 1763.47646817 C-1388.69155529 1743.5130825 -1388.65823333 1723.54969495 -1388.62644993 1703.5863042 C-1388.60774551 1691.85245256 -1388.58875128 1680.1186014 -1388.56967163 1668.38475037 C-1388.56761811 1667.11792105 -1388.5655646 1665.85109174 -1388.56344885 1664.54587366 C-1388.51788094 1636.50785961 -1388.46668839 1608.46987933 -1388.39327729 1580.43192291 C-1388.38878356 1578.7095882 -1388.38878356 1578.7095882 -1388.38419904 1576.95245884 C-1388.35736297 1566.69552722 -1388.33012529 1556.43859679 -1388.30135114 1546.18167041 C-1388.22641698 1519.41733693 -1388.18195001 1492.65332021 -1388.18661361 1465.88887708 C-1388.18900148 1448.79481494 -1388.16814519 1431.70087982 -1388.12887271 1414.60686273 C-1388.10502972 1403.8167512 -1388.10123104 1393.02704986 -1388.12590805 1382.23693812 C-1388.1404668 1375.07196456 -1388.13006068 1367.90731294 -1388.0991731 1360.74239179 C-1388.08235541 1356.66229547 -1388.07676202 1352.58301935 -1388.10207675 1348.50294844 C-1388.12493564 1344.79087453 -1388.11562552 1341.08031867 -1388.08078073 1337.36835062 C-1388.0706638 1335.40758405 -1388.09483933 1333.44673167 -1388.12046558 1331.48610647 C-1387.99605762 1323.06511174 -1386.07394966 1318.6396646 -1380.19140625 1312.65234375 C-1379.27507986 1311.5929176 -1378.36198346 1310.53068338 -1377.453125 1309.46484375 C-1359.08299622 1289.39429334 -1359.08299622 1289.39429334 -1351.01154001 1288.37782518 C-1348.3434123 1288.27049897 -1345.69046534 1288.26112423 -1343.02022743 1288.28320026 C-1341.99352666 1288.27973873 -1340.96682589 1288.2762772 -1339.90901297 1288.27271077 C-1336.45243095 1288.26474028 -1332.99626417 1288.27825373 -1329.53970337 1288.2915802 C-1327.04314462 1288.29027252 -1324.54658626 1288.28764679 -1322.05003011 1288.2838127 C-1316.61378061 1288.27849419 -1311.17766076 1288.28252017 -1305.74142456 1288.29472733 C-1297.65796737 1288.31282845 -1289.57457231 1288.31373511 -1281.49109855 1288.31110136 C-1267.89360972 1288.3071589 -1254.29616461 1288.31718674 -1240.69868851 1288.33515358 C-1227.23386036 1288.35289957 -1213.76905042 1288.36445039 -1200.30421066 1288.36771202 C-1199.46726965 1288.36791824 -1198.63032863 1288.36812446 -1197.76802576 1288.36833693 C-1193.5176924 1288.36935191 -1189.26735903 1288.37025607 -1185.01702563 1288.37111755 C-1154.90538099 1288.37742019 -1124.79376014 1288.39763617 -1094.68212891 1288.42602539 C-1065.4275729 1288.45357475 -1036.17302341 1288.47482752 -1006.91845703 1288.48754883 C-1005.56602611 1288.4881407 -1005.56602611 1288.4881407 -1004.18627335 1288.48874452 C-995.13189757 1288.49270005 -986.07752173 1288.4965275 -977.02314585 1288.5002611 C-958.57804211 1288.50786991 -940.13293881 1288.51633367 -921.68783569 1288.52531433 C-920.83974412 1288.5257262 -919.99165255 1288.52613807 -919.11786124 1288.52656242 C-862.47569961 1288.55416831 -805.83355144 1288.60176672 -749.19140625 1288.65234375 C-749.19254541 1287.37136765 -749.19368457 1286.09039155 -749.19485825 1284.77059799 C-749.24486023 1228.32204191 -749.29114424 1171.87348364 -749.31843567 1115.4249115 C-749.31884984 1114.57044332 -749.31926401 1113.71597515 -749.31969073 1112.835614 C-749.32866924 1094.26617417 -749.33697982 1075.69673409 -749.34460224 1057.12729365 C-749.34834428 1048.02097892 -749.35223394 1038.91466425 -749.35620117 1029.80834961 C-749.35659345 1028.90215693 -749.35698573 1027.99596424 -749.35738989 1027.06231118 C-749.37017625 997.68461161 -749.39271192 968.30692934 -749.42029791 938.92924025 C-749.44859224 908.74241656 -749.46706178 878.55560245 -749.47315122 848.36876572 C-749.4740157 844.10608282 -749.47499261 839.84339995 -749.47603798 835.58071709 C-749.47624025 834.74175155 -749.47644252 833.90278602 -749.47665092 833.03839728 C-749.48019747 819.52782578 -749.49411544 806.01728386 -749.51190235 792.50672443 C-749.5295588 778.92740782 -749.53631151 765.34812057 -749.53191038 751.76879288 C-749.5296269 743.69889826 -749.53572743 735.62911104 -749.55379888 727.5592358 C-749.56636681 721.53598504 -749.56329354 715.51284976 -749.55410293 709.48958843 C-749.55283242 707.05067974 -749.55666367 704.61176206 -749.5660558 702.17287112 C-749.57806822 698.86157472 -749.57162183 695.55080624 -749.56054974 692.23951817 C-749.56843078 691.28932361 -749.57631182 690.33912905 -749.58443168 689.36014071 C-749.50704429 679.14062392 -746.80080931 672.30119779 -739.6875 664.9375 C-718.97022207 645.97097795 -682.58735106 644.60522543 -656.19140625 642.65234375 C-655.21548523 642.57925995 -655.21548523 642.57925995 -654.21984863 642.50469971 C-637.53418579 641.31611434 -620.79719303 641.49906387 -604.07958984 641.52197266 C-599.94327961 641.52760439 -595.80703466 641.52432018 -591.67072678 641.51853561 C-574.6230951 641.49829926 -557.60105606 641.64023228 -540.56225395 642.22451591 C-526.06562466 642.71172243 -511.56432986 642.93937805 -497.06201172 643.18701172 C-494.44644484 643.23255187 -491.83087984 643.2782003 -489.21531677 643.32395935 C-482.8740344 643.4346675 -476.5327302 643.54404498 -470.19140625 643.65234375 C-470.19482373 642.99612077 -470.19824122 642.33989779 -470.20176226 641.66378927 C-470.40339763 602.72475539 -470.55770234 563.78578914 -470.65099422 524.84633842 C-470.66224986 520.16529896 -470.67389883 515.48426055 -470.68579102 510.80322266 C-470.68933221 509.40542447 -470.68933221 509.40542447 -470.69294494 507.97938794 C-470.73205022 492.91332563 -470.80297976 477.84757407 -470.88578141 462.78169578 C-470.97010356 447.30950813 -471.0199686 431.83748262 -471.0382027 416.36507463 C-471.05051933 406.82637814 -471.08934254 397.28856014 -471.16265445 387.75013423 C-471.2104245 381.19906677 -471.22456332 374.6484499 -471.21291865 368.09722114 C-471.20718373 364.32359095 -471.21563737 360.55148978 -471.26425552 356.7781353 C-471.46188715 340.65014806 -471.36278607 327.78000541 -461.19140625 314.65234375 C-460.07291185 312.98743142 -458.9592886 311.31920869 -457.85546875 309.64453125 C-456.85212997 308.26504119 -455.8392425 306.89243991 -454.81640625 305.52734375 C-454.27040771 304.78581055 -453.72440918 304.04427734 -453.16186523 303.28027344 C-451.51845729 301.06049426 -449.85927389 298.85378875 -448.19140625 296.65234375 C-447.41966064 295.63285645 -447.41966064 295.63285645 -446.63232422 294.59277344 C-445.18225352 292.68846938 -443.72198276 290.79279267 -442.25390625 288.90234375 C-441.82996582 288.35433105 -441.40602539 287.80631836 -440.96923828 287.24169922 C-439.74130676 285.68664095 -438.46643827 284.16902282 -437.19140625 282.65234375 C-436.42082571 281.61502798 -435.65024517 280.57771221 -434.85631371 279.50896263 C-430.99330771 275.72615983 -427.03140474 275.93165578 -421.83213675 275.8778559 C-420.57338276 275.89533295 -419.31462877 275.91280999 -418.01773071 275.93081665 C-416.65961051 275.92819902 -415.30149327 275.92294335 -413.94339216 275.91528165 C-410.21684265 275.90187636 -406.49132938 275.9258477 -402.76491189 275.95595002 C-398.74453055 275.98187021 -394.72420726 275.97309191 -390.70376587 275.96853638 C-383.73995756 275.96539083 -376.77648665 275.98420946 -369.81276321 276.01796341 C-359.74445847 276.06673383 -349.67631681 276.0823529 -339.60790674 276.08989136 C-323.27252895 276.10302189 -306.93733095 276.14294812 -290.60205078 276.19970703 C-274.73422139 276.25478438 -258.86644084 276.29725336 -242.99853516 276.32275391 C-241.53129784 276.32511842 -241.53129784 276.32511842 -240.03441937 276.3275307 C-235.12726812 276.33536094 -230.22011651 276.34294319 -225.31296468 276.35040212 C-184.60565346 276.41259858 -143.89854014 276.51827414 -103.19140625 276.65234375 C-103.19693701 274.67940684 -103.19693701 274.67940684 -103.2025795 272.66661263 C-103.28926185 241.4251464 -103.35519378 210.18371201 -103.39566757 178.94215358 C-103.40067023 175.09457353 -103.40584754 171.24699373 -103.41113281 167.39941406 C-103.41270668 166.25046672 -103.41270668 166.25046672 -103.41431233 165.07830833 C-103.43170464 152.68545999 -103.46323583 140.29268608 -103.50001743 127.89988185 C-103.53745959 115.17815861 -103.55964902 102.45647426 -103.56776023 89.73469818 C-103.57324123 81.8883671 -103.59053533 74.04224641 -103.62307212 66.19598012 C-103.64676986 60.1734746 -103.64921785 54.15114902 -103.64383698 48.12859154 C-103.64493606 45.66234099 -103.65287461 43.19608238 -103.66822815 40.72987938 C-103.68819468 37.35683017 -103.6833203 33.98467361 -103.67242432 30.61160278 C-103.68990137 29.15533484 -103.68990137 29.15533484 -103.70773149 27.66964734 C-103.62445734 18.10084951 -100.71914739 10.42250728 -94.09375 3.4609375 C-71.54077836 -17.98059406 -24.31452885 -19.86613272 0 0 Z M-339.19140625 392.65234375 C-339.19140625 475.48234375 -339.19140625 558.31234375 -339.19140625 643.65234375 C-145.15140625 643.65234375 48.88859375 643.65234375 248.80859375 643.65234375 C248.80859375 560.82234375 248.80859375 477.99234375 248.80859375 392.65234375 C54.76859375 392.65234375 -139.27140625 392.65234375 -339.19140625 392.65234375 Z M658.80859375 406.65234375 C658.80859375 968.97234375 658.80859375 1531.29234375 658.80859375 2110.65234375 C731.40859375 2110.65234375 804.00859375 2110.65234375 878.80859375 2110.65234375 C885.49907159 2100.52609531 885.49907159 2100.52609531 887.14916992 2089.08642578 C887.14953153 2088.34228865 887.14989313 2087.59815151 887.15026569 2086.83146477 C887.14803999 2084.44074764 887.12525748 2082.0507466 887.1015625 2079.66015625 C887.09714745 2078.17700538 887.0940895 2076.69384984 887.09240723 2075.21069336 C887.07672715 2069.73283852 887.03484326 2064.25508398 886.99609375 2058.77734375 C886.93421875 2046.52609375 886.87234375 2034.27484375 886.80859375 2021.65234375 C932.34859375 2021.65234375 977.88859375 2021.65234375 1024.80859375 2021.65234375 C1024.80859375 2048.38234375 1024.80859375 2075.11234375 1024.80859375 2102.65234375 C1050.27746233 2115.38677804 1083.50246428 2116.78766977 1111.68359375 2116.90234375 C1112.94300781 2116.92296875 1114.20242188 2116.94359375 1115.5 2116.96484375 C1128.93546838 2117.02007692 1142.71331894 2115.64705614 1152.6953125 2105.7890625 C1174.67501243 2079.56160034 1165.80859375 2059.92809805 1165.80859375 2021.65234375 C1206.72859375 2021.65234375 1247.64859375 2021.65234375 1289.80859375 2021.65234375 C1289.80859375 2656.57234375 1289.80859375 3291.49234375 1289.80859375 3945.65234375 C1366.69859375 3945.65234375 1443.58859375 3945.65234375 1522.80859375 3945.65234375 C1517.90809571 3930.93081676 1517.90809571 3930.93081676 1512.921875 3916.23828125 C1488.43673865 3844.77188503 1473.6756175 3770.93094314 1467.80859375 3695.65234375 C1467.74188477 3694.80591309 1467.67517578 3693.95948242 1467.60644531 3693.08740234 C1467.2413195 3688.27919227 1466.99555775 3683.47018995 1466.80859375 3678.65234375 C1466.76492676 3677.55277344 1466.72125977 3676.45320313 1466.67626953 3675.3203125 C1466.02522865 3658.43270671 1465.5299239 3641.55380533 1465.80859375 3624.65234375 C1465.82647949 3623.54648926 1465.84436523 3622.44063477 1465.86279297 3621.30126953 C1467.41790697 3538.74401291 1481.11228468 3456.59496089 1549.80859375 3276.65234375 C1550.23350098 3275.77529785 1550.6584082 3274.89825195 1551.09619141 3273.99462891 C1557.77334755 3260.2195208 1565.13806531 3246.89712189 1572.80859375 3233.65234375 C1573.25831543 3232.86553223 1573.70803711 3232.0787207 1574.17138672 3231.26806641 C1596.98354791 3191.42236418 1624.64565929 3154.24060267 1654.37597656 3119.33935547 C1655.7945853 3117.66883972 1657.20453177 3115.99133333 1658.61328125 3114.3125 C1671.85711995 3098.59254051 1686.29896635 3084.06739918 1700.80859375 3069.52734375 C1701.53646088 3068.79679779 1702.264328 3068.06625183 1703.01425171 3067.31356812 C1705.130212 3065.19171071 1707.2499803 3063.07373611 1709.37109375 3060.95703125 C1710.00090652 3060.3252446 1710.6307193 3059.69345795 1711.27961731 3059.04252625 C1715.07655356 3055.26492961 1718.98944074 3051.6732522 1723.04655457 3048.17626953 C1725.45292175 3046.0950871 1727.78429932 3043.93606209 1730.12109375 3041.77734375 C1734.60522303 3037.68796588 1739.21126613 3033.80615354 1743.93359375 3029.99609375 C1746.50203588 3027.90225506 1749.02872671 3025.77077396 1751.5456543 3023.6159668 C1757.83520797 3018.23576877 1764.27311351 3013.08839039 1770.8828125 3008.10546875 C1773.04978353 3006.47035065 1775.21012937 3004.82664105 1777.37109375 3003.18359375 C1788.23676265 2994.95143914 1799.27417819 2987.00722454 1810.49536133 2979.26708984 C1811.25872803 2978.73422363 1812.02209473 2978.20135742 1812.80859375 2977.65234375 C1813.99294583 2977.14338856 1815.1772979 2976.63443338 1816.39753943 2976.11005531 C1819.24511869 2974.03237131 1819.76177008 2972.88700392 1820.46183178 2969.37859483 C1820.8166269 2964.82857233 1820.74255903 2960.27427061 1820.69869524 2955.71421272 C1820.70701465 2953.92272663 1820.71840147 2952.13125262 1820.73258239 2950.33980334 C1820.76283507 2945.38022844 1820.74914467 2940.42157235 1820.72873766 2935.46198247 C1820.71419243 2930.06021402 1820.74016031 2924.65861836 1820.76102528 2919.2568917 C1820.79211474 2909.74093809 1820.79693263 2900.22524473 1820.78499407 2890.70925198 C1820.76723521 2876.46331055 1820.78952485 2862.21761951 1820.81974929 2847.97170993 C1820.870704 2823.69647071 1820.88676618 2799.42130243 1820.88528061 2775.14601517 C1820.88386415 2750.53238029 1820.89751676 2725.91882294 1820.92962837 2701.30520821 C1820.93165851 2699.73706268 1820.9336883 2698.16891715 1820.93571775 2696.60077162 C1820.94392862 2690.27819015 1820.95225069 2683.95560883 1820.96069974 2677.63302767 C1820.98448503 2659.80841163 1821.00563376 2641.9837929 1821.02494991 2624.15917146 C1821.02583535 2623.34226657 1821.0267208 2622.52536168 1821.02763307 2621.68370209 C1821.07866117 2574.30829017 1821.09150309 2526.93286398 1821.10501624 2479.55742947 C1821.10552295 2477.78220811 1821.1060297 2476.00698674 1821.10653647 2474.23176538 C1821.10691296 2472.91262771 1821.10691296 2472.91262771 1821.10729705 2471.5668408 C1821.10831351 2468.00931359 1821.10933414 2464.45178639 1821.11035527 2460.89425919 C1821.11086492 2459.1127312 1821.11137173 2457.33120321 1821.11187569 2455.54967522 C1821.12293159 2416.47442273 1821.14462337 2377.39917946 1821.16871035 2338.3239331 C1821.17916138 2321.35528807 1821.18922726 2304.38664281 1821.19927925 2287.41799754 C1821.19980584 2286.52989189 1821.20033243 2285.64178624 1821.20087497 2284.7267683 C1821.22620376 2241.98211384 1821.24881433 2199.23745823 1821.26833248 2156.49280071 C1821.26874908 2155.58095618 1821.26916568 2154.66911165 1821.26959491 2153.72963547 C1821.29606753 2095.61241866 1821.31005491 2037.49520562 1821.31584561 1979.37798326 C1821.31632413 1974.61260512 1821.31682322 1969.84722698 1821.31731989 1965.08184884 C1821.31900742 1948.82503295 1821.32062396 1932.56821705 1821.32224082 1916.31140115 C1821.32300513 1908.6359093 1821.32378074 1900.96041744 1821.32456337 1893.28492559 C1821.32505252 1888.48208644 1821.32553545 1883.67924729 1821.32600462 1878.87640813 C1821.3348871 1788.16852607 1821.36045514 1697.46070895 1821.45257568 1606.75286865 C1821.45354493 1605.79801598 1821.45451418 1604.84316331 1821.4555128 1603.8593757 C1821.48584934 1574.02579637 1821.51824632 1544.19221931 1821.55102539 1514.35864258 C1821.58465335 1483.74759149 1821.61798685 1453.13654015 1821.6496439 1422.52548695 C1821.65061971 1421.5829647 1821.65159551 1420.64044245 1821.65260089 1419.66935892 C1821.71361877 1360.64297555 1821.75283254 1301.61661041 1821.76868343 1242.59019756 C1821.76893076 1241.67856578 1821.76917809 1240.766934 1821.76943291 1239.82767701 C1821.78026144 1199.79115426 1821.78619716 1159.75463212 1821.78674449 1119.71810794 C1821.78697471 1103.61126415 1821.78776116 1087.5044204 1821.78879074 1071.39757665 C1821.78895367 1068.72695981 1821.78909305 1066.05634298 1821.78922775 1063.38572614 C1821.79140281 1022.53315053 1821.80727677 981.68064382 1821.8642056 940.82810426 C1821.8654321 939.94703425 1821.8666586 939.06596423 1821.86792226 938.15819513 C1821.88772466 923.98492483 1821.90860856 909.81165611 1821.92960831 895.63838754 C1821.98918841 855.40248542 1822.03944594 815.16667045 1822.02531612 774.93071687 C1822.02503302 774.11427769 1822.02474993 773.29783851 1822.02445826 772.45665875 C1822.01809186 754.64441636 1822.006696 736.83218082 1821.99036961 719.01994487 C1821.98393363 711.91586136 1821.97815614 704.81177734 1821.97258568 697.7076931 C1821.97196017 696.93275756 1821.97133467 696.15782201 1821.97069021 695.35940357 C1821.95116479 670.78266227 1821.98693966 646.20641935 1822.0547146 621.62977511 C1822.1212252 597.42753107 1822.13306808 573.22596305 1822.06543177 549.02369992 C1822.02405408 534.20474314 1822.03008868 519.3879451 1822.11844381 504.56917516 C1822.16954871 495.17550237 1822.15557244 485.78339246 1822.08830061 476.38982487 C1822.05196918 471.06077862 1822.04355199 465.73587776 1822.11529213 460.40709693 C1823.24552304 436.63713349 1823.24552304 436.63713349 1814.23422929 415.49467824 C1807.28870896 408.49705986 1799.59345559 404.75285747 1789.73844468 404.30218874 C1787.07008256 404.29392162 1784.41036378 404.36460159 1781.74307823 404.43748283 C1779.77201509 404.42413827 1777.80099276 404.40289049 1775.83008818 404.3745513 C1770.44088909 404.31969854 1765.05787121 404.37608249 1759.66913708 404.45156027 C1753.81093874 404.5136113 1747.95333907 404.47059729 1742.09501648 404.44107056 C1731.82645312 404.40373407 1721.55962836 404.43262307 1711.29129863 404.5064714 C1700.16221393 404.58614107 1689.03401917 404.62502479 1677.90464139 404.61704278 C1677.1947974 404.61655719 1676.48495341 404.6160716 1675.75359899 404.61557129 C1672.1332651 404.61291461 1668.51293209 404.60962007 1664.89259895 404.60609602 C1638.9715612 404.58212872 1613.05131378 404.64279546 1587.13052368 404.75198364 C1552.08189626 404.89930737 1517.03485681 404.93383987 1481.9855957 404.94946289 C1397.71809458 405.04399333 1313.45082839 405.29529312 1229.18359375 405.52734375 C1040.95984375 405.89859375 852.73609375 406.26984375 658.80859375 406.65234375 Z M-618.19140625 773.65234375 C-618.19140625 943.60234375 -618.19140625 1113.55234375 -618.19140625 1288.65234375 C-417.88140625 1288.65234375 -217.57140625 1288.65234375 -11.19140625 1288.65234375 C-10.53140625 1290.63234375 -9.87140625 1292.61234375 -9.19140625 1294.65234375 C-8.62393212 1295.94484128 -8.02721187 1297.22512395 -7.39437866 1298.48690796 C-7.04664902 1299.18511658 -6.69891937 1299.8833252 -6.34065247 1300.60269165 C-5.96446274 1301.34788055 -5.58827301 1302.09306946 -5.20068359 1302.86083984 C-4.60040092 1304.06184326 -4.60040092 1304.06184326 -3.98799133 1305.28710938 C-2.67156138 1307.91858209 -1.34949613 1310.5471797 -0.02734375 1313.17578125 C0.88937731 1315.00549108 1.805744 1316.8353785 2.72177124 1318.66543579 C5.1283005 1323.4708749 7.5396259 1328.27389159 9.95196533 1333.07641602 C12.41489418 1337.98177889 14.87326937 1342.88942255 17.33203125 1347.796875 C22.15310354 1357.41759952 26.97924685 1367.03577051 31.80859375 1376.65234375 C33.65702393 1376.65730897 33.65702393 1376.65730897 35.54279613 1376.6623745 C64.78757455 1376.74137342 94.03230486 1376.8305862 123.27701197 1376.93239536 C126.87567374 1376.9449144 130.4743358 1376.95734714 134.07299805 1376.96972656 C135.14765204 1376.97342555 135.14765204 1376.97342555 136.24401621 1376.97719927 C147.84804066 1377.01693484 159.45207486 1377.04967865 171.05612769 1377.07984357 C182.9608618 1377.11094555 194.86555448 1377.14954958 206.77024204 1377.19513381 C213.45779668 1377.22052545 220.14533154 1377.24219136 226.83292198 1377.25568771 C233.1242363 1377.26849352 239.41544994 1377.29053207 245.70670891 1377.31972694 C248.01861739 1377.32881428 250.33054208 1377.33449564 252.6424675 1377.33655739 C255.79375771 1377.33987171 258.94476105 1377.35532697 262.09599304 1377.37387085 C263.01525643 1377.37193612 263.93451981 1377.37000138 264.88163966 1377.36800802 C269.26636018 1377.40670217 272.86429242 1377.49169877 276.80859375 1379.65234375 C289.23211703 1395.04670956 286.95175219 1425.41060627 285.05859375 1443.83984375 C283.28526021 1458.82022834 279.66304029 1475.79848585 267.77086729 1486.16413665 C261.17767038 1491.16448052 254.54605908 1492.23927264 246.46311951 1492.17132568 C245.45904291 1492.17882694 244.45496631 1492.18632819 243.42046314 1492.19405675 C240.07623783 1492.21425906 236.73269533 1492.20624563 233.38842773 1492.19824219 C230.98318311 1492.20698121 228.5779443 1492.21746814 226.17271423 1492.22956848 C220.33249569 1492.2545217 214.49246168 1492.261316 208.65219461 1492.26000825 C201.85278338 1492.25947267 195.0535006 1492.28147262 188.25413621 1492.3048152 C176.12996381 1492.3458442 164.00582501 1492.36919587 151.8815918 1492.38134766 C140.10844699 1492.3931856 128.33536539 1492.41340053 116.56225586 1492.44482422 C115.83579345 1492.44676032 115.10933104 1492.44869642 114.36085462 1492.45069119 C110.71617656 1492.46045615 107.07149898 1492.47038519 103.42682159 1492.48039579 C73.22077399 1492.56314878 43.01473607 1492.61688216 12.80859375 1492.65234375 C12.4199566 1522.17255615 12.11950993 1551.69264695 11.94048315 1581.2148844 C11.91922364 1584.70795773 11.89721992 1588.20102601 11.87475586 1591.6940918 C11.87029658 1592.38943638 11.8658373 1593.08478096 11.8612429 1593.80119658 C11.78746557 1605.02932769 11.65354286 1616.25596431 11.49699622 1627.48321169 C11.3374616 1639.02183862 11.2447507 1650.55941951 11.20908934 1662.09912783 C11.18699641 1668.57393568 11.13539489 1675.04536599 11.01118279 1681.51908684 C10.89499667 1687.62449522 10.86034622 1693.72516644 10.88576317 1699.83157539 C10.88112041 1702.06131461 10.84775349 1704.29122698 10.78210068 1706.52000427 C10.44713352 1718.48761013 11.48015404 1727.45527252 19.92512512 1736.49111938 C30.07025741 1746.01497217 40.61143639 1745.98341909 53.87402344 1745.64233398 C56.2526413 1745.64413061 58.63126342 1745.65345895 61.00982666 1745.66967773 C67.42004343 1745.69259464 73.82515265 1745.61189302 80.23447323 1745.51210666 C86.27319259 1745.4347802 92.31130867 1745.43777509 98.35042825 1745.44044078 C110.30437891 1745.44331469 122.25665612 1745.37225132 134.20996094 1745.25219727 C145.79719053 1745.13600806 157.38393083 1745.05010369 168.97167969 1745.00805664 C169.6872393 1745.00544653 170.40279892 1745.00283642 171.14004216 1745.00014722 C177.55834629 1744.97721545 183.97666052 1744.95781041 190.39497614 1744.93842518 C194.54564719 1744.92587455 198.69631636 1744.91279378 202.84698486 1744.89942932 C203.5211111 1744.89731992 204.19523733 1744.89521053 204.88979164 1744.89303721 C213.56568193 1744.86527604 222.24110883 1744.81555619 230.91674185 1744.74188602 C235.87942781 1744.70008737 240.84215183 1744.66517181 245.80489349 1744.63071442 C248.1087965 1744.61260334 250.41267436 1744.59088994 252.71650696 1744.56534767 C255.85582729 1744.53067283 258.99501686 1744.5081248 262.13446045 1744.48826599 C263.50763432 1744.46796984 263.50763432 1744.46796984 264.90854907 1744.44726366 C269.29969219 1744.43153082 272.85831976 1744.47675478 276.80859375 1746.65234375 C289.23211703 1762.04670956 286.95175219 1792.41060627 285.05859375 1810.83984375 C283.28526021 1825.82022834 279.66304029 1842.79848585 267.77086729 1853.16413665 C261.17767038 1858.16448052 254.54605908 1859.23927264 246.46311951 1859.17132568 C245.45904291 1859.17882694 244.45496631 1859.18632819 243.42046314 1859.19405675 C240.07623783 1859.21425906 236.73269533 1859.20624563 233.38842773 1859.19824219 C230.98318311 1859.20698121 228.5779443 1859.21746814 226.17271423 1859.22956848 C220.33249569 1859.2545217 214.49246168 1859.261316 208.65219461 1859.26000825 C201.85278338 1859.25947267 195.0535006 1859.28147262 188.25413621 1859.3048152 C176.12996381 1859.3458442 164.00582501 1859.36919587 151.8815918 1859.38134766 C140.10844699 1859.3931856 128.33536539 1859.41340053 116.56225586 1859.44482422 C115.83579345 1859.44676032 115.10933104 1859.44869642 114.36085462 1859.45069119 C110.71617656 1859.46045615 107.07149898 1859.47038519 103.42682159 1859.48039579 C73.22077399 1859.56314878 43.01473607 1859.61688216 12.80859375 1859.65234375 C12.397009 1889.02805952 12.07893186 1918.40363817 11.88941782 1947.7816368 C11.86690801 1951.25840062 11.84360993 1954.73515874 11.81982422 1958.21191406 C11.81510263 1958.90400572 11.81038104 1959.59609737 11.80551638 1960.3091615 C11.72741948 1971.48175276 11.58563141 1982.65265857 11.41984342 1993.82425348 C11.25086542 2005.30751308 11.15274789 2016.78959362 11.11500084 2028.27407229 C11.09161766 2034.71724371 11.03704757 2041.15660742 10.90545273 2047.5985527 C10.78233376 2053.67539399 10.74576089 2059.74689904 10.77265549 2065.82486916 C10.76774373 2068.04293384 10.73246859 2070.2611955 10.6628952 2072.47817421 C10.63191994 2073.51705473 10.60094467 2074.55593525 10.56903076 2075.626297 C10.53271357 2076.52395877 10.49639637 2077.42162054 10.45897865 2078.34648418 C11.48237575 2096.57454307 15.4961551 2095.3399051 30.80859375 2110.65234375 C194.81859375 2110.65234375 358.82859375 2110.65234375 527.80859375 2110.65234375 C527.80859375 1669.44234375 527.80859375 1228.23234375 527.80859375 773.65234375 C149.62859375 773.65234375 -228.55140625 773.65234375 -618.19140625 773.65234375 Z M-1264.19140625 1404.65234375 C-1264.19140625 2243.18234375 -1264.19140625 3081.71234375 -1264.19140625 3945.65234375 C-1152.32140625 3945.65234375 -1040.45140625 3945.65234375 -925.19140625 3945.65234375 C-925.10006947 3838.57667032 -925.10006947 3838.57667032 -925.07373047 3731.50097656 C-925.03735352 3710.79833984 -925.03735352 3710.79833984 -925.01272583 3701.10858154 C-924.9975751 3694.33652783 -924.99873135 3687.56471793 -925.01101685 3680.79266357 C-925.02513621 3672.97863502 -925.01843496 3665.16495161 -924.98625726 3657.35097151 C-924.97045299 3653.3554583 -924.9638367 3649.36054571 -924.98401237 3645.36503839 C-925.00210838 3641.74588223 -924.99225253 3638.12788079 -924.96086693 3634.5088253 C-924.95131262 3632.59288347 -924.97102577 3630.67686314 -924.99206734 3628.76101303 C-924.87692589 3620.07994708 -922.61242972 3614.07319453 -918.19140625 3606.65234375 C-917.79997149 3605.95709319 -917.40853674 3605.26184264 -917.00524032 3604.54552388 C-916.02800622 3602.81779481 -915.01711423 3601.10922506 -914.00390625 3599.40234375 C-909.12567649 3591.51855009 -909.12567649 3591.51855009 -907.19140625 3582.65234375 C-899.0214546 3580.52843951 -890.9857344 3579.31129248 -882.58984375 3578.6171875 C-881.58669632 3578.53263809 -880.58354889 3578.44808868 -879.55000305 3578.36097717 C-850.83578537 3576.03150159 -821.9221959 3575.58454673 -793.12890625 3575.1015625 C-791.28222886 3575.06992445 -791.28222886 3575.06992445 -789.39824486 3575.03764725 C-762.17692864 3574.58000388 -734.95888574 3574.4926939 -707.73425674 3574.52336884 C-703.92207083 3574.52743095 -700.10988642 3574.52989041 -696.29769897 3574.53204346 C-647.75862685 3574.56355025 -599.27016202 3575.009189 -550.75390625 3576.58984375 C-549.5701944 3576.62736755 -548.38648254 3576.66489136 -547.16690063 3576.70355225 C-535.10156737 3577.09509257 -523.06281473 3577.63952096 -511.02734375 3578.58984375 C-509.56325829 3578.70071571 -509.56325829 3578.70071571 -508.06959534 3578.81382751 C-486.03821482 3580.68703949 -462.70672154 3593.7843332 -447.81640625 3610.08984375 C-444.15012845 3614.47173193 -442.94272999 3618.70129575 -442.92969322 3624.37446308 C-442.92222698 3625.52384798 -442.91476074 3626.67323288 -442.90706825 3627.85744762 C-442.90997148 3629.7435725 -442.90997148 3629.7435725 -442.91293335 3631.6678009 C-442.9079369 3633.01766291 -442.90206797 3634.36752192 -442.895401 3635.71737671 C-442.87958505 3639.43286739 -442.87619301 3643.14828265 -442.87476203 3646.86380292 C-442.87098784 3650.92970689 -442.85566104 3654.99557021 -442.84179115 3659.06145 C-442.81659347 3666.95587779 -442.80162058 3674.85029208 -442.79020724 3682.74475051 C-442.77656667 3691.87523348 -442.7502303 3701.00565067 -442.72387695 3710.1361084 C-442.66057084 3734.24566088 -442.6145499 3758.35525623 -442.56640625 3782.46484375 C-442.38078125 3863.24265625 -442.38078125 3863.24265625 -442.19140625 3945.65234375 C-330.32140625 3945.65234375 -218.45140625 3945.65234375 -103.19140625 3945.65234375 C-103.19140625 3107.12234375 -103.19140625 2268.59234375 -103.19140625 1404.65234375 C-486.32140625 1404.65234375 -869.45140625 1404.65234375 -1264.19140625 1404.65234375 Z M12.80859375 2226.65234375 C12.80859375 2793.92234375 12.80859375 3361.19234375 12.80859375 3945.65234375 C395.93859375 3945.65234375 779.06859375 3945.65234375 1173.80859375 3945.65234375 C1173.80859375 3378.38234375 1173.80859375 2811.11234375 1173.80859375 2226.65234375 C790.67859375 2226.65234375 407.54859375 2226.65234375 12.80859375 2226.65234375 Z M2183.80859375 2968.65234375 C2182.2882565 2968.82575201 2180.76791127 2968.99909031 2179.24755859 2969.17236328 C2099.382815 2978.41483967 2023.1686305 3002.11369529 1831.80859375 3116.65234375 C1831.29345215 3117.08256836 1830.77831055 3117.51279297 1830.24755859 3117.95605469 C1823.75057824 3123.3872296 1817.34789098 3128.89957669 1811.08203125 3134.59765625 C1808.95314066 3136.52170513 1806.79440233 3138.40380187 1804.62109375 3140.27734375 C1801.45748328 3143.02886067 1798.50729588 3145.93209192 1795.5703125 3148.921875 C1793.81417799 3150.64685856 1791.9949498 3152.24416839 1790.12109375 3153.83984375 C1782.31755621 3160.58064271 1775.06530782 3168.0118926 1768.3828125 3175.859375 C1766.76092185 3177.70664004 1765.0619917 3179.42991089 1763.30859375 3181.15234375 C1759.59646016 3184.81531001 1756.20178493 3188.69468976 1752.80859375 3192.65234375 C1751.90143836 3193.69565755 1750.99385294 3194.73859754 1750.0859375 3195.78125 C1743.58242237 3203.27545161 1737.31657714 3210.91571193 1731.2578125 3218.7734375 C1729.72739653 3220.75761562 1728.18973188 3222.73606438 1726.65234375 3224.71484375 C1703.72716812 3254.33710751 1683.7951388 3285.81852021 1665.80859375 3318.65234375 C1665.1424707 3319.85262207 1665.1424707 3319.85262207 1664.46289062 3321.07714844 C1638.99961521 3367.01999957 1620.73724176 3417.8571851 1607.80859375 3468.65234375 C1607.51146484 3469.80702148 1607.21433594 3470.96169922 1606.90820312 3472.15136719 C1598.27878832 3506.07681167 1592.83183992 3540.79238272 1589.80859375 3575.65234375 C1589.74907532 3576.33673523 1589.68955688 3577.02112671 1589.62823486 3577.72625732 C1582.7804908 3657.98679617 1590.85915037 3740.65840602 1744.90625 4062.34375 C1750.86830376 4069.37598954 1757.00587793 4076.22378633 1763.27905273 4082.97924805 C1764.42550234 4084.23329739 1765.55820465 4085.4999379 1766.68383789 4086.77270508 C1772.61384573 4093.46298768 1778.82575724 4099.823443 1785.15649414 4106.13061523 C1786.87568045 4107.84441608 1788.58941958 4109.56353457 1790.30273438 4111.28320312 C1795.971284 4116.95518194 1801.70184451 4122.44896511 1807.80859375 4127.65234375 C1809.58429596 4129.27202192 1811.35567682 4130.89646093 1813.12109375 4132.52734375 C1818.52329516 4137.44852722 1824.12089273 4142.06736028 1829.80859375 4146.65234375 C1831.03864391 4147.66168469 1832.26775585 4148.67216973 1833.49609375 4149.68359375 C1859.65998582 4171.18381176 1887.55199098 4190.59130379 1916.80859375 4207.65234375 C1917.53997559 4208.08305176 1918.27135742 4208.51375977 1919.02490234 4208.95751953 C1990.80293897 4251.15628656 2070.27645943 4279.00683846 2424.10617065 4278.0864563 C2482.21250161 4262.90461221 2537.88549833 4239.80918992 2589.80859375 4209.65234375 C2590.65921387 4209.16008301 2591.50983398 4208.66782227 2592.38623047 4208.16064453 C2623.10807729 4190.30557394 2652.68093273 4169.62531795 2679.80859375 4146.65234375 C2680.35032227 4146.19408203 2680.89205078 4145.73582031 2681.45019531 4145.26367188 C2688.16270319 4139.57560735 2694.8158772 4133.82897521 2701.32128906 4127.90405273 C2702.83459658 4126.53408461 2704.35580438 4125.17269237 2705.89086914 4123.82714844 C2713.51807247 4117.10864993 2720.67633848 4109.93635314 2727.8503418 4102.7409668 C2729.99871241 4100.58721853 2732.15240069 4098.43889149 2734.30664062 4096.29101562 C2735.69693543 4094.90006021 2737.08692011 4093.50879472 2738.4765625 4092.1171875 C2739.1090239 4091.48675034 2739.74148529 4090.85631317 2740.39311218 4090.20677185 C2744.18639412 4086.39381916 2747.79422954 4082.46516322 2751.30699158 4078.39205933 C2753.2248689 4076.17005865 2755.20319942 4074.00613716 2757.18359375 4071.83984375 C2761.02665673 4067.57624358 2764.70182109 4063.20682102 2768.30859375 4058.7421875 C2770.12862947 4056.4927371 2771.96078257 4054.25760583 2773.80859375 4052.03125 C2781.34187111 4042.91902525 2788.39442074 4033.5422598 2795.22216797 4023.89160156 C2796.7754245 4021.69916252 2798.3394997 4019.51484109 2799.90625 4017.33203125 C2817.35328351 3992.94596403 2832.92048532 3967.22201514 2846.80859375 3940.65234375 C2847.67436035 3938.9967041 2847.67436035 3938.9967041 2848.55761719 3937.30761719 C2883.54862585 3869.91132565 2906.29974186 3796.6612045 2920.80859375 3678.65234375 C2920.95325073 3676.81337524 2920.95325073 3676.81337524 2921.10083008 3674.93725586 C2922.05874895 3661.12633467 2922.00799525 3647.30331219 2921.99609375 3633.46484375 C2921.9954895 3632.17077606 2921.99488525 3630.87670837 2921.9942627 3629.54342651 C2921.97050442 3610.82088937 2921.7058119 3592.29048964 2919.80859375 3573.65234375 C2919.68500488 3572.35200195 2919.56141602 3571.05166016 2919.43408203 3569.71191406 C2913.54263156 3508.08451085 2899.56170592 3447.27072769 2876.80859375 3389.65234375 C2876.56772034 3389.04144897 2876.32684692 3388.4305542 2876.07867432 3387.80114746 C2864.37374336 3358.19574949 2850.65381309 3329.27038668 2834.80859375 3301.65234375 C2834.37401855 3300.88696289 2833.93944336 3300.12158203 2833.49169922 3299.33300781 C2814.84889075 3266.68207493 2792.84886568 3235.29253903 2768.4140625 3206.7265625 C2766.04995188 3203.9553522 2763.77015417 3201.12307186 2761.49609375 3198.27734375 C2756.74580395 3192.43542542 2751.6060229 3186.98867392 2746.43359375 3181.5234375 C2743.74631519 3178.67924847 2741.13168262 3175.77919373 2738.53125 3172.85546875 C2733.61529481 3167.37541317 2728.46204405 3162.15813243 2723.24609375 3156.96484375 C2722.35212891 3156.06701172 2721.45816406 3155.16917969 2720.53710938 3154.24414062 C2716.01369038 3149.72733965 2711.435913 3145.34650234 2706.5847168 3141.18334961 C2703.99120372 3138.94775916 2701.50160723 3136.61115071 2698.99609375 3134.27734375 C2694.34955247 3129.98483167 2689.56760135 3125.91896344 2684.63671875 3121.953125 C2682.13042799 3119.91416747 2679.67265057 3117.82859275 2677.22558594 3115.71923828 C2669.37304677 3108.9683487 2661.15972877 3102.77001347 2652.80859375 3096.65234375 C2652.09010254 3096.12350586 2651.37161133 3095.59466797 2650.63134766 3095.04980469 C2618.16702053 3071.18762744 2583.76505668 3050.78943633 2547.80859375 3032.65234375 C2546.84228027 3032.16378906 2545.8759668 3031.67523437 2544.88037109 3031.171875 C2477.56574591 2997.39036568 2402.55484338 2976.97590998 2327.81896973 2968.87237549 C2325.81825453 2968.6534011 2323.8188334 2968.42462414 2321.81933594 2968.19482422 C2276.62778799 2963.10292926 2228.9615563 2963.34120941 2183.80859375 2968.65234375 Z M-794.19140625 3694.65234375 C-794.19140625 3777.48234375 -794.19140625 3860.31234375 -794.19140625 3945.65234375 C-721.26140625 3945.65234375 -648.33140625 3945.65234375 -573.19140625 3945.65234375 C-573.19140625 3862.82234375 -573.19140625 3779.99234375 -573.19140625 3694.65234375 C-646.12140625 3694.65234375 -719.05140625 3694.65234375 -794.19140625 3694.65234375 Z " fill="#A56CFF" transform="translate(1432.19140625,36.34765625)"/>
<path d="M0 0 C177.54 0 355.08 0 538 0 C538 25.08 538 50.16 538 76 C474.64 76.33 411.28 76.66 346 77 C350.29 81.62 354.58 86.24 359 91 C361.13057002 93.55051534 363.16785416 96.02323212 365.125 98.6875 C365.84864746 99.66614014 365.84864746 99.66614014 366.58691406 100.66455078 C385.98443987 127.49884788 395.2639585 156.66700079 402 189 C446.88 189.33 491.76 189.66 538 190 C538 214.75 538 239.5 538 265 C493.45 265 448.9 265 403 265 C402.67 268.63 402.34 272.26 402 276 C392.90241827 331.88514489 363.73280513 384.9012797 317.68701172 418.75732422 C316.02898451 419.97864961 314.39123502 421.22377916 312.75390625 422.47265625 C265.69225137 457.8021281 204.37133659 473.75572013 146.41699219 477.74511719 C143.86013914 477.92717991 143.86013914 477.92717991 141 479 C141.40613525 479.43119141 141.81227051 479.86238281 142.23071289 480.30664062 C147.15567527 485.53600503 152.07848462 490.76739146 157 496 C158.01610352 497.08015381 158.01610352 497.08015381 159.05273438 498.18212891 C167.09508544 506.73462911 175.08528431 515.32925176 183 524 C183.93451665 525.01857718 184.86941912 526.03680052 185.8046875 527.0546875 C191.57511816 533.33538768 197.30332271 539.65227387 203 546 C203.763125 546.845625 204.52625 547.69125 205.3125 548.5625 C209.31094784 552.99321247 213.2787182 557.44603775 217.1953125 561.94921875 C219.22958141 564.26088797 221.3022231 566.5353143 223.375 568.8125 C226.46636801 572.23229328 229.42459032 575.71958524 232.3125 579.3125 C236.20191158 584.1250529 240.3274325 588.6459852 244.5534668 593.15893555 C248.49790439 597.39494858 252.16480701 601.80634808 255.7890625 606.3203125 C258.1093495 609.13253315 260.53071134 611.81797263 263 614.5 C267.11378909 618.9698512 270.97087297 623.59044893 274.78515625 628.31640625 C276.95632827 630.94708557 279.20241357 633.47942424 281.5 636 C284.52282421 639.31989486 287.42512161 642.69764112 290.25 646.1875 C293.87263314 650.66214616 297.59482326 655.03387598 301.375 659.375 C308.85010708 667.96288859 316.25391928 676.60311438 323.4375 685.4375 C326.89274151 689.68392382 330.42697834 693.85296294 334 698 C338.31928956 703.01319488 342.55097119 708.0853732 346.72265625 713.22265625 C349.28204217 716.34396567 351.88601545 719.42443239 354.5 722.5 C359.40555309 728.27538623 364.21896757 734.12097278 369 740 C376.63838196 749.35665692 384.31859996 758.67865951 392 768 C399.68141661 777.32136059 407.35843652 786.64592042 415 796 C416.49985696 797.83345036 417.9998594 799.66678171 419.5 801.5 C428.5 812.5 428.5 812.5 430.7265625 815.22265625 C432.30300376 817.1485149 433.88125492 819.0728929 435.4609375 820.99609375 C436.25757812 821.96675781 437.05421875 822.93742187 437.875 823.9375 C438.95394531 825.25041016 438.95394531 825.25041016 440.0546875 826.58984375 C445 832.71686747 445 832.71686747 445 835 C427.44079764 835.25740654 409.88218717 835.45115134 392.32152748 835.56993389 C384.16699638 835.62656288 376.01364007 835.70370871 367.85986328 835.82983398 C360.74968956 835.93976367 353.6403668 836.010507 346.52936685 836.03497344 C342.76648766 836.04926848 339.00604193 836.08264814 335.24394608 836.16303062 C331.69562477 836.23822464 328.15071553 836.26063001 324.60167313 836.24418449 C322.69231627 836.24861079 320.78332391 836.30754716 318.87493896 836.36862183 C313.58420693 836.29953906 310.29311843 836.04220216 306.09183884 832.65613747 C303.53387153 829.87504264 301.25029959 827.0331805 299 824 C297.52730908 822.2030067 296.04904816 820.41054698 294.5625 818.625 C293.46615234 817.26761719 293.46615234 817.26761719 292.34765625 815.8828125 C289.77184764 812.71983953 287.14294778 809.60682328 284.5 806.5 C280.37869662 801.65065425 276.33008057 796.7483847 272.3125 791.8125 C269.73853608 788.68200334 267.12430914 785.58827539 264.5 782.5 C260.37898366 777.65040619 256.33008646 772.74839194 252.3125 767.8125 C249.2756723 764.1190609 246.18039045 760.47701514 243.08374023 756.83374023 C240.2045468 753.44045891 237.36795763 750.01732214 234.5625 746.5625 C230.14737176 741.13999847 225.59987523 735.83872545 221.0390625 730.5390625 C217.71878494 726.67910808 214.43288446 722.79067074 211.14941406 718.89941406 C207.74705423 714.87178207 204.31421392 710.87117384 200.875 706.875 C197.29373398 702.7131582 193.7684187 698.51730831 190.3125 694.25 C186.76137934 689.87348373 183.04202602 685.6916854 179.24609375 681.52734375 C176.93812402 678.93037607 174.74444137 676.26595987 172.5625 673.5625 C168.70058325 668.78715598 164.62325776 664.26332315 160.46484375 659.74609375 C158.07292703 657.08124834 155.80745116 654.35168175 153.5625 651.5625 C149.90299472 647.02522979 146.05004979 642.73969027 142.08178711 638.47631836 C139.13082563 635.28693687 136.34014247 632.0164417 133.625 628.625 C129.57204787 623.58423158 125.22383154 618.8921232 120.79296875 614.1875 C117.59037505 610.76841396 114.54437392 607.29349628 111.625 603.625 C107.19561764 598.08827205 102.37532737 592.96521507 97.49072266 587.83251953 C93.75516074 583.90290245 90.12522699 579.90549147 86.57177734 575.81030273 C84.61596416 573.55768473 82.62443354 571.33893215 80.625 569.125 C77.62048536 565.79567296 74.62029941 562.46261934 71.625 559.125 C67.80457158 554.87860046 63.94898946 550.6652134 60.08422852 546.45922852 C57.22426613 543.34402807 54.38499999 540.2116546 51.5625 537.0625 C46.60963877 531.54561186 41.5759624 526.10501172 36.53955078 520.66455078 C35.04403265 519.04760777 33.55083741 517.42855869 32.05859375 515.80859375 C26.11998747 509.36305743 20.15807773 502.94034141 14.15869141 496.55126953 C13.07482732 495.39379179 12.0045054 494.22346737 10.94888306 493.04017639 C9.02629964 490.9422744 9.02629964 490.9422744 6.71844482 489.14472961 C1.74525461 484.69670375 -0.49766581 480.95005134 -0.95577621 474.37483501 C-1.07378275 469.90806872 -0.9932348 465.45817625 -0.87890625 460.9921875 C-0.86209582 459.05594862 -0.84929616 457.11967116 -0.84031677 455.18338013 C-0.80614321 450.11564264 -0.7179068 445.05026997 -0.61798096 439.98345947 C-0.52549671 434.80179834 -0.48472043 429.61975064 -0.43945312 424.4375 C-0.34326726 414.29063422 -0.18990006 404.14551463 0 394 C1.19871735 393.99413376 2.39743469 393.98826752 3.63247681 393.98222351 C15.07241504 393.92436704 26.51217451 393.85129518 37.95192909 393.76428509 C43.82959177 393.72004305 49.70719239 393.68069341 55.58496094 393.65356445 C124.81725082 393.32407856 195.90947172 387.56018366 248.6875 337.625 C267.79029216 317.67319485 278.50141653 291.99150085 283 265 C189.61 265 96.22 265 0 265 C0 240.25 0 215.5 0 190 C91.74 190 183.48 190 278 190 C273.48932572 177.3886926 273.48932572 177.3886926 267.625 165.625 C267.05591919 164.63705444 267.05591919 164.63705444 266.4753418 163.62915039 C263.149942 157.98820511 259.29523051 152.94043681 255 148 C254.52304688 147.3915625 254.04609375 146.783125 253.5546875 146.15625 C249.12103032 140.58250954 243.61110443 136.33655993 238 132 C236.91332031 131.13761719 236.91332031 131.13761719 235.8046875 130.2578125 C212.64737036 112.91057493 183.99294879 104.53906818 155.875 99.75 C154.99585937 99.59901855 154.11671875 99.44803711 153.2109375 99.29248047 C133.54323687 96.15935359 113.922223 95.67337114 94.04296875 95.5859375 C91.31527833 95.56821543 88.58761078 95.54769558 85.85993958 95.5272522 C79.47517184 95.48096768 73.09038766 95.44398482 66.70554096 95.41057932 C58.70272459 95.36819163 50.70000243 95.31296763 42.69726562 95.2578125 C28.46489634 95.15977771 14.23250124 95.0807337 0 95 C0 63.65 0 32.3 0 0 Z " fill="#A56CFF" transform="translate(3454,3307)"/>
<path d="M0 0 C43.89 0 87.78 0 133 0 C133 470.25 133 940.5 133 1425 C89.11 1425 45.22 1425 0 1425 C0 954.75 0 484.5 0 0 Z " fill="#A56CFF" transform="translate(1959,2410)"/>
<path d="M0 0 C43.89 0 87.78 0 133 0 C133.00810491 44.81112924 133.00810491 44.81112924 133.0111084 62.24501038 C133.01129539 63.33024407 133.01148239 64.41547775 133.01167505 65.53359731 C133.02417153 138.1715781 133.03531945 210.80955876 133.04234314 283.44754028 C133.04248259 284.88573183 133.04262204 286.32392338 133.04276149 287.76211493 C133.04569187 318.03116992 133.0484077 348.30022493 133.05087968 378.56927997 C133.05212391 393.80195462 133.05340883 409.03462927 133.05473244 424.26730392 C133.05493171 426.56335249 133.05512982 428.85940105 133.05532788 431.15544962 C133.05917566 475.61215455 133.06557209 520.06885844 133.07416164 564.5255627 C133.08795649 635.98101536 133.09696477 707.43646723 133.09763387 778.89192131 C133.09765626 781.05522674 133.09768471 783.21853217 133.09771509 785.38183759 C133.09867004 854.769047 133.09325809 924.1562655 132.35255432 1318.44625854 C132.349874 1319.32787353 132.34719368 1320.20948851 132.34443213 1321.1178191 C132.23901726 1355.74524586 132.11817721 1390.3726124 132 1425 C88.44 1425 44.88 1425 0 1425 C0 954.75 0 484.5 0 0 Z " fill="#A56CFF" transform="translate(2238,2410)"/>
<path d="M0 0 C43.89 0 87.78 0 133 0 C133 470.25 133 940.5 133 1425 C89.44 1425 45.88 1425 1 1425 C0.88676448 1356.20852036 0.88676448 1356.20852036 0.84754944 1331.80897522 C0.84626515 1331.01019062 0.84498087 1330.21140601 0.84365766 1329.38841582 C0.72649143 1256.49176542 0.61646306 1183.595104 0.50904435 1110.69843864 C0.5030298 1106.6169122 0.49700777 1102.53538576 0.49097854 1098.45385933 C0.33670463 994.00934183 0.19173496 889.56480718 -0.06282836 305.90667131 C-0.06238912 302.01849313 -0.06196277 298.13031495 -0.06153599 294.24213677 C-0.05396268 225.38598734 -0.04339545 156.52983839 -0.02552795 87.6736908 C-0.02524932 86.59713289 -0.02524932 86.59713289 -0.02496506 85.49882633 C-0.01757144 56.99921727 -0.00862611 28.49960872 0 0 Z " fill="#A56CFF" transform="translate(1680,2410)"/>
<path d="M0 0 C1.5035629 -0.00609109 1.5035629 -0.00609109 3.0375008 -0.01230523 C6.39938535 -0.02225816 9.76085309 -0.01081901 13.12272835 0.00050831 C15.55613985 -0.00223203 17.98955016 -0.00628388 20.42295754 -0.01153535 C25.71530172 -0.01992098 31.00752216 -0.01897873 36.29985619 -0.00980282 C44.16984341 0.00380472 52.03975775 0.00022901 59.90975028 -0.00676142 C73.96629251 -0.01868798 88.02278989 -0.01360274 102.07932964 -0.00148315 C114.38166289 0.00905175 126.68398086 0.01359251 138.98631859 0.01222134 C139.80226202 0.01213731 140.61820546 0.01205328 141.45887445 0.0119667 C144.77105045 0.01161445 148.08322644 0.01123044 151.39540243 0.01080112 C182.47043776 0.00683551 213.54544607 0.01955617 244.62047366 0.04032768 C272.22671096 0.05869384 299.83292236 0.06451085 327.43916512 0.05905628 C329.21145963 0.05870985 330.98375415 0.05836375 332.75604866 0.05801799 C333.6322382 0.057847 334.50842774 0.057676 335.41116848 0.05749982 C339.82182655 0.05664628 344.23248462 0.05582249 348.6431427 0.05503082 C349.51330414 0.05487374 350.38346559 0.05471666 351.27999556 0.05455482 C374.34811038 0.05056413 397.41622271 0.0560413 420.48433602 0.06454211 C422.96676893 0.06544915 425.44920183 0.0663548 427.93163474 0.06725735 C429.57841127 0.06785846 431.22518779 0.06846708 432.87196431 0.06908325 C444.35054026 0.07330393 455.82911131 0.07388316 467.30768779 0.07197776 C482.10199315 0.06953419 496.89627227 0.07361118 511.69057046 0.08918776 C519.51364909 0.09723477 527.336684 0.09984195 535.15976524 0.09454541 C541.00073053 0.09121638 546.84165259 0.09834733 552.6826091 0.10957048 C555.04592216 0.11250105 557.40924228 0.11206162 559.77255355 0.1079274 C562.9840989 0.10281908 566.19539352 0.11001093 569.40692139 0.12025452 C570.32492828 0.11585803 571.24293517 0.11146155 572.18876046 0.10693184 C583.69751148 0.17686698 592.96970413 2.41163428 601.80195808 10.08957386 C615.70521448 24.5428492 617.25201253 45.63162818 617.04414558 64.55051136 C616.63833665 80.15021008 612.14527971 95.39281791 601.82930183 107.37473011 C594.1485341 114.54041677 586.88265945 116.82778628 576.5842123 116.76063347 C575.56164122 116.76589258 574.53907013 116.77115169 573.48551205 116.77657017 C570.04890586 116.79055875 566.61267998 116.78315176 563.17605782 116.77586842 C560.69131096 116.78147193 558.20656674 116.78837371 555.72182673 116.79646438 C550.31418125 116.81100635 544.90665105 116.81617978 539.49898911 116.81309605 C531.45739747 116.80852151 523.41589499 116.82100597 515.37432069 116.83671992 C500.17586785 116.86573909 484.97744535 116.87417261 469.77896807 116.8758911 C458.04153121 116.87726957 446.30410627 116.88344378 434.56667328 116.89299297 C431.18840034 116.8956856 427.81012739 116.89835504 424.43185443 116.90101761 C423.17208691 116.90201232 423.17208691 116.90201232 421.88686955 116.90302713 C398.26185316 116.92149105 374.6368409 116.9333287 351.01181698 116.9319973 C350.12101698 116.93195056 349.23021697 116.93190383 348.31242303 116.93185567 C343.79745515 116.93160635 339.28248727 116.93130923 334.76751939 116.93100155 C333.87082752 116.93094172 332.97413565 116.93088188 332.0502713 116.93082023 C330.23694121 116.93069892 328.42361112 116.93057353 326.61028103 116.93044406 C298.39995708 116.92860593 270.18974131 116.95112241 241.97944832 116.99216175 C210.28646819 117.03824856 178.59355915 117.06406014 146.90054339 117.06127208 C143.52069867 117.06104819 140.14085395 117.06090207 136.76100922 117.06080914 C135.92880406 117.06077417 135.09659889 117.06073921 134.23917539 117.06070319 C120.84950282 117.06061089 107.4599242 117.07976475 94.07027956 117.10560593 C80.61159145 117.131043 67.15304072 117.13399949 53.69434188 117.11427797 C45.70047125 117.10319563 37.7070181 117.10867474 29.71319176 117.13810499 C23.74145293 117.15823142 17.77020568 117.14693351 11.79846104 117.12348532 C9.38460733 117.11886828 6.97070841 117.12437431 4.55690799 117.14106555 C-10.13151285 117.23590204 -21.31907858 117.24222489 -32.42069817 106.49973011 C-39.77582012 97.409475 -44.94553337 85.81318056 -47.17069817 74.37473011 C-47.44140129 73.02894886 -47.44140129 73.02894886 -47.71757317 71.65598011 C-50.39559302 52.26342252 -47.33005344 33.30710195 -35.67069817 17.31223011 C-26.44610844 6.23573411 -14.39063494 -0.11399952 0 0 Z " fill="#A56CFF" transform="translate(1102.1706981658936,1045.6252698898315)"/>
<path d="M0 0 C45.54 0 91.08 0 138 0 C138 82.5 138 165 138 250 C92.46 250 46.92 250 0 250 C-0.375 215.6875 -0.375 215.6875 -0.47802734 204.97924805 C-0.64868594 185.55776474 -0.64868594 185.55776474 -2.29788208 166.21853638 C-3.2444444 158.62734763 -3.30169851 151.07222358 -3.26074219 143.42993164 C-3.25001432 141.0656565 -3.26073303 138.70214331 -3.2734375 136.33789062 C-3.27770105 129.27206451 -3.10929235 122.30355865 -2.28630638 115.28126907 C-0.82015615 102.76726303 -0.6525431 90.32101345 -0.5859375 77.734375 C-0.56894208 75.72932225 -0.5511191 73.72427634 -0.5324707 71.71923828 C-0.47002216 64.396237 -0.42341079 57.07310753 -0.375 49.75 C-0.25125 33.3325 -0.1275 16.915 0 0 Z " fill="#A56CFF" transform="translate(402,3089)"/>
<path d="M0 0 C45.54 0 91.08 0 138 0 C138 82.5 138 165 138 250 C92.46 250 46.92 250 0 250 C-0.375 211.1875 -0.375 211.1875 -0.47802734 199.05541992 C-0.51805698 195.38070093 -0.51805698 195.38070093 -0.56045532 191.70600891 C-0.57782764 190.10354286 -0.59176393 188.50103675 -0.60269165 186.89851379 C-0.67279738 177.04756931 -1.10045744 167.36570677 -2.28630638 157.57987499 C-3.19379261 150.02492481 -3.30286904 142.51438672 -3.26074219 134.91210938 C-3.2500293 132.63123834 -3.26072811 130.35116005 -3.2734375 128.0703125 C-3.2784192 120.07945879 -2.87794642 112.25057582 -2.00927734 104.30737305 C-0.86786973 93.06683056 -0.65196703 81.895978 -0.5859375 70.60546875 C-0.56893026 68.78014359 -0.55110616 66.95482586 -0.5324707 65.1295166 C-0.47016536 58.48226249 -0.42345641 51.8348695 -0.375 45.1875 C-0.25125 30.275625 -0.1275 15.36375 0 0 Z " fill="#A56CFF" transform="translate(402,1718)"/>
<path d="M0 0 C45.54 0 91.08 0 138 0 C138 82.5 138 165 138 250 C92.46 250 46.92 250 0 250 C-0.375 213.375 -0.375 213.375 -0.47802734 201.89599609 C-0.51802547 198.44073539 -0.51802547 198.44073539 -0.56045532 194.98550415 C-0.57790966 193.47032118 -0.59181285 191.95509431 -0.60269165 190.43984985 C-0.66969674 181.50340764 -1.14037016 172.94811503 -2.55154419 164.09994507 C-3.17461151 159.79300017 -3.28834051 155.57149695 -3.265625 151.2265625 C-3.26753845 150.3742807 -3.2694519 149.5219989 -3.27142334 148.64389038 C-3.27276701 146.86447855 -3.26919999 145.0850563 -3.26074219 143.30566406 C-3.25004342 140.63583526 -3.26068676 137.96668323 -3.2734375 135.296875 C-3.27211507 133.5442694 -3.26955094 131.7916642 -3.265625 130.0390625 C-3.27169769 128.88357407 -3.27169769 128.88357407 -3.27789307 127.70474243 C-3.23700483 122.68182468 -2.72362676 117.86483659 -2.00927734 112.89208984 C-0.49921137 101.86893427 -0.64296491 90.79382276 -0.5859375 79.6875 C-0.56895876 77.63866471 -0.55113743 75.58983623 -0.5324707 73.54101562 C-0.46981996 66.0274216 -0.42334687 58.51369968 -0.375 51 C-0.25125 34.17 -0.1275 17.34 0 0 Z " fill="#A56CFF" transform="translate(402,2167)"/>
<path d="M0 0 C45.54 0 91.08 0 138 0 C138 82.5 138 165 138 250 C92.46 250 46.92 250 0 250 C-0.375 195.75 -0.375 195.75 -0.47802734 178.74121094 C-0.51802136 173.62550881 -0.51802136 173.62550881 -0.56045532 168.50982666 C-0.57792031 166.26489602 -0.59181911 164.01993562 -0.60269165 161.77496338 C-0.66828195 148.8080222 -1.03551705 136.04349935 -2.55111694 123.15841675 C-3.23785115 117.23723781 -3.29433035 111.33004307 -3.25 105.375 C-3.25773438 104.32828125 -3.26546875 103.2815625 -3.2734375 102.203125 C-3.26021244 96.71472404 -2.96853889 91.34281518 -2.28630638 85.9015789 C-1.03968686 75.93391845 -0.66003202 66.09064874 -0.5859375 56.0546875 C-0.56892327 54.60358731 -0.55109852 53.15249639 -0.5324707 51.70141602 C-0.47025001 46.4260498 -0.4234835 41.15051035 -0.375 35.875 C-0.25125 24.03625 -0.1275 12.1975 0 0 Z " fill="#A56CFF" transform="translate(681,1718)"/>
<path d="M0 0 C45.54 0 91.08 0 138 0 C138 82.5 138 165 138 250 C92.46 250 46.92 250 0 250 C-0.375 200.3125 -0.375 200.3125 -0.47802734 184.75512695 C-0.51803729 180.06123041 -0.51803729 180.06123041 -0.56045532 175.36735535 C-0.5778789 173.31330385 -0.59179459 171.25922039 -0.60269165 169.2051239 C-0.67293695 156.52293484 -1.17075476 144.04222678 -2.55111694 131.43112183 C-3.18486516 125.55945159 -3.29644085 119.71435832 -3.25 113.8125 C-3.25773438 112.81798828 -3.26546875 111.82347656 -3.2734375 110.79882812 C-3.26001031 105.48501575 -2.95674898 100.29852388 -2.28630638 95.02448845 C-0.94364968 84.3665159 -0.65609599 73.81711867 -0.5859375 63.0859375 C-0.5689338 61.45612732 -0.55111003 59.8263255 -0.5324707 58.1965332 C-0.47012248 52.25611742 -0.42344271 46.31554545 -0.375 40.375 C-0.25125 27.05125 -0.1275 13.7275 0 0 Z " fill="#A56CFF" transform="translate(681,3089)"/>
<path d="M0 0 C45.54 0 91.08 0 138 0 C138 82.5 138 165 138 250 C92.46 250 46.92 250 0 250 C-0.375 212.625 -0.375 212.625 -0.47802734 200.93994141 C-0.51805467 197.40225342 -0.51805467 197.40225342 -0.56045532 193.86459351 C-0.57783366 192.32125148 -0.59176756 190.77786776 -0.60269165 189.23446655 C-0.67805316 179.03280954 -1.27684525 169.06324455 -2.55111694 158.93852234 C-3.18891939 153.34241187 -3.29375465 147.81361829 -3.25 142.1875 C-3.25773438 141.20458984 -3.26546875 140.22167969 -3.2734375 139.20898438 C-3.25905822 133.49681359 -2.91259934 127.88899748 -2.28630638 122.216609 C-0.84482482 108.91700803 -0.65271165 95.69054362 -0.5859375 82.32421875 C-0.56894273 80.20104302 -0.55111982 78.07787376 -0.5324707 75.95471191 C-0.47001425 68.19904846 -0.42340828 60.44326386 -0.375 52.6875 C-0.189375 26.6071875 -0.189375 26.6071875 0 0 Z " fill="#A56CFF" transform="translate(681,2167)"/>
<path d="M0 0 C45.54 0 91.08 0 138 0 C138 82.5 138 165 138 250 C110.775 250.495 110.775 250.495 83 251 C81.68 251.33 80.36 251.66 79 252 C77.53327481 252.0889026 76.06316539 252.13060143 74.59375 252.1328125 C73.35431641 252.13474609 73.35431641 252.13474609 72.08984375 252.13671875 C71.23519531 252.13285156 70.38054687 252.12898438 69.5 252.125 C68.21802734 252.13080078 68.21802734 252.13080078 66.91015625 252.13671875 C66.08386719 252.13542969 65.25757813 252.13414062 64.40625 252.1328125 C63.65666016 252.13168457 62.90707031 252.13055664 62.13476562 252.12939453 C60 252 60 252 58.21624756 251.50474548 C55.56940509 250.90193296 53.12033545 250.83748277 50.40527344 250.79467773 C49.28441345 250.77473251 48.16355347 250.75478729 47.00872803 250.73423767 C45.80444153 250.71752518 44.60015503 250.70081268 43.359375 250.68359375 C41.50339691 250.6524221 41.50339691 250.6524221 39.60992432 250.62062073 C36.32861309 250.56634128 33.04727267 250.51608221 29.76586914 250.46777344 C26.41416896 250.41743908 23.0625628 250.3617364 19.7109375 250.30664062 C13.14069536 250.19955491 6.57038702 250.09776964 0 250 C-0.01030746 248.98681702 -0.02061493 247.97363403 -0.03123474 246.92974854 C-0.12938171 237.33850633 -0.23215094 227.74732306 -0.33933926 218.15617752 C-0.39428788 213.22637227 -0.44765984 208.29656086 -0.49731445 203.36669922 C-0.54537587 198.60096342 -0.59772791 193.8352916 -0.65294075 189.06963348 C-0.67317686 187.25977949 -0.69191828 185.44990809 -0.70907402 183.64002228 C-0.79318343 174.86329185 -0.94240867 166.16525011 -1.77961731 157.42108154 C-2.06202828 154.31856935 -2.12941457 151.23944209 -2.1328125 148.125 C-2.13410156 146.95453125 -2.13539063 145.7840625 -2.13671875 144.578125 C-2.13285156 143.39734375 -2.12898438 142.2165625 -2.125 141 C-2.12886719 139.81921875 -2.13273437 138.6384375 -2.13671875 137.421875 C-2.13478516 135.66617188 -2.13478516 135.66617188 -2.1328125 133.875 C-2.13168457 132.84117187 -2.13055664 131.80734375 -2.12939453 130.7421875 C-2.02202575 127.63700122 -1.79196933 124.6022511 -1.50474548 121.51104736 C-0.98486662 115.3594327 -0.82910953 109.25215633 -0.79467773 103.08105469 C-0.78464501 101.93970692 -0.77461229 100.79835915 -0.76427555 99.62242508 C-0.73319703 95.97226152 -0.70824745 92.32208698 -0.68359375 88.671875 C-0.66516196 86.40055004 -0.64632383 84.12922834 -0.6270752 81.85791016 C-0.55897163 73.4886453 -0.4986993 65.11931819 -0.4375 56.75 C-0.293125 38.0225 -0.14875 19.295 0 0 Z " fill="#A56CFF" transform="translate(402,2617)"/>
<path d="M0 0 C45.54 0 91.08 0 138 0 C138 82.5 138 165 138 250 C92.46 250 46.92 250 0 250 C-0.375 211.9375 -0.375 211.9375 -0.47802734 200.07397461 C-0.65212524 183.3130909 -0.99670207 166.71764309 -2.80096436 150.03610229 C-3.5957094 141.90598962 -3.01877598 133.92556766 -2.28767967 125.82301998 C-1.01105758 111.44045033 -0.6580171 97.14710881 -0.5859375 82.71484375 C-0.56892886 80.57588042 -0.55110463 78.43692342 -0.5324707 76.29797363 C-0.47018227 68.5112213 -0.42346183 60.72435066 -0.375 52.9375 C-0.25125 35.468125 -0.1275 17.99875 0 0 Z " fill="#A56CFF" transform="translate(959,2167)"/>
<path d="M0 0 C45.54 0 91.08 0 138 0 C138 82.5 138 165 138 250 C92.46 250 46.92 250 0 250 C-0.4375 212.125 -0.4375 212.125 -0.56811523 200.21923828 C-0.61142511 196.66013376 -0.61142511 196.66013376 -0.65589905 193.1010437 C-0.67496796 191.53066858 -0.69232471 189.96027204 -0.70826721 188.38986206 C-0.78812097 180.63444529 -0.8773051 172.94546685 -1.77961731 165.23260498 C-2.18846893 161.09070003 -2.14241814 156.94360926 -2.1328125 152.78515625 C-2.13376923 151.84876816 -2.13472595 150.91238007 -2.13571167 149.94761658 C-2.13638724 147.98208549 -2.13457681 146.01655209 -2.13037109 144.05102539 C-2.12502009 141.07367851 -2.13033435 138.09648287 -2.13671875 135.11914062 C-2.13605774 133.19531217 -2.13477611 131.27148381 -2.1328125 129.34765625 C-2.13483673 128.47335464 -2.13686096 127.59905304 -2.13894653 126.69825745 C-2.12292875 122.39011273 -1.95023654 118.16328904 -1.50474548 113.87710571 C-0.97202209 108.18861311 -0.82857175 102.54780788 -0.79467773 96.8371582 C-0.77962865 95.2293953 -0.77962865 95.2293953 -0.76427555 93.58915234 C-0.73318563 90.15971643 -0.70824263 86.73026883 -0.68359375 83.30078125 C-0.66516301 81.16743621 -0.64632493 79.03409465 -0.6270752 76.90075684 C-0.55895887 69.03804568 -0.49869464 61.17526808 -0.4375 53.3125 C-0.293125 35.719375 -0.14875 18.12625 0 0 Z " fill="#A56CFF" transform="translate(959,3089)"/>
<path d="M0 0 C45.54 0 91.08 0 138 0 C138 82.5 138 165 138 250 C92.46 250 46.92 250 0 250 C-0.4375 207.625 -0.4375 207.625 -0.56811523 194.29541016 C-0.61141634 190.31717788 -0.61141634 190.31717788 -0.65589905 186.33895874 C-0.67499154 184.58108187 -0.69234316 182.82318553 -0.70826721 181.0652771 C-0.78579936 168.5898887 -0.78579936 168.5898887 -1.77961731 156.16339111 C-2.1990008 152.04650467 -2.1423624 147.91947786 -2.1328125 143.78515625 C-2.13376923 142.84876816 -2.13472595 141.91238007 -2.13571167 140.94761658 C-2.13638724 138.98208549 -2.13457681 137.01655209 -2.13037109 135.05102539 C-2.12502009 132.07367851 -2.13033435 129.09648287 -2.13671875 126.11914062 C-2.13605774 124.19531217 -2.13477611 122.27148381 -2.1328125 120.34765625 C-2.13483673 119.47335464 -2.13686096 118.59905304 -2.13894653 117.69825745 C-2.12286651 113.37337455 -1.94816981 109.12872087 -1.50474548 104.82546997 C-0.99907686 99.4281576 -0.82989118 94.08174356 -0.79467773 88.66333008 C-0.78464501 87.68069781 -0.77461229 86.69806555 -0.76427555 85.68565655 C-0.73322803 82.54697101 -0.70826068 79.40827269 -0.68359375 76.26953125 C-0.66515907 74.31489686 -0.64632081 72.36026623 -0.6270752 70.40563965 C-0.55900647 63.2079709 -0.498712 56.01023032 -0.4375 48.8125 C-0.293125 32.704375 -0.14875 16.59625 0 0 Z " fill="#A56CFF" transform="translate(959,1718)"/>
<path d="M0 0 C45.54 0 91.08 0 138 0 C138 82.5 138 165 138 250 C118.53 250.33 99.06 250.66 79 251 C75.04 251.33 71.08 251.66 67 252 C63.10546875 251.58227539 63.10546875 251.58227539 61.20458984 251.27786255 C55.95009813 250.61559584 50.60132493 250.75434705 45.3125 250.68359375 C44.01425293 250.66281265 42.71600586 250.64203156 41.37841797 250.62062073 C37.95250367 250.56583066 34.52653379 250.51623439 31.1005249 250.46777344 C27.59431094 250.41724076 24.08817618 250.36172174 20.58203125 250.30664062 C13.721423 250.19958713 6.86074298 250.0980284 0 250 C-0.13269302 238.59191987 -0.26319539 227.18381675 -0.39115143 215.77568245 C-0.45067631 210.47430346 -0.51086354 205.17293398 -0.57275391 199.87158203 C-1.11641676 153.1957005 -0.89532541 106.55146153 -0.5 59.875 C-0.335 40.11625 -0.17 20.3575 0 0 Z " fill="#A56CFF" transform="translate(959,2617)"/>
<path d="M0 0 C45.54 0 91.08 0 138 0 C138.71921823 84.30835932 138.71921823 84.30835932 138.84375 105.7421875 C138.85080932 106.94384686 138.85080932 106.94384686 138.85801125 108.16978216 C139.13236677 155.45819574 138.61238257 202.71045732 138 250 C92.46 250 46.92 250 0 250 C0 167.5 0 85 0 0 Z " fill="#A56CFF" transform="translate(681,2617)"/>
<path d="M0 0 C45.54 0 91.08 0 138 0 C138 77.88 138 155.76 138 236 C92.0034202 236.5609339 45.99266757 236.82129764 0 236 C0 158.12 0 80.24 0 0 Z " fill="#A56CFF" transform="translate(2319,1591)"/>
<path d="M0 0 C45.54 0 91.08 0 138 0 C138 77.88 138 155.76 138 236 C92.0034202 236.5609339 45.99266757 236.82129764 0 236 C0 158.12 0 80.24 0 0 Z " fill="#A56CFF" transform="translate(2598,1591)"/>
<path d="M0 0 C45.54 0 91.08 0 138 0 C138 77.88 138 155.76 138 236 C92.46 236 46.92 236 0 236 C0 158.12 0 80.24 0 0 Z " fill="#A56CFF" transform="translate(2874,2974)"/>
<path d="M0 0 C45.54 0 91.08 0 138 0 C138 77.88 138 155.76 138 236 C92.46 236 46.92 236 0 236 C0 158.12 0 80.24 0 0 Z " fill="#A56CFF" transform="translate(2871,2516)"/>
<path d="M0 0 C45.54 0 91.08 0 138 0 C138 77.88 138 155.76 138 236 C92.46 236 46.92 236 0 236 C0 158.12 0 80.24 0 0 Z " fill="#A56CFF" transform="translate(2876,2058)"/>
<path d="M0 0 C45.54 0 91.08 0 138 0 C138 77.88 138 155.76 138 236 C92.46 236 46.92 236 0 236 C0 158.12 0 80.24 0 0 Z " fill="#A56CFF" transform="translate(2876,1591)"/>
<path d="M0 0 C45.54 0 91.08 0 138 0 C138 77.88 138 155.76 138 236 C92.46 236 46.92 236 0 236 C0 158.12 0 80.24 0 0 Z " fill="#A56CFF" transform="translate(2876,1141)"/>
<path d="M0 0 C45.54 0 91.08 0 138 0 C138 77.88 138 155.76 138 236 C92.46 236 46.92 236 0 236 C0 158.12 0 80.24 0 0 Z " fill="#A56CFF" transform="translate(2598,1141)"/>
<path d="M0 0 C45.54 0 91.08 0 138 0 C138 77.88 138 155.76 138 236 C92.46 236 46.92 236 0 236 C0 158.12 0 80.24 0 0 Z " fill="#A56CFF" transform="translate(2319,1141)"/>
<path d="M0 0 C45.54 0 91.08 0 138 0 C138 77.88 138 155.76 138 236 C92.46 236 46.92 236 0 236 C0 158.12 0 80.24 0 0 Z " fill="#A56CFF" transform="translate(2876,679)"/>
<path d="M0 0 C45.54 0 91.08 0 138 0 C138 77.88 138 155.76 138 236 C92.46 236 46.92 236 0 236 C0 158.12 0 80.24 0 0 Z " fill="#A56CFF" transform="translate(2598,679)"/>
<path d="M0 0 C45.54 0 91.08 0 138 0 C138 77.88 138 155.76 138 236 C92.46 236 46.92 236 0 236 C0 158.12 0 80.24 0 0 Z " fill="#A56CFF" transform="translate(2319,679)"/>
</svg>
