<?xml version="1.0" encoding="UTF-8"?>
<svg version="1.1" xmlns="http://www.w3.org/2000/svg" width="4500" height="4500">
<path d="M0 0 C0.92141785 0.06316406 1.84283569 0.12632812 2.79217529 0.19140625 C77.00972254 5.31971826 150.59253321 16.92325324 222.66827393 35.40289307 C225.03174719 36.0081298 227.39642007 36.60850736 229.76123047 37.20849609 C283.94677925 51.00573281 337.40371677 68.41262315 389 90 C389.68366638 90.2857489 390.36733276 90.5714978 391.07171631 90.86590576 C434.59707431 109.08297628 478.04881412 128.74386063 518.75439453 152.69580078 C521.65046285 154.37777479 524.58785794 155.97685499 527.53051758 157.57543945 C556.32717302 173.25633468 584.14467955 191.22944351 611 210 C611.71559082 210.49951172 612.43118164 210.99902344 613.16845703 211.51367188 C618.13065069 214.98348495 623.07157941 218.48240812 628 222 C628.75200684 222.53657227 629.50401367 223.07314453 630.27880859 223.62597656 C639.38893124 230.13785017 648.41086402 236.7319021 657.23632812 243.62646484 C659.21966434 245.17107303 661.21110434 246.70489068 663.203125 248.23828125 C677.57758002 259.32558496 691.5769151 270.84594036 705.38769531 282.62597656 C707.08671589 284.07390022 708.7894368 285.51740312 710.4921875 286.9609375 C717.23908463 292.69584623 723.84792609 298.54927007 730.34765625 304.5625 C732.47490534 306.51743878 734.62272252 308.42882045 736.8125 310.3125 C750.90675216 322.59906874 764.0553816 335.89680196 777.25488281 349.12451172 C779.9754595 351.85083538 782.7005735 354.57257295 785.42699432 357.29305077 C787.55823648 359.42065919 789.68706674 361.55066816 791.81520081 363.68138504 C792.81904595 364.68588906 793.82361152 365.68967374 794.82896423 366.69266891 C799.89692705 371.7513291 804.87234271 376.83367646 809.52294922 382.28140259 C812.09173215 385.27026645 814.80478343 388.12553588 817.5 391 C822.09201226 395.92516207 826.62098136 400.88346243 831 406 C831.8996035 407.04569001 832.79935733 408.09125069 833.69921875 409.13671875 C836.29283657 412.15302526 838.87912466 415.17551893 841.46240234 418.20068359 C842.45379386 419.3608226 843.44622904 420.52007095 844.43994141 421.67822266 C850.5336366 428.78076532 856.42620474 436.00691534 862.17578125 443.390625 C864.61597762 446.52105567 867.09451283 449.61893213 869.58374023 452.71044922 C874.75019245 459.12820913 879.80786246 465.60760245 884.69970703 472.23876953 C886.21109018 474.28591899 887.72879578 476.32832462 889.24609375 478.37109375 C890.43519948 479.97633761 891.62400096 481.5818069 892.8125 483.1875 C893.34472168 483.90454102 893.87694336 484.62158203 894.42529297 485.36035156 C904.45012617 498.94543352 914.00698693 512.84400782 923.35449219 526.90136719 C924.99590851 529.36884941 926.64223864 531.83299949 928.2890625 534.296875 C938.56570791 549.70405119 948.53921058 565.2897304 957.9375 581.25 C958.27005798 581.81339081 958.60261597 582.37678162 958.94525146 582.95724487 C965.7867585 594.55084099 972.47694532 606.2243284 979 618 C979.51643066 618.92844727 980.03286133 619.85689453 980.56494141 620.81347656 C998.76755807 653.66258817 1015.33844472 687.4346783 1030.12225342 721.95349121 C1030.98142747 723.95669724 1031.84564151 725.95765105 1032.71142578 727.95800781 C1071.89299899 818.60661775 1099.18563698 914.28168832 1127.1875 1105.125 C1127.26640472 1105.99002136 1127.34530945 1106.85504272 1127.42660522 1107.74627686 C1130.41508276 1140.90258199 1131.38370396 1174.08842737 1131.31785583 1207.36576462 C1131.31239721 1210.24165732 1131.31004263 1213.11754175 1131.3079834 1215.99343872 C1131.27408874 1246.42021083 1130.57682501 1276.66751622 1128 1307 C1127.92503296 1307.90407593 1127.85006592 1308.80815186 1127.77282715 1309.73962402 C1126.7116276 1322.51569026 1125.44560035 1335.26190013 1124 1348 C1123.9112561 1348.78818115 1123.82251221 1349.5763623 1123.7310791 1350.38842773 C1113.11088973 1444.26030567 1091.06258512 1537.1747571 1025 1707 C1024.53609863 1708.0322168 1024.07219727 1709.06443359 1023.59423828 1710.12792969 C1010.15774479 1739.89225609 995.85066297 1769.4915347 979.34082031 1797.68115234 C977.63062278 1800.63881005 976.00008216 1803.63614198 974.37084961 1806.63891602 C954.11947094 1843.83677537 929.60319222 1879.14375219 903.79345703 1912.66748047 C902.26107308 1914.66045573 900.73546434 1916.65820448 899.21484375 1918.66015625 C893.13543819 1926.63752257 886.83740144 1934.42425575 880.48388672 1942.18408203 C879.19366805 1943.76299721 877.91064412 1945.34778627 876.62890625 1946.93359375 C871.33222071 1953.47427149 865.84634368 1959.8366652 860.31640625 1966.1796875 C858.20196227 1968.60758691 856.10452953 1971.04796896 854.02734375 1973.5078125 C847.99622849 1980.64240298 841.77597163 1987.54844158 835.33837891 1994.32006836 C831.66382736 1998.18998973 828.09937435 2002.1291808 824.62036133 2006.17626953 C822.97768649 2008.02511405 821.26518415 2009.76838141 819.5 2011.5 C817.148274 2013.81019441 814.94960735 2016.17782188 812.8125 2018.6875 C809.2582394 2022.81942824 805.42681255 2026.63431015 801.52661133 2030.4362793 C798.90748623 2033.00998352 796.435509 2035.6346858 794.0625 2038.4375 C787.48357215 2046.04302978 780.10272313 2052.94859737 772.9609375 2060.01855469 C770.97183897 2061.98941341 768.98587103 2063.96339005 767 2065.9375 C766.1028125 2066.82223999 766.1028125 2066.82223999 765.1875 2067.72485352 C762.19799304 2070.6972609 759.33487873 2073.72424318 756.58203125 2076.91796875 C752.81436648 2081.27619795 748.7828048 2085.3262893 744.6875 2089.375 C743.91494873 2090.14376465 743.14239746 2090.9125293 742.34643555 2091.70458984 C739.07623964 2094.9585983 735.8000651 2098.20656266 732.52441406 2101.45507812 C730.11834715 2103.84295352 727.71536962 2106.23390793 725.3125 2108.625 C724.21844849 2109.706604 724.21844849 2109.706604 723.10229492 2110.81005859 C719.09600232 2114.79738157 715.27112744 2118.87447211 711.60217285 2123.1751709 C708.73211904 2126.44408019 705.60448942 2129.4559386 702.5 2132.5 C698.00227191 2136.94946567 693.61981655 2141.40927094 689.53515625 2146.24609375 C687.77388512 2148.25833482 685.90520161 2150.12371986 684 2152 C680.87589016 2155.08245505 677.97298912 2158.27509772 675.11328125 2161.6015625 C672.30263026 2164.79146953 669.40120586 2167.89255891 666.5 2171 C661.45005948 2176.41865283 656.50404578 2181.89776635 651.69287109 2187.53027344 C650.17065933 2189.31220146 648.64793026 2191.09368601 647.125 2192.875 C646.60502441 2193.48384033 646.08504883 2194.09268066 645.54931641 2194.7199707 C642.52055224 2198.25700261 639.44820537 2201.74426485 636.3125 2205.1875 C631.67560052 2210.30062159 627.33955868 2215.63445109 623 2221 C621.60422447 2222.68754781 620.20839007 2224.37504693 618.8125 2226.0625 C570.11980323 2283.93294145 570.11980323 2283.93294145 554 2355 C557.41113694 2375.07573586 572.31015732 2392.71360857 583.42871094 2409.10644531 C601.37100941 2435.69667307 612.82730868 2465.19225269 617 2497 C617.09571289 2497.69706055 617.19142578 2498.39412109 617.29003906 2499.11230469 C619.91628939 2521.07302872 619.49054281 2545.37175279 615 2567 C614.79600586 2567.98677734 614.59201172 2568.97355469 614.38183594 2569.99023438 C609.6864337 2592.03880443 602.74214621 2612.68922223 593 2633 C592.60941406 2633.8235498 592.21882813 2634.64709961 591.81640625 2635.49560547 C582.83841161 2654.33835569 572.17121525 2672.05349447 560 2689 C559.46117188 2689.7513623 558.92234375 2690.50272461 558.3671875 2691.27685547 C550.28480015 2702.4985491 541.84631215 2713.37152007 533 2724 C532.51160645 2724.58700684 532.02321289 2725.17401367 531.52001953 2725.77880859 C530.3475892 2727.18663034 529.17393466 2728.59343242 528 2730 C529.28190026 2732.69187981 530.68575196 2735.09822303 532.43359375 2737.51171875 C532.91183594 2738.1778418 533.39007812 2738.84396484 533.8828125 2739.53027344 C534.39585937 2740.2421582 534.90890625 2740.95404297 535.4375 2741.6875 C563.78773662 2781.53153737 585.37356976 2825.12290473 594.8125 2873.375 C595.10495605 2874.86942627 595.10495605 2874.86942627 595.40332031 2876.39404297 C598.30285006 2892.1266766 599.38401825 2907.70986415 599.3125 2923.6875 C599.31034485 2924.56118225 599.3081897 2925.4348645 599.30596924 2926.33502197 C599.25174352 2940.08359291 598.67880408 2953.47841749 596 2967 C595.80132324 2968.02125977 595.60264648 2969.04251953 595.39794922 2970.09472656 C587.47148172 3009.69737692 570.67092328 3047.63401474 545 3079 C544.26394531 3079.92683594 543.52789063 3080.85367188 542.76953125 3081.80859375 C528.75245913 3099.29892268 512.80512297 3116.34415348 495 3130 C493.926991 3130.88214693 492.85685025 3131.76779019 491.7890625 3132.65625 C483.39968116 3139.5689473 474.67187489 3145.05654698 465 3150 C464.34628418 3150.33644531 463.69256836 3150.67289063 463.01904297 3151.01953125 C449.79127732 3157.73880814 435.99859975 3163.24717375 422.27636719 3168.85986328 C421.50555817 3169.17667053 420.73474915 3169.49347778 419.94058228 3169.81988525 C418.4851282 3170.41775041 417.02831416 3171.01231967 415.56991577 3171.60296631 C413.70061732 3172.37189354 411.849418 3173.18441501 410 3174 C408.59911133 3174.54321899 408.59911133 3174.54321899 407.16992188 3175.09741211 C403.60479776 3178.22331358 403.39309651 3182.16299458 402.5859375 3186.69921875 C402.38527679 3187.74019211 402.18461609 3188.78116547 401.97787476 3189.85368347 C398.63901027 3207.64149313 395.99471482 3225.565651 393.21551514 3243.44714355 C390.21253822 3262.76451266 387.14337358 3282.04616935 383.30859375 3301.21875 C383.16754337 3301.92804468 383.026493 3302.63733936 382.88116837 3303.36812782 C370.25312778 3366.50653607 337.40292927 3417.4150117 292.45254517 3462.72268677 C291.04273377 3464.1444053 289.63690321 3465.57006788 288.23120117 3466.99584961 C282.13092689 3473.1037581 275.73711462 3478.61152269 269 3484 C267.89837384 3484.93501758 266.80202586 3485.87635133 265.71484375 3486.828125 C189.77652354 3553.04719467 95.96638462 3573.77924166 -1.6875 3580.75 C-2.51399048 3580.80907532 -3.34048096 3580.86815063 -4.1920166 3580.92901611 C-9.79264508 3581.32331364 -15.3951299 3581.67207586 -21 3582 C-21.78606628 3582.0483902 -22.57213257 3582.0967804 -23.38201904 3582.14663696 C-40.52215203 3583.17860958 -57.67106866 3583.18750197 -74.83544922 3583.18530273 C-78.09038919 3583.18522199 -81.34518685 3583.19209823 -84.60009766 3583.20581055 C-113.42763685 3583.32514633 -142.13566986 3582.40564205 -170.8125 3579.25 C-171.5779715 3579.16763092 -172.34344299 3579.08526184 -173.1321106 3579.00039673 C-261.31863336 3569.42710137 -351.252104 3543.31927554 -420 3485 C-421.45212891 3483.824375 -421.45212891 3483.824375 -422.93359375 3482.625 C-431.18055203 3475.86839485 -438.76292948 3468.45214753 -446.3125 3460.9375 C-446.82428802 3460.43088837 -447.33607605 3459.92427673 -447.8633728 3459.40231323 C-454.71321439 3452.60713084 -461.01735605 3445.58623924 -467 3438 C-468.16130905 3436.56368137 -469.3227571 3435.12747511 -470.484375 3433.69140625 C-485.67373076 3414.60137095 -498.64547517 3393.84579692 -509.625 3372.0625 C-509.95604736 3371.40604492 -510.28709473 3370.74958984 -510.62817383 3370.07324219 C-512.09367858 3367.0958833 -513.39244956 3364.27584631 -514 3361 C-518.33771457 3364.67582897 -522.50632215 3368.45075794 -526.5 3372.5 C-529.1877846 3375.2244154 -531.89816863 3377.83260312 -534.8125 3380.3125 C-538.38902175 3383.3750306 -541.69361438 3386.65304839 -545 3390 C-548.79864365 3393.84027101 -552.63641741 3397.53400669 -556.75390625 3401.03515625 C-559.2174792 3403.19024702 -561.60021753 3405.41883314 -563.98583984 3407.65942383 C-569.63515491 3412.96518926 -575.36960934 3418.0417338 -581.421875 3422.890625 C-584.0242629 3425.01985146 -586.51575502 3427.23449357 -589 3429.5 C-594.17504177 3434.20458343 -599.56067562 3438.6061739 -605 3443 C-606.26621503 3444.03443444 -607.53180343 3445.06963622 -608.796875 3446.10546875 C-616.46177885 3452.37422202 -624.18451298 3458.53832383 -632.07080078 3464.52734375 C-634.3245768 3466.24776604 -636.56637704 3467.98329085 -638.80859375 3469.71875 C-648.95159135 3477.54324009 -659.23512695 3485.03470144 -669.859375 3492.19140625 C-673.08851162 3494.36797131 -676.2497147 3496.61319191 -679.375 3498.9375 C-749.58317255 3550.53888414 -830.22116402 3591.42722904 -1237.875 3696.75 C-1239.08526352 3696.83888489 -1239.08526352 3696.83888489 -1240.31997681 3696.92956543 C-1245.87758586 3697.33048765 -1251.43714394 3697.68054434 -1257 3698 C-1257.8206897 3698.0483902 -1258.64137939 3698.0967804 -1259.48693848 3698.14663696 C-1278.3132327 3699.22027131 -1297.15014224 3699.20125023 -1316 3699.1875 C-1316.82004768 3699.18723312 -1317.64009537 3699.18696625 -1318.48499298 3699.18669128 C-1342.59082696 3699.17684962 -1366.64754718 3699.09688903 -1390.69195557 3697.18359375 C-1393.16064477 3696.98722149 -1395.62985272 3696.79831684 -1398.09912109 3696.609375 C-1488.59882094 3689.58051352 -1577.46840476 3671.79973822 -1764 3604 C-1765.12921875 3603.4932373 -1766.2584375 3602.98647461 -1767.421875 3602.46435547 C-1794.93000196 3590.04529181 -1822.13081119 3576.76307461 -1848.23095703 3561.59179688 C-1852.26549304 3559.2725256 -1856.34138841 3557.02972837 -1860.4140625 3554.77832031 C-1871.94753361 3548.39071359 -1883.24422368 3541.70796174 -1894.38330078 3534.65625 C-1897.09355084 3532.94078663 -1899.81022547 3531.23581011 -1902.52734375 3529.53125 C-1914.54806068 3521.96404829 -1926.35110122 3514.12696089 -1938 3506 C-1938.71462402 3505.50290527 -1939.42924805 3505.00581055 -1940.16552734 3504.49365234 C-1957.44888947 3492.45440423 -1974.34237466 3479.88889443 -1991 3467 C-1991.62245605 3466.51934082 -1992.24491211 3466.03868164 -1992.88623047 3465.54345703 C-2000.38679761 3459.74128266 -2007.71116777 3453.77144276 -2014.921875 3447.61328125 C-2017.7270732 3445.22117731 -2020.57463157 3442.88544149 -2023.4375 3440.5625 C-2033.25232634 3432.55942213 -2042.80979822 3424.28916448 -2052.0859375 3415.66796875 C-2054.27915416 3413.65997012 -2056.49034044 3411.69432818 -2058.73510742 3409.74560547 C-2072.3074828 3397.88227611 -2085.0407497 3385.11875572 -2097.7668457 3372.36352539 C-2099.6449505 3370.48181232 -2101.52433425 3368.6015196 -2103.40649414 3366.72387695 C-2106.17083212 3363.96573972 -2108.93166043 3361.20413757 -2111.69140625 3358.44140625 C-2112.52378311 3357.61105362 -2113.35615997 3356.78070099 -2114.21376038 3355.92518616 C-2118.46202023 3351.65994748 -2122.56667801 3347.32914263 -2126.48243713 3342.75567627 C-2129.02332348 3339.81611181 -2131.70917572 3337.0132819 -2134.375 3334.1875 C-2139.07829762 3329.1665666 -2143.5218434 3324.01660138 -2147.82421875 3318.64453125 C-2150.130317 3315.84160752 -2152.54151531 3313.16996725 -2155 3310.5 C-2159.89379479 3305.17019892 -2164.46020517 3299.63164422 -2169 3294 C-2170.00934094 3292.76994984 -2171.01982598 3291.5408379 -2172.03125 3290.3125 C-2179.053054 3281.76628807 -2185.80044222 3273.05974553 -2192.3828125 3264.171875 C-2194.1077492 3261.85529334 -2195.84894851 3259.55165303 -2197.59375 3257.25 C-2247.9986563 3190.67983415 -2289.87889016 3117.55364178 -2323.12237549 3041.01763916 C-2323.92845263 3039.16448581 -2324.73914899 3037.3133435 -2325.55029297 3035.46240234 C-2360.92714037 2954.63418249 -2385.20805226 2868.63395581 -2409.25 2703.4375 C-2409.32713226 2702.61486664 -2409.40426453 2701.79223328 -2409.48373413 2700.94467163 C-2410.06678199 2694.63503113 -2410.55539349 2688.32083544 -2411 2682 C-2411.08720306 2680.76400055 -2411.17440613 2679.5280011 -2411.26425171 2678.25454712 C-2412.9442283 2653.90106927 -2413.36505121 2629.60286083 -2413.31785583 2605.19654465 C-2413.31240966 2602.26385113 -2413.31004646 2599.3311657 -2413.3079834 2596.39846802 C-2413.27653669 2567.69173056 -2412.80358787 2539.12839113 -2410.22460938 2510.51922607 C-2409.99924947 2507.99158206 -2409.7869437 2505.46314237 -2409.578125 2502.93408203 C-2402.19408629 2414.29391944 -2383.29164969 2326.7790522 -2331 2177 C-2330.70587219 2176.29333191 -2330.41174438 2175.58666382 -2330.10870361 2174.85858154 C-2313.15076618 2134.1859491 -2294.76588692 2093.83367333 -2272.56689453 2055.72363281 C-2270.88472295 2052.79962126 -2269.24865726 2049.85317685 -2267.62109375 2046.8984375 C-2260.15188368 2033.3435152 -2252.28374351 2020.12275145 -2243.96044922 2007.07519531 C-2241.91421239 2003.86543204 -2239.88051117 2000.64793998 -2237.84765625 1997.4296875 C-2231.23096077 1986.98536911 -2224.55242234 1976.65717421 -2217.23046875 1966.69287109 C-2215.3720802 1964.13611192 -2213.5644036 1961.544416 -2211.75146484 1958.95532227 C-2194.24913582 1933.97679513 -2175.67248962 1909.78582888 -2155.87768555 1886.57861328 C-2153.06950367 1883.28336576 -2150.33308511 1879.9402207 -2147.625 1876.5625 C-2142.99722783 1870.86934143 -2138.00608975 1865.54957238 -2132.98828125 1860.203125 C-2130.79539746 1857.86386908 -2128.65168627 1855.49547641 -2126.5625 1853.0625 C-2115.1529548 1839.89096974 -2102.76734126 1827.60893643 -2090.43896484 1815.30859375 C-2088.07645357 1812.95059186 -2085.71732488 1810.58931697 -2083.36004066 1808.22609711 C-2081.0679898 1805.92953761 -2078.77210505 1803.63681854 -2076.4765625 1801.34375 C-2075.64307281 1800.50823608 -2074.80958313 1799.67272217 -2073.95083618 1798.81188965 C-2069.67664146 1794.55464034 -2065.33772213 1790.44015098 -2060.75444031 1786.5163269 C-2057.81517765 1783.97598225 -2055.01286842 1781.29041111 -2052.1875 1778.625 C-2047.14434182 1773.90126891 -2041.97309024 1769.43165709 -2036.578125 1765.109375 C-2033.9757371 1762.98014854 -2031.48424498 1760.76550643 -2029 1758.5 C-2023.82485184 1753.79531985 -2018.4379716 1749.39563657 -2013 1745 C-2011.76879913 1743.98917233 -2010.53837382 1742.97739951 -2009.30859375 1741.96484375 C-2000.76317038 1734.94501046 -1992.05826189 1728.19845899 -1983.171875 1721.6171875 C-1980.85529334 1719.8922508 -1978.55165303 1718.15105149 -1976.25 1716.40625 C-1924.49642322 1677.21724339 -1868.8516126 1642.45612758 -1810 1615 C-1808.77505566 1614.42645246 -1807.55012111 1613.85288402 -1806.32519531 1613.27929688 C-1771.39947542 1596.95243159 -1735.89878817 1581.75832245 -1699.97241211 1567.76904297 C-1697.85884569 1566.94496397 -1695.74673604 1566.1172228 -1693.63476562 1565.2890625 C-1632.57112699 1541.36807754 -1569.80145097 1517.46280675 -1505 1506 C-1503.59833619 1505.73319522 -1503.59833619 1505.73319522 -1502.16835594 1505.46100044 C-1490.45810067 1503.48130324 -1478.76173407 1503.73400027 -1466.92041016 1503.77294922 C-1464.50458277 1503.77351419 -1462.08875504 1503.7731951 -1459.67292786 1503.77206421 C-1453.82606014 1503.77155215 -1447.97925874 1503.78016927 -1442.13240613 1503.79293953 C-1435.32138174 1503.80731347 -1428.51036638 1503.81023651 -1421.69932894 1503.81251587 C-1409.55572361 1503.81687931 -1397.41214535 1503.83015151 -1385.26855469 1503.84912109 C-1373.48112116 1503.86751503 -1361.69369501 1503.88165428 -1349.90625 1503.89013672 C-1349.17811421 1503.89066217 -1348.44997842 1503.89118761 -1347.69977792 1503.89172898 C-1344.04646939 1503.8943393 -1340.39316081 1503.89686666 -1336.73985219 1503.89935279 C-1306.49321543 1503.92004317 -1276.24661149 1503.95538163 -1246 1504 C-1246.12837124 1503.44570155 -1246.25674248 1502.8914031 -1246.38900375 1502.32030773 C-1247.75179135 1496.43307407 -1249.11017201 1490.54483489 -1250.46624756 1484.65605164 C-1250.96964469 1482.47251408 -1251.47408284 1480.2892162 -1251.97967529 1478.10618591 C-1270.03593904 1400.12157326 -1280.31522321 1320.3349945 -1282.5625 1240.3125 C-1282.58334656 1239.57531738 -1282.60419312 1238.83813477 -1282.62567139 1238.07861328 C-1284.98425231 1152.61473988 -1278.23859205 1066.91162181 -1174 708 C-1173.69642578 707.33828796 -1173.39285156 706.67657593 -1173.08007812 705.99481201 C-1159.78316354 677.03480243 -1145.64583331 648.54598712 -1129.69384766 620.94628906 C-1127.83391888 617.71111747 -1125.99960059 614.46220935 -1124.16796875 611.2109375 C-1115.51770054 595.87893145 -1106.50906119 580.81934858 -1097 566 C-1096.3827002 565.03755371 -1095.76540039 564.07510742 -1095.12939453 563.08349609 C-1074.34069964 530.76657415 -1052.35277577 499.26583046 -1028.60791016 469.04882812 C-1027.12269897 467.15634524 -1025.64401041 465.25901287 -1024.16796875 463.359375 C-1013.6387248 449.83461085 -1002.67124268 436.67573552 -991.46777344 423.70605469 C-989.97352246 421.96922404 -988.48940201 420.22420192 -987.0078125 418.4765625 C-981.08726819 411.50279363 -975.02572166 404.69630951 -968.7890625 398.00390625 C-966.38864375 395.42739187 -964.03088869 392.81613264 -961.6875 390.1875 C-949.74577508 376.89742473 -937.29298998 364.13130369 -924.64526367 351.51489258 C-922.03772025 348.91277179 -919.43564936 346.30526247 -916.83398438 343.69726562 C-915.15136265 342.01530383 -913.46843122 340.33365179 -911.78515625 338.65234375 C-911.02042496 337.88558823 -910.25569366 337.1188327 -909.4677887 336.32884216 C-905.36687281 332.24559084 -901.18670715 328.3246464 -896.78294373 324.56886292 C-894.94160493 322.94861651 -893.21679121 321.25097877 -891.5 319.5 C-888.53264677 316.48586418 -885.42654708 313.70082667 -882.22265625 310.94140625 C-879.67023117 308.71195939 -877.18112486 306.41998618 -874.6875 304.125 C-870.1482504 299.98074035 -865.46541704 296.07421602 -860.68359375 292.21484375 C-858.05291443 290.04367173 -855.52057576 287.79758643 -853 285.5 C-847.82495823 280.79541657 -842.43932438 276.3938261 -837 272 C-835.73378497 270.96556556 -834.46819657 269.93036378 -833.203125 268.89453125 C-825.54497371 262.63130058 -817.82966748 256.47072428 -809.95117188 250.48583984 C-807.63469729 248.72181778 -805.32527135 246.94873371 -803.015625 245.17578125 C-793.7386569 238.06467171 -784.44153734 231.0100978 -774.86425781 224.30761719 C-772.7869646 222.85057391 -770.71775569 221.38240835 -768.6484375 219.9140625 C-702.08542486 172.83073163 -630.87116134 131.79351553 -476 67 C-475.17711487 66.7039386 -474.35422974 66.4078772 -473.50640869 66.10284424 C-379.24668237 32.28234791 -280.77496201 11.36651263 -156.2911377 0.14715576 C-153.97471542 -0.00162398 -151.65876964 -0.15675513 -149.34277344 -0.31201172 C-99.83783544 -3.55904036 -49.48800514 -3.44686872 0 0 Z M-150 137 C-151.30155029 137.09474609 -151.30155029 137.09474609 -152.62939453 137.19140625 C-239.25535951 143.56762738 -324.45282362 159.92305257 -407 187 C-407.75176514 187.24536499 -408.50353027 187.49072998 -409.27807617 187.74353027 C-494.6335053 215.61145779 -576.62895893 255.17207484 -694.97509766 334.49609375 C-697.2383898 336.17705343 -699.5148285 337.83922355 -701.79296875 339.5 C-711.34911954 346.47841817 -720.77660809 353.58716349 -730 361 C-730.6403418 361.5141748 -731.28068359 362.02834961 -731.94042969 362.55810547 C-739.51450903 368.65141386 -747.02463824 374.81282913 -754.42041016 381.12158203 C-757.71606818 383.92990448 -761.05946283 386.66666116 -764.4375 389.375 C-770.13065857 394.00277217 -775.45042762 398.99391025 -780.796875 404.01171875 C-783.13613092 406.20460254 -785.50452359 408.34831373 -787.9375 410.4375 C-801.41220152 422.1136914 -813.96074995 434.80083766 -826.54589844 447.41552734 C-829.02433685 449.89971762 -831.50731746 452.37931223 -833.99160004 454.85765648 C-836.40309399 457.26464368 -838.81074575 459.67545909 -841.21875 462.0859375 C-842.53764221 463.40179337 -842.53764221 463.40179337 -843.88317871 464.74423218 C-848.24748132 469.12507024 -852.47936855 473.56059851 -856.49905396 478.26094055 C-859.03263 481.19644871 -861.71458743 483.9924301 -864.375 486.8125 C-869.09873109 491.85565818 -873.56834291 497.02690976 -877.890625 502.421875 C-880.01985146 505.0242629 -882.23449357 507.51575502 -884.5 510 C-889.20468015 515.17514816 -893.60436343 520.5620284 -898 526 C-899.01082767 527.23120087 -900.02260049 528.46162618 -901.03515625 529.69140625 C-908.05157758 538.23267616 -914.79564328 546.93308401 -921.37402344 555.81494141 C-923.12656031 558.17007729 -924.89375557 560.51366357 -926.6640625 562.85546875 C-927.30102051 563.69948242 -927.93797852 564.54349609 -928.59423828 565.41308594 C-929.80183153 567.01269063 -931.01095436 568.61114269 -932.22216797 570.20800781 C-942.58701377 583.97178124 -952.27411002 598.21880671 -961.8125 612.5625 C-962.33124695 613.341698 -962.8499939 614.120896 -963.38446045 614.92370605 C-977.3129271 635.86255151 -990.54326328 657.14898011 -1003 679 C-1003.58716797 680.02867187 -1004.17433594 681.05734375 -1004.77929688 682.1171875 C-1036.22186488 737.42333317 -1062.42473565 795.16984309 -1084 855 C-1084.26578857 855.73313416 -1084.53157715 856.46626831 -1084.80541992 857.22161865 C-1115.76706849 942.6414742 -1135.12332031 1032.88020345 -1146.203125 1190.3671875 C-1146.21014961 1192.16399662 -1146.21723641 1193.96080549 -1146.22438049 1195.75761414 C-1146.24376167 1201.46341314 -1146.24881447 1207.16917139 -1146.25 1212.875 C-1146.25044186 1213.8479237 -1146.25088371 1214.8208474 -1146.25133896 1215.82325363 C-1146.25815214 1244.43910372 -1146.06295071 1272.9109511 -1143.25323486 1301.41455078 C-1142.9865262 1304.13756335 -1142.73247321 1306.86157186 -1142.47998047 1309.5859375 C-1133.78156171 1402.44782087 -1112.84830537 1494.19809707 -943 1835 C-942.46632813 1835.74765625 -941.93265625 1836.4953125 -941.3828125 1837.265625 C-934.43308833 1846.98871328 -927.36277899 1856.5854912 -920 1866 C-919.1194081 1867.13902648 -918.23921007 1868.27835756 -917.359375 1869.41796875 C-912.18865549 1876.08845694 -906.86280763 1882.58822432 -901.33374023 1888.96508789 C-898.37520814 1892.37914685 -895.5031489 1895.8409116 -892.6875 1899.375 C-888.2184822 1904.8897843 -883.38117867 1910.02822709 -878.4909668 1915.16748047 C-875.36294027 1918.45756587 -872.29551445 1921.77748418 -869.3203125 1925.20703125 C-866.81704329 1928.09214913 -864.24328045 1930.83860852 -861.5 1933.5 C-858.89485816 1936.02737641 -856.46003679 1938.61856969 -854.11303711 1941.38256836 C-848.94587333 1947.30363405 -843.3445805 1952.79949792 -837.78515625 1958.34765625 C-836.603487 1959.53000077 -835.42196609 1960.71249357 -834.24058533 1961.89512634 C-831.77537277 1964.36180534 -829.30838114 1966.82668703 -826.84008789 1969.2902832 C-823.69545516 1972.42921932 -820.55533444 1975.57262471 -817.41654301 1978.71740055 C-814.98095768 1981.15662006 -812.54297011 1983.59342741 -810.10427666 1986.02953911 C-808.94626161 1987.18689277 -807.78897307 1988.34497387 -806.63246346 1989.50383186 C-801.18873772 1994.95618696 -795.73861719 2000.33251405 -789.87913513 2005.34324646 C-786.22234608 2008.56728187 -782.83282185 2012.06640488 -779.40625 2015.53125 C-778.61528931 2016.32599731 -777.82432861 2017.12074463 -777.00939941 2017.9395752 C-773.65981427 2021.30535548 -770.3162673 2024.67711048 -766.97216797 2028.04833984 C-764.51479061 2030.52390227 -762.05433942 2032.99638083 -759.59375 2035.46875 C-758.85080688 2036.21999146 -758.10786377 2036.97123291 -757.34240723 2037.74523926 C-753.28772207 2041.81867388 -749.14672402 2045.71609966 -744.77784729 2049.45167542 C-741.8693361 2051.98469353 -739.15349836 2054.70135827 -736.4375 2057.4375 C-735.91220703 2057.95892578 -735.38691406 2058.48035156 -734.84570312 2059.01757812 C-732.01000715 2061.86019888 -729.30769152 2064.77027556 -726.69140625 2067.81640625 C-722.53317844 2072.61984656 -718.02581546 2077.04568242 -713.5 2081.5 C-708.36745288 2086.55146423 -703.35396845 2091.61832276 -698.66210938 2097.08398438 C-695.86588995 2100.30735836 -692.9262462 2103.39506721 -690 2106.5 C-685.23321544 2111.58627247 -680.5306778 2116.70124592 -676 2122 C-675.10200445 2123.03293646 -674.20351932 2124.0654474 -673.3046875 2125.09765625 C-667.25810307 2132.06569999 -661.42962015 2139.16140612 -655.7734375 2146.44921875 C-653.90895815 2148.84895849 -652.01848312 2151.2239756 -650.1015625 2153.58203125 C-623.40342401 2186.43518253 -601.4237862 2222.57059673 -582.74389648 2260.49731445 C-582.26766846 2261.4637085 -581.79144043 2262.43010254 -581.30078125 2263.42578125 C-580.87966064 2264.28598877 -580.45854004 2265.14619629 -580.0246582 2266.0324707 C-579.15256466 2267.9476163 -579.15256466 2267.9476163 -578 2269 C-575.73265936 2269.09816827 -573.46218227 2269.12371083 -571.19271755 2269.12304783 C-570.46893977 2269.12420167 -569.74516199 2269.12535552 -568.99945155 2269.12654433 C-566.54334876 2269.1292179 -564.08730987 2269.1246828 -561.63121033 2269.12025452 C-559.86493256 2269.12069007 -558.09865485 2269.12156468 -556.33237749 2269.12284368 C-551.45475508 2269.12509181 -546.57715441 2269.12106304 -541.69953477 2269.11606562 C-536.44865121 2269.11176584 -531.19776898 2269.11320721 -525.94688416 2269.1139679 C-516.84139145 2269.11449343 -507.73590588 2269.11134355 -498.63041496 2269.10573006 C-485.46524009 2269.09761905 -472.30006868 2269.09500025 -459.13489158 2269.09374207 C-437.7776699 2269.09155091 -416.42045203 2269.08488912 -395.06323242 2269.07543945 C-374.31095397 2269.06626696 -353.55867655 2269.05918533 -332.80639648 2269.05493164 C-331.5282251 2269.05466892 -330.25005372 2269.05440619 -328.93314987 2269.05413551 C-322.52123801 2269.05283052 -316.10932615 2269.0515668 -309.69741428 2269.05032361 C-256.46494022 2269.03994903 -203.23247029 2269.02232901 -150 2269 C-147.65524961 2207.34253856 -145.49499077 2145.67987819 -144.24133301 2083.98950195 C-144.21316937 2082.60722318 -144.21316937 2082.60722318 -144.18443676 2081.19701959 C-143.77684568 2061.1416636 -143.40018274 2041.08583723 -143.05511519 2021.02931052 C-142.88556409 2011.1852894 -142.70922087 2001.3413952 -142.52929688 1991.49755859 C-142.51151364 1990.51828175 -142.49373041 1989.5390049 -142.47540829 1988.530053 C-141.93709671 1959.04974664 -141.03322988 1929.59966378 -139.85595895 1900.13831557 C-138.01132733 1853.82660898 -136.80669581 1807.53801859 -136.71875 1761.1875 C-136.71635439 1760.27555722 -136.71395878 1759.36361445 -136.71149057 1758.42403704 C-135.7440814 1635.68372612 -135.7440814 1635.68372612 -196.52533978 1532.71792972 C-220.17526495 1508.98191915 -247.43079076 1488.38368632 -276.4682498 1471.6998167 C-282.95854187 1467.95925999 -288.64939225 1464.24570295 -294 1459 C-294.85857998 1458.16489112 -295.71715997 1457.32978224 -296.60175753 1456.46936703 C-299.75714583 1453.37749912 -302.87508715 1450.24879997 -305.99365234 1447.11987305 C-307.19908158 1445.91416344 -308.40473305 1444.70867599 -309.61058617 1443.50339031 C-312.90857187 1440.20569897 -316.20344299 1436.90491122 -319.4978056 1433.60360098 C-323.05702597 1430.03798818 -326.61916683 1426.47529515 -330.18096924 1422.91226196 C-336.34839324 1416.74195516 -342.51403915 1410.56987626 -348.67852783 1404.39663696 C-357.5994834 1395.46311137 -366.52369065 1386.53283967 -375.44878364 1377.60344779 C-389.94091964 1363.10424867 -404.43118648 1348.60318318 -418.91992188 1334.10058594 C-419.78655889 1333.23312111 -420.65319591 1332.36565628 -421.54609466 1331.47190464 C-428.5776371 1324.43361767 -435.60908906 1317.39524032 -442.64053726 1310.35685921 C-448.78700858 1304.20433523 -454.93351603 1298.05184735 -461.08007812 1291.89941406 C-461.94565582 1291.03300824 -462.81123352 1290.16660242 -463.70304084 1289.27394187 C-478.1385932 1274.82470077 -492.57611124 1260.3774253 -507.01503181 1245.93155003 C-515.91709629 1237.02500675 -524.81737844 1228.11668946 -533.71536493 1219.20607209 C-539.81182356 1213.10118348 -545.91005248 1206.99806707 -552.0096736 1200.89633822 C-555.52787328 1197.37679457 -559.04523867 1193.85642739 -562.56040192 1190.33385086 C-565.78055119 1187.1069362 -569.00301726 1183.88235386 -572.22730947 1180.65957892 C-573.39093886 1179.49567889 -574.55372294 1178.33093296 -575.71555591 1177.16523969 C-581.63498079 1171.22706721 -587.6050983 1165.43147944 -594 1160 C-599.64771782 1155.04196624 -602.3911375 1150.84728455 -604.640625 1143.6640625 C-604.93434998 1142.78527435 -605.22807495 1141.90648621 -605.53070068 1141.00106812 C-606.45691101 1138.21511275 -607.35385142 1135.42075156 -608.25 1132.625 C-608.86526014 1130.75717653 -609.48243209 1128.88998166 -610.1015625 1127.0234375 C-611.49841327 1122.80016187 -612.87652359 1118.57134441 -614.2358551 1114.33584595 C-614.76370475 1112.72230973 -615.30803216 1111.11410413 -615.86558533 1109.5105896 C-616.14221512 1108.71303253 -616.41884491 1107.91547546 -616.70385742 1107.09375 C-616.9560051 1106.38105957 -617.20815277 1105.66836914 -617.46794128 1104.93408203 C-620.40500502 1094.25758707 -609.08611062 1076.05639275 -604.02783203 1066.79833984 C-596.33612571 1053.34059429 -586.69578601 1044.89859534 -572 1040 C-536.3317751 1037.87107464 -507.6430518 1060.83988981 -481.98828125 1083.3125 C-479.10908181 1085.87496073 -476.35199215 1088.53184742 -473.68511105 1091.31536007 C-471.95968657 1093.04030216 -470.16260642 1094.61979212 -468.30775452 1096.20423889 C-464.01150603 1099.94125439 -459.9702161 1103.88874908 -455.95092773 1107.91967773 C-455.1904715 1108.67838165 -454.43001526 1109.43708557 -453.64651489 1110.21878052 C-451.15636906 1112.70455808 -448.6698604 1115.1939367 -446.18359375 1117.68359375 C-444.44074345 1119.42576956 -442.69774481 1121.16779698 -440.9546051 1122.90968323 C-437.31096408 1126.55185408 -433.66912722 1130.19581679 -430.02856445 1133.84106445 C-425.37627687 1138.49904888 -420.71951396 1143.15252914 -416.06138515 1147.80467129 C-412.46409274 1151.39833971 -408.86919841 1154.99439946 -405.27501106 1158.59117317 C-403.55944144 1160.30740697 -401.8431367 1162.02290628 -400.12606621 1163.73763847 C-397.72149999 1166.13964792 -395.32019173 1168.54486946 -392.91967773 1170.95092773 C-391.86821815 1171.99935097 -391.86821815 1171.99935097 -390.79551697 1173.06895447 C-386.87275152 1177.00840949 -383.1288146 1181.04930152 -379.50783634 1185.26842594 C-377.43201823 1187.65226078 -375.21957993 1189.87561978 -372.96875 1192.09375 C-372.07542969 1192.97933594 -371.18210937 1193.86492187 -370.26171875 1194.77734375 C-368.89466797 1196.12505859 -368.89466797 1196.12505859 -367.5 1197.5 C-362.05878365 1202.86425431 -356.72289158 1208.2210717 -351.75195312 1214.02539062 C-348.3502813 1217.85938195 -344.65331501 1221.40798222 -341 1225 C-336.06066174 1229.85646346 -331.28848859 1234.75021776 -326.7734375 1240.00390625 C-323.51809879 1243.66795488 -319.99548052 1247.06705043 -316.5 1250.5 C-311.73142226 1255.18327224 -307.15024034 1259.91966352 -302.79101562 1264.98632812 C-299.52809 1268.65489554 -296.00151288 1272.06112599 -292.5 1275.5 C-288.37675426 1279.54948464 -284.299883 1283.58358948 -280.53125 1287.96875 C-276.58812608 1292.55178661 -272.30889602 1296.76340089 -268 1301 C-259.43260418 1309.42364757 -259.43260418 1309.42364757 -255.65625 1313.84375 C-250.91524874 1319.36035284 -245.67420631 1324.39515746 -240.5 1329.5 C-238.48650477 1331.48650296 -236.47663278 1333.476576 -234.46875 1335.46875 C-233.58638672 1336.33951172 -232.70402344 1337.21027344 -231.79492188 1338.10742188 C-229.72548453 1340.20028349 -227.79676655 1342.37856339 -225.88340759 1344.61460876 C-221.80312612 1349.29196489 -217.46365406 1353.67680329 -213.07055664 1358.05883789 C-212.20456345 1358.9265834 -211.33857025 1359.79432892 -210.44633484 1360.68836975 C-208.09278194 1363.04554498 -205.737033 1365.40047968 -203.38007665 1367.75424886 C-200.89994292 1370.23182976 -198.42227389 1372.71187363 -195.94419861 1375.19151306 C-191.78433691 1379.35318798 -187.62238528 1383.51276408 -183.45922852 1387.67114258 C-178.66368299 1392.46124713 -173.87175022 1397.25494316 -169.0816775 1402.05052 C-164.94996205 1406.18679079 -160.81627938 1410.32108798 -156.68098158 1414.45377725 C-154.21946068 1416.91374866 -151.75859761 1419.37436793 -149.29951668 1421.83677864 C-146.55549811 1424.58425391 -143.80735929 1427.32758559 -141.05883789 1430.07055664 C-140.25703094 1430.87438782 -139.455224 1431.67821899 -138.62911987 1432.50640869 C-134.47144931 1436.64861553 -130.24082919 1440.63357101 -125.77332211 1444.44087887 C-123.93473221 1446.05738404 -122.2136184 1447.75226046 -120.5 1449.5 C-117.51127663 1452.53594925 -114.38293521 1455.34508659 -111.15625 1458.125 C-108.80037042 1460.17359094 -106.4949254 1462.27203002 -104.1875 1464.375 C-98.93609728 1469.10447432 -93.5375719 1473.60999168 -88 1478 C-87.02160156 1478.79664062 -86.04320313 1479.59328125 -85.03515625 1480.4140625 C-84.07480469 1481.16429688 -83.11445313 1481.91453125 -82.125 1482.6875 C-81.26132813 1483.37199219 -80.39765625 1484.05648437 -79.5078125 1484.76171875 C-77.09659272 1486.26076182 -77.09659272 1486.26076182 -74.61328125 1485.57421875 C-71.07788706 1483.44452688 -68.12545 1480.87910453 -65.0625 1478.125 C-63.72311156 1476.94089104 -62.3832572 1475.7573089 -61.04296875 1474.57421875 C-60.3679834 1473.97528809 -59.69299805 1473.37635742 -58.99755859 1472.75927734 C-56.55947407 1470.61202275 -54.08703619 1468.50791533 -51.60864258 1466.4074707 C-44.75959016 1460.60009926 -38.13362462 1454.58386695 -31.5703125 1448.45703125 C-30.024996 1447.02319281 -28.46840677 1445.60295677 -26.90625 1444.1875 C-21.02080391 1438.85175193 -15.31280876 1433.38986055 -9.765625 1427.703125 C-7.66496322 1425.64993581 -5.55680034 1423.73353341 -3.33203125 1421.82421875 C1.87291693 1417.31261034 6.70437233 1412.44143335 11.5625 1407.5625 C12.46935547 1406.65951172 13.37621094 1405.75652344 14.31054688 1404.82617188 C18.81445885 1400.31572775 23.15823319 1395.74651395 27.30834961 1390.90991211 C31.00487052 1386.73645518 35.06090036 1382.90195214 39.0390625 1379 C43.03112437 1375.05417823 46.80954817 1371.00286017 50.47265625 1366.75 C52.78225104 1364.10371237 55.28784865 1361.6875944 57.8125 1359.25 C59.71273884 1357.29546862 61.50252246 1355.2994914 63.2890625 1353.2421875 C66.88333439 1349.10408331 70.60861624 1345.10615941 74.375 1341.125 C79.2548049 1335.94394306 84.0883207 1330.73188133 88.828125 1325.421875 C91.36366615 1322.594473 93.92991916 1319.79594445 96.5 1317 C101.3695892 1311.69890688 106.19324149 1306.35807131 111 1301 C112.49971128 1299.33307353 113.99971321 1297.66640851 115.5 1296 C116.2425 1295.175 116.985 1294.35 117.75 1293.5 C124.5 1286 124.5 1286 126.7578125 1283.4921875 C128.23292618 1281.85260121 129.70691652 1280.21200345 131.1796875 1278.5703125 C135.30097727 1273.97969436 139.44870713 1269.41550032 143.625 1264.875 C146.60218281 1261.63782784 149.55952856 1258.38862271 152.4375 1255.0625 C156.02004809 1250.93011239 159.73967128 1246.9290721 163.45678711 1242.91821289 C166.49741594 1239.63497817 169.51412496 1236.33332232 172.5 1233 C181.25073954 1223.24378948 190.20497842 1213.6700637 199.1628418 1204.10424805 C201.54708331 1201.5570312 203.92418263 1199.00355632 206.29394531 1196.44287109 C217.75559863 1184.1079158 229.64068944 1172.20494123 241.55712891 1160.3125 C244.44930845 1157.42607829 247.33688848 1154.53510294 250.22322083 1151.64283562 C252.48121771 1149.38120815 254.7416115 1147.12198831 257.00271606 1144.86346817 C258.06862415 1143.79821927 259.13381198 1142.7322491 260.19821167 1141.66549301 C265.42076553 1136.43388976 270.65880607 1131.26602233 276.29093933 1126.47094727 C279.39742478 1123.79727022 282.33841875 1120.9439462 285.3125 1118.125 C290.5394866 1113.20506227 295.85862862 1108.54625318 301.46875 1104.06640625 C304.00138153 1101.99887218 306.4073116 1099.83886659 308.8125 1097.625 C314.92943594 1092.0588782 321.46345623 1087.05726689 328 1082 C330.35756816 1080.17099695 332.71163751 1078.33761376 335.0625 1076.5 C335.93430908 1075.8196167 335.93430908 1075.8196167 336.82373047 1075.12548828 C340.22148788 1072.45561865 343.52920777 1069.7079761 346.79077148 1066.8737793 C366.07394934 1050.15218248 386.44255535 1038.23392889 412.73779297 1039.78857422 C428.51760342 1041.26335469 441.90665032 1047.73271278 453 1059 C453.63679688 1059.63808594 454.27359375 1060.27617188 454.9296875 1060.93359375 C470.36729349 1077.43467926 473.87898859 1098.40053746 473.18798828 1120.14794922 C472.58353129 1129.31842525 469.96633037 1140.87439509 463.36155239 1147.69099405 C461.34298222 1149.38074512 459.27240462 1150.95877578 457.15202713 1152.51892471 C456.35219296 1153.12809506 455.55235879 1153.73726541 454.72828722 1154.36489547 C452.97378686 1155.69904948 451.21403823 1157.02632287 449.44977631 1158.34754137 C445.52991336 1161.28639888 441.6406174 1164.26466515 437.74868406 1167.24035575 C435.6275305 1168.86182545 433.50542291 1170.48194432 431.38158937 1172.09989203 C363.69997504 1223.67808242 298.86884415 1278.5821193 231.37615166 1339.33693185 C229.25412159 1341.24629148 227.13022543 1343.15355269 225.0057022 1345.06013757 C154.95149206 1407.93918241 86.30993443 1474.36562922 -37.11230821 1790.59048352 C-40.27233686 1850.39171588 -38.92533794 1909.89007734 -35.59198239 1969.64918265 C-35.38544997 1973.37697276 -35.18476158 1977.10506909 -34.98384731 1980.8331655 C-30.49880782 2063.88248018 -23.2180167 2146.53479888 -6 2269 C47.66591285 2269.48076594 101.33160795 2269.85075125 154.99925105 2270.07237192 C161.33649966 2270.09863646 167.67374404 2270.12581726 174.01098633 2270.15356445 C175.27260634 2270.15907297 176.53422635 2270.16458149 177.83407728 2270.17025694 C198.25694507 2270.26161244 218.67857034 2270.42717309 239.10070124 2270.62020872 C260.05902645 2270.81665893 281.0167014 2270.93324761 301.97590953 2270.97585839 C314.90762317 2271.00466168 327.83582509 2271.09558323 340.76645742 2271.2662458 C349.63612867 2271.37734028 358.50398747 2271.41078555 367.37430378 2271.38352893 C372.49211956 2271.37008577 377.60380732 2271.39051881 382.72052956 2271.50331497 C402.12190554 2272.83285424 402.12190554 2272.83285424 419.87025476 2266.94644141 C424.35317088 2262.08127318 426.87737768 2256.73894723 429.03271544 2250.54039705 C430.4628382 2246.78443961 432.60700167 2243.68423392 434.9375 2240.4375 C435.74588055 2239.24510704 436.55214021 2238.05127113 437.35546875 2236.85546875 C450.75918851 2217.26224797 464.49254477 2197.98717173 479.61914062 2179.68066406 C481.48219545 2177.4131129 483.30437336 2175.11418653 485.125 2172.8125 C488.61947864 2168.4278489 492.23177003 2164.15065687 495.86816406 2159.88378906 C498.75986314 2156.48589318 501.58433099 2153.04443565 504.375 2149.5625 C509.00043928 2143.87221139 513.98896587 2138.55500405 519.00390625 2133.2109375 C521.23914733 2130.82640515 523.4270028 2128.4123794 525.5625 2125.9375 C530.02125256 2120.77933527 534.67998108 2115.80326647 539.3203125 2110.80908203 C541.04946743 2108.94672185 542.77476075 2107.08083122 544.5 2105.21484375 C550.67078309 2098.55622494 556.90053778 2091.99709867 563.40234375 2085.66015625 C565.3624688 2083.65287029 567.17423858 2081.64479723 568.98852539 2079.51367188 C573.67542433 2074.1415749 578.72920972 2069.14641293 583.78125 2064.12109375 C584.85487881 2063.04938803 585.92827727 2061.97745152 587.00146484 2060.90530396 C589.29877598 2058.61113509 591.59762661 2056.31852449 593.89770508 2054.02713013 C597.54070539 2050.39774218 601.17980801 2046.76446259 604.81835938 2043.13061523 C613.1983758 2034.76260119 621.58341415 2026.39962523 629.96850586 2018.03669739 C637.65856112 2010.36686468 645.34753094 2002.69595198 653.03244781 1995.02097034 C656.6435296 1991.41484616 660.25702938 1987.81116849 663.87245178 1984.20939636 C666.12727122 1981.96207884 668.37997865 1979.71265311 670.63214111 1977.46267319 C671.67002735 1976.42664602 672.70877107 1975.39147699 673.74847412 1974.3572731 C678.83866978 1969.29313659 683.8386102 1964.21488926 688.48461914 1958.73680115 C691.89510691 1954.82798903 695.6906721 1951.27202217 699.39453125 1947.64453125 C703.17367878 1943.91232965 706.73692589 1940.07094844 710.20507812 1936.04882812 C714.01758738 1931.69700853 718.05305126 1927.54765298 722.0390625 1923.35546875 C725.9362518 1919.24009704 729.73704267 1915.06396049 733.45019531 1910.78173828 C735.39024841 1908.55134958 737.38050303 1906.36921987 739.375 1904.1875 C743.25033743 1899.89391368 746.9222131 1895.46911998 750.55859375 1890.97265625 C753.27720803 1887.6624715 756.07121916 1884.42538578 758.875 1881.1875 C764.81431724 1874.29647098 770.45350857 1867.20924753 776 1860 C776.6089209 1859.21173828 777.2178418 1858.42347656 777.84521484 1857.61132812 C786.85508103 1845.93607098 795.61722513 1834.13319495 804 1822 C804.70116943 1820.98945557 804.70116943 1820.98945557 805.41650391 1819.95849609 C808.63359399 1815.3209592 811.82718703 1810.66793695 815 1806 C815.60593994 1805.10861328 815.60593994 1805.10861328 816.22412109 1804.19921875 C829.94341993 1783.95413483 842.70874641 1763.13725572 855 1742 C855.55510254 1741.04577148 856.11020508 1740.09154297 856.68212891 1739.10839844 C898.62118166 1666.68580779 931.43884075 1589.29690218 993.80145264 1291.53051758 C993.92790455 1289.91886798 994.05616656 1288.30735865 994.18682861 1286.69604492 C1001.0303017 1202.28927581 994.94780231 1116.33826324 981 1033 C980.86055969 1032.1631366 980.72111938 1031.32627319 980.57745361 1030.46405029 C976.15975681 1004.05386379 970.39899846 977.99674046 964 952 C963.79997375 951.18551392 963.59994751 950.37102783 963.39385986 949.53186035 C944.7619703 873.88742499 917.41200956 800.67671902 882.92120361 730.86779785 C881.95971206 728.91831369 881.00260528 726.96672401 880.04638672 725.01464844 C872.0016362 708.60228647 863.70599501 692.43156133 854.51611328 676.62207031 C853.0214482 674.03709399 851.55173141 671.43956981 850.08984375 668.8359375 C838.1321698 647.57358485 825.14845724 627.04165046 811.625 606.75 C811.07309998 605.92115295 810.52119995 605.09230591 809.95257568 604.23834229 C803.14472117 594.02795354 796.21289432 583.92863549 789 574 C788.36400879 573.12424316 787.72801758 572.24848633 787.07275391 571.34619141 C785.38874967 569.03810128 783.6970047 566.73604457 782 564.4375 C781.40533936 563.63159424 780.81067871 562.82568848 780.19799805 561.99536133 C775.21706433 555.26213795 770.15120587 548.60389601 765 542 C764.37327393 541.19199951 764.37327393 541.19199951 763.73388672 540.36767578 C750.11701053 522.81351283 735.93513691 505.6724854 721.00390625 489.21875 C719.18688018 487.20691607 717.40055608 485.17339566 715.625 483.125 C711.35531556 478.23143473 706.96384579 473.45077923 702.55419922 468.68359375 C701.52984542 467.57395759 700.5079708 466.46202688 699.48876953 465.34765625 C690.43853508 455.45494179 681.0324018 445.92594109 671.5625 436.4375 C670.64756271 435.51868042 670.64756271 435.51868042 669.71414185 434.58129883 C660.9135364 425.72542539 660.9135364 425.72542539 651.61499023 417.40063477 C649.82167352 415.84534255 648.16170948 414.19445616 646.5 412.5 C643.53264677 409.48586418 640.42654708 406.70082667 637.22265625 403.94140625 C634.67023117 401.71195939 632.18112486 399.41998618 629.6875 397.125 C625.22477168 393.05459944 620.63742 389.19823091 615.9375 385.40625 C612.63645806 382.702205 609.41254385 379.91867139 606.1875 377.125 C599.85923409 371.66255238 593.3488193 366.47326967 586.74121094 361.35449219 C585.01045643 360.00813408 583.28895475 358.65083893 581.5703125 357.2890625 C572.83088066 350.36682634 563.96593201 343.62608328 555 337 C554.31486328 336.49243164 553.62972656 335.98486328 552.92382812 335.46191406 C540.84462799 326.54041723 528.4325613 318.1556804 515.88964844 309.90185547 C513.25881231 308.17034031 510.63299383 306.43147505 508.0078125 304.69140625 C485.9342788 290.13005643 463.1982041 276.68373048 440 264 C438.92911133 263.41041504 437.85822266 262.82083008 436.75488281 262.21337891 C358.77657439 219.35867267 275.2298504 188.06842128 126 153 C125.16756775 152.85022705 124.3351355 152.7004541 123.47747803 152.54614258 C82.4119094 145.18959443 40.86761882 139.89209735 -0.76879883 137.14715576 C-2.26940273 137.04818552 -3.76989097 136.94744722 -5.27026367 136.84503174 C-53.24582935 133.5776646 -102.03661825 133.4728669 -150 137 Z M-1395 1634 C-1395.93583923 1634.08485657 -1396.87167847 1634.16971313 -1397.83587646 1634.25714111 C-1427.4029515 1636.95188247 -1456.74608346 1640.94567592 -1486 1646 C-1486.85215088 1646.14697327 -1487.70430176 1646.29394653 -1488.58227539 1646.44537354 C-1531.376236 1653.87708617 -1573.73958035 1664.43024732 -1615 1678 C-1615.81257263 1678.26619141 -1616.62514526 1678.53238281 -1617.46234131 1678.80664062 C-1640.6456469 1686.41015782 -1663.50536569 1694.53620803 -1686 1704 C-1687.80839355 1704.75482666 -1687.80839355 1704.75482666 -1689.65332031 1705.52490234 C-1708.55876171 1713.43093078 -1727.03037194 1722.14423039 -1745.3984375 1731.22265625 C-1748.4990315 1732.75502132 -1751.60746156 1734.27069692 -1754.71875 1735.78125 C-1791.4126595 1753.69971206 -1826.52207136 1775.68383226 -1860 1799 C-1860.70398926 1799.48645996 -1861.40797852 1799.97291992 -1862.13330078 1800.47412109 C-1874.37965542 1808.93695603 -1886.22428515 1817.89651314 -1898 1827 C-1898.66660645 1827.51449707 -1899.33321289 1828.02899414 -1900.02001953 1828.55908203 C-1918.43125065 1842.79913389 -1936.26899739 1857.76866091 -1953.35546875 1873.57421875 C-1955.62221645 1875.6534659 -1957.91839132 1877.68186379 -1960.25 1879.6875 C-1963.58493288 1882.57455966 -1966.68676495 1885.63986369 -1969.75 1888.8125 C-1971.64810361 1890.65787851 -1973.58239935 1892.37513944 -1975.58984375 1894.09765625 C-1980.81703391 1898.63982913 -1985.67830927 1903.53239197 -1990.5625 1908.4375 C-1991.46935547 1909.34048828 -1992.37621094 1910.24347656 -1993.31054688 1911.17382812 C-1997.89550759 1915.76543853 -2002.33282728 1920.41560698 -2006.55834961 1925.34008789 C-2008.28256901 1927.32534915 -2010.10877606 1929.17399068 -2012 1931 C-2015.21434731 1934.1711603 -2018.21750963 1937.45582753 -2021.16015625 1940.87890625 C-2023.19508819 1943.22491058 -2025.28290967 1945.5173645 -2027.375 1947.8125 C-2031.25033743 1952.10608632 -2034.9222131 1956.53088002 -2038.55859375 1961.02734375 C-2041.27720323 1964.33752266 -2044.0710689 1967.57474976 -2046.875 1970.8125 C-2052.28129636 1977.07987813 -2057.43113551 1983.51458583 -2062.49462891 1990.06054688 C-2064.1376503 1992.17734252 -2065.79268508 1994.28438887 -2067.44921875 1996.390625 C-2074.08864735 2004.84859345 -2080.56277078 2013.38067069 -2086.72851562 2022.18994141 C-2088.09634058 2024.13714843 -2089.47682156 2026.07494413 -2090.859375 2028.01171875 C-2140.94637578 2098.30036746 -2181.64388545 2175.3401082 -2216 2268 C-2216.41122101 2269.13057831 -2216.41122101 2269.13057831 -2216.83074951 2270.28399658 C-2246.55920116 2352.23004375 -2264.98952259 2438.7109775 -2275 2585 C-2275.01095703 2585.69536865 -2275.02191406 2586.3907373 -2275.03320312 2587.10717773 C-2276.27232187 2669.91857699 -2267.55072832 2752.48752265 -2248 2833 C-2247.55237305 2834.85214111 -2247.55237305 2834.85214111 -2247.09570312 2836.74169922 C-2227.42814608 2917.33502362 -2196.85792497 2996.44463755 -2155.48583984 3068.39111328 C-2153.73415169 3071.46678526 -2152.03930413 3074.57066662 -2150.34960938 3077.68066406 C-2128.4062092 3117.93481748 -2101.60301466 3156.20068547 -2073 3192 C-2072.29359375 3192.88945312 -2071.5871875 3193.77890625 -2070.859375 3194.6953125 C-2060.26525371 3208.00052782 -2049.47766154 3221.15555099 -2038.0390625 3233.74609375 C-2036.20913753 3235.7688269 -2034.41118272 3237.81369435 -2032.625 3239.875 C-2028.34273916 3244.78441117 -2023.93227111 3249.57525373 -2019.51123047 3254.359375 C-2018.04382911 3255.95241816 -2016.58590705 3257.55369714 -2015.12890625 3259.15625 C-2007.0305268 3268.00416721 -1998.59627614 3276.51153008 -1990.125 3285 C-1989.5371875 3285.5904007 -1988.949375 3286.18080139 -1988.34375 3286.78909302 C-1979.72913746 3295.44460518 -1979.72913746 3295.44460518 -1970.63037109 3303.58398438 C-1968.83271406 3305.14529177 -1967.1667502 3306.8003648 -1965.5 3308.5 C-1962.51127663 3311.53594925 -1959.38293521 3314.34508659 -1956.15625 3317.125 C-1953.80037042 3319.17359094 -1951.4949254 3321.27203002 -1949.1875 3323.375 C-1944.91689849 3327.23022386 -1940.51226331 3330.87582515 -1936.0390625 3334.4921875 C-1932.52941389 3337.38832427 -1929.10995408 3340.37695826 -1925.6875 3343.375 C-1919.26462585 3348.9802259 -1912.67284328 3354.3059103 -1905.92333984 3359.51074219 C-1903.81199493 3361.14557387 -1901.71213969 3362.794484 -1899.61328125 3364.4453125 C-1891.19743479 3371.05334368 -1882.71457555 3377.50933216 -1873.94335938 3383.63818359 C-1871.75283316 3385.17320309 -1869.57176594 3386.721207 -1867.390625 3388.26953125 C-1794.4500812 3439.89464316 -1714.19004712 3480.05395705 -1547 3533 C-1546.21880798 3533.18713562 -1545.43761597 3533.37427124 -1544.63275146 3533.56707764 C-1455.71481554 3554.79769187 -1364.07033402 3564.13016841 -1002 3511 C-1001.25373352 3510.7522583 -1000.50746704 3510.5045166 -999.73858643 3510.24926758 C-935.54590716 3488.88990411 -873.85008262 3459.99775222 -816 3425 C-814.62666504 3424.17532227 -814.62666504 3424.17532227 -813.22558594 3423.33398438 C-784.96846464 3406.34374222 -758.04716177 3387.18895917 -732 3367 C-731.38141113 3366.52320801 -730.76282227 3366.04641602 -730.12548828 3365.55517578 C-722.92502754 3360.00275571 -715.90443719 3354.28964315 -709.03393555 3348.33300781 C-705.62029176 3345.37461227 -702.15877134 3342.5028963 -698.625 3339.6875 C-693.1102157 3335.2184822 -687.97177291 3330.38117867 -682.83251953 3325.4909668 C-681.87321533 3324.57891479 -681.87321533 3324.57891479 -680.89453125 3323.6484375 C-680.33612549 3323.11395996 -679.77771973 3322.57948242 -679.20239258 3322.02880859 C-677.26478277 3320.24391363 -675.29092059 3318.52282943 -673.29589844 3316.80297852 C-668.80256124 3312.88275934 -664.5806085 3308.72484206 -660.37109375 3304.50390625 C-659.57776138 3303.71153061 -658.78442902 3302.91915497 -657.96705627 3302.10276794 C-656.30110919 3300.43749717 -654.63640744 3298.77097971 -652.97290039 3297.10327148 C-650.44463866 3294.56965378 -647.91108339 3292.04141833 -645.37695312 3289.51367188 C-643.7496793 3287.88573717 -642.12271575 3286.25749225 -640.49609375 3284.62890625 C-639.74798935 3283.88282608 -638.99988495 3283.13674591 -638.22911072 3282.36805725 C-634.1629071 3278.28391268 -630.25911467 3274.11358177 -626.50340271 3269.74151611 C-624.27572865 3267.1610164 -621.94856034 3264.68201297 -619.625 3262.1875 C-615.35604806 3257.56700451 -611.31968706 3252.80893248 -607.375 3247.90625 C-605.16236057 3245.19867807 -602.8989418 3242.54853153 -600.6081543 3239.9074707 C-594.99756959 3233.43726395 -589.65349268 3226.81376522 -584.49755859 3219.97460938 C-582.74665041 3217.6659453 -580.97724344 3215.37201951 -579.20703125 3213.078125 C-566.01153071 3196.7667257 -566.01153071 3196.7667257 -555 3179 C-555.72888428 3178.70867187 -556.45776855 3178.41734375 -557.20874023 3178.1171875 C-593.91200745 3163.40928614 -627.10537358 3146.1222572 -656.54296875 3119.234375 C-658.15464463 3117.76874924 -659.78192582 3116.32006451 -661.42578125 3114.890625 C-672.9901095 3104.78336522 -682.79383644 3093.2531045 -692 3081 C-692.41459473 3080.4529541 -692.82918945 3079.9059082 -693.25634766 3079.34228516 C-704.5478799 3064.35404041 -714.15928845 3048.04249618 -722 3031 C-722.3619043 3030.2157666 -722.72380859 3029.4315332 -723.09667969 3028.62353516 C-739.12185755 2993.50612706 -747.22014723 2956.37772329 -747.25 2917.8125 C-747.25101212 2916.62788681 -747.25101212 2916.62788681 -747.25204468 2915.41934204 C-747.23319542 2901.43829897 -746.37539212 2887.80012374 -744 2874 C-743.8443457 2873.07606445 -743.68869141 2872.15212891 -743.52832031 2871.20019531 C-734.9062672 2822.10095872 -710.48476673 2773.18107923 -674.4375 2738.43359375 C-672.434001 2736.43553904 -670.70666483 2734.25279757 -669 2732 C-670.57403533 2728.00009846 -673.18692734 2725.81152865 -676.375 2723 C-685.53752472 2714.78004164 -694.21810777 2706.34260769 -701.875 2696.67578125 C-703.23820217 2694.9592491 -704.63196233 2693.26630131 -706.0625 2691.60546875 C-749.76287111 2640.59492527 -766.04926384 2573.10927674 -761.25 2507.1875 C-759.08431736 2480.4316742 -755.96604944 2450.34406563 -744 2426 C-743.64421875 2425.26378418 -743.2884375 2424.52756836 -742.921875 2423.76904297 C-737.54513292 2412.76688448 -731.46170848 2402.6984598 -724 2393 C-723.39720215 2392.20916016 -723.39720215 2392.20916016 -722.78222656 2391.40234375 C-719.38748338 2386.94896591 -715.9616503 2382.51943792 -712.52148438 2378.10107422 C-707.12601381 2371.15106369 -701.81637623 2364.1558635 -697.25 2356.625 C-696.61578125 2355.58601563 -695.9815625 2354.54703125 -695.328125 2353.4765625 C-692.40630024 2345.82825651 -693.85004178 2338.67379574 -696.75 2331.25 C-697.05945557 2330.44199951 -697.36891113 2329.63399902 -697.68774414 2328.80151367 C-710.52301443 2296.62264562 -733.07968802 2268.10106584 -754.36279297 2241.08251953 C-755.89616365 2239.13207934 -757.42058235 2237.17507436 -758.94140625 2235.21484375 C-764.26771767 2228.36338944 -769.75112506 2221.67711961 -775.38671875 2215.078125 C-777.77882269 2212.2729268 -780.11455851 2209.42536843 -782.4375 2206.5625 C-787.33248605 2200.55264169 -792.38317358 2194.68248717 -797.44287109 2188.81152344 C-798.99451936 2187.00637604 -800.53933585 2185.19561441 -802.08203125 2183.3828125 C-807.54196051 2176.97245758 -813.07483798 2170.65652625 -818.765625 2164.44921875 C-821.29649006 2161.67500128 -823.76639391 2158.85292879 -826.23046875 2156.01953125 C-829.01767922 2152.8385427 -831.8540428 2149.7022769 -834.6875 2146.5625 C-836.92117493 2144.08734669 -839.14817716 2141.60631688 -841.375 2139.125 C-846.08204788 2133.8949468 -850.83674415 2128.70921215 -855.59716797 2123.52783203 C-857.42593069 2121.53611656 -859.25173864 2119.54170457 -861.07763672 2117.54736328 C-869.94480204 2107.86511921 -878.84522548 2098.21469318 -887.8125 2088.625 C-888.72757324 2087.64418457 -888.72757324 2087.64418457 -889.66113281 2086.64355469 C-892.63958383 2083.46427282 -895.65056775 2080.33134568 -898.7421875 2077.26171875 C-901.03936025 2074.98028226 -903.23234051 2072.67135621 -905.3125 2070.1875 C-908.07618029 2066.97666245 -910.98619596 2063.97732835 -914 2061 C-916.93118191 2058.10408042 -919.76403174 2055.19757429 -922.4375 2052.0625 C-925.74211116 2048.19540184 -929.32845304 2044.64222155 -932.94628906 2041.07324219 C-936.24025803 2037.80651487 -939.31474342 2034.42114792 -942.32421875 2030.89453125 C-944.76532539 2028.134772 -947.402906 2025.58789024 -950.02734375 2023.00390625 C-952.57337829 2020.41753849 -954.92021557 2017.6846472 -957.28515625 2014.93359375 C-958.96004299 2013.04505403 -960.69947587 2011.26844352 -962.5 2009.5 C-964.79326036 2007.24202057 -966.96428028 2004.94003496 -969.0625 2002.5 C-972.59834284 1998.39489448 -976.29335238 1994.45004759 -980 1990.5 C-984.19976898 1986.02064765 -988.36695171 1981.53144588 -992.37109375 1976.875 C-994.33665089 1974.61248819 -996.35673309 1972.40309317 -998.375 1970.1875 C-1002.32371445 1965.81714316 -1006.0462721 1961.29696921 -1009.75 1956.71875 C-1011.93501569 1954.07852271 -1014.19171391 1951.5327028 -1016.5 1949 C-1020.72415948 1944.35415162 -1024.69892532 1939.54310192 -1028.64697266 1934.66210938 C-1030.76924923 1932.05502548 -1032.9172671 1929.46934064 -1035.0612793 1926.88012695 C-1041.83922368 1918.68619527 -1048.50534636 1910.42020422 -1055 1902 C-1055.60070313 1901.22140625 -1056.20140625 1900.4428125 -1056.8203125 1899.640625 C-1065.54422768 1888.30996226 -1074.12539106 1876.89034346 -1082.41113281 1865.23486328 C-1083.4652005 1863.75223642 -1084.52181896 1862.27141954 -1085.58105469 1860.79248047 C-1110.8132412 1825.53369815 -1133.49080833 1788.4969264 -1155 1750.875 C-1155.49113281 1750.02502441 -1155.98226563 1749.17504883 -1156.48828125 1748.29931641 C-1164.72535075 1733.76510718 -1170.75699452 1718.76565971 -1176 1702.9375 C-1176.61033497 1701.12311939 -1177.22167324 1699.30907598 -1177.83398438 1697.49536133 C-1180.42038132 1689.81767351 -1182.96666912 1682.12743595 -1185.46875 1674.421875 C-1190.03743634 1657.05208135 -1190.03743634 1657.05208135 -1200.25 1643.0625 C-1230.43843498 1627.68240718 -1271.20045016 1630.60916381 -1304.07409668 1630.68194199 C-1306.66154035 1630.68757962 -1309.24897746 1630.69040296 -1311.83642578 1630.69302368 C-1339.64797621 1630.73391643 -1367.29193394 1631.43751497 -1395 1634 Z M-430 2389.8125 C-431.478172 2389.9374736 -431.478172 2389.9374736 -432.98620605 2390.06497192 C-486.19924967 2394.12087275 -486.19924967 2394.12087275 -538 2406 C-538.62551758 2406.20173828 -539.25103516 2406.40347656 -539.89550781 2406.61132812 C-572.90927295 2417.480725 -599.41276108 2441.03670968 -615.09863281 2471.90209961 C-630.48593437 2503.35383184 -632.2411137 2539.28956924 -620.96606445 2572.28491211 C-609.90281149 2602.84313433 -587.75891571 2626.54989321 -559.33052248 2641.7518407 C-557.8820322 2642.52760949 -556.43972902 2643.31519656 -555.00764805 2644.12085492 C-538.49852476 2653.15844906 -520.80964656 2652.1391384 -502.56957201 2652.02153907 C-497.86617462 2652.00016846 -493.1629767 2652.0256016 -488.45960188 2652.04481989 C-480.23194645 2652.07206996 -472.00471712 2652.06984087 -463.77705193 2652.04785156 C-451.54201506 2652.01524192 -439.30732316 2652.02861542 -427.07227845 2652.0508517 C-405.21659036 2652.08905204 -383.36109652 2652.08176796 -361.50540175 2652.05517886 C-342.3789028 2652.03204506 -323.25247303 2652.02424826 -304.1259613 2652.0315876 C-302.8561859 2652.03205356 -301.5864105 2652.03251951 -300.27815705 2652.03299959 C-295.12344355 2652.0349086 -289.96873008 2652.03688462 -284.81401664 2652.03896398 C-248.85114665 2652.05328751 -212.88830959 2652.05297343 -176.92545319 2652.01973629 C-175.90956873 2652.01879964 -175.90956873 2652.01879964 -174.87316136 2652.01784407 C-163.87612829 2652.0076666 -152.87909583 2651.99685407 -141.8820634 2651.98599431 C-98.27109556 2651.94297024 -54.66029473 2651.93767732 -11.04931641 2651.9675293 C-0.05772667 2651.97501948 10.9338631 2651.98244968 21.92545319 2651.98941708 C22.9407494 2651.99006382 22.9407494 2651.99006382 23.97655664 2651.99072362 C60.54782682 2652.01385055 97.11907935 2652.00434988 133.69035101 2651.98398215 C138.83555442 2651.98117041 143.98075786 2651.97840355 149.1259613 2651.97564888 C151.02621654 2651.97459882 151.02621654 2651.97459882 152.96486077 2651.97352754 C172.07714352 2651.9633285 191.18937266 2651.96995922 210.301651 2651.98463249 C232.03792595 2652.00118947 253.77403021 2651.9924287 275.51027453 2651.95061522 C287.66834098 2651.92791542 299.82605277 2651.92428614 311.98411834 2651.94848845 C320.11319766 2651.96271329 328.24198552 2651.95132272 336.37101389 2651.91941603 C340.99739291 2651.90195606 345.62306409 2651.89520493 350.24942786 2651.91961252 C376.85337672 2652.09593788 376.85337672 2652.09593788 402 2644 C403.05286808 2643.53356722 404.10573615 2643.06713445 405.19050932 2642.58656734 C407.50611238 2641.54617029 409.7157878 2640.41380183 411.9375 2639.1875 C412.71343506 2638.76863525 413.48937012 2638.34977051 414.28881836 2637.91821289 C421.45247135 2633.94466466 427.75832806 2629.29985587 434 2624 C434.86753906 2623.29488281 435.73507812 2622.58976562 436.62890625 2621.86328125 C457.16295405 2604.47843014 469.69245449 2579.00430591 475 2553 C475.22558594 2551.89785156 475.45117188 2550.79570312 475.68359375 2549.66015625 C481.51352638 2515.84654701 473.08697747 2480.28240003 454 2452 C437.74341576 2429.4112631 416.05219367 2413.50108333 389.8125 2404.625 C388.33450928 2404.12395752 388.33450928 2404.12395752 386.82666016 2403.61279297 C383.90050254 2402.66599459 380.96737182 2401.80794901 378 2401 C377.13109131 2400.75894531 376.26218262 2400.51789062 375.36694336 2400.26953125 C364.98094214 2397.96297774 354.3975856 2399.70187144 343.9375 2400.75 C301.99274748 2404.88220423 260.05492574 2405.37539776 217.9375 2405.3125 C215.29555261 2405.3102744 212.65360518 2405.30809805 210.01165771 2405.30596924 C165.57544126 2405.26045696 121.25982578 2404.38218247 76.88102722 2402.14513397 C73.86168696 2401.99303237 70.84228541 2401.84218916 67.82287598 2401.69146729 C26.11713441 2399.60500522 -15.57662507 2397.30087449 -57.27020264 2394.98624802 C-70.36749938 2394.25920234 -83.46491379 2393.53431284 -96.5625 2392.8125 C-97.71406837 2392.74899353 -98.86563675 2392.68548706 -100.05210114 2392.62005615 C-129.90301677 2390.97523668 -159.7539148 2389.41868089 -189.625 2388.1875 C-190.32610523 2388.15839664 -191.02721046 2388.12929329 -191.74956131 2388.09930801 C-201.49845146 2387.69524015 -211.24844604 2387.3336146 -221 2387 C-222.34904232 2386.9522728 -223.69808199 2386.90447098 -225.04711914 2386.8565979 C-249.96443278 2385.98327538 -274.87245396 2385.81225541 -299.80371094 2385.81469727 C-304.07979597 2385.81477815 -308.355773 2385.80787167 -312.63183594 2385.79418945 C-351.79065828 2385.67115932 -390.96989777 2386.39380172 -430 2389.8125 Z M161.2607462 2796.03746957 C87.92122675 2796.16258887 14.58187561 2796.3504033 -58.7574446 2796.56058016 C-76.77037395 2796.61219491 -94.78330554 2796.66301516 -112.79623758 2796.71367918 C-119.51441319 2796.73259771 -126.23258808 2796.7517528 -132.95076255 2796.7710714 C-188.32174177 2796.93013265 -243.69206719 2797.02688183 -299.06327853 2797.01059236 C-312.3133275 2797.0067745 -325.56335485 2797.01008189 -338.81340027 2797.02046204 C-339.65954983 2797.0211119 -340.5056994 2797.02176176 -341.37748986 2797.02243132 C-349.72655678 2797.0289169 -358.07562242 2797.03628431 -366.42468738 2797.04494071 C-383.83851286 2797.06266799 -401.25202969 2797.06138933 -418.66582222 2797.02069232 C-431.05596969 2796.99217373 -443.44585785 2796.99124566 -455.83600843 2797.01963162 C-462.42508225 2797.03387924 -469.01361723 2797.03444497 -475.60266876 2796.99940872 C-481.56743627 2796.96776983 -487.53100825 2796.97286397 -493.49575174 2797.00700295 C-495.63090043 2797.01278157 -497.76613944 2797.0052488 -499.90117419 2796.98244655 C-513.88967326 2796.84233112 -523.86228334 2798.95150754 -536 2806 C-536.89673715 2806.49860566 -537.79347429 2806.99721132 -538.71738529 2807.51092625 C-540.63109892 2808.59180635 -542.47322165 2809.73515311 -544.3125 2810.9375 C-544.96508789 2811.35588135 -545.61767578 2811.7742627 -546.29003906 2812.20532227 C-578.1667459 2832.89085535 -602.35593026 2861.86404499 -610.75 2899.4375 C-617.03086869 2929.78285978 -610.7943325 2960.81725753 -593.86181641 2986.74267578 C-573.25994404 3016.7456633 -542.97366861 3034.65550649 -508.5625 3044.5 C-507.70011719 3044.75539551 -506.83773437 3045.01079102 -505.94921875 3045.27392578 C-492.26063818 3048.97431525 -477.5820154 3046.59109985 -463.625 3045.5625 C-440.67624806 3043.88278717 -417.75537048 3042.89068594 -394.75 3042.4375 C-393.7090921 3042.41665344 -392.6681842 3042.39580688 -391.59573364 3042.37432861 C-372.72602088 3042.00234728 -353.87241052 3041.8051945 -335 3042 C-334.10363831 3042.00860046 -333.20727661 3042.01720093 -332.28375244 3042.02606201 C-303.25961112 3042.31205387 -274.257408 3043.10570405 -245.25390625 3044.19921875 C-244.02245074 3044.24538613 -244.02245074 3044.24538613 -242.76611733 3044.29248619 C-211.6882764 3045.46057325 -180.63110084 3046.96641685 -149.57421875 3048.59375 C-148.4634678 3048.6519195 -147.35271686 3048.71008899 -146.20830679 3048.7700212 C-126.72636528 3049.79118668 -107.24533039 3050.82936209 -87.7644043 3051.86968994 C33.11996837 3058.3939492 33.11996837 3058.3939492 154.14221191 3060.3225708 C159.29817849 3060.30888944 164.45406285 3060.31446448 169.61003971 3060.31943226 C207.88265638 3060.34729525 246.04544164 3059.53751734 284.1875 3056.1875 C285.15843597 3056.1045166 286.12937195 3056.0215332 287.12973022 3055.93603516 C301.38744825 3054.71187387 315.60883464 3053.2422219 329.8125 3051.5 C330.60691498 3051.40439789 331.40132996 3051.30879578 332.21981812 3051.21029663 C340.91152785 3050.15157054 349.49319794 3048.80041575 358.06640625 3047.01171875 C358.82605179 3046.85324463 359.58569733 3046.69477051 360.36836243 3046.53149414 C391.86079429 3039.70619981 420.04194789 3021.87159145 438.1875 2994.86328125 C457.69733986 2964.04277992 466.82672568 2926.47705563 459.4375 2890.1875 C452.07242225 2857.65503431 433.97609121 2830.30354342 406 2812 C393.27244431 2804.10172923 376.61313459 2795.73899278 361.46937275 2795.75654697 C359.55066247 2795.75147268 359.55066247 2795.75147268 357.59319037 2795.74629587 C356.18544253 2795.75268476 354.77769553 2795.75926174 353.36994934 2795.76600647 C351.8634298 2795.76586479 350.35691013 2795.76484538 348.85039169 2795.76302677 C344.71478953 2795.76059644 340.57929851 2795.77068487 336.44371703 2795.7828559 C331.98019682 2795.79382827 327.516676 2795.79327286 323.05314445 2795.79417992 C314.27446622 2795.79781254 305.49583665 2795.81226835 296.71717729 2795.83020712 C286.31065774 2795.85101535 275.90413584 2795.86052191 265.4976008 2795.86986998 C241.26838486 2795.89224386 217.03921949 2795.93472743 192.81004005 2795.98140673 C182.29361125 2796.00158864 171.77717914 2796.01959992 161.2607462 2796.03746957 Z M-387.96375473 3191.17337513 C-389.43899038 3193.77382331 -391.19413762 3196.15234735 -392.953125 3198.56640625 C-395.83622776 3202.8788759 -398.64512915 3207.2400569 -401.44042969 3211.60986328 C-402.79736887 3213.68945543 -404.2074105 3215.70479855 -405.6640625 3217.71484375 C-413.12311883 3228.79799989 -412.45322992 3240.70313079 -410.32421875 3253.45703125 C-409.48151963 3257.72300986 -408.31530923 3261.85767296 -407 3266 C-406.76394043 3266.74427246 -406.52788086 3267.48854492 -406.28466797 3268.25537109 C-397.6418887 3294.71865848 -383.12418775 3318.22343436 -366 3340 C-365.21882813 3340.99515625 -364.43765625 3341.9903125 -363.6328125 3343.015625 C-354.91380607 3353.87559743 -345.29579142 3363.80717287 -335.5 3373.6875 C-334.63407227 3374.56647949 -333.76814453 3375.44545898 -332.87597656 3376.35107422 C-326.89981943 3382.33510359 -320.64454937 3387.77159553 -314 3393 C-312.948125 3393.83277466 -312.948125 3393.83277466 -311.875 3394.68237305 C-294.09347717 3408.60807023 -275.05741577 3419.48461973 -253.5625 3426.5 C-252.8528006 3426.73367279 -252.1431012 3426.96734558 -251.41189575 3427.20809937 C-198.79508466 3444.4313438 -141.97761998 3449.24744906 -86.875 3449.1875 C-85.83507904 3449.18689575 -84.79515808 3449.1862915 -83.72372437 3449.18566895 C1.64579723 3449.05221168 105.81334093 3439.34394244 187 3377 C188.06347656 3376.05833984 188.06347656 3376.05833984 189.1484375 3375.09765625 C219.09269101 3347.17005655 239.14421463 3301.51383516 253 3264 C253.33757324 3263.08911621 253.67514648 3262.17823242 254.02294922 3261.23974609 C262.00493551 3239.37639278 272.44786834 3209.08538621 262.1875 3186.4375 C259.96546935 3182.49277143 257.04550472 3180.02275236 253 3178 C251.57790929 3177.90143269 250.15132323 3177.86436638 248.72583258 3177.85854149 C247.82135986 3177.85245082 246.91688714 3177.84636015 245.98500615 3177.84008491 C244.98295272 3177.83842421 243.98089929 3177.83676351 242.94848061 3177.83505249 C241.88609265 3177.8294047 240.8237047 3177.82375691 239.72912318 3177.81793797 C236.12708808 3177.80008712 232.52506726 3177.78945689 228.92300415 3177.77880859 C226.33120442 3177.76764345 223.73940638 3177.75607943 221.14761007 3177.74414825 C214.74431104 3177.71557936 208.34100269 3177.69264863 201.93767519 3177.67154028 C196.61190665 3177.6538546 191.28615071 3177.63388332 185.96039581 3177.61249161 C127.25829941 3177.37725064 68.55582179 3177.24544408 9.85335337 3177.14550659 C1.3499887 3177.13097734 -7.15337497 3177.11588683 -15.65673828 3177.10058594 C-16.5963543 3177.09890744 -17.53597031 3177.09722894 -18.50405954 3177.09549958 C-48.96319018 3177.04072793 -79.42187049 3176.93467046 -109.880749 3176.80100861 C-141.18679702 3176.66387904 -172.49259948 3176.57570905 -203.79894738 3176.55018314 C-208.22086069 3176.54656117 -212.64277332 3176.54239413 -217.06468582 3176.53790283 C-217.93496855 3176.53703799 -218.80525127 3176.53617314 -219.7019062 3176.53528209 C-233.70861458 3176.51995308 -247.71462977 3176.45328084 -261.72106453 3176.36755829 C-275.80219645 3176.28251675 -289.88260558 3176.25233239 -303.96397834 3176.27796614 C-312.32971412 3176.29154756 -320.69287111 3176.26338662 -329.05816591 3176.17517365 C-335.30695153 3176.11390234 -341.5532208 3176.13113135 -347.80207379 3176.1787293 C-350.32851905 3176.18576448 -352.85518949 3176.16740573 -355.38121967 3176.12107348 C-370.98546747 3175.85178474 -379.97569397 3176.91351869 -387.96375473 3191.17337513 Z " fill="#A56CFF" transform="translate(2557,748)"/>
<path d="M0 0 C236.28 0 472.56 0 716 0 C716 28.38 716 56.76 716 86 C578.885 86.495 578.885 86.495 439 87 C446.57246474 93.90290095 446.57246474 93.90290095 454.25 100.6875 C460.70285618 106.31239296 466.50370899 112.44393265 472 119 C472.42941895 119.51030762 472.85883789 120.02061523 473.30126953 120.54638672 C503.46148946 156.61224917 531 210.0287143 531 258 C592.05 258 653.1 258 716 258 C716 286.38 716 314.76 716 344 C655.61 344 595.22 344 533 344 C532.34 350.27 531.68 356.54 531 363 C530.33594301 367.24300087 529.64552513 371.41958332 528.8125 375.625 C528.49212769 377.25550293 528.49212769 377.25550293 528.1652832 378.91894531 C517.61843398 430.76712152 494.4802099 478.64285095 459 518 C458.45424316 518.6074707 457.90848633 519.21494141 457.34619141 519.84082031 C451.80414749 525.98239093 446.29064905 532.08379325 439.921875 537.38671875 C437.72950592 539.22706108 435.65725617 541.17434619 433.5625 543.125 C371.31594632 599.16599235 285.6603502 624.16421637 163 636 C163.47832275 636.47308594 163.95664551 636.94617187 164.44946289 637.43359375 C166.6565534 639.61964406 168.85953633 641.80979129 171.0625 644 C172.19075195 645.11568359 172.19075195 645.11568359 173.34179688 646.25390625 C177.56044231 650.45428915 181.59218501 654.74117194 185.47436523 659.25390625 C187.38559945 661.44131977 189.41566044 663.47787953 191.5 665.5 C194.95048906 668.90370276 198.16637394 672.42438989 201.3203125 676.1015625 C203.49241241 678.55654053 205.81744394 680.83032236 208.15625 683.125 C209.93697041 684.93590211 211.6020858 686.80135608 213.2578125 688.7265625 C216.86365237 692.87394574 220.59858401 696.88323629 224.375 700.875 C229.2548049 706.05605694 234.0883207 711.26811867 238.828125 716.578125 C241.36366615 719.405527 243.92991916 722.20405555 246.5 725 C251.36959942 730.30110425 256.19225839 735.6428022 261 741 C261.763125 741.845625 262.52625 742.69125 263.3125 743.5625 C267.30782489 747.9897519 271.27083872 752.44059261 275.1875 756.9375 C277.27211164 759.30964429 279.38428644 761.65556065 281.5 764 C286.31014801 769.33562637 291.05980237 774.71586881 295.71484375 780.1875 C300.61574366 785.94264842 305.54181642 791.64907166 310.6875 797.1875 C314.89029309 801.71198101 318.81689214 806.40813737 322.6875 811.21875 C325.19971256 814.24019484 327.82404088 817.12438383 330.5 820 C334.80999105 824.63245661 338.85061396 829.42122516 342.8203125 834.3515625 C344.97757399 836.97275119 347.21311 839.49154281 349.5 842 C353.41891252 846.29991791 357.09170869 850.75919547 360.75 855.28125 C362.93501569 857.92147729 365.19171391 860.4672972 367.5 863 C371.41891252 867.29991791 375.09170869 871.75919547 378.75 876.28125 C380.93501569 878.92147729 383.19171391 881.4672972 385.5 884 C389.34436481 888.2228256 392.96525534 892.58644573 396.55859375 897.0234375 C399.28530483 900.34784365 402.07080022 903.61598035 404.875 906.875 C412.14500395 915.32739092 419.4047966 923.78575697 426.4375 932.4375 C429.89274151 936.68392382 433.42697834 940.85296294 437 945 C441.31928956 950.01319488 445.55097119 955.0853732 449.72265625 960.22265625 C452.28204272 963.34396633 454.88604122 966.42440998 457.5 969.5 C461.5501864 974.26905969 465.54352242 979.0791259 469.49609375 983.9296875 C476.88551349 992.99066085 484.29805913 1002.03242103 491.875 1010.9375 C495.57420039 1015.28631929 499.18245167 1019.69501035 502.73046875 1024.16796875 C507.46565575 1030.07676492 512.31096566 1035.89651532 517.13134766 1041.73583984 C520.19415224 1045.44689938 523.25347431 1049.16082535 526.3125 1052.875 C526.90240723 1053.59115479 527.49231445 1054.30730957 528.10009766 1055.04516602 C531.94637381 1059.71610894 535.78128647 1064.39616733 539.609375 1069.08203125 C542.0503737 1072.06148555 544.49976263 1075.03387837 546.95043945 1078.00537109 C552.80628015 1085.10610426 558.64348075 1092.22107902 564.43188477 1099.37695312 C566.84647613 1102.36049777 569.26965399 1105.33373635 571.7421875 1108.26953125 C572.54914062 1109.23246094 573.35609375 1110.19539063 574.1875 1111.1875 C574.88230469 1112.00605469 575.57710937 1112.82460937 576.29296875 1113.66796875 C578.03553642 1116.04854747 578.9588646 1118.25617145 580 1121 C558.8248384 1121.32759986 537.65009679 1121.57418933 516.47291183 1121.72537041 C506.63895516 1121.79744549 496.80657635 1121.89563296 486.97363281 1122.05615234 C478.39923302 1122.19605925 469.82597612 1122.28609856 461.25046659 1122.31723893 C456.71250163 1122.33543381 452.17780491 1122.37791946 447.64089203 1122.48022079 C443.36176636 1122.57591926 439.08722308 1122.60444042 434.80712891 1122.58350754 C433.24450924 1122.58733079 431.681722 1122.61481067 430.12003326 1122.66887665 C418.71379473 1123.0440878 418.71379473 1123.0440878 414.22297764 1119.66150904 C410.8068204 1116.38908258 408.00030273 1112.7260126 405.30325079 1108.85174394 C403.17515464 1105.82800578 400.8580879 1102.96040432 398.5625 1100.0625 C398.06258545 1099.41829102 397.5626709 1098.77408203 397.04760742 1098.11035156 C393.10979294 1093.04917529 388.92289984 1088.22284704 384.69995117 1083.39916992 C380.78355403 1078.92220304 376.98665677 1074.36448107 373.2421875 1069.7421875 C370.69746317 1066.62999852 368.10381775 1063.56273503 365.5 1060.5 C362.12711398 1056.53100848 358.78823226 1052.5398282 355.5 1048.5 C350.41824323 1042.26083244 345.21105894 1036.13108038 340 1030 C334.80780978 1023.89111965 329.61876419 1017.78489359 324.5625 1011.5625 C320.60491812 1006.69870975 316.53457554 1001.94118769 312.44165039 997.19165039 C309.41054711 993.66701081 306.43014684 990.10960118 303.5 986.5 C299.60649477 981.70691234 295.60961222 977.0121823 291.58203125 972.33203125 C287.74648055 967.87502423 283.94149308 963.39342527 280.14941406 958.89941406 C276.74705423 954.87178207 273.31421392 950.87117384 269.875 946.875 C266.29373398 942.7131582 262.7684187 938.51730831 259.3125 934.25 C255.76254679 929.87492253 252.04436179 925.69450808 248.25 921.53125 C245.13067124 918.02200514 242.20250867 914.36837877 239.25 910.71875 C236.35524289 907.22091849 233.30410461 903.88214596 230.24609375 900.52734375 C227.93812402 897.93037607 225.74444137 895.26595987 223.5625 892.5625 C219.70058325 887.78715598 215.62325776 883.26332315 211.46484375 878.74609375 C209.07292703 876.08124834 206.80745116 873.35168175 204.5625 870.5625 C200.90299472 866.02522979 197.05004979 861.73969027 193.08178711 857.47631836 C190.13082563 854.28693687 187.34014247 851.0164417 184.625 847.625 C180.57333783 842.58583594 176.22645384 837.89534229 171.79736328 833.19189453 C168.55451548 829.72938522 165.46570521 826.20713152 162.5 822.5 C157.94355216 816.80864357 152.99207779 811.53587718 148.0078125 806.22265625 C145.1552359 803.17938059 142.3907379 800.07055866 139.6640625 796.9140625 C136.16708561 792.89171819 132.57203589 788.95561021 129 785 C120.42826705 775.5078125 120.42826705 775.5078125 116.625 771.125 C113.17080696 767.15669451 109.60869442 763.28987441 106.04516602 759.42016602 C103.512893 756.66561908 101.00979797 753.89274925 98.5625 751.0625 C94.93653017 746.87734446 91.16356151 742.83239911 87.39819336 738.77319336 C84.76241007 735.92651445 82.15541636 733.06644846 79.625 730.125 C75.63145458 725.50193018 71.42635806 721.07418381 67.23681641 716.62939453 C64.27048351 713.47292278 61.35628869 710.28596891 58.515625 707.015625 C55.0244489 702.99902106 51.40567284 699.11667849 47.75 695.25 C43.28266707 690.50562317 38.83239825 685.74909972 34.4375 680.9375 C28.62502044 674.57472652 22.74233753 668.27876881 16.85546875 661.98486328 C14.91266466 659.90657417 12.97170477 657.82657645 11.03125 655.74609375 C10.06602417 654.71125854 10.06602417 654.71125854 9.08129883 653.65551758 C7.83887129 652.32339564 6.59651848 650.991204 5.35424805 649.65893555 C2.70958913 646.79831959 2.70958913 646.79831959 0 644 C-0.09543095 642.60856311 -0.12188575 641.21231633 -0.12025452 639.81761169 C-0.12162918 638.91592255 -0.12300385 638.0142334 -0.12442017 637.08522034 C-0.11902725 635.58981972 -0.11902725 635.58981972 -0.11352539 634.06420898 C-0.11367142 633.02043091 -0.11381744 631.97665283 -0.1139679 630.90124512 C-0.11326826 627.43284057 -0.10547353 623.96448897 -0.09765625 620.49609375 C-0.09579225 618.09855682 -0.09436826 615.7010195 -0.09336853 613.30348206 C-0.08954194 606.97904416 -0.07971046 600.65462906 -0.06866455 594.3302002 C-0.05845345 587.88224598 -0.05387156 581.43428809 -0.04882812 574.98632812 C-0.03808832 562.324209 -0.02120119 549.66210571 0 537 C0.59171588 536.99668985 1.18343176 536.99337971 1.79307842 536.98996925 C16.34066657 536.90795201 30.88816561 536.815621 45.4356184 536.71247292 C52.47129949 536.6628233 59.5069716 536.61638518 66.54272461 536.578125 C72.69103356 536.54468188 78.83926114 536.50458522 84.98747903 536.45720994 C88.22842354 536.43245033 91.46931073 536.4115319 94.71031761 536.39665604 C118.09671503 536.28567585 141.49259815 535.35470843 164.6875 532.1875 C165.96455811 532.01645752 167.24161621 531.84541504 168.55737305 531.66918945 C205.40924465 526.5725324 241.45694479 517.3193887 275 501 C275.73412109 500.64325195 276.46824219 500.28650391 277.22460938 499.91894531 C292.49944787 492.39171426 307.09716273 483.1443975 320 472 C320.77988281 471.3296875 321.55976562 470.659375 322.36328125 469.96875 C351.35439823 444.44546998 371.59555378 412.71860422 381.1875 375.1875 C381.42549316 374.26453125 381.66348633 373.3415625 381.90869141 372.390625 C384.21813426 362.9521732 385.46782428 353.70377955 387 344 C259.29 344 131.58 344 0 344 C0 315.62 0 287.24 0 258 C126.06 258 252.12 258 382 258 C372.83527657 231.52413231 364.34464817 208.88167398 346 188 C344.94039062 186.75863281 344.94039062 186.75863281 343.859375 185.4921875 C329.24372165 168.72098815 311.64530984 156.22715844 292 146 C291.33468262 145.64373535 290.66936523 145.2874707 289.98388672 144.92041016 C266.25540012 132.32436428 239.29942455 124.83132547 213 120 C211.96456055 119.80857422 210.92912109 119.61714844 209.86230469 119.41992188 C179.64856827 113.99185154 149.2793168 112.54116331 118.65745497 112.49388909 C114.46019186 112.48426824 110.26302639 112.45805417 106.06582642 112.43388367 C98.17984301 112.39084736 90.29387917 112.36192034 82.40781558 112.33856028 C71.70756615 112.30600322 61.00743346 112.25063995 50.30727386 112.19681454 C33.53821821 112.11303989 16.76920456 112.05886068 0 112 C0 75.04 0 38.08 0 0 Z " fill="#A56CFF" transform="translate(763,2945)"/>
<path d="M0 0 C21.76087902 19.03309726 30.44694513 47.21516151 32.3341713 75.3242979 C32.41161449 76.62582208 32.48905769 77.92734625 32.56884766 79.26831055 C32.61077224 79.95634754 32.65269683 80.64438453 32.69589186 81.35327113 C33.64492884 97.18862951 33.75653844 113.00574445 33.72910023 128.86481833 C33.72386451 132.87601155 33.72878096 136.88719793 33.73187256 140.89839172 C33.73547521 147.65420197 33.73082499 154.40996802 33.72119141 161.16577148 C33.71162265 167.95095721 33.71146858 174.73605475 33.72119141 181.52124023 C34.05554284 421.13152267 34.05554284 421.13152267 12.53466797 450.67529297 C4.90517608 458.24731223 -6.54309755 462.44610516 -16.53955078 465.73388672 C-17.63589844 466.10320312 -17.63589844 466.10320312 -18.75439453 466.47998047 C-32.67300723 470.35368266 -47.53076831 467.9277643 -60.22705078 461.54638672 C-65.60624289 458.32874153 -70.08761888 454.11149588 -74.53955078 449.73388672 C-75.15701172 449.12931641 -75.77447266 448.52474609 -76.41064453 447.90185547 C-119.44579361 402.28260968 -118.6830115 310.17835921 -118.70751953 251.50732422 C-118.71075488 249.62252785 -118.71412037 247.73773171 -118.71760559 245.85293579 C-118.72353615 241.9218081 -118.72545233 237.99070215 -118.72485352 234.05957031 C-118.72477312 230.13178821 -118.73158754 226.2041249 -118.74536133 222.27636719 C-118.86875852 186.46897363 -117.75526724 150.77482726 -114.89941406 115.07373047 C-114.65884019 112.03679794 -114.43689009 108.99882243 -114.21533203 105.96044922 C-111.39471203 68.98864983 -105.48255535 27.99594559 -75.76611328 2.33935547 C-53.49705085 -15.28301283 -23.00643091 -18.92029031 0 0 Z " fill="#A56CFF" transform="translate(2520.53955078125,65.26611328125)"/>
<path d="M0 0 C5.4515262 0.01140742 10.90285716 0.00458405 16.35437679 -0.00688362 C39.22011881 -0.04750854 62.04352523 0.23942651 84.89111328 1.19042969 C85.88967976 1.23192894 86.88824623 1.27342819 87.9170723 1.316185 C195.75311215 5.90366499 195.75311215 5.90366499 218.96142578 25.57519531 C220.74374879 27.64816668 220.97870361 28.96587128 221.36767578 31.65917969 C221.50802246 32.59189697 221.64836914 33.52461426 221.79296875 34.4855957 C222.00590576 36.04491821 222.00590576 36.04491821 222.22314453 37.63574219 C222.38057129 38.73394287 222.53799805 39.83214355 222.70019531 40.96362305 C223.064142 43.53025175 223.42202434 46.0971993 223.7734375 48.66552734 C224.37024091 53.006909 225.00247074 57.34280539 225.63560486 61.67901611 C226.22089667 65.71328372 226.79038156 69.74968889 227.35653687 73.78668213 C227.64128312 75.80167548 227.93097218 77.81597687 228.22573853 79.82952881 C228.64407756 82.7017932 229.04137494 85.57628167 229.43408203 88.45214844 C229.56295303 89.30761765 229.69182404 90.16308685 229.82460022 91.04447937 C231.33367529 102.51467971 227.32440718 111.50835063 220.62548828 120.71386719 C201.30897342 144.03647651 165.74778181 145.15946149 137.78613281 147.85839844 C126.34638205 148.92857783 114.88599259 149.6967036 103.41064453 150.26074219 C102.58696916 150.30127181 101.76329378 150.34180143 100.91465855 150.38355923 C83.55600148 151.21229906 66.22850942 151.4238942 48.85205078 151.42871094 C47.46723857 151.43014262 46.08242651 151.43174034 44.69761467 151.43349648 C37.42332428 151.4426833 30.14905185 151.44684125 22.87475586 151.44604492 C16.98507938 151.44551629 11.09546997 151.45248548 5.20581055 151.46655273 C-178.68528159 151.89568056 -178.68528159 151.89568056 -207.36279297 124.67480469 C-220.16380716 110.79581035 -220.28421378 92.08815293 -219.58935547 74.26074219 C-219.16101698 67.59793994 -218.44652366 60.96807285 -217.67285156 54.33764648 C-217.33459209 51.40697232 -217.02577868 48.47408121 -216.71826172 45.54003906 C-216.5051655 43.64856532 -216.2903854 41.75728036 -216.07373047 39.86621094 C-215.98500671 39.00263474 -215.89628296 38.13905853 -215.80487061 37.24931335 C-214.96517604 30.3852128 -212.9337043 25.78542555 -208.15185547 20.63574219 C-177.00530665 -2.82030075 -110.10191543 2.67567077 -72.96435547 1.19042969 C-71.87886539 1.14699684 -70.79337532 1.103564 -69.67499161 1.058815 C-46.44901553 0.15184184 -23.24148663 -0.04899312 0 0 Z " fill="#A56CFF" transform="translate(4126.58935546875,2177.7392578125)"/>
<path d="M0 0 C2.10820743 0.01065975 4.21554971 0.00007261 6.32373047 -0.01269531 C35.34902464 -0.04309183 54.22785629 9.32550027 76.10693359 27.77685547 C78.52314899 29.80527497 80.98106777 31.78072821 83.43701172 33.76074219 C94.40174408 42.75280905 104.97335892 52.16855607 115.34228516 61.83740234 C117.77620214 64.09835454 120.23297013 66.33417729 122.68701172 68.57324219 C124.21208067 69.97205707 125.73562191 71.37250959 127.25830078 72.77392578 C128.35549347 73.78327676 129.45384139 74.79137311 130.55322266 75.79833984 C141.0294025 85.41270345 151.10066175 95.40568453 161.09399414 105.51708984 C167.46249796 111.95172559 167.46249796 111.95172559 174.18701172 118.01074219 C176.67476108 120.13406031 178.85428568 122.29702423 180.96826172 124.79199219 C184.34208218 128.76254279 187.96448258 132.43264595 191.65576172 136.10449219 C192.27692871 136.72243652 192.8980957 137.34038086 193.53808594 137.97705078 C195.48171117 139.90682477 197.4276741 141.8342093 199.37451172 143.76074219 C214.37411434 158.60390495 214.37411434 158.60390495 219.57568359 164.73925781 C221.24028616 166.68922082 223.03083402 168.48063958 224.87451172 170.26074219 C227.99862156 173.34319723 230.9015226 176.53583991 233.76123047 179.86230469 C236.57188145 183.05221172 239.47330586 186.1533011 242.37451172 189.26074219 C246.96557613 194.18701489 251.49313111 199.14603728 255.87451172 204.26074219 C256.73044922 205.24945312 257.58638672 206.23816406 258.46826172 207.25683594 C306.79167631 263.17857868 306.79167631 263.17857868 310.56201172 288.38574219 C310.68648682 289.21759033 310.81096191 290.04943848 310.93920898 290.90649414 C313.2745876 307.49997375 312.26645784 325.27440529 301.87451172 339.26074219 C298.0017563 342.67905292 293.88647509 345.01875202 289.33544922 347.37792969 C288.61394684 347.75756866 287.89244446 348.13720764 287.14907837 348.52835083 C284.85182674 349.7358571 282.55084401 350.93603443 280.24951172 352.13574219 C277.97666599 353.32660302 275.70462045 354.51897387 273.43293762 355.71205139 C271.9589058 356.48530254 270.48388722 357.25667572 269.00785828 358.02610779 C264.02107843 360.63114734 259.11325404 363.35060753 254.26196289 366.2019043 C248.79844073 368.62498392 242.9959785 368.24569481 237.38623047 366.47558594 C223.11642784 359.95958768 210.75844745 348.2647497 198.87451172 338.26074219 C198.28250977 337.76396973 197.69050781 337.26719727 197.08056641 336.75537109 C193.87160346 334.06136941 190.67458638 331.35380431 187.48681641 328.63476562 C185.78779583 327.18684197 184.08507492 325.74333907 182.38232422 324.29980469 C175.6424672 318.5708801 169.04074772 312.72317042 162.54638672 306.71777344 C159.68937233 304.09048973 156.7815167 301.53184528 153.85107422 298.98730469 C146.24893239 292.34669858 138.83502588 285.49239515 131.40234375 278.66357422 C129.9033047 277.28717947 128.40287096 275.9123248 126.90185547 274.53808594 C115.177824 263.80410958 103.50300326 253.01837985 91.8984375 242.15527344 C90.50407588 240.85005677 89.10918791 239.54540224 87.71386719 238.24121094 C72.2070014 223.74128449 72.2070014 223.74128449 65.24560547 216.56933594 C63.34592689 214.71973126 61.425318 213.01223103 59.40966797 211.29589844 C52.63270664 205.41506423 46.45007538 198.89062288 40.14697266 192.51269531 C34.58702682 186.89269321 29.0689298 181.33027249 23.046875 176.20166016 C18.21409117 171.88376496 13.69301449 167.22578216 9.11987305 162.63647461 C7.31589087 160.82713286 5.50662507 159.023199 3.69677734 157.21972656 C-1.56525573 151.96041078 -6.74358429 146.7009673 -11.57055664 141.03393555 C-14.42317518 137.78090234 -17.53795797 134.78857761 -20.62548828 131.76074219 C-25.0856045 127.34354304 -29.48468802 122.94017856 -33.52783203 118.13183594 C-34.73485844 116.71822799 -35.98501143 115.34128898 -37.25439453 113.98339844 C-53.31712044 96.77915901 -57.0191482 81.55466112 -56.44970703 58.56933594 C-55.76311022 42.00921579 -52.53335342 20.70674381 -39.87548828 8.82324219 C-28.49885468 0.18496678 -13.68684687 -0.08190058 0 0 Z " fill="#A56CFF" transform="translate(1134.12548828125,618.7392578125)"/>
<path d="M0 0 C3.47987811 1.76168182 6.8778587 3.63765668 10.25878906 5.57958984 C11.49301612 6.27092552 12.72821733 6.96052475 13.96435547 7.6484375 C15.82906389 8.68778917 17.6921117 9.72957008 19.55014038 10.78082275 C23.30783176 12.90609246 27.09836534 14.93657247 30.94628906 16.89599609 C31.8520166 17.36481201 32.75774414 17.83362793 33.69091797 18.31665039 C35.34138248 19.16855872 36.99945771 20.00596528 38.66650391 20.82495117 C47.12720082 25.29682312 51.12094561 32.89921562 54.06738281 41.76318359 C61.09299668 67.61340879 52.59787535 92.74478491 39.75878906 115.20458984 C31.87831518 128.62591492 22.65251729 141.07508057 12.44238281 152.80615234 C9.95834972 155.68080438 7.57191755 158.61513036 5.19628906 161.57958984 C2.00210611 165.50826406 -1.32675362 169.13798257 -4.99902344 172.62255859 C-6.78042449 174.42696667 -8.40654518 176.26185354 -10.04980469 178.18896484 C-14.87576538 183.74587889 -20.10211236 188.90248034 -25.31323242 194.09448242 C-27.05014694 195.82603684 -28.78164983 197.56287343 -30.51269531 199.30029297 C-35.69635655 204.48674027 -40.87258225 209.61868111 -46.48364258 214.34887695 C-48.28193226 215.91105203 -49.94871593 217.56671466 -51.61621094 219.26708984 C-53.87419037 221.5603502 -56.17617598 223.73137012 -58.61621094 225.82958984 C-63.31019464 229.87769594 -67.81308487 234.12299955 -72.33374023 238.36206055 C-76.33645904 242.11327361 -80.36796466 245.8288891 -84.42871094 249.51708984 C-89.02676878 253.71397486 -93.43443457 258.06058673 -97.80761719 262.48974609 C-100.51978675 265.1652027 -103.35965393 267.64674947 -106.25292969 270.12255859 C-108.12072887 271.77107737 -109.87076718 273.49012566 -111.61621094 275.26708984 C-114.56221308 278.2594336 -117.64604101 281.02033157 -120.82714844 283.75927734 C-123.05164009 285.71045262 -125.22735927 287.70833085 -127.39624023 289.72094727 C-132.5311487 294.48282431 -137.77594921 299.02233824 -143.23730469 303.41162109 C-145.26371318 305.06959168 -147.24797955 306.74014851 -149.21386719 308.46630859 C-158.33681803 316.47316097 -167.88361047 323.80556158 -177.67480469 330.97705078 C-179.22044914 332.11031729 -180.76258341 333.2484003 -182.29980469 334.39306641 C-206.6232243 352.49769111 -236.62567294 371.10582227 -268.11621094 368.76708984 C-282.34940519 365.97470308 -291.84506057 358.84135316 -299.99511719 347.04833984 C-311.37835627 328.75648265 -314.61116887 307.09832205 -311.05371094 286.01708984 C-307.53012092 270.89300483 -299.39153766 260.83923009 -289.11621094 249.76708984 C-288.06269166 248.60693385 -287.01056744 247.44550923 -285.95996094 246.28271484 C-280.65830948 240.44395136 -275.22212003 234.77754598 -269.56542969 229.27880859 C-267.63095895 227.29497337 -265.83383163 225.2925832 -264.03515625 223.19042969 C-259.87404692 218.4207217 -255.44373671 213.95065896 -250.96386719 209.48193359 C-250.10490341 208.62201309 -249.24593964 207.76209259 -248.36094666 206.87611389 C-246.55444079 205.06893123 -244.74668632 203.26299593 -242.93774414 201.45825195 C-240.18684284 198.71270591 -237.44131873 195.96186439 -234.69628906 193.21044922 C-232.93163562 191.44645665 -231.16667197 189.68277434 -229.40136719 187.91943359 C-228.58966568 187.10570786 -227.77796417 186.29198212 -226.94166565 185.45359802 C-222.71987214 181.24891771 -218.41657429 177.21770809 -213.90159607 173.33009338 C-211.42659804 171.16337282 -209.11290193 168.85860232 -206.80371094 166.51708984 C-206.34569092 166.0552832 -205.8876709 165.59347656 -205.41577148 165.11767578 C-203.98004919 163.66996262 -202.54768662 162.21900127 -201.11621094 160.76708984 C-195.52636984 155.09744816 -189.94069636 149.49335538 -183.88574219 144.31396484 C-181.15943773 141.93070532 -178.64252533 139.35865484 -176.11621094 136.76708984 C-172.22503235 132.82218088 -168.26431103 129.06702594 -164.04199219 125.47412109 C-161.08014794 122.84871351 -158.33993468 120.01308201 -155.58496094 117.17333984 C-153.55366899 115.19347301 -151.4913234 113.32775822 -149.35058594 111.47021484 C-145.07987943 107.76416413 -140.96698543 103.90924591 -136.86621094 100.01708984 C-127.56277851 91.22504688 -118.14788121 82.569985 -108.62011719 74.02099609 C-105.90013203 71.57258511 -103.19525532 69.10808906 -100.49121094 66.64208984 C-93.35920931 60.15664346 -86.07415256 53.8629111 -78.74853516 47.59838867 C-74.93138777 44.33182056 -71.13195888 41.04588496 -67.34350586 37.74609375 C-60.69831442 31.96258275 -54.01677772 26.24615786 -47.11621094 20.76708984 C-46.4898877 20.26677246 -45.86356445 19.76645508 -45.21826172 19.25097656 C-14.03487844 -5.55281543 -14.03487844 -5.55281543 0 0 Z " fill="#A56CFF" transform="translate(3827.1162109375,613.23291015625)"/>
<path d="M0 0 C1.63025016 -0.00692318 3.26049093 -0.01645904 4.89071232 -0.02836347 C9.34657153 -0.05330697 13.80165528 -0.04107897 18.2575165 -0.02244616 C23.0722375 -0.00883373 27.88682801 -0.02984315 32.70152283 -0.04632568 C42.12431318 -0.07297213 51.5468164 -0.06725749 60.9696179 -0.04984984 C68.62993665 -0.03628555 76.29017507 -0.03446787 83.9505024 -0.04099274 C85.58747133 -0.04237183 85.58747133 -0.04237183 87.25751035 -0.04377879 C89.47467973 -0.0456972 91.69184908 -0.04764248 93.9090184 -0.04961434 C114.68819736 -0.06671406 135.46721738 -0.04706705 156.24637026 -0.01481214 C174.06398974 0.01198979 191.88137463 0.00734025 209.69898987 -0.02032471 C230.4035381 -0.0524572 251.10794707 -0.06506222 271.81251675 -0.04665112 C274.02171995 -0.04473989 276.23092317 -0.04285366 278.44012642 -0.04099274 C280.07046164 -0.03960426 280.07046164 -0.03960426 281.73373292 -0.03818773 C289.38161936 -0.03301392 297.02941724 -0.04173705 304.67728996 -0.05587006 C314.00227862 -0.07272392 323.32696436 -0.06809025 332.65191846 -0.03618559 C337.4069517 -0.02045113 342.16148049 -0.01418281 346.91650963 -0.03408051 C351.27479667 -0.05204171 355.63211471 -0.04200156 359.99031461 -0.01021519 C361.56151168 -0.00354751 363.13279169 -0.00684486 364.70393484 -0.02146992 C375.3182499 -0.11264609 384.25188908 1.32572941 392.65972322 8.34632802 C406.41285728 22.10504855 408.96068244 45.73504889 409.01222229 64.07440186 C409.00429664 84.77938183 406.37900231 105.31089341 392.38722229 121.51190186 C385.63464743 127.29982316 380.28563131 129.882215 371.36336327 129.89612293 C370.72016185 129.89847516 370.07696044 129.90082739 369.41426808 129.9032509 C367.25023711 129.90992935 365.08626635 129.90948303 362.92222595 129.90907288 C361.35847559 129.91237222 359.79472608 129.91609794 358.23097765 129.92021435 C353.92672185 129.93023444 349.62247999 129.93395116 345.31821418 129.93660367 C340.67864371 129.94050668 336.03908429 129.95008501 331.39952087 129.95881653 C320.19155283 129.97858081 308.98358388 129.98864701 297.77560276 129.99754432 C292.49804655 130.0019272 287.22049135 130.007294 281.94293594 130.01253319 C264.40005133 130.02954528 246.85716734 130.04403965 229.31427574 130.05128193 C224.76160557 130.05319183 220.20893541 130.05511216 215.65626526 130.05706787 C214.52471676 130.05755161 213.39316825 130.05803535 212.2273304 130.05853375 C193.89524008 130.06683481 175.563215 130.09217312 157.23115318 130.12464855 C138.41175042 130.15771563 119.59238082 130.17573037 100.77294886 130.17892617 C90.20582892 130.18109157 79.63880413 130.18984465 69.07171249 130.21538734 C60.07266418 130.23708949 51.07373412 130.24514712 42.07466261 130.23542056 C37.48404946 130.2308745 32.89368031 130.23277993 28.30310059 130.25218201 C24.09720319 130.26980453 19.89172796 130.26882344 15.68582614 130.25328472 C14.16760311 130.25090726 12.64935092 130.2552394 11.13117246 130.26711337 C-3.25832985 130.37264848 -12.57047743 126.959175 -23.03855896 117.05877686 C-39.90240843 99.22574063 -48.15458301 72.57631457 -47.51512146 48.37908936 C-46.34221593 33.08175805 -41.22829807 19.9412997 -30.25340271 9.04315186 C-20.36062521 1.55949634 -12.17679598 -0.1131727 0 0 Z " fill="#A56CFF" transform="translate(668.2377777099609,1953.2380981445313)"/>
</svg>
