<?xml version="1.0" encoding="UTF-8"?>
<svg version="1.1" xmlns="http://www.w3.org/2000/svg" width="4500" height="4500">
<path d="M0 0 C0.89003723 0.06552063 1.78007446 0.13104126 2.69708252 0.19854736 C96.39908833 7.14751012 188.20175381 25.055536 400 104 C401.07443359 104.50563477 402.14886719 105.01126953 403.25585938 105.53222656 C417.01993465 112.02665992 430.62185226 118.74376973 444 126 C445.576604 126.85005615 445.576604 126.85005615 447.18505859 127.71728516 C464.38821625 137.01122476 481.22849382 146.78679349 497.86083984 157.06591797 C500.6756667 158.80017356 503.50053821 160.51580408 506.33203125 162.22265625 C522.28250808 171.8853819 537.63868988 182.43602737 553 193 C553.89299805 193.61294922 554.78599609 194.22589844 555.70605469 194.85742188 C566.01720721 201.9574738 575.98314101 209.47970782 585.91015625 217.10546875 C589.74785368 220.05161628 593.61450771 222.95406524 597.50292969 225.83276367 C604.21018715 230.80252987 610.66708189 235.97506504 616.9921875 241.421875 C619.77358989 243.80593419 622.59170916 246.13099897 625.4375 248.4375 C634.76748613 256.04021464 643.86891173 263.90843613 652.78125 271.99609375 C654.79308393 273.81311982 656.82660434 275.59944392 658.875 277.375 C663.74562924 281.62343309 668.4983289 285.9992607 673.24717712 290.38261414 C674.38143173 291.42922723 675.51636639 292.47510401 676.65211487 293.52009583 C686.26548387 302.37393101 695.61879275 311.46104065 704.84619141 320.71582031 C707.02261269 322.89766908 709.20442239 325.07402913 711.38671875 327.25 C712.79980037 328.66374152 714.21257223 330.07779274 715.625 331.4921875 C716.2636499 332.12881317 716.9022998 332.76543884 717.56030273 333.4213562 C721.32997625 337.21045398 724.91136543 341.11050768 728.38623047 345.17214966 C730.02348692 347.02660267 731.73392118 348.76850743 733.5 350.5 C736.51413582 353.46735323 739.29917333 356.57345292 742.05859375 359.77734375 C744.28804061 362.32976883 746.58001382 364.81887514 748.875 367.3125 C753.01680466 371.84906062 756.92182646 376.5282963 760.77734375 381.30859375 C762.98918047 383.98689867 765.28255021 386.56059219 767.625 389.125 C771.67410672 393.56549665 775.39179397 398.19679326 779 403 C782.19060187 402.3600783 784.54917604 401.23570398 787.32421875 399.55078125 C788.59978638 398.78423218 788.59978638 398.78423218 789.90112305 398.00219727 C790.82062744 397.44459717 791.74013184 396.88699707 792.6875 396.3125 C866.02375797 352.46904681 944.80559575 320.18259096 1084.5 294.75 C1085.74797363 294.59885742 1086.99594727 294.44771484 1088.28173828 294.29199219 C1112.37762559 291.55740065 1136.41090726 290.62071192 1160.63842773 290.68194199 C1162.91406322 290.68759707 1165.18969121 290.69040837 1167.46533203 290.69302368 C1190.42525524 290.73134815 1213.18091241 291.28479754 1236 294 C1237.5105508 294.17358911 1239.02113097 294.34692283 1240.53173828 294.52001953 C1286.3153573 299.84099345 1331.22567776 309.5525871 1375 324 C1376.77914795 324.58152832 1376.77914795 324.58152832 1378.59423828 325.17480469 C1471.85926606 355.82386913 1561.82372816 408.72555157 1630.95703125 478.9921875 C1632.90445759 480.90610173 1634.91490043 482.67602099 1637 484.4375 C1640.93169127 487.80863331 1644.288921 491.57024589 1647.70703125 495.453125 C1649.93876674 497.93198623 1652.24876246 500.2850717 1654.625 502.625 C1658.63170092 506.59039472 1662.33322193 510.72209225 1666 515 C1666.97812276 516.11549955 1667.9573937 517.22999284 1668.9375 518.34375 C1675.72512076 526.07729539 1682.24618057 533.95470963 1688.52832031 542.10302734 C1690.10711388 544.13806816 1691.70438006 546.15762088 1693.3046875 548.17578125 C1740.29539842 607.63085421 1775.72755347 676.35931697 1800 748 C1800.56146729 749.6396875 1800.56146729 749.6396875 1801.13427734 751.3125 C1810.42737112 778.61624543 1817.66819836 806.50104012 1823.4375 834.75 C1823.59912628 835.5411319 1823.76075256 836.33226379 1823.92727661 837.14736938 C1825.64004703 845.59373145 1827.20649306 854.05554487 1828.60571289 862.55957031 C1828.74116768 863.37769196 1828.87662247 864.1958136 1829.01618195 865.03872681 C1829.34502471 867.02566857 1829.67264392 869.01281276 1830 871 C1831.00681824 871.01839432 1832.01363647 871.03678864 1833.05096436 871.05574036 C1926.52636664 872.77485631 2020.0021442 874.65236766 2112 893 C2112.74602478 893.14826233 2113.49204956 893.29652466 2114.26068115 893.44927979 C2182.32382099 907.04781792 2248.65460264 930.52493959 2309 965 C2309.81404297 965.46229004 2310.62808594 965.92458008 2311.46679688 966.40087891 C2343.04207585 984.46322727 2373.28040808 1005.75460165 2400.91796875 1029.38671875 C2403.73635029 1031.79081313 2406.61171953 1034.11767994 2409.5 1036.4375 C2415.30157254 1041.15813908 2420.74217876 1046.22882599 2426.1965332 1051.34008789 C2427.47072882 1052.51285843 2428.75990317 1053.66945352 2430.05932617 1054.81420898 C2437.68835831 1061.54523797 2444.86057864 1068.70880316 2452.04174805 1075.91137695 C2454.19011866 1078.06512522 2456.34380694 1080.21345226 2458.49804688 1082.36132812 C2459.88834168 1083.75228354 2461.27832636 1085.14354903 2462.66796875 1086.53515625 C2463.30043015 1087.16559341 2463.93289154 1087.79603058 2464.58451843 1088.4455719 C2468.37780037 1092.25852459 2471.98563579 1096.18718053 2475.49839783 1100.26028442 C2477.41627515 1102.4822851 2479.39460567 1104.64620659 2481.375 1106.8125 C2485.21928245 1111.07745308 2488.89526905 1115.4486085 2492.50390625 1119.9140625 C2494.31198156 1122.14939817 2496.13112763 1124.37188205 2497.96484375 1126.5859375 C2506.37471296 1136.77509124 2514.28526361 1147.27677301 2522 1158 C2522.57363281 1158.79390137 2523.14726562 1159.58780273 2523.73828125 1160.40576172 C2543.67143439 1188.08382228 2560.633883 1217.57782103 2576 1248 C2576.67579102 1249.33538818 2576.67579102 1249.33538818 2577.36523438 1250.69775391 C2612.24882627 1320.1975817 2631.51520784 1396.18847354 2639.203125 1473.3125 C2639.269552 1473.9677919 2639.335979 1474.6230838 2639.40441895 1475.29823303 C2640.61342767 1487.76437826 2641.16594202 1500.17372381 2641.203125 1512.6953125 C2641.21014644 1514.16508006 2641.21723326 1515.63484731 2641.22438049 1517.10461426 C2641.24378947 1521.77808061 2641.24881483 1526.45149741 2641.25 1531.125 C2641.25044186 1531.92121513 2641.25088371 1532.71743027 2641.25133896 1533.53777313 C2641.25809928 1556.76119084 2641.09444909 1579.84596719 2638.25323486 1602.92706299 C2637.98604259 1605.11425294 2637.73213756 1607.30272742 2637.47998047 1609.49169922 C2630.25884652 1671.54385029 2614.53030368 1732.14662649 2591 1790 C2590.74259033 1790.6338562 2590.48518066 1791.2677124 2590.2199707 1791.92077637 C2560.18984665 1865.62284487 2516.68761829 1934.00510883 2462.52954102 1992.3269043 C2461.38309141 1993.58095364 2460.2503891 1994.84759415 2459.12475586 1996.12036133 C2453.19474802 2002.81064393 2446.98283651 2009.17109925 2440.65209961 2015.47827148 C2438.9329133 2017.19207233 2437.21917417 2018.91119082 2435.50585938 2020.63085938 C2429.83730975 2026.30283819 2424.10674924 2031.79662136 2418 2037 C2416.22429779 2038.61967817 2414.45291693 2040.24411718 2412.6875 2041.875 C2408.25368689 2045.91402153 2403.71945416 2049.77506878 2399.05078125 2053.5390625 C2396.82711326 2055.33280236 2394.61801522 2057.13872383 2392.41796875 2058.9609375 C2366.15039878 2080.6547186 2337.59953067 2100.12760533 2308 2117 C2307.27458008 2117.41572266 2306.54916016 2117.83144531 2305.80175781 2118.25976562 C2300.57257737 2121.24455304 2295.30042139 2124.1438698 2290 2127 C2289.14100098 2127.46374023 2288.28200195 2127.92748047 2287.39697266 2128.40527344 C2211.54385394 2169.15607865 2128.3572091 2193.2275941 2043 2203 C2041.56406494 2203.16991455 2041.56406494 2203.16991455 2040.09912109 2203.34326172 C2013.51666804 2206.44381318 1986.8641189 2206.11307532 1960.17114258 2205.2772522 C1952.50256937 2205.03741472 1944.83303342 2204.83148699 1937.16357422 2204.6223011 C1934.54881138 2204.55083418 1931.93407364 2204.47849279 1929.31933594 2204.40611267 C1836.05655009 2194.36493765 1836.05655009 2194.36493765 1751 2216 C1749.11789244 2220.62082651 1748.53310271 2225.14059373 1748.140625 2230.0703125 C1747.99708803 2231.68658297 1747.85285133 2233.30279141 1747.70800781 2234.91894531 C1747.5971283 2236.19010193 1747.5971283 2236.19010193 1747.48400879 2237.48693848 C1740.44626738 2316.82581666 1717.20104193 2394.58733102 1670 2497 C1671.14549316 2497.01458252 1672.29098633 2497.02916504 1673.47119141 2497.04418945 C1769.78343768 2498.36308383 1862.69737559 2522.13451227 1941 2580 C1941.95253662 2580.69561035 1941.95253662 2580.69561035 1942.92431641 2581.40527344 C1956.00085301 2590.95666417 1968.22452867 2601.29358678 1980.0859375 2612.30859375 C1981.99152575 2614.06858075 1983.91293144 2615.81163357 1985.8515625 2617.53515625 C2056.9736223 2681.08492127 2102.07618032 2773.44276307 2123.3125 2891.4375 C2123.39390228 2892.11202209 2123.47530457 2892.78654419 2123.55917358 2893.48150635 C2125.51384833 2909.94375736 2126.23942901 2926.25259487 2126.25 2942.8125 C2126.25101212 2944.25172821 2126.25101212 2944.25172821 2126.25204468 2945.72003174 C2126.17587377 3014.54294237 2109.54031607 3081.85072432 2078.00927734 3143.0390625 C2077.33085135 3144.3571848 2076.65676048 3145.67754653 2075.98681641 3147 C2060.29046802 3177.96102859 2039.9747885 3207.00586618 2017 3233 C2016.53754883 3233.52416504 2016.07509766 3234.04833008 2015.59863281 3234.58837891 C2010.73582069 3240.07518019 2005.83515514 3245.39312212 2000.203125 3250.109375 C1997.91277747 3252.07485054 1995.71850292 3254.12850432 1993.5234375 3256.19921875 C1986.90805991 3262.42269009 1979.98906419 3268.07138966 1972.79150391 3273.60253906 C1970.98844694 3275.00901196 1969.21584566 3276.44653495 1967.44921875 3277.8984375 C1959.062444 3284.77745199 1950.35771882 3290.98840925 1941.359375 3297.04296875 C1938.00681877 3299.30103073 1934.73427956 3301.63679033 1931.5 3304.0625 C1923.64309723 3309.83714194 1915.29317054 3314.88359021 1907 3320 C1906.22543457 3320.47953125 1905.45086914 3320.9590625 1904.65283203 3321.453125 C1867.544678 3344.34211982 1828.24278682 3365.4371485 1786 3377 C1785.2116587 3377.22117788 1784.4233174 3377.44235575 1783.61108696 3377.67023599 C1762.76767085 3383.28408529 1741.79408003 3382.68807918 1720.39218605 3382.58032811 C1714.93722575 3382.55848377 1709.48228978 3382.56606025 1704.02729797 3382.56983948 C1694.60458141 3382.5724455 1685.18203961 3382.55692396 1675.75936699 3382.52865028 C1662.13624323 3382.48779962 1648.51320291 3382.47497113 1634.89002455 3382.46871033 C1612.78072057 3382.45780077 1590.67150948 3382.4246177 1568.56225586 3382.37719727 C1547.1009975 3382.33121489 1525.63976462 3382.2958078 1504.1784668 3382.2746582 C1503.51540601 3382.27400057 1502.85234523 3382.27334294 1502.1691917 3382.27266538 C1494.8487982 3382.26541774 1487.52840444 3382.25845878 1480.20801055 3382.25161803 C1425.1386096 3382.19988912 1370.06930928 3382.11191542 1315 3382 C1315.0007799 3382.75063634 1315.00155981 3383.50127267 1315.00236334 3384.27465556 C1315.08708732 3465.99004224 1315.1656155 3547.70543399 1315.2117157 3629.42085266 C1315.21240598 3630.64130037 1315.21309627 3631.86174808 1315.21380747 3633.11917905 C1315.22877167 3659.6421785 1315.24262263 3686.16517843 1315.25532665 3712.68817906 C1315.26156338 3725.69487013 1315.26804614 3738.70156107 1315.2746582 3751.70825195 C1315.275312 3753.0025807 1315.27596579 3754.29690945 1315.2766394 3755.63046028 C1315.29794981 3797.59067993 1315.3355091 3839.55086593 1315.3814861 3881.5110652 C1315.42864388 3924.62714261 1315.45942602 3967.7432014 1315.46957495 4010.85930417 C1315.47101574 4016.94780146 1315.47264393 4023.0362987 1315.47438622 4029.12479591 C1315.47489189 4030.92226837 1315.47489189 4030.92226837 1315.47540778 4032.75605339 C1315.48131858 4052.05312945 1315.50451486 4071.35014796 1315.53416017 4090.64720054 C1315.56358839 4110.04270924 1315.5748419 4129.43816084 1315.56750689 4148.83369108 C1315.56370124 4160.35988195 1315.57386724 4171.88586395 1315.60398772 4183.41201714 C1315.62273553 4191.11163276 1315.62331948 4198.81111158 1315.60915907 4206.51073663 C1315.60160993 4210.89786535 1315.60193454 4215.28459905 1315.62441591 4219.67168542 C1315.64473792 4223.66780093 1315.64176575 4227.66321539 1315.62069988 4231.65932087 C1315.61714692 4233.09124314 1315.6218662 4234.52321785 1315.63617622 4235.95507303 C1315.72703135 4245.66660662 1314.06092149 4253.18199799 1310 4262 C1309.69375954 4262.70279179 1309.38751909 4263.40558358 1309.07199861 4264.12967209 C1300.70538951 4282.85797527 1288.9459737 4300.38763033 1277 4317 C1276.4534375 4317.76296387 1275.906875 4318.52592773 1275.34375 4319.31201172 C1267.96309608 4329.57779291 1260.34969145 4339.50580255 1252 4349 C1251.25492188 4349.87914063 1250.50984375 4350.75828125 1249.7421875 4351.6640625 C1244.08972714 4358.2079503 1237.84109908 4363.72854558 1231 4369 C1230.40783691 4369.46132324 1229.81567383 4369.92264648 1229.20556641 4370.39794922 C1156.719925 4426.18374517 1044.94147031 4417.89719822 946.99130249 4421.59232712 C945.27768592 4421.65466312 943.56408262 4421.71736547 941.85049438 4421.78047562 C888.07489114 4423.76084528 834.3171961 4424.20808181 780.51129723 4424.18834877 C777.91266756 4424.18749181 775.3140381 4424.187045 772.71540833 4424.18669128 C712.93580655 4424.17668559 653.19608717 4423.67596317 593.4347229 4422.09078217 C589.92680442 4421.99806539 586.41885198 4421.9067389 582.91088867 4421.81573486 C501.76834669 4419.70610238 420.6467181 4416.94097089 339.52341843 4414.20428085 C258.29918838 4411.46141672 258.29918838 4411.46141672 177.0625 4409.125 C175.99759716 4409.0968861 174.93269432 4409.0687722 173.8355217 4409.03980637 C170.76528042 4408.95885283 167.69502297 4408.87855121 164.62475586 4408.79858398 C163.77951386 4408.77643106 162.93427187 4408.75427813 162.06341648 4408.7314539 C152.70605869 4408.49047357 143.34797615 4408.27952209 133.98992074 4408.06773746 C132.02937106 4408.02332068 130.0688265 4407.97867737 128.10828769 4407.93378365 C96.64289247 4407.21451412 65.19281774 4406.83662941 33.71936393 4406.83274293 C30.36884963 4406.83201376 27.01833904 4406.82984618 23.6678257 4406.82724571 C11.82517881 4406.8180943 -0.01745711 4406.81389757 -11.86010742 4406.81469727 C-21.46103594 4406.81522878 -31.06192365 4406.80818051 -40.6628418 4406.79418945 C-104.05547569 4406.70388326 -167.29154008 4407.23341477 -230.625 4410.125 C-232.56446334 4410.21257102 -234.50393656 4410.29992358 -236.44342041 4410.38703918 C-237.28370914 4410.42481885 -238.12399788 4410.46259851 -238.98974991 4410.50152302 C-295.93486144 4413.02269056 -337.85262236 4392.86780553 -379.87133789 4354.63598633 C-381.34796102 4353.27492292 -382.81471127 4351.90317333 -384.28125 4350.53125 C-386.76927988 4348.21480839 -389.31082129 4345.98116849 -391.875 4343.75 C-402.56635638 4334.12263093 -412.02759262 4323.25638083 -420.66455078 4311.77246094 C-422.03341636 4309.95564849 -423.42069744 4308.15386347 -424.80859375 4306.3515625 C-441.05232015 4285.01429769 -452.53245569 4262.11164123 -452.36914349 4234.84450054 C-452.37136731 4233.34903514 -452.37490828 4231.85357124 -452.37963298 4230.35811165 C-452.38878111 4226.26642935 -452.37936439 4222.17497304 -452.36679858 4218.0833077 C-452.35644792 4213.62533784 -452.36361748 4209.16738968 -452.36853105 4204.70941526 C-452.37473932 4196.90240834 -452.36984311 4189.09547014 -452.35761642 4181.28847122 C-452.33948651 4169.67982272 -452.33861132 4158.0712174 -452.34124239 4146.46255732 C-452.34518132 4126.93350784 -452.33517037 4107.40448884 -452.31719017 4087.87544823 C-452.29943494 4068.54116859 -452.28789149 4049.20690164 -452.28463173 4029.87261391 C-452.28442551 4028.67015852 -452.28421929 4027.46770313 -452.28400682 4026.2288097 C-452.28299181 4020.12206719 -452.28208767 4014.01532466 -452.2812262 4007.90858213 C-452.27492611 3964.66227202 -452.25471725 3921.4159785 -452.22631836 3878.16967773 C-452.19876226 3836.1582854 -452.17751279 3794.14689761 -452.16479492 3752.13549805 C-452.16440034 3750.84036736 -452.16400576 3749.54523666 -452.16359923 3748.21085959 C-452.15964365 3735.20454355 -452.15581621 3722.19822747 -452.15208265 3709.19191136 C-452.14447415 3682.69689513 -452.1360104 3656.2018792 -452.12702942 3629.7068634 C-452.12661755 3628.48868379 -452.12620568 3627.27050417 -452.12578133 3626.01541002 C-452.09818253 3544.67693312 -452.0506473 3463.33846541 -452 3382 C-453.39987898 3382.00227832 -453.39987898 3382.00227832 -454.82803833 3382.00460267 C-510.20123275 3382.09436698 -565.57442039 3382.16279504 -620.94767303 3382.20426132 C-627.60378735 3382.20926385 -634.25990153 3382.21443651 -640.91601562 3382.21972656 C-641.90950807 3382.22051112 -641.90950807 3382.22051112 -642.92307108 3382.22131152 C-665.01741999 3382.23885451 -687.11172263 3382.27066329 -709.20604505 3382.30861118 C-731.20749003 3382.346083 -753.20891248 3382.36824903 -775.21038806 3382.37635398 C-788.7747482 3382.38182881 -802.33898635 3382.39908949 -815.90330891 3382.43166587 C-825.21839494 3382.45289085 -834.53341836 3382.45918205 -843.84852679 3382.45400551 C-849.21424183 3382.45145612 -854.57974444 3382.45522605 -859.94542122 3382.4768219 C-901.37739888 3382.63541146 -901.37739888 3382.63541146 -919 3378 C-920.15534304 3377.71941868 -921.31068607 3377.43883736 -922.50103951 3377.14975357 C-925.09938025 3376.49773847 -927.63606552 3375.75246387 -930.1875 3374.9375 C-931.1170752 3374.64641357 -932.04665039 3374.35532715 -933.00439453 3374.05541992 C-954.08899326 3367.24398225 -974.2173608 3357.90264616 -994 3348 C-994.94762207 3347.53013672 -995.89524414 3347.06027344 -996.87158203 3346.57617188 C-1013.48279262 3338.30364518 -1029.25561091 3328.78653367 -1045 3319 C-1046.80077318 3317.88930983 -1048.60155371 3316.77863159 -1050.40234375 3315.66796875 C-1060.88587192 3309.16333051 -1071.01551261 3302.24425828 -1081 3295 C-1081.76844238 3294.44554199 -1082.53688477 3293.89108398 -1083.32861328 3293.31982422 C-1093.91953037 3285.66662837 -1104.22337269 3277.74671522 -1114.28515625 3269.41064453 C-1115.80212991 3268.16276956 -1117.33728883 3266.93707342 -1118.875 3265.71484375 C-1127.36119545 3258.95872088 -1135.18153964 3251.50686243 -1143 3244 C-1143.54253418 3243.48083008 -1144.08506836 3242.96166016 -1144.64404297 3242.42675781 C-1151.31456658 3236.01320808 -1157.28472293 3229.27045451 -1163 3222 C-1163.84818685 3220.94208933 -1164.69717445 3219.88482027 -1165.546875 3218.828125 C-1215.81454932 3156.00042312 -1247.67099224 3081.55835588 -1259 3002 C-1259.16516113 3000.89930176 -1259.33032227 2999.79860352 -1259.50048828 2998.66455078 C-1264.85624643 2961.75025083 -1264.32937046 2921.88220726 -1259 2885 C-1258.83902832 2883.81647949 -1258.67805664 2882.63295898 -1258.51220703 2881.41357422 C-1249.92975594 2819.4896644 -1227.93666162 2757.59424553 -1194 2705 C-1193.44602539 2704.13874512 -1192.89205078 2703.27749023 -1192.32128906 2702.39013672 C-1184.67596437 2690.57250293 -1176.64363124 2679.10806969 -1168 2668 C-1167.29488281 2667.0925 -1166.58976562 2666.185 -1165.86328125 2665.25 C-1153.8885284 2650.09331485 -1140.98311087 2635.91617943 -1127.38516235 2622.20993042 C-1125.98088139 2620.79374902 -1124.58058509 2619.37361992 -1123.18041992 2617.95336914 C-1117.90095995 2612.66726416 -1112.46364503 2607.79219419 -1106.62695312 2603.12988281 C-1104.1392061 2601.11286562 -1101.75327984 2599.02348835 -1099.37890625 2596.875 C-1095.0689718 2593.00742858 -1090.57716108 2589.46225606 -1085.9375 2586 C-1085.08824951 2585.36553955 -1084.23899902 2584.7310791 -1083.36401367 2584.07739258 C-1024.62939695 2540.67039172 -940.11645054 2496.4944195 -865 2498 C-865.25579834 2497.49476807 -865.51159668 2496.98953613 -865.77514648 2496.46899414 C-910.20228086 2407.94132273 -897.5941909 2309.62369488 -865.83911133 2206.48242188 C-865.56220459 2205.66322266 -865.28529785 2204.84402344 -865 2204 C-866.28318115 2204.00870117 -866.28318115 2204.00870117 -867.59228516 2204.01757812 C-874.64788344 2204.0445852 -881.67720864 2203.94558077 -888.72647095 2203.6492157 C-900.19685956 2203.18010554 -911.64416272 2202.90772469 -923.125 2202.91796875 C-924.14896441 2202.91847009 -924.14896441 2202.91847009 -925.19361496 2202.91898155 C-940.01318816 2202.93356331 -954.81385062 2203.32274676 -969.625 2203.8125 C-971.69685783 2203.87795214 -973.76874391 2203.94245891 -975.84063148 2204.00696182 C-991.96565613 2204.51091068 -1008.08491137 2205.11338555 -1024.203125 2205.80078125 C-1135.39641074 2210.51737318 -1135.39641074 2210.51737318 -1184 2206 C-1185.14919922 2205.89816406 -1186.29839844 2205.79632812 -1187.48242188 2205.69140625 C-1250.55671 2199.94124605 -1312.23638796 2182.75949852 -1370 2157 C-1370.64171143 2156.71384827 -1371.28342285 2156.42769653 -1371.94458008 2156.13287354 C-1388.18453625 2148.8692006 -1404.08011367 2141.11631789 -1419.57714844 2132.35986328 C-1421.87569941 2131.06976565 -1424.18734339 2129.8087452 -1426.5078125 2128.55859375 C-1463.95279274 2108.30509787 -1499.76901143 2083.25563106 -1532.05859375 2055.5078125 C-1534.8345394 2053.14106999 -1537.65563193 2050.84617969 -1540.5 2048.5625 C-1546.30297203 2043.84072218 -1551.7451668 2038.76894854 -1557.20043945 2033.65600586 C-1558.46121388 2032.49580603 -1559.73722575 2031.35204872 -1561.02416992 2030.22094727 C-1568.97202777 2023.21972418 -1576.41971152 2015.731537 -1583.89624023 2008.23413086 C-1586.18946748 2005.9355279 -1588.4880124 2003.6423397 -1590.78710938 2001.34960938 C-1592.26855 1999.86750813 -1593.7496805 1998.3850968 -1595.23046875 1996.90234375 C-1595.9066777 1996.22815903 -1596.58288666 1995.5539743 -1597.27958679 1994.85935974 C-1601.17353751 1990.94646419 -1604.89028028 1986.92920796 -1608.49241638 1982.74569702 C-1610.56685332 1980.34361575 -1612.72148392 1978.01866303 -1614.875 1975.6875 C-1619.79618347 1970.28529859 -1624.41501653 1964.68770102 -1629 1959 C-1630.00934094 1957.76994984 -1631.01982598 1956.5408379 -1632.03125 1955.3125 C-1659.94815178 1921.33768102 -1683.93729761 1884.56640335 -1705 1846 C-1705.48178711 1845.1244043 -1705.96357422 1844.24880859 -1706.45996094 1843.34667969 C-1720.21130544 1818.25462382 -1731.40075924 1791.93100108 -1741 1765 C-1741.42764648 1763.80616699 -1741.85529297 1762.61233398 -1742.29589844 1761.38232422 C-1764.68057312 1698.28668745 -1777.00663563 1628.96623895 -1777.203125 1561.98828125 C-1777.2101478 1560.49743114 -1777.21723461 1559.00658133 -1777.22438049 1557.51573181 C-1777.24376691 1552.78131676 -1777.24881419 1548.04695075 -1777.25 1543.3125 C-1777.25044186 1542.50594467 -1777.25088371 1541.69938934 -1777.25133896 1540.86839294 C-1777.25805373 1517.49851342 -1777.15219005 1494.26244576 -1774.25323486 1471.03717041 C-1773.98707209 1468.89600028 -1773.73291747 1466.7536103 -1773.47998047 1464.61083984 C-1765.05781892 1394.11419302 -1745.60245367 1326.4928757 -1716 1262 C-1715.5683252 1261.05543945 -1715.13665039 1260.11087891 -1714.69189453 1259.13769531 C-1694.0586155 1214.19726954 -1667.03269445 1171.48734014 -1636 1133 C-1635.24203125 1132.05898437 -1634.4840625 1131.11796875 -1633.703125 1130.1484375 C-1631.48468326 1127.4186528 -1629.24813279 1124.70538014 -1627 1122 C-1626.57750977 1121.49114258 -1626.15501953 1120.98228516 -1625.71972656 1120.45800781 C-1619.88944193 1113.45229692 -1613.9106601 1106.62327106 -1607.703125 1099.94921875 C-1605.68701167 1097.7742442 -1603.74228055 1095.54770667 -1601.80737305 1093.30029297 C-1598.15299304 1089.11875702 -1594.31062949 1085.16576946 -1590.37890625 1081.24609375 C-1589.67531479 1080.54154556 -1588.97172333 1079.83699738 -1588.24681091 1079.11109924 C-1586.76985352 1077.63346633 -1585.29165258 1076.15707543 -1583.81225586 1074.68188477 C-1581.56834915 1072.44333519 -1579.32983296 1070.19949527 -1577.09179688 1067.95507812 C-1575.64615382 1066.51009596 -1574.20020055 1065.06542408 -1572.75390625 1063.62109375 C-1571.76602867 1062.63017982 -1571.76602867 1062.63017982 -1570.75819397 1061.61924744 C-1566.87377458 1057.75403521 -1562.88064592 1054.06914357 -1558.72955322 1050.49143982 C-1556.5102696 1048.57769243 -1554.35027953 1046.60218199 -1552.1875 1044.625 C-1546.93834825 1039.89438148 -1541.50577537 1035.42732453 -1536 1031 C-1534.84364408 1030.06263065 -1533.6873992 1029.1251243 -1532.53125 1028.1875 C-1511.94019456 1011.54087064 -1490.45811928 996.03578686 -1468 982 C-1467.00532715 981.37754395 -1466.0106543 980.75508789 -1464.98583984 980.11376953 C-1396.06810834 937.18225145 -1320.69722034 906.70985245 -1191.9375 879.5625 C-1191.12411163 879.43653442 -1190.31072327 879.31056885 -1189.47268677 879.18078613 C-1179.99217196 877.72757647 -1170.58140877 876.55702178 -1161 876 C-1160.90130615 875.27256592 -1160.8026123 874.54513184 -1160.70092773 873.7956543 C-1159.29339407 864.0199817 -1157.24628985 854.43971212 -1155.0625 844.8125 C-1154.86781128 843.95162781 -1154.67312256 843.09075562 -1154.47253418 842.20379639 C-1146.5565844 807.33106535 -1137.04464525 773.00943636 -1126 739 C-1125.75141235 738.23361206 -1125.50282471 737.46722412 -1125.2467041 736.6776123 C-1113.30426732 699.96052785 -1099.08797479 664.09169596 -1083 629 C-1082.67944641 628.29915283 -1082.35889282 627.59830566 -1082.02862549 626.8762207 C-1068.61482044 597.57059849 -1054.17331631 568.88874716 -1038 541 C-1036.99827942 539.25845954 -1035.99656543 537.51691528 -1034.99505615 535.7752533 C-1026.39510159 520.83916527 -1017.47863476 506.18981098 -1007.90332031 491.85205078 C-1005.90266619 488.85414911 -1003.91541479 485.84765042 -1001.9296875 482.83984375 C-983.13175944 454.42359425 -963.02356244 427.18459189 -941.47216797 400.80419922 C-940.17728489 399.21726954 -938.88709522 397.62651263 -937.59765625 396.03515625 C-929.10249258 385.57366175 -920.33123372 375.36888083 -911.22265625 365.4375 C-909.32578236 363.35727275 -907.46607057 361.25443102 -905.625 359.125 C-898.13739228 350.52746455 -890.3308613 342.25942635 -882.21875 334.25 C-880.28303731 332.28702375 -878.47189412 330.28678719 -876.6875 328.1875 C-869.7889798 320.1446755 -862.10011234 312.65452565 -854.0234375 305.8046875 C-851.40981057 303.47361483 -848.95867336 300.99163928 -846.5 298.5 C-842.86162306 294.81777976 -839.15407301 291.29281379 -835.21484375 287.93359375 C-832.8869376 285.90129473 -830.62896434 283.80659209 -828.37109375 281.69726562 C-823.04318918 276.72167029 -817.62186034 271.96781752 -811.93359375 267.40234375 C-808.45096441 264.5503903 -805.0722482 261.59172877 -801.6875 258.625 C-795.22054758 252.97644197 -788.55861385 247.64283443 -781.77246094 242.38574219 C-779.32657075 240.47350077 -776.91235702 238.52311144 -774.49682617 236.57275391 C-745.44626631 213.13376039 -714.59102469 191.84105263 -683 172 C-682.09008301 171.42652832 -681.18016602 170.85305664 -680.24267578 170.26220703 C-658.63023565 156.6611717 -636.53283732 144.00888152 -614 132 C-612.48819183 131.18766639 -610.97646648 130.37517862 -609.46484375 129.5625 C-584.1448064 116.02214418 -558.37242279 103.35679999 -532 92 C-530.99990906 91.56747925 -530.99990906 91.56747925 -529.97961426 91.1262207 C-445.12048289 54.43658274 -355.53666977 28.27296492 -154.2331543 0.15429688 C-152.75336526 0.05205279 -151.27370613 -0.05209058 -149.79418945 -0.15820312 C-100.23923305 -3.71155177 -49.54466483 -3.69992483 0 0 Z M-180 153 C-180.92230408 153.08485657 -181.84460815 153.16971313 -182.79486084 153.25714111 C-270.18471011 161.37017715 -356.74374613 180.17569084 -492 234 C-493.15306641 234.52384277 -494.30613281 235.04768555 -495.49414062 235.58740234 C-521.78078764 247.54074098 -547.37501224 260.50366876 -572.1796875 275.32226562 C-574.94347286 276.9663734 -577.71907736 278.5882035 -580.5 280.203125 C-599.84630514 291.46448473 -618.80749167 303.36910071 -636.93896484 316.50830078 C-639.1472526 318.10657586 -641.36405557 319.69254411 -643.58203125 321.27734375 C-652.52632889 327.68214479 -661.33547143 334.22140738 -670 341 C-671.15083467 341.89219415 -672.30188232 342.78411363 -673.453125 343.67578125 C-679.86008074 348.65494155 -686.14866853 353.74468005 -692.31640625 359.01757812 C-695.66707476 361.88199108 -699.06270943 364.67672393 -702.5 367.4375 C-707.2549105 371.30390167 -711.76661645 375.38528868 -716.234375 379.57592773 C-719.10012087 382.26256449 -722.00230984 384.89271772 -724.96484375 387.47265625 C-736.63033817 397.63440095 -747.61598639 408.51418547 -758.5625 419.4375 C-759.12684753 419.99925934 -759.69119507 420.56101868 -760.27264404 421.13980103 C-765.8358266 426.68284985 -771.34709281 432.22804406 -776.44995117 438.20483398 C-779.1544024 441.33695399 -782.02899905 444.30956368 -784.875 447.3125 C-789.68933327 452.43156999 -794.28090011 457.64270886 -798.66796875 463.13671875 C-801.49005008 466.60168628 -804.42954863 469.9524973 -807.375 473.3125 C-813.51290564 480.35074972 -819.31741214 487.59161533 -825 495 C-825.60215332 495.78149414 -826.20430664 496.56298828 -826.82470703 497.36816406 C-850.83645468 528.5505432 -873.18008981 560.97333715 -893 595 C-893.43989258 595.75506836 -893.87978516 596.51013672 -894.33300781 597.28808594 C-897.93817018 603.49766306 -901.48556044 609.73866744 -905 616 C-905.48919922 616.87108398 -905.97839844 617.74216797 -906.48242188 618.63964844 C-949.31760178 695.35045867 -980.55968405 777.61547045 -1006 874 C-1006.29849854 875.15257294 -1006.29849854 875.15257294 -1006.60302734 876.32843018 C-1007.17733717 878.55246966 -1007.74602771 880.77785909 -1008.3125 883.00390625 C-1008.63863281 884.28209229 -1008.96476563 885.56027832 -1009.30078125 886.87719727 C-1010.10924864 889.95456451 -1010.10924864 889.95456451 -1010 893 C-1004.45281373 894.34591594 -998.89962259 895.36866463 -993.2578125 896.2265625 C-916.4729649 907.92730583 -842.36853927 933.18019508 -775.71826172 973.36962891 C-773.11774329 974.92937941 -770.50222826 976.45945965 -767.87890625 977.98046875 C-754.76286335 985.63009841 -742.33417807 994.15346218 -730 1003 C-728.70884277 1003.92546631 -728.70884277 1003.92546631 -727.39160156 1004.86962891 C-716.27835944 1012.87038457 -705.51396452 1021.22810992 -695 1030 C-694.40960937 1030.49129395 -693.81921875 1030.98258789 -693.2109375 1031.48876953 C-686.78196534 1036.8492494 -680.46265542 1042.31637722 -674.26953125 1047.94921875 C-672.16347582 1049.85228088 -670.02679531 1051.71153821 -667.875 1053.5625 C-664.42031962 1056.56626828 -661.2144877 1059.76649879 -658.00390625 1063.02734375 C-656.04321766 1064.9574563 -654.02180286 1066.76734898 -651.9375 1068.5625 C-646.07355079 1073.62473741 -640.86737541 1079.10029566 -635.81640625 1084.96484375 C-633.94771168 1087.05858541 -631.99955265 1089.03126897 -630 1091 C-626.11984385 1094.83572688 -622.54374391 1098.8542301 -619 1103 C-618.1176452 1104.01862581 -617.23479355 1105.03682137 -616.3515625 1106.0546875 C-604.1712027 1120.1263695 -592.64174636 1134.56627594 -581.71875 1149.63720703 C-580.06413182 1151.91183697 -578.3938977 1154.17405709 -576.71875 1156.43359375 C-520.48892283 1232.66589083 -481.64585675 1324.2226448 -453.3125 1494.1875 C-453.25147095 1494.97316345 -453.19044189 1495.7588269 -453.12756348 1496.56829834 C-451.97288578 1511.70903945 -451.5425879 1526.80753873 -451 1542 C-499.84 1542 -548.68 1542 -599 1542 C-599 1537.71 -599 1533.42 -599 1529 C-599.24235117 1523.05320155 -599.67174361 1517.12146097 -600.125 1511.1875 C-600.18902008 1510.34907562 -600.25304016 1509.51065125 -600.31900024 1508.64682007 C-603.64781192 1466.17218042 -611.82438796 1424.50975156 -625 1384 C-625.36206543 1382.87948242 -625.72413086 1381.75896484 -626.09716797 1380.60449219 C-646.10507266 1319.25890755 -678.30278015 1260.91769756 -720.4453125 1211.9921875 C-722.89685362 1209.12081059 -725.26559405 1206.19721643 -727.625 1203.25 C-731.14337743 1198.9211392 -734.90140359 1194.99159736 -738.89453125 1191.1015625 C-740.80401762 1189.19561878 -742.56643503 1187.24219146 -744.3125 1185.1875 C-750.89976927 1177.52788457 -758.19530219 1170.37690124 -765.88671875 1163.83203125 C-768.05650464 1161.95101539 -770.1648287 1160.01070013 -772.26904297 1158.05688477 C-778.31663116 1152.44646009 -784.54234866 1147.13815831 -791 1142 C-791.51224121 1141.58814453 -792.02448242 1141.17628906 -792.55224609 1140.75195312 C-859.30137647 1087.09444729 -938.48211957 1050.67657842 -1065 1029 C-1066.11584473 1028.88285645 -1067.23168945 1028.76571289 -1068.38134766 1028.64501953 C-1156.37860378 1019.86746604 -1246.19410836 1037.16312938 -1408 1119 C-1408.63566895 1119.44021484 -1409.27133789 1119.88042969 -1409.92626953 1120.33398438 C-1440.43382815 1141.49643995 -1470.879305 1165.56578874 -1495.12890625 1193.84765625 C-1497.33079829 1196.38052162 -1499.60195826 1198.84332522 -1501.875 1201.3125 C-1569.45388734 1275.59846488 -1611.11946947 1374.72839229 -1627.25 1539.6875 C-1627.25067474 1540.78304199 -1627.25134949 1541.87858398 -1627.25204468 1543.00732422 C-1627.16684542 1630.77370581 -1605.14716562 1716.9139811 -1498.265625 1885.48828125 C-1497.02189097 1886.86711053 -1495.78474783 1888.25240417 -1494.57983398 1889.6652832 C-1489.67881216 1895.39109145 -1484.42151943 1900.73121377 -1479.0847168 1906.0456543 C-1477.56508332 1907.5599258 -1476.05087483 1909.0794743 -1474.53710938 1910.59960938 C-1469.19701736 1915.94368299 -1463.76145143 1921.10820162 -1458 1926 C-1456.91663682 1926.94900247 -1455.83455574 1927.89947104 -1454.75390625 1928.8515625 C-1407.66645729 1969.92582191 -1351.77483358 2001.1954866 -1293 2022 C-1291.94619141 2022.37366699 -1290.89238281 2022.74733398 -1289.80664062 2023.13232422 C-1214.22446392 2049.68118647 -1133.06217464 2058.2176907 -1053.31640625 2058.1328125 C-1051.00186656 2058.13349039 -1048.68732693 2058.13446437 -1046.37278748 2058.13571167 C-1041.54319576 2058.13717329 -1036.71362272 2058.1350891 -1031.8840332 2058.13037109 C-1025.85651941 2058.12475393 -1019.82905061 2058.12799999 -1013.80153847 2058.13382435 C-989.48270755 2058.15356749 -965.18409222 2058.00714085 -940.87216377 2057.4161396 C-924.72675368 2057.03072292 -908.59491778 2056.96458678 -892.44529915 2057.02297211 C-884.5971447 2057.04720932 -876.74893693 2057.04488007 -868.90075016 2057.04496384 C-862.20998517 2057.04779099 -855.52006632 2057.06897416 -848.82958984 2057.12670898 C-842.20459172 2057.18372099 -835.58084111 2057.18844143 -828.95556641 2057.16201591 C-826.4677181 2057.16078808 -823.97979195 2057.17707743 -821.4921875 2057.21193123 C-808.38627326 2058.10285746 -808.38627326 2058.10285746 -796.53427124 2053.80010986 C-794.24697886 2051.29581832 -792.61310848 2048.96870949 -791 2046 C-790.18789062 2045.02289062 -789.37578125 2044.04578125 -788.5390625 2043.0390625 C-787.90742187 2042.24242188 -787.27578125 2041.44578125 -786.625 2040.625 C-782.94363311 2036.07139288 -779.07225527 2031.76417484 -775.08642578 2027.48095703 C-772.09587359 2024.24823796 -769.26228315 2020.93312334 -766.5 2017.5 C-762.86500611 2012.98222187 -759.0328971 2008.72181484 -755.0859375 2004.48046875 C-752.09558642 2001.24788253 -749.26213671 1997.93294134 -746.5 1994.5 C-742.86500611 1989.98222187 -739.0328971 1985.72181484 -735.0859375 1981.48046875 C-732.09558642 1978.24788253 -729.26213671 1974.93294134 -726.5 1971.5 C-722.86500611 1966.98222187 -719.0328971 1962.72181484 -715.0859375 1958.48046875 C-712.09558642 1955.24788253 -709.26213671 1951.93294134 -706.5 1948.5 C-703.30067846 1944.52370037 -699.97410864 1940.73336152 -696.5 1937 C-692.18150392 1932.35789762 -688.12304364 1927.5642411 -684.1484375 1922.62109375 C-681.35062881 1919.20776715 -678.40852698 1915.93877615 -675.43359375 1912.6796875 C-673.89180208 1911.2412768 -673.89180208 1911.2412768 -674 1910 C-675.6228689 1909.99853479 -675.6228689 1909.99853479 -677.27852303 1909.99703997 C-724.97715046 1909.95377918 -772.6757723 1909.90681093 -820.37437439 1909.84101868 C-821.09690863 1909.84002311 -821.81944287 1909.83902754 -822.56387209 1909.83800181 C-838.26781803 1909.8163415 -853.97176296 1909.79401867 -869.67570699 1909.77101372 C-877.37731034 1909.75973555 -885.0789139 1909.74860372 -892.78051758 1909.73754883 C-893.54690534 1909.73644626 -894.31329309 1909.7353437 -895.10290472 1909.73420772 C-919.92798306 1909.69856162 -944.75306005 1909.67257258 -969.57815477 1909.65161031 C-995.09666605 1909.63001138 -1020.61514717 1909.59863222 -1046.13363075 1909.55500887 C-1049.74085029 1909.54884694 -1053.34807 1909.54279641 -1056.95528984 1909.53681374 C-1057.66521784 1909.53563285 -1058.37514584 1909.53445197 -1059.10658682 1909.53323531 C-1070.5182563 1909.51453947 -1081.92991123 1909.50610362 -1093.34159415 1909.50153876 C-1104.82401205 1909.4967254 -1116.30636083 1909.48078172 -1127.78875203 1909.45433434 C-1134.00617836 1909.44033668 -1140.22351305 1909.43114212 -1146.44095612 1909.43499184 C-1152.13927167 1909.43841306 -1157.83739179 1909.42797377 -1163.53566735 1909.40676448 C-1165.59109562 1909.40151531 -1167.64654428 1909.40124189 -1169.70197225 1909.40660437 C-1184.85538939 1909.4420947 -1198.49782669 1907.91326264 -1212.9375 1903 C-1214.24448853 1902.55877808 -1214.24448853 1902.55877808 -1215.57788086 1902.10864258 C-1226.73763408 1898.20761881 -1237.3639892 1893.12999052 -1248 1888 C-1248.8647998 1887.58878906 -1249.72959961 1887.17757813 -1250.62060547 1886.75390625 C-1271.62151734 1876.74761354 -1291.49702637 1864.6445728 -1311 1852 C-1312.06992188 1851.30648438 -1313.13984375 1850.61296875 -1314.2421875 1849.8984375 C-1345.86637603 1829.07275237 -1377.36613651 1805.89105838 -1401 1776 C-1401.88414584 1774.93795694 -1402.7709935 1773.87815886 -1403.66015625 1772.8203125 C-1417.19821275 1756.55935008 -1428.76691703 1738.50194668 -1439 1720 C-1439.43618652 1719.21657227 -1439.87237305 1718.43314453 -1440.32177734 1717.62597656 C-1462.22778896 1677.97617318 -1474.86212222 1634.71269206 -1481 1590 C-1481.13422363 1589.02869141 -1481.26844727 1588.05738281 -1481.40673828 1587.05664062 C-1493.73552429 1492.37988732 -1463.56446835 1391.20082684 -1405.75 1316 C-1404.17480102 1313.99358713 -1402.59188478 1311.99320027 -1401 1310 C-1399.89591797 1308.60587891 -1399.89591797 1308.60587891 -1398.76953125 1307.18359375 C-1393.95889462 1301.19796977 -1388.89155308 1295.50552382 -1383.6640625 1289.88671875 C-1381.35026117 1287.3795352 -1379.11051799 1284.82645606 -1376.875 1282.25 C-1366.97270479 1271.22568213 -1355.73792603 1261.02804097 -1344 1252 C-1343.29536621 1251.45520996 -1342.59073242 1250.91041992 -1341.86474609 1250.34912109 C-1278.87891151 1201.81017054 -1205.10796844 1176.08629638 -1125.6875 1173.4375 C-1123.84381836 1173.37272461 -1123.84381836 1173.37272461 -1121.96289062 1173.30664062 C-1118.97533435 1173.20201803 -1115.98770307 1173.10031321 -1113 1173 C-1113.07087043 1173.63367146 -1113.14174086 1174.26734293 -1113.21475887 1174.92021656 C-1113.99846027 1182.57201914 -1114.13578733 1190.13756697 -1114.11352539 1197.82495117 C-1114.11324262 1199.1763102 -1114.113403 1200.52766938 -1114.1139679 1201.87902832 C-1114.11425236 1205.51257235 -1114.10841274 1209.14608271 -1114.10139394 1212.77961898 C-1114.09510162 1216.58991938 -1114.09455198 1220.40022072 -1114.09336853 1224.21052551 C-1114.09027243 1231.4102327 -1114.08208246 1238.60992452 -1114.07201904 1245.80962497 C-1114.06080418 1254.01286575 -1114.05533397 1262.2161073 -1114.05032361 1270.41935384 C-1114.03989824 1287.27957819 -1114.02233244 1304.13978713 -1114 1321 C-1114.87594315 1320.99483368 -1115.75188629 1320.98966736 -1116.65437317 1320.98434448 C-1118.39130684 1320.97831711 -1118.39130684 1320.97831711 -1120.16333008 1320.97216797 C-1121.30739822 1320.96700165 -1122.45146637 1320.96183533 -1123.63020325 1320.95651245 C-1128.37057707 1321.01768743 -1132.99380987 1321.48917417 -1137.6875 1322.125 C-1138.6573584 1322.25551758 -1139.6272168 1322.38603516 -1140.62646484 1322.52050781 C-1198.47084386 1330.83269992 -1253.98369592 1358.47621082 -1289.61328125 1405.76953125 C-1290.41039632 1406.84521309 -1291.20609182 1407.92194914 -1292 1409 C-1292.63292969 1409.84949219 -1293.26585937 1410.69898438 -1293.91796875 1411.57421875 C-1321.18061384 1449.31769765 -1335.55341928 1495.6842664 -1335.3125 1542.125 C-1335.31034485 1542.88246521 -1335.3081897 1543.63993042 -1335.30596924 1544.42034912 C-1335.05973913 1598.7347248 -1315.50836283 1652.19443434 -1277.47460938 1691.47412109 C-1276.45365211 1692.53057522 -1275.43976855 1693.59389417 -1274.43164062 1694.66259766 C-1213.11108767 1759.6279505 -1122.27538022 1765.39419497 -1038.46408463 1767.91180801 C-1016.45768075 1768.47206813 -994.4283132 1768.34629941 -972.41601992 1768.31535864 C-970.16199918 1768.31246729 -967.90797928 1768.31046352 -965.65395737 1768.30873489 C-912.74873588 1768.26701111 -859.95264951 1767.33315501 -807.08841705 1765.16701508 C-802.64256168 1764.985125 -798.19662186 1764.8053421 -793.75067139 1764.62579346 C-792.53630954 1764.57675129 -792.53630954 1764.57675129 -791.29741514 1764.52671838 C-789.617877 1764.4588974 -787.9383387 1764.39108018 -786.25880027 1764.32326651 C-770.75444742 1763.6970703 -755.250238 1763.06737284 -739.74609375 1762.43603516 C-705.46545604 1761.04024916 -671.18466052 1759.64864226 -636.90305007 1758.27693009 C-631.94630635 1758.07843598 -626.98963981 1757.87813989 -622.03302002 1757.67657471 C-565.51755164 1755.38153937 -509.05636175 1754.72774268 -452.50026655 1754.68951941 C-449.96550981 1754.68752207 -447.43075548 1754.6846722 -444.89599991 1754.68153763 C-404.88845807 1754.63365215 -364.96433457 1754.89095417 -325 1757 C-324.23272205 1757.03987156 -323.46544411 1757.07974312 -322.67491531 1757.12082291 C-313.54781644 1757.59713776 -304.42912683 1758.16605068 -295.3125 1758.8125 C-294.10402405 1758.89648041 -292.8955481 1758.98046082 -291.65045166 1759.06698608 C-225.0659816 1763.72525867 -158.68309299 1772.19659353 -94 1789 C-92.7919873 1789.30873047 -91.58397461 1789.61746094 -90.33935547 1789.93554688 C-59.70036288 1797.81283645 -29.95620867 1808.27945952 -1 1821 C-0.10442383 1821.39251953 0.79115234 1821.78503906 1.71386719 1822.18945312 C38.36428469 1838.44349045 70.92819984 1862.15739714 103.20898438 1885.60449219 C118.13790546 1896.44212466 133.09432263 1907.25192398 148.5625 1917.3125 C149.27092041 1917.77479004 149.97934082 1918.23708008 150.70922852 1918.71337891 C153.4490929 1920.47561216 155.89628051 1921.96542684 159 1923 C159.36649658 1921.91509277 159.73299316 1920.83018555 160.1105957 1919.71240234 C174.48793371 1877.1959147 189.91460556 1835.65160825 209 1795 C209.44408203 1794.04480469 209.88816406 1793.08960938 210.34570312 1792.10546875 C216.56010636 1778.7467372 223.21988971 1765.71954868 230.40673828 1752.85839844 C232.05320931 1749.90453959 233.68182795 1746.94131349 235.30859375 1743.9765625 C247.21254846 1722.37775729 260.01928116 1701.32049924 274 1681 C274.54333984 1680.20964355 275.08667969 1679.41928711 275.64648438 1678.60498047 C292.29471492 1654.46314786 309.89747029 1631.18205498 328.90527344 1608.84887695 C331.90703776 1605.31574769 334.84156468 1601.73581256 337.75 1598.125 C340.76459448 1594.41844344 343.8855602 1590.99182091 347.3203125 1587.67578125 C349.14377893 1585.85655544 350.82018279 1583.95232089 352.5 1582 C355.25490389 1578.8023437 358.14927452 1575.82413562 361.16186523 1572.87084961 C362.91373448 1571.08780087 364.53931997 1569.24971096 366.16015625 1567.34765625 C370.22311409 1562.67649049 374.55025786 1558.30252826 378.9375 1553.9375 C379.69740234 1553.17373047 380.45730469 1552.40996094 381.24023438 1551.62304688 C385.4370903 1547.43335894 389.7126816 1543.4055504 394.22680664 1539.55883789 C396.06542133 1537.94248724 397.78631185 1536.24755145 399.5 1534.5 C403.16270803 1530.7881281 407.03979429 1527.38988482 411 1524 C412.05482382 1523.09260636 413.10949986 1522.18504092 414.1640625 1521.27734375 C417.17123864 1518.69152021 420.18464804 1516.11307973 423.20068359 1513.53759766 C424.3608226 1512.54620614 425.52007095 1511.55377096 426.67822266 1510.56005859 C434.9421607 1503.469933 443.38256326 1496.65515051 452 1490 C452.77907715 1489.39494629 453.5581543 1488.78989258 454.36083984 1488.16650391 C465.84502683 1479.25754539 477.48418197 1470.69699878 489.57128906 1462.62402344 C492.09272923 1460.93799409 494.60528671 1459.23926564 497.1171875 1457.5390625 C572.72679056 1406.53079297 656.61301435 1368.55893747 745 1346 C745.70324402 1345.82015564 746.40648804 1345.64031128 747.13104248 1345.45501709 C791.99255793 1334.03057573 837.85477928 1326.62733576 884 1323 C885.30582031 1322.89558594 886.61164062 1322.79117187 887.95703125 1322.68359375 C929.0854098 1319.49000343 970.88557676 1319.65542945 1012 1323 C1012.77829163 1323.06316406 1013.55658325 1323.12632813 1014.35845947 1323.19140625 C1090.85189975 1329.49520581 1162.52466866 1344.9333164 1232.64111328 1376.60205078 C1316.47903249 1415.15082244 1316.47903249 1415.15082244 1406 1407 C1438.75290653 1394.25133504 1469.32072599 1374.44486494 1497 1353 C1497.53898926 1352.58572754 1498.07797852 1352.17145508 1498.63330078 1351.74462891 C1516.25643178 1338.18721597 1532.62874235 1323.43601509 1548.375 1307.75 C1549.21949707 1306.91017578 1550.06399414 1306.07035156 1550.93408203 1305.20507812 C1555.82973046 1300.29681955 1560.49396232 1295.26621117 1565 1290 C1565.92545246 1288.95168301 1566.85245346 1287.90473033 1567.78125 1286.859375 C1588.25957954 1263.56405932 1606.2137848 1237.25916522 1621 1210 C1621.48130371 1209.11425293 1621.96260742 1208.22850586 1622.45849609 1207.31591797 C1661.99732374 1134.06063094 1681.20857697 1052.82355448 1681.25 969.8125 C1681.25067474 968.59446686 1681.25134949 967.37643372 1681.25204468 966.12149048 C1681.23406054 945.60191993 1680.49573345 925.36889033 1678 905 C1677.91514343 904.29991821 1677.83028687 903.59983643 1677.74285889 902.87854004 C1668.97614242 831.27520784 1647.04107427 760.37966808 1611.41748047 697.50830078 C1610.09578751 695.16950067 1608.79755477 692.81923241 1607.50390625 690.46484375 C1595.77660423 669.39357482 1582.01218078 648.87245584 1567 630 C1566.48421387 629.34966797 1565.96842773 628.69933594 1565.43701172 628.02929688 C1550.77286155 609.61446601 1535.23485384 592.18172833 1518.625 575.5 C1517.88813965 574.7584668 1517.1512793 574.01693359 1516.39208984 573.25292969 C1511.7560628 568.6304919 1506.96304382 564.26674376 1502 560 C1500.84348344 558.97833545 1499.68848865 557.95494521 1498.53515625 556.9296875 C1489.35358761 548.82668058 1479.82985289 541.29872075 1470 534 C1469.29004883 533.46906738 1468.58009766 532.93813477 1467.84863281 532.39111328 C1400.85746882 482.42876898 1320.39982164 450.89305352 1132 438.5625 C1127.6597654 439.19954802 1123.33540988 439.9044305 1119.01342773 440.65496826 C1116.87866952 441.02079184 1114.74163372 441.36970646 1112.60351562 441.71533203 C1086.46588402 445.95526333 1060.68978445 451.60374532 1035 458 C1034.19647095 458.20002625 1033.39294189 458.40005249 1032.56506348 458.60614014 C947.16339991 477.65874902 947.16339991 477.65874902 879 527 C866.60672094 565.62840227 914.15706426 634.60915111 931.04296875 667.96484375 C932.07494545 670.00883225 933.10684667 672.05285885 934.13867188 674.09692383 C936.10819512 677.99768272 938.0915986 681.89090824 940.08398438 685.7800293 C949.44049426 704.1834523 956.32999287 723.26303285 962.6875 742.875 C962.98136597 743.77886444 963.27523193 744.68272888 963.57800293 745.61398315 C993.49032859 837.96294072 1011.91214122 934.51336301 1021 1092 C1020.36543695 1092.02176269 1019.73087391 1092.04352537 1019.07708168 1092.06594753 C1001.29364884 1092.686667 983.53695781 1093.59152621 965.7734375 1094.62890625 C963.07535604 1094.78491404 960.37723133 1094.94016791 957.67910767 1095.09544373 C951.38289851 1095.45820873 945.0868366 1095.82346385 938.79082835 1096.18969721 C931.6030532 1096.60767593 924.41511123 1097.02275147 917.2271564 1097.43762696 C902.48458814 1098.28860378 887.74222428 1099.14308412 873 1100 C872.96437958 1098.66349396 872.96437958 1098.66349396 872.92803955 1097.29998779 C872.46569728 1080.26521329 871.98938693 1063.24953656 870.75 1046.25 C870.68753082 1045.37321594 870.62506165 1044.49643188 870.56069946 1043.59307861 C864.47211795 959.06935145 848.91686565 875.44895175 677 517 C676.46181641 516.30583984 675.92363281 515.61167969 675.36914062 514.89648438 C666.33166608 503.26351261 656.98426837 491.89996098 647.43261719 480.68701172 C646.01400845 479.01649597 644.60406198 477.33898958 643.1953125 475.66015625 C635.79431571 466.88072855 628.00079938 458.51660116 620.08642578 450.19970703 C617.98475271 447.98392487 615.89484711 445.75764446 613.80859375 443.52734375 C599.95177589 428.62150474 599.95177589 428.62150474 585.02734375 414.80859375 C582.58571366 412.63041508 580.29951968 410.32751992 578 408 C574.46686601 404.42916488 570.86626905 401.03448775 567.05078125 397.76953125 C564.72433417 395.76213977 562.45807314 393.69533362 560.1875 391.625 C555.89040173 387.74649273 551.46241246 384.07134032 546.9609375 380.43359375 C544.30230944 378.24846805 541.6995161 376.0160025 539.10546875 373.75561523 C532.08943656 367.6512317 524.83167676 361.94928942 517.41015625 356.34765625 C513.70761576 353.55125735 510.05804565 350.69332263 506.41674805 347.81787109 C478.93168546 326.17537849 449.15402769 306.7058798 419 289 C417.99517578 288.40703125 416.99035156 287.8140625 415.95507812 287.203125 C399.21369636 277.34672708 382.22050818 267.98837374 365 259 C363.94941406 258.45134277 362.89882812 257.90268555 361.81640625 257.33740234 C290.04891264 220.1074494 212.36004163 193.31549773 1.125 153.6875 C-0.02471786 153.57418839 -0.02471786 153.57418839 -1.19766235 153.45858765 C-30.83281856 150.59082498 -60.53796919 149.61322194 -90.29718018 149.68194199 C-92.8024502 149.68761885 -95.30771335 149.69041658 -97.81298828 149.69302368 C-125.29479276 149.73449281 -152.62185527 150.44800336 -180 153 Z M1829 1034 C1828.56832371 1036.14009332 1828.19130519 1038.29123319 1827.8359375 1040.4453125 C1827.60282672 1041.83047952 1827.36924372 1043.21556714 1827.13525391 1044.60058594 C1827.01192688 1045.33692261 1826.88859985 1046.07325928 1826.76153564 1046.83190918 C1823.80328393 1064.38149342 1820.21295401 1081.70399948 1816 1099 C1815.71463379 1100.17820312 1815.42926758 1101.35640625 1815.13525391 1102.5703125 C1806.98983462 1135.72166364 1796.28754994 1168.55247136 1783 1200 C1782.55591797 1201.05203613 1782.11183594 1202.10407227 1781.65429688 1203.18798828 C1757.00555456 1261.13026564 1725.55629825 1315.90794708 1686 1365 C1685.25363281 1365.92941406 1684.50726562 1366.85882812 1683.73828125 1367.81640625 C1675.52209771 1377.95019098 1667.03178961 1387.87426 1658.24584961 1397.51855469 C1656.89457197 1399.01158501 1655.55215226 1400.51280416 1654.22753906 1402.02954102 C1647.1052541 1410.13594633 1639.44428853 1417.70670062 1631.80688477 1425.32348633 C1629.43585437 1427.6891419 1627.07023578 1430.06011514 1624.70507812 1432.43164062 C1623.17740396 1433.95865417 1621.64941972 1435.48535757 1620.12109375 1437.01171875 C1619.42503525 1437.70980148 1618.72897675 1438.40788422 1618.01182556 1439.12712097 C1613.50091006 1443.61684782 1608.82942136 1447.85645523 1604 1452 C1602.84401037 1453.01052832 1601.68890097 1454.02206562 1600.53515625 1455.03515625 C1585.73570022 1467.96005688 1570.5956105 1480.29860549 1554.7734375 1491.95556641 C1552.72205729 1493.467737 1550.67599914 1494.98612381 1548.6328125 1496.50927734 C1540.04887243 1502.88512646 1531.2901273 1508.94425252 1522.37353516 1514.84472656 C1520.23485706 1516.26002101 1518.09959027 1517.68034636 1515.96484375 1519.1015625 C1508.36364243 1524.15456659 1500.72816849 1529.14264663 1493 1534 C1496.96834202 1538.02125324 1501.05334543 1541.89993605 1505.1875 1545.75 C1505.79658203 1546.31976562 1506.40566406 1546.88953125 1507.03320312 1547.4765625 C1510.60100826 1550.80404915 1514.20771231 1554.08012487 1517.8515625 1557.32421875 C1523.1358446 1562.06943247 1528.17799848 1567.02989547 1533.1875 1572.0625 C1534.03763672 1572.90876953 1534.88777344 1573.75503906 1535.76367188 1574.62695312 C1540.13577937 1579.00581291 1544.35654768 1583.45044435 1548.38891602 1588.14379883 C1550.96603986 1591.11301728 1553.67784052 1593.95277653 1556.375 1596.8125 C1560.96681163 1601.72459458 1565.36592857 1606.72493276 1569.5703125 1611.9765625 C1571.44041024 1614.30366162 1573.32980909 1616.60645253 1575.2421875 1618.8984375 C1582.60649073 1627.73355857 1589.71637004 1636.70111116 1596.515625 1645.97851562 C1597.99079349 1647.98746219 1599.47925628 1649.98603591 1600.96875 1651.984375 C1615.86163887 1672.124487 1629.41222887 1693.35386478 1642 1715 C1642.46889648 1715.79647949 1642.93779297 1716.59295898 1643.42089844 1717.41357422 C1652.56605963 1732.95293826 1660.89014299 1748.90314591 1669 1765 C1669.82951172 1766.64282959 1669.82951172 1766.64282959 1670.67578125 1768.31884766 C1711.48612354 1849.67888224 1737.04279426 1938.72710148 1754.76617432 2032.47225952 C1756.11518959 2039.66086822 1757.54717943 2046.83168751 1759 2054 C1766.92645343 2055.4387204 1774.77625678 2056.44614625 1782.80859375 2057.03515625 C1783.89600357 2057.11873886 1784.98341339 2057.20232147 1786.10377502 2057.28843689 C1788.39182472 2057.46316009 1790.68007362 2057.63529236 1792.96850586 2057.80493164 C1796.3981374 2058.05957738 1799.82700298 2058.32303321 1803.25585938 2058.58789062 C1809.83514247 2059.09065471 1816.41656228 2059.55521195 1823 2060 C1823.83542328 2060.05835022 1824.67084656 2060.11670044 1825.53158569 2060.17681885 C1845.62066008 2061.53354637 1865.81339735 2061.24580929 1885.9375 2061.25 C1886.90873936 2061.25044186 1887.87997871 2061.25088371 1888.88064957 2061.25133896 C1917.48682147 2061.25816014 1945.9669807 2061.09905104 1974.4588623 2058.25323486 C1977.12323945 2057.98771868 1979.78855285 2057.73344712 1982.45410156 2057.47998047 C2021.45299474 2053.7203128 2059.92213067 2047.21310348 2098 2038 C2098.64954651 2037.84335876 2099.29909302 2037.68671753 2099.96832275 2037.52532959 C2143.41126581 2027.00244964 2186.10331704 2011.56263051 2225.85839844 1991.09960938 C2227.35654263 1990.33038441 2228.85743269 1989.56649452 2230.36035156 1988.80664062 C2265.40279628 1971.08623542 2298.66809789 1948.85440232 2327.59375 1922.1953125 C2328.92039672 1920.98496273 2330.25498487 1919.78252758 2331.62133789 1918.6171875 C2337.62020452 1913.48886059 2343.21378678 1907.97234616 2348.7902832 1902.39501953 C2350.42575882 1900.76172552 2352.06907708 1899.1366153 2353.71289062 1897.51171875 C2359.47698394 1891.77816008 2364.86664479 1885.936231 2369.93383789 1879.56323242 C2371.92547761 1877.09245073 2373.99566945 1874.73133135 2376.125 1872.37890625 C2379.99258427 1868.06895748 2383.53758636 1863.57705812 2387 1858.9375 C2387.63373535 1858.08969971 2388.2674707 1857.24189941 2388.92041016 1856.3684082 C2400.13233272 1841.20361702 2410.70764147 1825.42128995 2420 1809 C2420.43699219 1808.23139648 2420.87398437 1807.46279297 2421.32421875 1806.67089844 C2464.09122054 1731.00845623 2488.57044842 1644.40210641 2475.32421875 1403.30078125 C2468.10718918 1377.79699255 2458.93427534 1353.13362412 2448 1329 C2447.45182617 1327.76926758 2447.45182617 1327.76926758 2446.89257812 1326.51367188 C2435.06885827 1299.98520881 2419.96434539 1274.55162426 2403 1251 C2402.44280273 1250.22640137 2401.88560547 1249.45280273 2401.31152344 1248.65576172 C2394.47657115 1239.20590824 2387.53771756 1229.90334312 2380 1221 C2379.13096145 1219.95748863 2378.26250152 1218.91449472 2377.39453125 1217.87109375 C2371.59134733 1210.92172937 2365.59928583 1204.17938601 2359.43554688 1197.54882812 C2357.92454044 1195.9185858 2356.42242304 1194.28049619 2354.921875 1192.640625 C2347.6954461 1184.75168851 2340.44670641 1177.0182008 2332.3203125 1170.0390625 C2329.95969333 1167.96457899 2327.66073833 1165.83546646 2325.36450195 1163.69042969 C2319.11155047 1157.85349201 2312.68907803 1152.33693508 2306 1147 C2304.87030792 1146.07908815 2303.74144468 1145.15715889 2302.61328125 1144.234375 C2271.99082298 1119.29208901 2238.23974781 1098.72336368 2203 1081 C2202.04109863 1080.51321777 2201.08219727 1080.02643555 2200.09423828 1079.52490234 C2141.79880045 1050.08129213 2076.84754006 1032.05823565 2012 1025 C2010.98335266 1024.88881836 2010.98335266 1024.88881836 2009.94616699 1024.77539062 C1983.4307252 1021.91595707 1847.6526385 1015.3473615 1829 1034 Z M864 1474 C862.95791382 1474.09474609 862.95791382 1474.09474609 861.89477539 1474.19140625 C783.53266529 1481.39792962 706.54144388 1500.74253533 627 1540 C625.91203125 1540.54269531 624.8240625 1541.08539062 623.703125 1541.64453125 C585.50188015 1560.79174056 549.75824146 1584.57031845 517 1612 C516.39317383 1612.50772949 515.78634766 1613.01545898 515.16113281 1613.53857422 C507.13300945 1620.28211119 499.34799974 1627.25807994 491.69482422 1634.42285156 C489.93340028 1636.06197554 488.1576471 1637.68438275 486.37890625 1639.3046875 C477.75230611 1647.19886176 469.6626762 1655.47218652 461.75927734 1664.08789062 C460.08549071 1665.90708253 458.39918493 1667.7135248 456.70703125 1669.515625 C451.39148852 1675.18974276 446.26190578 1680.94675441 441.39453125 1687.015625 C439.61759315 1689.23027542 437.82504198 1691.42492381 436.01171875 1693.609375 C428.47018604 1702.72654527 421.41439171 1712.11113361 414.58203125 1721.76953125 C413.04436565 1723.93744991 411.49292349 1726.09479881 409.9375 1728.25 C369.26968169 1784.83532773 339.93613763 1849.06451641 318.26199341 1915.06164551 C317.65812472 1916.89920234 317.04692451 1918.73434511 316.43530273 1920.56933594 C310.9159713 1937.69043137 307.53632157 1955.29937326 304.875 1973.0625 C304.58877229 1974.92753814 304.30221752 1976.79252612 304.01538086 1978.6574707 C302.03915162 1991.61432958 300.20367087 2004.59040137 298.38671875 2017.5703125 C278.57140679 2159.01596064 278.57140679 2159.01596064 257 2177 C241.58561555 2186.80915374 219.15042067 2188.61480848 201.62036133 2184.8659668 C189.06738957 2181.77725687 177.52001151 2176.47861153 167 2169 C166.01515625 2168.31292969 165.0303125 2167.62585937 164.015625 2166.91796875 C155.70720888 2160.87283166 148.44644717 2153.7374452 141.1875 2146.5 C140.69963013 2146.01571533 140.21176025 2145.53143066 139.70910645 2145.0324707 C133.01664064 2138.3664796 126.88337612 2131.3902139 121 2124 C120.13550214 2122.96171515 119.26686162 2121.92683497 118.390625 2120.8984375 C113.03406402 2114.58395138 107.96770784 2108.09431055 102.96459961 2101.49853516 C98.83241894 2096.05970015 94.60110269 2090.71085106 90.31567383 2085.39233398 C87.09265614 2081.38561354 83.93234214 2077.33746121 80.8125 2073.25 C63.2432264 2050.28224958 43.94407652 2026.78019229 21 2009 C20.4215332 2008.55043945 19.84306641 2008.10087891 19.24707031 2007.63769531 C-18.91645848 1978.11043914 -61.72377236 1955.4704761 -107 1939 C-107.95745117 1938.6484082 -108.91490234 1938.29681641 -109.90136719 1937.93457031 C-155.40362679 1921.40698558 -204.68260645 1913.12453205 -253 1912 C-254.27327148 1911.96712891 -254.27327148 1911.96712891 -255.57226562 1911.93359375 C-340.96339976 1910.03178675 -424.7705741 1931.88602931 -537 1993 C-538.18070068 1993.78093018 -538.18070068 1993.78093018 -539.38525391 1994.57763672 C-557.73118466 2006.77488075 -575.36930812 2020.02927059 -591.66015625 2034.87890625 C-593.78804815 2036.80786335 -595.94720859 2038.69036353 -598.125 2040.5625 C-601.60433806 2043.58679385 -604.83248742 2046.81086611 -608.0625 2050.09765625 C-609.83246478 2051.83550473 -611.64906999 2053.42398287 -613.5625 2055 C-616.82143341 2057.72686265 -619.51172187 2060.77352798 -622.2578125 2064.0078125 C-623.89073643 2065.87505735 -625.58929139 2067.59262396 -627.375 2069.3125 C-631.16506324 2073.03473213 -634.4328778 2077.12514174 -637.7578125 2081.26171875 C-639.71071899 2083.6467143 -641.72441782 2085.92180087 -643.8125 2088.1875 C-649.6892476 2094.74812947 -654.82529736 2101.88306609 -660 2109 C-660.56025879 2109.76779785 -661.12051758 2110.5355957 -661.69775391 2111.32666016 C-670.96531861 2124.09280254 -679.23906516 2137.27056474 -687 2151 C-687.5347998 2151.9379541 -688.06959961 2152.8759082 -688.62060547 2153.84228516 C-721.02471969 2210.95100794 -740.68271572 2276.34378908 -744 2342 C-744.06058594 2343.18464844 -744.12117188 2344.36929688 -744.18359375 2345.58984375 C-744.25413727 2348.74770375 -744.16494524 2351.84498368 -744 2355 C-743.95891113 2355.81130371 -743.91782227 2356.62260742 -743.87548828 2357.45849609 C-741.46431811 2401.19080621 -725.73196622 2439.1620988 -706.75628662 2478.03894043 C-686.30087768 2519.96685831 -672.57015324 2563.13778528 -683 2610 C-683.22816406 2611.18464844 -683.45632813 2612.36929688 -683.69140625 2613.58984375 C-685.55151555 2622.35893047 -688.6574677 2626.55948221 -695.9375 2631.5625 C-722.39666864 2647.53651937 -757.34972141 2646.15761885 -787.15234375 2645.9921875 C-788.28891356 2645.98643581 -788.28891356 2645.98643581 -789.44844437 2645.98056793 C-796.52946784 2645.94385021 -803.61038949 2645.89921902 -810.69116211 2645.82861328 C-829.34757998 2645.64914825 -847.54692635 2645.79927633 -866 2649 C-867.03240311 2649.17773956 -867.03240311 2649.17773956 -868.08566284 2649.35906982 C-871.91984563 2650.04111047 -875.71013594 2650.8563699 -879.5 2651.75 C-880.61834229 2652.00821533 -881.73668457 2652.26643066 -882.88891602 2652.5324707 C-931.58706537 2664.01006799 -977.33212128 2684.68620403 -1015 2718 C-1015.8353125 2718.72445312 -1016.670625 2719.44890625 -1017.53125 2720.1953125 C-1028.60137156 2729.93558179 -1038.97137874 2740.33046575 -1048 2752 C-1048.79792969 2753.00417969 -1049.59585938 2754.00835938 -1050.41796875 2755.04296875 C-1100.32560578 2818.23467285 -1118.44712729 2900.38765182 -1109.609375 2979.49658203 C-1105.28448961 3013.53002624 -1096.28550895 3047.206775 -1081 3078 C-1080.52723633 3078.96711914 -1080.05447266 3079.93423828 -1079.56738281 3080.93066406 C-1061.49643466 3117.68454774 -1035.87852515 3153.02496647 -1003 3178 C-1001.80173004 3178.93835111 -1000.60384002 3179.87718751 -999.40625 3180.81640625 C-919.40625761 3242.89054864 -817.15572731 3242.39536197 -632.7976675 3234.60073853 C-624.96290856 3234.18813942 -617.12788576 3233.78086721 -609.29260349 3233.37832642 C-604.66325822 3233.14002701 -600.03471004 3232.89156451 -595.40649414 3232.63208008 C-576.06344113 3231.61038404 -556.66787968 3231.81288816 -537.30395508 3231.81469727 C-533.07214066 3231.8147784 -528.84043478 3231.80784198 -524.60864258 3231.79418945 C-500.32452253 3231.71691214 -476.20737567 3231.90295222 -452 3234 C-452.06588821 3233.32357956 -452.13177643 3232.64715912 -452.19966125 3231.95024109 C-459.1182832 3160.06734815 -453.20103446 3081.42675048 -405.796875 3023.3203125 C-401.38986413 3018.03251755 -396.74418539 3012.98504403 -392 3008 C-391.34773438 3007.29488281 -390.69546875 3006.58976562 -390.0234375 3005.86328125 C-383.96312044 2999.50639548 -376.99217534 2994.2767965 -370 2989 C-369.43506836 2988.56896973 -368.87013672 2988.13793945 -368.28808594 2987.69384766 C-358.73812742 2980.44626078 -348.63867561 2974.50875704 -338 2969 C-337.2565332 2968.61457031 -336.51306641 2968.22914062 -335.74707031 2967.83203125 C-290.32522095 2944.61597915 -236.8744041 2934.98362653 -186.15234375 2934.796875 C-184.87283844 2934.79004196 -183.59333313 2934.78320892 -182.27505493 2934.77616882 C-178.16253433 2934.7572574 -174.05005809 2934.75276656 -169.9375 2934.75 C-169.2380061 2934.748969 -168.53851219 2934.747938 -167.8178215 2934.74687576 C-146.43575239 2934.71727264 -125.27985934 2935.33686179 -104.00454712 2937.61393738 C-99.85383324 2938.03423158 -95.6990929 2938.301238 -91.53491211 2938.54711914 C-90.44058491 2938.61355999 -90.44058491 2938.61355999 -89.32415009 2938.68134308 C-87.54951386 2938.78889817 -85.774768 2938.89464168 -84 2939 C-83.99940291 2938.10255648 -83.99880582 2937.20511296 -83.99819064 2936.28047419 C-83.9622778 2883.06201848 -83.90560976 2829.84361923 -83.82207905 2776.62521586 C-83.81206188 2770.23175221 -83.8022177 2763.8382883 -83.79248047 2757.44482422 C-83.7905391 2756.17202868 -83.78859772 2754.89923314 -83.78659752 2753.58786803 C-83.75559696 2732.99309313 -83.73860229 2712.39832936 -83.72680578 2691.80353552 C-83.71438416 2670.66315454 -83.68685989 2649.52283191 -83.64538693 2628.38248777 C-83.62028056 2615.34327116 -83.60688064 2602.30415134 -83.60857043 2589.26491022 C-83.60860024 2580.31706828 -83.59392805 2571.36932476 -83.56783572 2562.42152119 C-83.55322336 2557.26314872 -83.54495802 2552.10497807 -83.55419731 2546.94658852 C-83.56252892 2542.21468202 -83.5522076 2537.48317973 -83.52766338 2532.75133294 C-83.52201389 2531.04851124 -83.52294166 2529.34565079 -83.53148755 2527.64284116 C-83.59687186 2513.38154078 -81.51198692 2500.14490186 -75.4375 2487.0625 C-74.93259033 2485.95418823 -74.93259033 2485.95418823 -74.41748047 2484.82348633 C-66.08891143 2467.17538716 -53.72108822 2451.67402948 -40.41748047 2437.54663086 C-38.78760631 2435.76825455 -37.22294579 2433.94026722 -35.65234375 2432.109375 C-32.07578224 2428.00446333 -28.24144126 2424.26065288 -24.25 2420.5625 C-23.19087402 2419.57830078 -23.19087402 2419.57830078 -22.11035156 2418.57421875 C-16.58436901 2413.47408711 -10.95352432 2408.5984311 -5 2404 C-4.30455078 2403.45907715 -3.60910156 2402.9181543 -2.89257812 2402.36083984 C65.34625635 2349.47716358 134.85682765 2348.68902304 218 2346 C218.85454773 2345.9720636 219.70909546 2345.9441272 220.58953857 2345.91534424 C231.44606809 2345.56268772 242.30333803 2345.2960818 253.16298866 2345.06134224 C255.059887 2345.02032725 256.95677703 2344.97892664 258.85365868 2344.93714714 C304.45246042 2343.9384316 350.04081557 2343.84314082 395.64865851 2343.87143117 C402.43114198 2343.87519982 409.21361082 2343.87384028 415.99609375 2343.86962891 C462.34158486 2343.84162959 508.66356885 2344.0080772 555 2345 C556.83278293 2345.03823983 558.66556689 2345.07643038 560.49835205 2345.11456299 C570.70837179 2345.32968469 580.91681488 2345.58626528 591.125 2345.875 C591.855765 2345.89538582 592.58653 2345.91577164 593.33943939 2345.93677521 C781.08424615 2351.17453559 781.08424615 2351.17453559 817 2369 C817.62471191 2369.30421875 818.24942383 2369.6084375 818.89306641 2369.921875 C854.19697259 2387.26607872 889.46193724 2417.88757081 913 2449 C913.76699219 2449.95003906 914.53398437 2450.90007813 915.32421875 2451.87890625 C933.5386347 2474.72555985 946.6666181 2498.30170962 946.51898193 2527.97006226 C946.52486832 2529.75169078 946.53250114 2531.53331422 946.541713 2533.31492865 C946.56185411 2538.17466336 946.55745067 2543.03410416 946.54880548 2547.89386129 C946.54384055 2553.14795767 946.56197041 2558.40198211 946.57722473 2563.65605164 C946.60049138 2572.74714206 946.60928729 2581.83815282 946.60811615 2590.9292717 C946.60644404 2604.07331203 946.62681093 2617.21724643 946.65247145 2630.36125846 C946.69351422 2651.689076 946.71685566 2673.01687443 946.72900391 2694.34472656 C946.74083937 2715.0566593 946.7610496 2735.76855608 946.79248047 2756.48046875 C946.79441657 2757.75821172 946.79635267 2759.0359547 946.79834744 2760.35241716 C946.8081123 2766.76279506 946.81804136 2773.17317269 946.82805204 2779.58355021 C946.91082332 2832.72234918 946.96484113 2885.86114966 947 2939 C949.51249263 2938.85090388 952.02482272 2938.69961665 954.53710938 2938.54711914 C955.2381781 2938.50574074 955.93924683 2938.46436234 956.66156006 2938.42173004 C961.25930017 2938.14054881 965.82629913 2937.7390028 970.40625 2937.24609375 C1011.32024016 2933.03417132 1055.22844249 2932.01105669 1096 2938 C1097.23008789 2938.17160645 1098.46017578 2938.34321289 1099.72753906 2938.52001953 C1153.78470536 2946.20616554 1208.16114526 2963.79644877 1248.67578125 3001.828125 C1250.65065878 3003.67355677 1252.66242492 3005.41069993 1254.75 3007.125 C1258.59392904 3010.40684507 1261.79298365 3014.10262788 1265 3018 C1266.22009766 3019.46373047 1266.22009766 3019.46373047 1267.46484375 3020.95703125 C1302.02885852 3063.16476806 1316.63824781 3117.15404895 1318 3171 C1318.02191406 3171.82516113 1318.04382812 3172.65032227 1318.06640625 3173.50048828 C1318.37110127 3187.16859922 1317.69895696 3200.7286838 1316.71166992 3214.35424805 C1316.62119385 3215.60633057 1316.53071777 3216.85841309 1316.4375 3218.1484375 C1316.35371094 3219.25364746 1316.26992187 3220.35885742 1316.18359375 3221.49755859 C1316.03914834 3224.25316213 1315.98113649 3226.96215455 1315.98852539 3229.71890259 C1315.99018204 3230.52261103 1315.99183868 3231.32631947 1315.99354553 3232.15438271 C1315.99567551 3232.76343641 1315.99780548 3233.37249012 1316 3234 C1369.83607805 3234.09162465 1423.67214821 3234.16207382 1477.50828894 3234.20426132 C1483.86913286 3234.20926394 1490.22997662 3234.21444125 1496.59082031 3234.21972656 C1497.85711 3234.2207758 1499.12339969 3234.22182505 1500.4280618 3234.22290608 C1520.91158114 3234.24029488 1541.39505543 3234.27182418 1561.87854807 3234.30861118 C1582.90816295 3234.34606303 1603.93775429 3234.36824483 1624.96740115 3234.37635398 C1637.93601163 3234.38183294 1650.90449471 3234.3991162 1663.87306596 3234.43166587 C1672.77510351 3234.45286615 1681.67707553 3234.45918758 1690.57913648 3234.45400551 C1695.70942874 3234.45145231 1700.83949893 3234.45527027 1705.96975136 3234.4768219 C1710.67828621 3234.49645619 1715.38645212 3234.49716193 1720.09500487 3234.48359558 C1721.78711147 3234.48192182 1723.47924222 3234.48685207 1725.17130212 3234.49953273 C1739.96902654 3234.60386787 1754.18124609 3232.3572301 1768.0625 3227 C1769.20223267 3226.56941284 1769.20223267 3226.56941284 1770.36499023 3226.13012695 C1813.95696519 3209.13251796 1854.99813363 3181.82569635 1889.46484375 3150.30859375 C1891.21047197 3148.71896929 1892.97476118 3147.14967642 1894.75390625 3145.59765625 C1901.2517675 3139.87700789 1906.69268794 3133.82496982 1912 3127 C1912.8822509 3125.90474615 1913.7664424 3124.81105328 1914.65234375 3123.71875 C1961.93864932 3065.08673657 1984.50432516 2987.86154296 1976.984375 2912.97998047 C1972.98954756 2877.5061756 1963.74736078 2843.10235734 1948 2811 C1947.37786621 2809.72697021 1947.37786621 2809.72697021 1946.74316406 2808.42822266 C1937.90369792 2790.53312585 1927.40215926 2773.65253929 1915 2758 C1914.28585938 2757.09378906 1913.57171875 2756.18757813 1912.8359375 2755.25390625 C1899.38655697 2738.50158598 1884.13525271 2722.01053576 1867 2709 C1865.8135063 2708.07329524 1864.62733044 2707.14618345 1863.44140625 2706.21875 C1829.1926698 2679.70150572 1789.55382705 2661.6034367 1747.3125 2652.25 C1746.47203125 2652.0634082 1745.6315625 2651.87681641 1744.765625 2651.68457031 C1741.85180351 2651.0725799 1738.9282887 2650.53895847 1736 2650 C1734.75036469 2649.74926224 1733.50072937 2649.49852448 1732.21322632 2649.2401886 C1716.39170811 2646.30950154 1700.52318959 2646.64148331 1684.50604653 2646.76168132 C1680.43393165 2646.78833634 1676.36178203 2646.79557852 1672.28959656 2646.80458069 C1662.83664431 2646.82851158 1653.38387228 2646.87512046 1643.93102264 2646.92417145 C1631.91864278 2646.98531571 1619.90624499 2647.03507412 1607.89374894 2647.06616598 C1603.86620938 2647.07719514 1599.8388013 2647.09278424 1595.81133461 2647.11976433 C1509.46472075 2647.69658248 1509.46472075 2647.69658248 1480.5 2625.5 C1469.74807168 2614.74807168 1467.04056691 2600.4439126 1466.75 2585.625 C1467.71793301 2538.02547075 1495.27942418 2491.81387341 1518.74560547 2451.97387695 C1523.58134657 2443.76176923 1528.25637119 2435.46706739 1532.890625 2427.13989258 C1536.05951069 2421.45001977 1539.26770071 2415.78756552 1542.53564453 2410.15405273 C1553.24723849 2391.65431919 1563.51286252 2372.63808721 1572 2353 C1572.46599609 2351.92709717 1572.46599609 2351.92709717 1572.94140625 2350.83251953 C1595.02354926 2298.96853892 1604.46679793 2238.9586063 1610.74285889 2183.27404785 C1610.91019962 2181.79415676 1611.0801862 2180.31456166 1611.25323486 2178.83532715 C1616.50861615 2133.90966583 1616.71590141 2085.97927047 1611.25 2041.06317139 C1610.99055682 2038.92206842 1610.74271884 2036.77982175 1610.49609375 2034.63720703 C1601.11373362 1954.2275132 1575.56794674 1874.27453644 1478 1725 C1477.51934082 1724.42024414 1477.03868164 1723.84048828 1476.54345703 1723.24316406 C1470.78117329 1716.30137247 1464.84746279 1709.55532426 1458.703125 1702.94921875 C1457.31592647 1701.45505796 1455.95846546 1699.95097746 1454.64038086 1698.39526367 C1448.83732089 1691.55472328 1442.44226292 1685.29191664 1436.09399414 1678.96362305 C1434.0673702 1676.94235732 1432.04614453 1674.91580426 1430.02539062 1672.88867188 C1423.85311069 1666.71320725 1417.68350455 1660.62727308 1411 1655 C1409.39231627 1653.54554483 1407.78760285 1652.08779105 1406.1875 1650.625 C1401.92254692 1646.78071755 1397.5513915 1643.10473095 1393.0859375 1639.49609375 C1390.85060183 1637.68801844 1388.62811795 1635.86887237 1386.4140625 1634.03515625 C1376.22551998 1625.62579153 1365.72820897 1617.70692482 1355 1610 C1354.17951172 1609.41041504 1353.35902344 1608.82083008 1352.51367188 1608.21337891 C1340.61213454 1599.69666112 1328.47932028 1591.64380484 1316 1584 C1315.17999512 1583.49726562 1314.35999023 1582.99453125 1313.51513672 1582.4765625 C1264.12406449 1552.30004386 1211.94690537 1528.00276732 1157.06799316 1509.69018555 C1155.13379315 1509.044653 1153.20111508 1508.3945653 1151.26855469 1507.74414062 C1096.70412294 1489.54075099 1039.27184901 1478.73705125 982 1474 C980.78812012 1473.89558594 979.57624023 1473.79117187 978.32763672 1473.68359375 C940.47687176 1470.53227199 901.82554079 1470.55279866 864 1474 Z M237.83959961 2495.4519043 C236.89117852 2495.47152336 235.94275744 2495.49114242 234.96559632 2495.511356 C214.15360299 2495.95431478 193.3592243 2496.82617918 172.56945801 2497.87109375 C170.09034393 2497.99546757 167.61110485 2498.11703943 165.13183594 2498.23828125 C117.23096313 2499.76251084 117.23096313 2499.76251084 77 2523 C76.41347656 2523.57621094 75.82695313 2524.15242188 75.22265625 2524.74609375 C52.15198009 2549.22566616 57.7592415 2603.73299744 57.75 2634.8125 C57.74955814 2635.49844616 57.74911629 2636.18439232 57.74866104 2636.89112473 C57.7391074 2665.40647068 58.89510318 2693.79316719 60.59826279 2722.25862217 C60.94367459 2728.03421607 61.28146974 2733.81023238 61.61669922 2739.58642578 C61.67026738 2740.50910468 61.72383554 2741.43178358 61.77902699 2742.38242245 C62.00112997 2746.20941707 62.22305798 2750.03642182 62.44495964 2753.86342812 C63.05060261 2764.30470529 63.66053478 2774.74567435 64.28588867 2785.18579102 C65.95954065 2813.19685609 67.2066089 2841.1174713 67.1875 2869.1875 C67.18789276 2870.42549347 67.18828552 2871.66348694 67.18869019 2872.93899536 C67.1802852 2895.12368905 66.20775905 2916.9224095 64 2939 C306.55 2939 549.1 2939 799 2939 C799.165 2874.629375 799.33 2810.25875 799.5 2743.9375 C799.57283203 2723.60890381 799.64566406 2703.28030762 799.72070312 2682.33569336 C799.74745785 2664.12049645 799.74745785 2664.12049645 799.7635498 2645.9052887 C799.77100601 2637.78909244 799.8003332 2629.67333741 799.84460449 2621.55726624 C799.89561593 2612.19166579 799.91866711 2602.82648809 799.9075596 2593.46074775 C799.90275084 2588.67207121 799.91024355 2583.88433883 799.95372105 2579.09583652 C799.99286945 2574.75761377 799.99445242 2570.42099596 799.96720886 2566.08269691 C799.96384115 2564.52209948 799.97377324 2562.96139823 799.99906063 2561.40100205 C800.24950564 2544.96875943 793.11864148 2533.72464975 783 2521 C782.08541016 2519.83791016 782.08541016 2519.83791016 781.15234375 2518.65234375 C768.9682472 2503.89753672 743.23393019 2504.93705492 725.38726807 2503.18641663 C687.3741091 2499.57463118 649.1522373 2498.19540939 611 2497 C610.3223643 2496.97864085 609.64472859 2496.95728171 608.94655848 2496.93527532 C541.57662146 2494.81747476 474.21483128 2494.71559234 406.81986594 2494.79680388 C395.85524834 2494.80993283 384.89065065 2494.81531332 373.92602539 2494.81469727 C373.19940284 2494.81465731 372.47278028 2494.81461735 371.72413886 2494.81457619 C370.9983592 2494.81453583 370.27257954 2494.81449548 369.52480656 2494.8144539 C355.90127715 2494.81375517 342.27775714 2494.81968829 328.65423085 2494.82860712 C323.95842166 2494.83154686 319.26261498 2494.83266647 314.56680489 2494.83313942 C288.98690518 2494.83816365 263.41462799 2494.91589353 237.83959961 2495.4519043 Z M-286 3106 C-286 3482.2 -286 3858.4 -286 4246 C187.55 4246 661.1 4246 1149 4246 C1149 3869.8 1149 3493.6 1149 3106 C675.45 3106 201.9 3106 -286 3106 Z " fill="#A56CFF" transform="translate(1818,39)"/>
<path d="M0 0 C1.1231264 0.98817643 2.25373807 1.96787079 3.38916016 2.94189453 C16.24646738 14.01962159 28.31952602 26.10072763 38.37866211 39.78881836 C39.54709949 41.35136962 40.77049831 42.8723345 41.99438477 44.3918457 C67.12371847 75.69329646 83.37096061 113.85302271 93.56860352 152.38012695 C93.9432373 153.78391602 93.9432373 153.78391602 94.32543945 155.21606445 C99.82171639 176.25590404 103.14009185 198.62454061 103.56860352 220.38012695 C103.58906738 221.25813965 103.60953125 222.13615234 103.63061523 223.04077148 C105.08393264 295.28626057 83.966391 367.64716485 35.56860352 422.38012695 C34.85575195 423.20383789 34.14290039 424.02754883 33.40844727 424.8762207 C23.39467983 436.27506998 12.65310548 447.18307236 0.56860352 456.38012695 C-0.38828369 457.12697754 -0.38828369 457.12697754 -1.36450195 457.88891602 C-34.14178326 483.41498623 -71.60163177 499.90494432 -111.49560547 510.7668457 C-113.41678165 511.21200276 -113.41678165 511.21200276 -114.43139648 512.38012695 C-114.55162947 515.2090293 -114.60691233 518.01455224 -114.62084961 520.84472656 C-114.62914291 521.73681824 -114.63743622 522.62890991 -114.64598083 523.54803467 C-114.67274247 526.54282657 -114.69256046 529.53762717 -114.71264648 532.5324707 C-114.73073992 534.65654425 -114.74934516 536.7806135 -114.76843262 538.90467834 C-114.81825074 544.56569602 -114.86257289 550.22674247 -114.90533447 555.88781738 C-115.19790437 594.3905644 -115.76760416 632.88017223 -116.43139648 671.38012695 C-165.27139648 671.38012695 -214.11139648 671.38012695 -264.43139648 671.38012695 C-265.40514907 667.48511659 -265.6036354 664.00616264 -265.63671875 660.03466797 C-265.64661551 659.29504035 -265.65651228 658.55541273 -265.66670895 657.79337215 C-265.69844856 655.32362513 -265.72322404 652.85386114 -265.74780273 650.3840332 C-265.768517 648.62576928 -265.78956109 646.86750922 -265.81091309 645.10925293 C-265.86691394 640.3700477 -265.91623209 635.63079487 -265.96382523 630.89149857 C-265.99381862 627.95026211 -266.02565614 625.00905123 -266.05807495 622.06784058 C-266.46270114 585.1713751 -266.55346341 548.27838301 -266.43139648 511.38012695 C-267.0663504 511.26226334 -267.70130432 511.14439972 -268.35549927 511.02296448 C-273.66759375 510.00436801 -278.77396458 508.77782355 -283.92358398 507.0949707 C-284.58776337 506.87825211 -285.25194275 506.66153351 -285.93624878 506.43824768 C-288.06256986 505.73989181 -290.18490262 505.0305045 -292.30639648 504.31762695 C-293.40304626 503.95072754 -293.40304626 503.95072754 -294.52185059 503.57641602 C-306.52073392 499.54423541 -318.09599132 495.04189974 -329.43139648 489.38012695 C-330.26461426 488.97358887 -331.09783203 488.56705078 -331.95629883 488.14819336 C-354.6623786 477.02225672 -375.48601065 462.8483669 -393.99780273 445.6262207 C-396.03544925 443.74556782 -398.11232254 441.96368099 -400.24389648 440.19262695 C-422.57853237 420.63842533 -439.84559068 394.5475703 -453.43139648 368.38012695 C-453.7762207 367.71787109 -454.12104492 367.05561523 -454.47631836 366.37329102 C-470.75370449 334.62762859 -479.60674915 299.69969061 -483.43139648 264.38012695 C-483.58390869 262.99748657 -483.58390869 262.99748657 -483.73950195 261.58691406 C-488.13218388 216.36421446 -482.15526278 170.23380517 -467.43139648 127.38012695 C-467.11976562 126.47004883 -466.80813477 125.5599707 -466.48706055 124.62231445 C-456.58913684 96.21684451 -442.40822342 69.47074842 -424.43139648 45.38012695 C-423.96733398 44.7576709 -423.50327148 44.13521484 -423.02514648 43.49389648 C-416.35358123 34.62137806 -409.14501192 26.35805817 -401.43139648 18.38012695 C-400.80007813 17.72689453 -400.16875977 17.07366211 -399.51831055 16.40063477 C-391.5520578 8.20291705 -383.55533292 0.29891763 -374.43139648 -6.61987305 C-373.79492188 -7.11632324 -373.15844727 -7.61277344 -372.50268555 -8.12426758 C-331.89760304 -39.74848319 -284.24893244 -57.89157164 -233.43139648 -64.61987305 C-232.62299316 -64.7370166 -231.81458984 -64.85416016 -230.98168945 -64.97485352 C-150.64757628 -76.43169992 -61.22843333 -54.05522775 0 0 Z M-300.68139648 130.69262695 C-329.47882402 163.73338404 -339.63463762 203.3333989 -337.43139648 246.38012695 C-336.78801266 253.55882579 -335.34339567 260.44127544 -333.43139648 267.38012695 C-333.14184082 268.48952637 -333.14184082 268.48952637 -332.84643555 269.62133789 C-324.79048767 299.68893973 -305.32503247 327.77032141 -280.43139648 346.38012695 C-279.47104492 347.10586914 -278.51069336 347.83161133 -277.52124023 348.5793457 C-246.15588634 371.3003922 -207.2966562 381.00107698 -168.83496094 375.55981445 C-165.33206166 374.96256238 -161.88119075 374.23074979 -158.43139648 373.38012695 C-157.73191895 373.20852051 -157.03244141 373.03691406 -156.31176758 372.86010742 C-117.74274917 363.05798805 -84.66884773 339.40751681 -64.18017578 305.11010742 C-62.52226543 302.23844945 -60.97022238 299.31699255 -59.43139648 296.38012695 C-58.82553711 295.23415039 -58.21967773 294.08817383 -57.59545898 292.9074707 C-40.37792461 259.01743754 -39.27369154 218.67603426 -50.51733398 182.8137207 C-58.14305519 160.23681473 -70.79869238 141.22955275 -87.43139648 124.38012695 C-87.97594482 123.81438965 -88.52049316 123.24865234 -89.08154297 122.66577148 C-114.14809791 96.94873083 -151.12129327 82.70748326 -186.71142578 82.02636719 C-230.96090575 81.76939471 -270.13077995 98.55183637 -300.68139648 130.69262695 Z " fill="#A56CFF" transform="translate(2440.431396484375,3485.619873046875)"/>
<path d="M0 0 C48.84 0 97.68 0 148 0 C148.1613254 69.15930113 148.1613254 69.15930113 148.1953125 98.08789062 C148.20314329 104.70874064 148.21122502 111.32959027 148.21972656 117.95043945 C148.22078156 118.78018715 148.22183655 119.60993484 148.22292352 120.46482641 C148.24029264 133.83812482 148.27181231 147.21135402 148.30861118 160.58461148 C148.34609575 174.32224035 148.3682517 188.05983313 148.37635398 201.79751104 C148.38182622 210.26568783 148.39907234 218.73366902 148.43166587 227.20178556 C148.45290669 233.01877225 148.45917855 238.8356587 148.45400551 244.6526813 C148.45145843 248.00251473 148.45742596 251.35173516 148.4768219 254.70155334 C148.61914945 280.56154193 148.61914945 280.56154193 144 293 C143.69138157 293.83170747 143.38276314 294.66341494 143.06479263 295.52032566 C142.29374344 297.48381033 141.43389698 299.35904539 140.5 301.25 C140.16307129 301.94488525 139.82614258 302.63977051 139.47900391 303.35571289 C123.08702015 336.17983895 95.87039786 367.42214987 68.0625 391.2109375 C66.64444849 392.44098976 65.24952322 393.69805377 63.875 394.9765625 C42.86412756 414.49679872 9.85165024 442.25583179 -20.39683527 442.24839699 C-21.11270889 442.25095317 -21.8285825 442.25350934 -22.56614926 442.25614297 C-24.96412972 442.26226657 -27.36184642 442.25414665 -29.75981808 442.24609566 C-31.50410317 442.24757524 -33.2483877 442.24993274 -34.99267057 442.25308865 C-39.80313599 442.25923447 -44.61351706 442.25287002 -49.42397622 442.24453239 C-54.65074077 442.23767139 -59.87749665 442.24240417 -65.10426289 442.24568737 C-74.27038748 442.24983846 -83.43648614 442.24654112 -92.60260773 442.23841095 C-106.23235398 442.22635516 -119.86208384 442.22573802 -133.49183445 442.22749493 C-156.41774917 442.23012465 -179.34364924 442.22344715 -202.26955986 442.21146011 C-224.97484835 442.19961679 -247.6801321 442.19191026 -270.38542366 442.18975449 C-271.09046019 442.18968566 -271.79549672 442.18961684 -272.521898 442.18954593 C-278.96128357 442.18891953 -285.40066915 442.18834415 -291.84005473 442.18782998 C-307.847927 442.18655116 -323.85579916 442.18463249 -339.8636713 442.18227959 C-340.59264916 442.18217295 -341.32162702 442.18206632 -342.07269512 442.18195645 C-377.53666507 442.17671291 -413.00063189 442.16409759 -448.46459961 442.15087891 C-460.77199298 442.1462956 -473.07938636 442.14174488 -485.38677979 442.1373291 C-486.53173231 442.13691825 -486.53173231 442.13691825 -487.69981518 442.13649911 C-523.18122076 442.12381185 -558.66262687 442.11636006 -594.14403413 442.11025951 C-596.44740416 442.10986338 -598.75077418 442.109465 -601.05414421 442.10906615 C-616.31864798 442.1064266 -631.58315177 442.1038773 -646.84765557 442.10138843 C-677.22044662 442.09643538 -707.59323758 442.09095201 -737.96602848 442.08510434 C-739.41247266 442.08482586 -740.85891685 442.08454775 -742.30536103 442.08427001 C-817.02829323 442.06991866 -891.75122222 442.04711074 -966.47415161 442.0222168 C-967.51532303 442.02186999 -968.55649446 442.02152318 -969.62921653 442.02116586 C-990.08614443 442.01433654 -1010.5430722 442.00713248 -1031 442 C-1031 393.16 -1031 344.32 -1031 294 C-1018.71154846 294.00079559 -1006.42309692 294.00159119 -993.76226807 294.00241089 C-985.42512512 294.00274542 -977.08798219 294.00305238 -968.75083923 294.00318909 C-967.12631477 294.00321601 -967.12631477 294.00321601 -965.46897163 294.00324347 C-893.76582793 294.00432171 -822.06269548 293.99828149 -750.35955811 293.9680481 C-748.96146182 293.96746082 -747.56336554 293.96687355 -746.16526926 293.96628629 C-716.81857891 293.95393268 -687.47188924 293.94034558 -658.12520013 293.92533366 C-643.38329062 293.91779394 -628.641381 293.91049124 -613.89947126 293.90341264 C-611.67571587 293.90234348 -609.45196049 293.90126756 -607.22820511 293.90019136 C-572.98727971 293.88367987 -538.74636188 293.87225012 -504.50543213 293.87554932 C-503.76927441 293.87562015 -503.0331167 293.87569098 -502.27465118 293.87576396 C-490.40568052 293.87693688 -478.53670992 293.87853645 -466.66773933 293.88019265 C-432.479607 293.88495678 -398.29148769 293.88656373 -364.10335922 293.86729622 C-363.04867868 293.86670413 -363.04867868 293.86670413 -361.97269147 293.86610009 C-346.53712131 293.85737809 -331.10155268 293.8470337 -315.66598464 293.83515338 C-309.45513644 293.83040165 -303.24428807 293.82588344 -297.03343964 293.82144547 C-296.01381719 293.82070844 -296.01381719 293.82070844 -294.97359631 293.81995653 C-273.07565151 293.80424398 -251.17776023 293.80753761 -229.27981534 293.82081068 C-206.60554957 293.83446481 -183.93136413 293.82696372 -161.25711176 293.79483847 C-148.18212432 293.77697683 -135.1073837 293.77588045 -122.03240252 293.79862334 C-113.30164846 293.81216931 -104.57108956 293.80402787 -95.84036371 293.77817133 C-90.86347064 293.76405523 -85.88706746 293.75944538 -80.91019109 293.78125392 C-76.38003719 293.80091923 -71.85079972 293.79287597 -67.3207095 293.76297925 C-65.69438734 293.75705743 -64.06798929 293.76111965 -62.44172954 293.77654973 C-43.73113092 293.94157271 -32.56257097 285.35064153 -19.375 272.75 C-8.49847411 261.62451214 -0.34640797 249.49690257 -0.48101807 233.53427124 C-0.47351681 232.52934022 -0.46601556 231.52440919 -0.458287 230.48902571 C-0.43811334 227.14790558 -0.44609244 223.80747077 -0.45410156 220.46630859 C-0.44536098 218.06091647 -0.43487351 215.65553016 -0.42277527 213.25015259 C-0.39783801 207.41341322 -0.3910271 201.57685849 -0.3923355 195.74007063 C-0.39287139 188.94392217 -0.37086385 182.14790202 -0.34752855 175.3518004 C-0.3065128 163.23372886 -0.28315126 151.11569093 -0.27099609 138.99755859 C-0.25915578 127.23124964 -0.23889087 115.46500422 -0.20751953 103.69873047 C-0.20557402 102.9651397 -0.2036285 102.23154894 -0.20162404 101.47572815 C-0.18462606 95.09378191 -0.16699307 88.71183745 -0.14929771 82.32989311 C-0.07402726 54.88660016 -0.04043527 27.44341759 0 0 Z " fill="#A56CFF" transform="translate(1072,3862)"/>
<path d="M0 0 C48.84 0 97.68 0 148 0 C147.99097656 17.59570312 147.98195313 35.19140625 147.97265625 53.3203125 C147.982494 64.46747058 147.99409627 75.61458056 148.01367188 86.76171875 C148.02388954 92.61897706 148.03367153 98.47623586 148.04272461 104.33349609 C148.0438773 105.06754162 148.04503 105.80158714 148.04621762 106.55787647 C148.06415827 118.38662755 148.05753429 130.21524257 148.04173584 142.04399122 C148.0260558 154.19630268 148.0370088 166.34838294 148.07234758 178.5006541 C148.09329981 185.99085123 148.09382788 193.4804647 148.06768017 200.97064792 C148.04981533 206.72789751 148.0691237 212.4845751 148.10184479 218.24173737 C148.10950296 220.59340752 148.10536771 222.94515215 148.08818626 225.296772 C147.97191313 242.53985369 150.0757897 254.60284037 162.125 267.6875 C162.95523682 268.61357056 162.95523682 268.61357056 163.80224609 269.55834961 C172.33645319 278.87222798 181.52709809 286.52477177 193 292 C193.66 292.33 194.32 292.66 195 293 C197.1820429 293.09797127 199.36718144 293.12866577 201.55142176 293.13061053 C202.23659999 293.13258304 202.92177822 293.13455555 203.62771943 293.13658784 C205.95115454 293.14203687 208.27453078 293.14029954 210.59797096 293.1386652 C212.27673832 293.1411104 213.9555051 293.14399359 215.63427103 293.14727798 C220.28610815 293.15509109 224.93793012 293.15662179 229.589773 293.1572054 C234.63592132 293.15892695 239.68206148 293.16640804 244.72820508 293.17318195 C253.58494951 293.18426685 262.44169105 293.19162157 271.29844093 293.19658089 C284.46824124 293.20397195 297.63803152 293.21705156 310.80782594 293.23132664 C332.95823184 293.25517343 355.10863995 293.27436956 377.25905228 293.29092598 C399.2009264 293.30734065 421.14279721 293.3258142 443.08466721 293.34705925 C444.10610773 293.34804684 444.10610773 293.34804684 445.14818342 293.34905439 C451.36753674 293.35506874 457.58689003 293.36110855 463.8062433 293.36717889 C479.26814902 293.38227003 494.73005505 293.39704192 510.19196129 293.41159725 C510.89612981 293.41226039 511.60029834 293.41292353 512.32580531 293.41360676 C546.59513109 293.44585137 580.86445981 293.47441815 615.13378906 293.50268555 C627.02878828 293.5124993 638.92378748 293.52232929 650.81878662 293.53222656 C651.55649691 293.53284036 652.29420719 293.53345416 653.05427233 293.53408656 C687.3366031 293.56263277 721.61893136 293.59378849 755.90125921 293.62561907 C758.12638335 293.62768502 760.3515075 293.62974984 762.57663164 293.63181442 C777.32241456 293.64549815 792.06819744 293.65922688 806.81398029 293.67298577 C836.15543679 293.70036307 865.49689352 293.72747585 894.83835042 293.75440695 C896.23572601 293.75568953 897.6331016 293.7569723 899.03047719 293.75825526 C971.23356718 293.82454446 1043.43666064 293.88661524 1115.63975525 293.94764709 C1116.6459553 293.94849764 1117.65215535 293.94934819 1118.68884631 293.95022452 C1138.45923078 293.96692901 1158.2296154 293.98344666 1178 294 C1178 342.84 1178 391.68 1178 442 C1131.62666247 442.04052457 1131.62666247 442.04052457 1113.6375885 442.05554199 C1112.5177832 442.05647697 1111.3979779 442.05741195 1110.2442391 442.05837526 C1036.09768608 442.12019192 961.95113581 442.17605697 887.80456543 442.2117157 C886.35861173 442.21241295 884.91265802 442.21311021 883.46670432 442.21380747 C853.11467296 442.22842141 822.76264122 442.24200493 792.41060887 442.25439839 C777.16341003 442.26062529 761.91621128 442.26705015 746.66901261 442.27366221 C744.36905352 442.27465845 742.06909444 442.27564904 739.76913535 442.2766394 C704.35981672 442.29193638 668.9505067 442.31147487 633.54119873 442.34332275 C632.39950499 442.34434949 632.39950499 442.34434949 631.23474673 442.34539698 C618.96336475 442.35645861 606.69198311 442.36787674 594.4206015 442.3793422 C559.06822742 442.41236737 523.71585996 442.44274934 488.36347198 442.45569897 C487.27260004 442.45610048 487.27260004 442.45610048 486.15969028 442.4565101 C470.19346142 442.46233941 454.22723248 442.46681345 438.26100289 442.47000491 C431.83638084 442.47131299 425.41175883 442.4728161 418.98713684 442.47438622 C418.28399725 442.47455335 417.58085765 442.47472049 416.85641079 442.47489269 C394.21456307 442.48037161 371.57276452 442.50171571 348.93093663 442.53141104 C325.48105844 442.56209132 302.0312479 442.57506681 278.58134437 442.56750689 C265.06285529 442.56370192 251.54454433 442.57386126 238.02608739 442.60398772 C228.99463083 442.62274082 219.96329087 442.62331572 210.93182625 442.60915907 C205.78648915 442.60161278 200.64148882 442.60192327 195.49618787 442.62441591 C190.80859295 442.64475163 186.12159546 442.64175205 181.43400899 442.62069988 C179.75512557 442.61714969 178.07619734 442.6218543 176.39737125 442.63617622 C161.38025548 442.75608936 148.47133844 439.5539051 135.25 432.1875 C134.45198975 431.75445557 133.65397949 431.32141113 132.83178711 430.87524414 C117.74019206 422.57005868 104.19295483 412.02051915 91 401 C90.49058365 400.57600922 89.9811673 400.15201843 89.45631409 399.71517944 C80.88835046 392.56244616 72.7649697 385.0841265 64.90258789 377.16333008 C63.17751523 375.42745269 61.44188009 373.7026491 59.70507812 371.97851562 C53.00971999 365.29105912 46.88899731 358.41472373 41 351 C40.04226778 349.87429768 39.07742854 348.75455026 38.1015625 347.64453125 C19.43745076 326.30150126 -0.60223944 298.33719243 -0.36076355 269.00935364 C-0.36332682 267.85247675 -0.3658901 266.69559986 -0.36853105 265.5036661 C-0.37344477 261.6543987 -0.35701544 257.80552967 -0.34057617 253.95629883 C-0.33805506 251.18623611 -0.34007419 248.41618097 -0.34190369 245.64611816 C-0.34347139 239.6963424 -0.33411506 233.74666586 -0.31719017 227.79691505 C-0.29273615 219.19475122 -0.28498838 210.59263503 -0.2812262 201.99044021 C-0.27467172 188.03160422 -0.25473789 174.07282102 -0.22631836 160.11401367 C-0.19875174 146.55997984 -0.17756535 133.00596047 -0.16479492 119.4519043 C-0.16399093 118.60693392 -0.16318694 117.76196354 -0.16235858 116.891388 C-0.15611976 110.28247525 -0.15024918 103.67356218 -0.14449489 97.06464899 C-0.11622974 64.70971751 -0.05586639 32.35491833 0 0 Z " fill="#A56CFF" transform="translate(3280,3862)"/>
<path d="M0 0 C49.17 0 98.34 0 149 0 C149 49.17 149 98.34 149 149 C99.83 149 50.66 149 0 149 C0 99.83 0 50.66 0 0 Z " fill="#A56CFF" transform="translate(3279,3567)"/>
<path d="M0 0 C49.17 0 98.34 0 149 0 C149 49.17 149 98.34 149 149 C99.83 149 50.66 149 0 149 C0 99.83 0 50.66 0 0 Z " fill="#A56CFF" transform="translate(1071,3567)"/>
<path d="M0 0 C49.17 0 98.34 0 149 0 C149 48.84 149 97.68 149 148 C99.83 148 50.66 148 0 148 C0 99.16 0 50.32 0 0 Z " fill="#A56CFF" transform="translate(1660,4009)"/>
<path d="M0 0 C49.17 0 98.34 0 149 0 C149 48.84 149 97.68 149 148 C99.83 148 50.66 148 0 148 C0 99.16 0 50.32 0 0 Z " fill="#A56CFF" transform="translate(1660,3273)"/>
<path d="M0 0 C48.84 0 97.68 0 148 0 C148 48.84 148 97.68 148 148 C99.16 148 50.32 148 0 148 C0 99.16 0 50.32 0 0 Z " fill="#A56CFF" transform="translate(2691,4009)"/>
<path d="M0 0 C48.84 0 97.68 0 148 0 C148 48.84 148 97.68 148 148 C99.16 148 50.32 148 0 148 C0 99.16 0 50.32 0 0 Z " fill="#A56CFF" transform="translate(2691,3273)"/>
</svg>
